<?xml version="1.0" encoding="utf-8" standalone="no"?>
<!DOCTYPE svg PUBLIC "-//W3C//DTD SVG 1.1//EN"
  "http://www.w3.org/Graphics/SVG/1.1/DTD/svg11.dtd">
<svg xmlns:xlink="http://www.w3.org/1999/xlink" width="430.550937pt" height="425.0475pt" viewBox="0 0 430.550937 425.0475" xmlns="http://www.w3.org/2000/svg" version="1.1">
 <metadata>
  <rdf:RDF xmlns:dc="http://purl.org/dc/elements/1.1/" xmlns:cc="http://creativecommons.org/ns#" xmlns:rdf="http://www.w3.org/1999/02/22-rdf-syntax-ns#">
   <cc:Work>
    <dc:type rdf:resource="http://purl.org/dc/dcmitype/StillImage"/>
    <dc:date>2026-02-14T06:49:53.431384</dc:date>
    <dc:format>image/svg+xml</dc:format>
    <dc:creator>
     <cc:Agent>
      <dc:title>Matplotlib v3.10.8, https://matplotlib.org/</dc:title>
     </cc:Agent>
    </dc:creator>
   </cc:Work>
  </rdf:RDF>
 </metadata>
 <defs>
  <style type="text/css">*{stroke-linejoin: round; stroke-linecap: butt}</style>
 </defs>
 <g id="figure_1">
  <g id="patch_1">
   <path d="M 0 425.0475 
L 430.550937 425.0475 
L 430.550937 0 
L 0 0 
L 0 425.0475 
z
" style="fill: none"/>
  </g>
  <g id="axes_1">
   <g id="patch_2">
    <path d="M 50.903125 395.209375 
L 417.833125 395.209375 
L 417.833125 41.759375 
L 50.903125 41.759375 
L 50.903125 395.209375 
z
" style="fill: none"/>
   </g>
   <g id="matplotlib.axis_1">
    <g id="xtick_1">
     <g id="line2d_1">
      <defs>
       <path id="mf4838df349" d="M 0 0 
L 0 6 
" style="stroke: #262626; stroke-width: 2"/>
      </defs>
      <g>
       <use xlink:href="#mf4838df349" x="142.635625" y="395.209375" style="fill: #262626; stroke: #262626; stroke-width: 2"/>
      </g>
     </g>
     <g id="text_1">
      <!-- Mutational Scanning -->
      <g style="fill: #262626" transform="translate(79.209063 414.900937) scale(0.14 -0.14)">
       <defs>
        <path id="ArialMT-4d" d="M 475 0 
L 475 4581 
L 1388 4581 
L 2472 1338 
Q 2622 884 2691 659 
Q 2769 909 2934 1394 
L 4031 4581 
L 4847 4581 
L 4847 0 
L 4263 0 
L 4263 3834 
L 2931 0 
L 2384 0 
L 1059 3900 
L 1059 0 
L 475 0 
z
" transform="scale(0.015625)"/>
        <path id="ArialMT-75" d="M 2597 0 
L 2597 488 
Q 2209 -75 1544 -75 
Q 1250 -75 995 37 
Q 741 150 617 320 
Q 494 491 444 738 
Q 409 903 409 1263 
L 409 3319 
L 972 3319 
L 972 1478 
Q 972 1038 1006 884 
Q 1059 663 1231 536 
Q 1403 409 1656 409 
Q 1909 409 2131 539 
Q 2353 669 2445 892 
Q 2538 1116 2538 1541 
L 2538 3319 
L 3100 3319 
L 3100 0 
L 2597 0 
z
" transform="scale(0.015625)"/>
        <path id="ArialMT-74" d="M 1650 503 
L 1731 6 
Q 1494 -44 1306 -44 
Q 1000 -44 831 53 
Q 663 150 594 308 
Q 525 466 525 972 
L 525 2881 
L 113 2881 
L 113 3319 
L 525 3319 
L 525 4141 
L 1084 4478 
L 1084 3319 
L 1650 3319 
L 1650 2881 
L 1084 2881 
L 1084 941 
Q 1084 700 1114 631 
Q 1144 563 1211 522 
Q 1278 481 1403 481 
Q 1497 481 1650 503 
z
" transform="scale(0.015625)"/>
        <path id="ArialMT-61" d="M 2588 409 
Q 2275 144 1986 34 
Q 1697 -75 1366 -75 
Q 819 -75 525 192 
Q 231 459 231 875 
Q 231 1119 342 1320 
Q 453 1522 633 1644 
Q 813 1766 1038 1828 
Q 1203 1872 1538 1913 
Q 2219 1994 2541 2106 
Q 2544 2222 2544 2253 
Q 2544 2597 2384 2738 
Q 2169 2928 1744 2928 
Q 1347 2928 1158 2789 
Q 969 2650 878 2297 
L 328 2372 
Q 403 2725 575 2942 
Q 747 3159 1072 3276 
Q 1397 3394 1825 3394 
Q 2250 3394 2515 3294 
Q 2781 3194 2906 3042 
Q 3031 2891 3081 2659 
Q 3109 2516 3109 2141 
L 3109 1391 
Q 3109 606 3145 398 
Q 3181 191 3288 0 
L 2700 0 
Q 2613 175 2588 409 
z
M 2541 1666 
Q 2234 1541 1622 1453 
Q 1275 1403 1131 1340 
Q 988 1278 909 1158 
Q 831 1038 831 891 
Q 831 666 1001 516 
Q 1172 366 1500 366 
Q 1825 366 2078 508 
Q 2331 650 2450 897 
Q 2541 1088 2541 1459 
L 2541 1666 
z
" transform="scale(0.015625)"/>
        <path id="ArialMT-69" d="M 425 3934 
L 425 4581 
L 988 4581 
L 988 3934 
L 425 3934 
z
M 425 0 
L 425 3319 
L 988 3319 
L 988 0 
L 425 0 
z
" transform="scale(0.015625)"/>
        <path id="ArialMT-6f" d="M 213 1659 
Q 213 2581 725 3025 
Q 1153 3394 1769 3394 
Q 2453 3394 2887 2945 
Q 3322 2497 3322 1706 
Q 3322 1066 3130 698 
Q 2938 331 2570 128 
Q 2203 -75 1769 -75 
Q 1072 -75 642 372 
Q 213 819 213 1659 
z
M 791 1659 
Q 791 1022 1069 705 
Q 1347 388 1769 388 
Q 2188 388 2466 706 
Q 2744 1025 2744 1678 
Q 2744 2294 2464 2611 
Q 2184 2928 1769 2928 
Q 1347 2928 1069 2612 
Q 791 2297 791 1659 
z
" transform="scale(0.015625)"/>
        <path id="ArialMT-6e" d="M 422 0 
L 422 3319 
L 928 3319 
L 928 2847 
Q 1294 3394 1984 3394 
Q 2284 3394 2536 3286 
Q 2788 3178 2913 3003 
Q 3038 2828 3088 2588 
Q 3119 2431 3119 2041 
L 3119 0 
L 2556 0 
L 2556 2019 
Q 2556 2363 2490 2533 
Q 2425 2703 2258 2804 
Q 2091 2906 1866 2906 
Q 1506 2906 1245 2678 
Q 984 2450 984 1813 
L 984 0 
L 422 0 
z
" transform="scale(0.015625)"/>
        <path id="ArialMT-6c" d="M 409 0 
L 409 4581 
L 972 4581 
L 972 0 
L 409 0 
z
" transform="scale(0.015625)"/>
        <path id="ArialMT-20" transform="scale(0.015625)"/>
        <path id="ArialMT-53" d="M 288 1472 
L 859 1522 
Q 900 1178 1048 958 
Q 1197 738 1509 602 
Q 1822 466 2213 466 
Q 2559 466 2825 569 
Q 3091 672 3220 851 
Q 3350 1031 3350 1244 
Q 3350 1459 3225 1620 
Q 3100 1781 2813 1891 
Q 2628 1963 1997 2114 
Q 1366 2266 1113 2400 
Q 784 2572 623 2826 
Q 463 3081 463 3397 
Q 463 3744 659 4045 
Q 856 4347 1234 4503 
Q 1613 4659 2075 4659 
Q 2584 4659 2973 4495 
Q 3363 4331 3572 4012 
Q 3781 3694 3797 3291 
L 3216 3247 
Q 3169 3681 2898 3903 
Q 2628 4125 2100 4125 
Q 1550 4125 1298 3923 
Q 1047 3722 1047 3438 
Q 1047 3191 1225 3031 
Q 1400 2872 2139 2705 
Q 2878 2538 3153 2413 
Q 3553 2228 3743 1945 
Q 3934 1663 3934 1294 
Q 3934 928 3725 604 
Q 3516 281 3123 101 
Q 2731 -78 2241 -78 
Q 1619 -78 1198 103 
Q 778 284 539 648 
Q 300 1013 288 1472 
z
" transform="scale(0.015625)"/>
        <path id="ArialMT-63" d="M 2588 1216 
L 3141 1144 
Q 3050 572 2676 248 
Q 2303 -75 1759 -75 
Q 1078 -75 664 370 
Q 250 816 250 1647 
Q 250 2184 428 2587 
Q 606 2991 970 3192 
Q 1334 3394 1763 3394 
Q 2303 3394 2647 3120 
Q 2991 2847 3088 2344 
L 2541 2259 
Q 2463 2594 2264 2762 
Q 2066 2931 1784 2931 
Q 1359 2931 1093 2626 
Q 828 2322 828 1663 
Q 828 994 1084 691 
Q 1341 388 1753 388 
Q 2084 388 2306 591 
Q 2528 794 2588 1216 
z
" transform="scale(0.015625)"/>
        <path id="ArialMT-67" d="M 319 -275 
L 866 -356 
Q 900 -609 1056 -725 
Q 1266 -881 1628 -881 
Q 2019 -881 2231 -725 
Q 2444 -569 2519 -288 
Q 2563 -116 2559 434 
Q 2191 0 1641 0 
Q 956 0 581 494 
Q 206 988 206 1678 
Q 206 2153 378 2554 
Q 550 2956 876 3175 
Q 1203 3394 1644 3394 
Q 2231 3394 2613 2919 
L 2613 3319 
L 3131 3319 
L 3131 450 
Q 3131 -325 2973 -648 
Q 2816 -972 2473 -1159 
Q 2131 -1347 1631 -1347 
Q 1038 -1347 672 -1080 
Q 306 -813 319 -275 
z
M 784 1719 
Q 784 1066 1043 766 
Q 1303 466 1694 466 
Q 2081 466 2343 764 
Q 2606 1063 2606 1700 
Q 2606 2309 2336 2618 
Q 2066 2928 1684 2928 
Q 1309 2928 1046 2623 
Q 784 2319 784 1719 
z
" transform="scale(0.015625)"/>
       </defs>
       <use xlink:href="#ArialMT-4d"/>
       <use xlink:href="#ArialMT-75" transform="translate(83.300781 0)"/>
       <use xlink:href="#ArialMT-74" transform="translate(138.916016 0)"/>
       <use xlink:href="#ArialMT-61" transform="translate(166.699219 0)"/>
       <use xlink:href="#ArialMT-74" transform="translate(222.314453 0)"/>
       <use xlink:href="#ArialMT-69" transform="translate(250.097656 0)"/>
       <use xlink:href="#ArialMT-6f" transform="translate(272.314453 0)"/>
       <use xlink:href="#ArialMT-6e" transform="translate(327.929688 0)"/>
       <use xlink:href="#ArialMT-61" transform="translate(383.544922 0)"/>
       <use xlink:href="#ArialMT-6c" transform="translate(439.160156 0)"/>
       <use xlink:href="#ArialMT-20" transform="translate(461.376953 0)"/>
       <use xlink:href="#ArialMT-53" transform="translate(489.160156 0)"/>
       <use xlink:href="#ArialMT-63" transform="translate(555.859375 0)"/>
       <use xlink:href="#ArialMT-61" transform="translate(605.859375 0)"/>
       <use xlink:href="#ArialMT-6e" transform="translate(661.474609 0)"/>
       <use xlink:href="#ArialMT-6e" transform="translate(717.089844 0)"/>
       <use xlink:href="#ArialMT-69" transform="translate(772.705078 0)"/>
       <use xlink:href="#ArialMT-6e" transform="translate(794.921875 0)"/>
       <use xlink:href="#ArialMT-67" transform="translate(850.537109 0)"/>
      </g>
     </g>
    </g>
    <g id="xtick_2">
     <g id="line2d_2">
      <g>
       <use xlink:href="#mf4838df349" x="326.100625" y="395.209375" style="fill: #262626; stroke: #262626; stroke-width: 2"/>
      </g>
     </g>
     <g id="text_2">
      <!-- Generative Design -->
      <g style="fill: #262626" transform="translate(268.128594 414.900937) scale(0.14 -0.14)">
       <defs>
        <path id="ArialMT-47" d="M 2638 1797 
L 2638 2334 
L 4578 2338 
L 4578 638 
Q 4131 281 3656 101 
Q 3181 -78 2681 -78 
Q 2006 -78 1454 211 
Q 903 500 622 1047 
Q 341 1594 341 2269 
Q 341 2938 620 3517 
Q 900 4097 1425 4378 
Q 1950 4659 2634 4659 
Q 3131 4659 3532 4498 
Q 3934 4338 4162 4050 
Q 4391 3763 4509 3300 
L 3963 3150 
Q 3859 3500 3706 3700 
Q 3553 3900 3268 4020 
Q 2984 4141 2638 4141 
Q 2222 4141 1919 4014 
Q 1616 3888 1430 3681 
Q 1244 3475 1141 3228 
Q 966 2803 966 2306 
Q 966 1694 1177 1281 
Q 1388 869 1791 669 
Q 2194 469 2647 469 
Q 3041 469 3416 620 
Q 3791 772 3984 944 
L 3984 1797 
L 2638 1797 
z
" transform="scale(0.015625)"/>
        <path id="ArialMT-65" d="M 2694 1069 
L 3275 997 
Q 3138 488 2766 206 
Q 2394 -75 1816 -75 
Q 1088 -75 661 373 
Q 234 822 234 1631 
Q 234 2469 665 2931 
Q 1097 3394 1784 3394 
Q 2450 3394 2872 2941 
Q 3294 2488 3294 1666 
Q 3294 1616 3291 1516 
L 816 1516 
Q 847 969 1125 678 
Q 1403 388 1819 388 
Q 2128 388 2347 550 
Q 2566 713 2694 1069 
z
M 847 1978 
L 2700 1978 
Q 2663 2397 2488 2606 
Q 2219 2931 1791 2931 
Q 1403 2931 1139 2672 
Q 875 2413 847 1978 
z
" transform="scale(0.015625)"/>
        <path id="ArialMT-72" d="M 416 0 
L 416 3319 
L 922 3319 
L 922 2816 
Q 1116 3169 1280 3281 
Q 1444 3394 1641 3394 
Q 1925 3394 2219 3213 
L 2025 2691 
Q 1819 2813 1613 2813 
Q 1428 2813 1281 2702 
Q 1134 2591 1072 2394 
Q 978 2094 978 1738 
L 978 0 
L 416 0 
z
" transform="scale(0.015625)"/>
        <path id="ArialMT-76" d="M 1344 0 
L 81 3319 
L 675 3319 
L 1388 1331 
Q 1503 1009 1600 663 
Q 1675 925 1809 1294 
L 2547 3319 
L 3125 3319 
L 1869 0 
L 1344 0 
z
" transform="scale(0.015625)"/>
        <path id="ArialMT-44" d="M 494 0 
L 494 4581 
L 2072 4581 
Q 2606 4581 2888 4516 
Q 3281 4425 3559 4188 
Q 3922 3881 4101 3404 
Q 4281 2928 4281 2316 
Q 4281 1794 4159 1391 
Q 4038 988 3847 723 
Q 3656 459 3429 307 
Q 3203 156 2883 78 
Q 2563 0 2147 0 
L 494 0 
z
M 1100 541 
L 2078 541 
Q 2531 541 2789 625 
Q 3047 709 3200 863 
Q 3416 1078 3536 1442 
Q 3656 1806 3656 2325 
Q 3656 3044 3420 3430 
Q 3184 3816 2847 3947 
Q 2603 4041 2063 4041 
L 1100 4041 
L 1100 541 
z
" transform="scale(0.015625)"/>
        <path id="ArialMT-73" d="M 197 991 
L 753 1078 
Q 800 744 1014 566 
Q 1228 388 1613 388 
Q 2000 388 2187 545 
Q 2375 703 2375 916 
Q 2375 1106 2209 1216 
Q 2094 1291 1634 1406 
Q 1016 1563 777 1677 
Q 538 1791 414 1992 
Q 291 2194 291 2438 
Q 291 2659 392 2848 
Q 494 3038 669 3163 
Q 800 3259 1026 3326 
Q 1253 3394 1513 3394 
Q 1903 3394 2198 3281 
Q 2494 3169 2634 2976 
Q 2775 2784 2828 2463 
L 2278 2388 
Q 2241 2644 2061 2787 
Q 1881 2931 1553 2931 
Q 1166 2931 1000 2803 
Q 834 2675 834 2503 
Q 834 2394 903 2306 
Q 972 2216 1119 2156 
Q 1203 2125 1616 2013 
Q 2213 1853 2448 1751 
Q 2684 1650 2818 1456 
Q 2953 1263 2953 975 
Q 2953 694 2789 445 
Q 2625 197 2315 61 
Q 2006 -75 1616 -75 
Q 969 -75 630 194 
Q 291 463 197 991 
z
" transform="scale(0.015625)"/>
       </defs>
       <use xlink:href="#ArialMT-47"/>
       <use xlink:href="#ArialMT-65" transform="translate(77.783203 0)"/>
       <use xlink:href="#ArialMT-6e" transform="translate(133.398438 0)"/>
       <use xlink:href="#ArialMT-65" transform="translate(189.013672 0)"/>
       <use xlink:href="#ArialMT-72" transform="translate(244.628906 0)"/>
       <use xlink:href="#ArialMT-61" transform="translate(277.929688 0)"/>
       <use xlink:href="#ArialMT-74" transform="translate(333.544922 0)"/>
       <use xlink:href="#ArialMT-69" transform="translate(361.328125 0)"/>
       <use xlink:href="#ArialMT-76" transform="translate(383.544922 0)"/>
       <use xlink:href="#ArialMT-65" transform="translate(433.544922 0)"/>
       <use xlink:href="#ArialMT-20" transform="translate(489.160156 0)"/>
       <use xlink:href="#ArialMT-44" transform="translate(516.943359 0)"/>
       <use xlink:href="#ArialMT-65" transform="translate(589.160156 0)"/>
       <use xlink:href="#ArialMT-73" transform="translate(644.775391 0)"/>
       <use xlink:href="#ArialMT-69" transform="translate(694.775391 0)"/>
       <use xlink:href="#ArialMT-67" transform="translate(716.992188 0)"/>
       <use xlink:href="#ArialMT-6e" transform="translate(772.607422 0)"/>
      </g>
     </g>
    </g>
   </g>
   <g id="matplotlib.axis_2">
    <g id="ytick_1">
     <g id="line2d_3">
      <defs>
       <path id="m3d75dc99b7" d="M 0 0 
L -6 0 
" style="stroke: #262626; stroke-width: 2"/>
      </defs>
      <g>
       <use xlink:href="#m3d75dc99b7" x="50.903125" y="379.143466" style="fill: #262626; stroke: #262626; stroke-width: 2"/>
      </g>
     </g>
     <g id="text_3">
      <!-- 2 -->
      <g style="fill: #262626" transform="translate(33.617812 384.153935) scale(0.14 -0.14)">
       <defs>
        <path id="ArialMT-32" d="M 3222 541 
L 3222 0 
L 194 0 
Q 188 203 259 391 
Q 375 700 629 1000 
Q 884 1300 1366 1694 
Q 2113 2306 2375 2664 
Q 2638 3022 2638 3341 
Q 2638 3675 2398 3904 
Q 2159 4134 1775 4134 
Q 1369 4134 1125 3890 
Q 881 3647 878 3216 
L 300 3275 
Q 359 3922 746 4261 
Q 1134 4600 1788 4600 
Q 2447 4600 2831 4234 
Q 3216 3869 3216 3328 
Q 3216 3053 3103 2787 
Q 2991 2522 2730 2228 
Q 2469 1934 1863 1422 
Q 1356 997 1212 845 
Q 1069 694 975 541 
L 3222 541 
z
" transform="scale(0.015625)"/>
       </defs>
       <use xlink:href="#ArialMT-32"/>
      </g>
     </g>
    </g>
    <g id="ytick_2">
     <g id="line2d_4">
      <g>
       <use xlink:href="#m3d75dc99b7" x="50.903125" y="320.721978" style="fill: #262626; stroke: #262626; stroke-width: 2"/>
      </g>
     </g>
     <g id="text_4">
      <!-- 4 -->
      <g style="fill: #262626" transform="translate(33.617812 325.732447) scale(0.14 -0.14)">
       <defs>
        <path id="ArialMT-34" d="M 2069 0 
L 2069 1097 
L 81 1097 
L 81 1613 
L 2172 4581 
L 2631 4581 
L 2631 1613 
L 3250 1613 
L 3250 1097 
L 2631 1097 
L 2631 0 
L 2069 0 
z
M 2069 1613 
L 2069 3678 
L 634 1613 
L 2069 1613 
z
" transform="scale(0.015625)"/>
       </defs>
       <use xlink:href="#ArialMT-34"/>
      </g>
     </g>
    </g>
    <g id="ytick_3">
     <g id="line2d_5">
      <g>
       <use xlink:href="#m3d75dc99b7" x="50.903125" y="262.300491" style="fill: #262626; stroke: #262626; stroke-width: 2"/>
      </g>
     </g>
     <g id="text_5">
      <!-- 6 -->
      <g style="fill: #262626" transform="translate(33.617812 267.310959) scale(0.14 -0.14)">
       <defs>
        <path id="ArialMT-36" d="M 3184 3459 
L 2625 3416 
Q 2550 3747 2413 3897 
Q 2184 4138 1850 4138 
Q 1581 4138 1378 3988 
Q 1113 3794 959 3422 
Q 806 3050 800 2363 
Q 1003 2672 1297 2822 
Q 1591 2972 1913 2972 
Q 2475 2972 2870 2558 
Q 3266 2144 3266 1488 
Q 3266 1056 3080 686 
Q 2894 316 2569 119 
Q 2244 -78 1831 -78 
Q 1128 -78 684 439 
Q 241 956 241 2144 
Q 241 3472 731 4075 
Q 1159 4600 1884 4600 
Q 2425 4600 2770 4297 
Q 3116 3994 3184 3459 
z
M 888 1484 
Q 888 1194 1011 928 
Q 1134 663 1356 523 
Q 1578 384 1822 384 
Q 2178 384 2434 671 
Q 2691 959 2691 1453 
Q 2691 1928 2437 2201 
Q 2184 2475 1800 2475 
Q 1419 2475 1153 2201 
Q 888 1928 888 1484 
z
" transform="scale(0.015625)"/>
       </defs>
       <use xlink:href="#ArialMT-36"/>
      </g>
     </g>
    </g>
    <g id="ytick_4">
     <g id="line2d_6">
      <g>
       <use xlink:href="#m3d75dc99b7" x="50.903125" y="203.879003" style="fill: #262626; stroke: #262626; stroke-width: 2"/>
      </g>
     </g>
     <g id="text_6">
      <!-- 8 -->
      <g style="fill: #262626" transform="translate(33.617812 208.889472) scale(0.14 -0.14)">
       <defs>
        <path id="ArialMT-38" d="M 1131 2484 
Q 781 2613 612 2850 
Q 444 3088 444 3419 
Q 444 3919 803 4259 
Q 1163 4600 1759 4600 
Q 2359 4600 2725 4251 
Q 3091 3903 3091 3403 
Q 3091 3084 2923 2848 
Q 2756 2613 2416 2484 
Q 2838 2347 3058 2040 
Q 3278 1734 3278 1309 
Q 3278 722 2862 322 
Q 2447 -78 1769 -78 
Q 1091 -78 675 323 
Q 259 725 259 1325 
Q 259 1772 486 2073 
Q 713 2375 1131 2484 
z
M 1019 3438 
Q 1019 3113 1228 2906 
Q 1438 2700 1772 2700 
Q 2097 2700 2305 2904 
Q 2513 3109 2513 3406 
Q 2513 3716 2298 3927 
Q 2084 4138 1766 4138 
Q 1444 4138 1231 3931 
Q 1019 3725 1019 3438 
z
M 838 1322 
Q 838 1081 952 856 
Q 1066 631 1291 507 
Q 1516 384 1775 384 
Q 2178 384 2440 643 
Q 2703 903 2703 1303 
Q 2703 1709 2433 1975 
Q 2163 2241 1756 2241 
Q 1359 2241 1098 1978 
Q 838 1716 838 1322 
z
" transform="scale(0.015625)"/>
       </defs>
       <use xlink:href="#ArialMT-38"/>
      </g>
     </g>
    </g>
    <g id="ytick_5">
     <g id="line2d_7">
      <g>
       <use xlink:href="#m3d75dc99b7" x="50.903125" y="145.457515" style="fill: #262626; stroke: #262626; stroke-width: 2"/>
      </g>
     </g>
     <g id="text_7">
      <!-- 10 -->
      <g style="fill: #262626" transform="translate(25.8325 150.467984) scale(0.14 -0.14)">
       <defs>
        <path id="ArialMT-31" d="M 2384 0 
L 1822 0 
L 1822 3584 
Q 1619 3391 1289 3197 
Q 959 3003 697 2906 
L 697 3450 
Q 1169 3672 1522 3987 
Q 1875 4303 2022 4600 
L 2384 4600 
L 2384 0 
z
" transform="scale(0.015625)"/>
        <path id="ArialMT-30" d="M 266 2259 
Q 266 3072 433 3567 
Q 600 4063 929 4331 
Q 1259 4600 1759 4600 
Q 2128 4600 2406 4451 
Q 2684 4303 2865 4023 
Q 3047 3744 3150 3342 
Q 3253 2941 3253 2259 
Q 3253 1453 3087 958 
Q 2922 463 2592 192 
Q 2263 -78 1759 -78 
Q 1097 -78 719 397 
Q 266 969 266 2259 
z
M 844 2259 
Q 844 1131 1108 757 
Q 1372 384 1759 384 
Q 2147 384 2411 759 
Q 2675 1134 2675 2259 
Q 2675 3391 2411 3762 
Q 2147 4134 1753 4134 
Q 1366 4134 1134 3806 
Q 844 3388 844 2259 
z
" transform="scale(0.015625)"/>
       </defs>
       <use xlink:href="#ArialMT-31"/>
       <use xlink:href="#ArialMT-30" transform="translate(55.615234 0)"/>
      </g>
     </g>
    </g>
    <g id="ytick_6">
     <g id="line2d_8">
      <g>
       <use xlink:href="#m3d75dc99b7" x="50.903125" y="87.036028" style="fill: #262626; stroke: #262626; stroke-width: 2"/>
      </g>
     </g>
     <g id="text_8">
      <!-- 12 -->
      <g style="fill: #262626" transform="translate(25.8325 92.046497) scale(0.14 -0.14)">
       <use xlink:href="#ArialMT-31"/>
       <use xlink:href="#ArialMT-32" transform="translate(55.615234 0)"/>
      </g>
     </g>
    </g>
    <g id="text_9">
     <!-- Number of Mutations -->
     <g style="fill: #262626" transform="translate(18.6525 292.733125) rotate(-90) scale(0.16 -0.16)">
      <defs>
       <path id="ArialMT-4e" d="M 488 0 
L 488 4581 
L 1109 4581 
L 3516 984 
L 3516 4581 
L 4097 4581 
L 4097 0 
L 3475 0 
L 1069 3600 
L 1069 0 
L 488 0 
z
" transform="scale(0.015625)"/>
       <path id="ArialMT-6d" d="M 422 0 
L 422 3319 
L 925 3319 
L 925 2853 
Q 1081 3097 1340 3245 
Q 1600 3394 1931 3394 
Q 2300 3394 2536 3241 
Q 2772 3088 2869 2813 
Q 3263 3394 3894 3394 
Q 4388 3394 4653 3120 
Q 4919 2847 4919 2278 
L 4919 0 
L 4359 0 
L 4359 2091 
Q 4359 2428 4304 2576 
Q 4250 2725 4106 2815 
Q 3963 2906 3769 2906 
Q 3419 2906 3187 2673 
Q 2956 2441 2956 1928 
L 2956 0 
L 2394 0 
L 2394 2156 
Q 2394 2531 2256 2718 
Q 2119 2906 1806 2906 
Q 1569 2906 1367 2781 
Q 1166 2656 1075 2415 
Q 984 2175 984 1722 
L 984 0 
L 422 0 
z
" transform="scale(0.015625)"/>
       <path id="ArialMT-62" d="M 941 0 
L 419 0 
L 419 4581 
L 981 4581 
L 981 2947 
Q 1338 3394 1891 3394 
Q 2197 3394 2470 3270 
Q 2744 3147 2920 2923 
Q 3097 2700 3197 2384 
Q 3297 2069 3297 1709 
Q 3297 856 2875 390 
Q 2453 -75 1863 -75 
Q 1275 -75 941 416 
L 941 0 
z
M 934 1684 
Q 934 1088 1097 822 
Q 1363 388 1816 388 
Q 2184 388 2453 708 
Q 2722 1028 2722 1663 
Q 2722 2313 2464 2622 
Q 2206 2931 1841 2931 
Q 1472 2931 1203 2611 
Q 934 2291 934 1684 
z
" transform="scale(0.015625)"/>
       <path id="ArialMT-66" d="M 556 0 
L 556 2881 
L 59 2881 
L 59 3319 
L 556 3319 
L 556 3672 
Q 556 4006 616 4169 
Q 697 4388 901 4523 
Q 1106 4659 1475 4659 
Q 1713 4659 2000 4603 
L 1916 4113 
Q 1741 4144 1584 4144 
Q 1328 4144 1222 4034 
Q 1116 3925 1116 3625 
L 1116 3319 
L 1763 3319 
L 1763 2881 
L 1116 2881 
L 1116 0 
L 556 0 
z
" transform="scale(0.015625)"/>
      </defs>
      <use xlink:href="#ArialMT-4e"/>
      <use xlink:href="#ArialMT-75" transform="translate(72.216797 0)"/>
      <use xlink:href="#ArialMT-6d" transform="translate(127.832031 0)"/>
      <use xlink:href="#ArialMT-62" transform="translate(211.132812 0)"/>
      <use xlink:href="#ArialMT-65" transform="translate(266.748047 0)"/>
      <use xlink:href="#ArialMT-72" transform="translate(322.363281 0)"/>
      <use xlink:href="#ArialMT-20" transform="translate(355.664062 0)"/>
      <use xlink:href="#ArialMT-6f" transform="translate(383.447266 0)"/>
      <use xlink:href="#ArialMT-66" transform="translate(439.0625 0)"/>
      <use xlink:href="#ArialMT-20" transform="translate(466.845703 0)"/>
      <use xlink:href="#ArialMT-4d" transform="translate(494.628906 0)"/>
      <use xlink:href="#ArialMT-75" transform="translate(577.929688 0)"/>
      <use xlink:href="#ArialMT-74" transform="translate(633.544922 0)"/>
      <use xlink:href="#ArialMT-61" transform="translate(661.328125 0)"/>
      <use xlink:href="#ArialMT-74" transform="translate(716.943359 0)"/>
      <use xlink:href="#ArialMT-69" transform="translate(744.726562 0)"/>
      <use xlink:href="#ArialMT-6f" transform="translate(766.943359 0)"/>
      <use xlink:href="#ArialMT-6e" transform="translate(822.558594 0)"/>
      <use xlink:href="#ArialMT-73" transform="translate(878.173828 0)"/>
     </g>
    </g>
   </g>
   <g id="FillBetweenPolyCollection_1">
    <defs>
     <path id="m6bfaddcbd6" d="M 182.780136 -75.114778 
L 102.491114 -75.114778 
L 101.75787 -76.885126 
L 101.123914 -78.655474 
L 100.585775 -80.425822 
L 100.13821 -82.19617 
L 99.77433 -83.966518 
L 99.485777 -85.736867 
L 99.262927 -87.507215 
L 99.095132 -89.277563 
L 98.970978 -91.047911 
L 98.878555 -92.818259 
L 98.805738 -94.588607 
L 98.740463 -96.358955 
L 98.670988 -98.129303 
L 98.586144 -99.899651 
L 98.475555 -101.67 
L 98.329827 -103.440348 
L 98.140709 -105.210696 
L 97.901214 -106.981044 
L 97.605692 -108.751392 
L 97.249881 -110.52174 
L 96.830905 -112.292088 
L 96.347245 -114.062436 
L 95.79867 -115.832784 
L 95.186153 -117.603133 
L 94.511747 -119.373481 
L 93.77846 -121.143829 
L 92.990107 -122.914177 
L 92.151164 -124.684525 
L 91.266614 -126.454873 
L 90.341807 -128.225221 
L 89.382324 -129.995569 
L 88.393855 -131.765917 
L 87.382098 -133.536265 
L 86.352674 -135.306614 
L 85.311063 -137.076962 
L 84.262566 -138.84731 
L 83.212281 -140.617658 
L 82.165104 -142.388006 
L 81.125749 -144.158354 
L 80.09878 -145.928702 
L 79.088656 -147.69905 
L 78.099792 -149.469398 
L 77.136614 -151.239747 
L 76.203625 -153.010095 
L 75.305465 -154.780443 
L 74.446963 -156.550791 
L 73.633189 -158.321139 
L 72.869474 -160.091487 
L 72.161437 -161.861835 
L 71.514978 -163.632183 
L 70.936258 -165.402531 
L 70.431655 -167.17288 
L 70.007708 -168.943228 
L 69.671029 -170.713576 
L 69.428204 -172.483924 
L 69.285678 -174.254272 
L 69.249625 -176.02462 
L 69.325807 -177.794968 
L 69.519429 -179.565316 
L 69.834996 -181.335664 
L 70.276165 -183.106013 
L 70.845621 -184.876361 
L 71.544949 -186.646709 
L 72.374544 -188.417057 
L 73.333524 -190.187405 
L 74.419688 -191.957753 
L 75.629488 -193.728101 
L 76.958042 -195.498449 
L 78.399173 -197.268797 
L 79.945483 -199.039146 
L 81.588451 -200.809494 
L 83.318564 -202.579842 
L 85.125469 -204.35019 
L 86.998141 -206.120538 
L 88.925072 -207.890886 
L 90.894464 -209.661234 
L 92.894425 -211.431582 
L 94.913163 -213.20193 
L 96.939177 -214.972279 
L 98.961425 -216.742627 
L 100.969488 -218.512975 
L 102.953697 -220.283323 
L 104.905253 -222.053671 
L 106.81631 -223.824019 
L 108.680032 -225.594367 
L 110.490635 -227.364715 
L 112.243384 -229.135063 
L 113.934585 -230.905412 
L 115.56154 -232.67576 
L 117.122495 -234.446108 
L 118.616561 -236.216456 
L 120.043631 -237.986804 
L 121.404286 -239.757152 
L 122.699688 -241.5275 
L 123.931484 -243.297848 
L 125.101698 -245.068196 
L 126.212639 -246.838544 
L 127.266802 -248.608893 
L 128.266787 -250.379241 
L 157.004463 -250.379241 
L 157.004463 -250.379241 
L 158.004448 -248.608893 
L 159.058611 -246.838544 
L 160.169552 -245.068196 
L 161.339766 -243.297848 
L 162.571562 -241.5275 
L 163.866964 -239.757152 
L 165.227619 -237.986804 
L 166.654689 -236.216456 
L 168.148755 -234.446108 
L 169.70971 -232.67576 
L 171.336665 -230.905412 
L 173.027866 -229.135063 
L 174.780615 -227.364715 
L 176.591218 -225.594367 
L 178.45494 -223.824019 
L 180.365997 -222.053671 
L 182.317553 -220.283323 
L 184.301762 -218.512975 
L 186.309825 -216.742627 
L 188.332073 -214.972279 
L 190.358087 -213.20193 
L 192.376825 -211.431582 
L 194.376786 -209.661234 
L 196.346178 -207.890886 
L 198.273109 -206.120538 
L 200.145781 -204.35019 
L 201.952686 -202.579842 
L 203.682799 -200.809494 
L 205.325767 -199.039146 
L 206.872077 -197.268797 
L 208.313208 -195.498449 
L 209.641762 -193.728101 
L 210.851562 -191.957753 
L 211.937726 -190.187405 
L 212.896706 -188.417057 
L 213.726301 -186.646709 
L 214.425629 -184.876361 
L 214.995085 -183.106013 
L 215.436254 -181.335664 
L 215.751821 -179.565316 
L 215.945443 -177.794968 
L 216.021625 -176.02462 
L 215.985572 -174.254272 
L 215.843046 -172.483924 
L 215.600221 -170.713576 
L 215.263542 -168.943228 
L 214.839595 -167.17288 
L 214.334992 -165.402531 
L 213.756272 -163.632183 
L 213.109813 -161.861835 
L 212.401776 -160.091487 
L 211.638061 -158.321139 
L 210.824287 -156.550791 
L 209.965785 -154.780443 
L 209.067625 -153.010095 
L 208.134636 -151.239747 
L 207.171458 -149.469398 
L 206.182594 -147.69905 
L 205.17247 -145.928702 
L 204.145501 -144.158354 
L 203.106146 -142.388006 
L 202.058969 -140.617658 
L 201.008684 -138.84731 
L 199.960187 -137.076962 
L 198.918576 -135.306614 
L 197.889152 -133.536265 
L 196.877395 -131.765917 
L 195.888926 -129.995569 
L 194.929443 -128.225221 
L 194.004636 -126.454873 
L 193.120086 -124.684525 
L 192.281143 -122.914177 
L 191.49279 -121.143829 
L 190.759503 -119.373481 
L 190.085097 -117.603133 
L 189.47258 -115.832784 
L 188.924005 -114.062436 
L 188.440345 -112.292088 
L 188.021369 -110.52174 
L 187.665558 -108.751392 
L 187.370036 -106.981044 
L 187.130541 -105.210696 
L 186.941423 -103.440348 
L 186.795695 -101.67 
L 186.685106 -99.899651 
L 186.600262 -98.129303 
L 186.530787 -96.358955 
L 186.465512 -94.588607 
L 186.392695 -92.818259 
L 186.300272 -91.047911 
L 186.176118 -89.277563 
L 186.008323 -87.507215 
L 185.785473 -85.736867 
L 185.49692 -83.966518 
L 185.13304 -82.19617 
L 184.685475 -80.425822 
L 184.147336 -78.655474 
L 183.51338 -76.885126 
L 182.780136 -75.114778 
z
" style="stroke: #686868; stroke-width: 1.5"/>
    </defs>
    <g clip-path="url(#p8285c9f3d8)">
     <use xlink:href="#m6bfaddcbd6" x="0" y="425.0475" style="fill: #82b6d9; stroke: #686868; stroke-width: 1.5"/>
    </g>
   </g>
   <g id="FillBetweenPolyCollection_2">
    <defs>
     <path id="m1e6fb04a17" d="M 332.15241 -45.904034 
L 320.04884 -45.904034 
L 319.007794 -49.149672 
L 317.823148 -52.39531 
L 316.479077 -55.640949 
L 314.959825 -58.886587 
L 313.250693 -62.132225 
L 311.339286 -65.377863 
L 309.216968 -68.623501 
L 306.880399 -71.86914 
L 304.332988 -75.114778 
L 301.585997 -78.360416 
L 298.659088 -81.606054 
L 295.580098 -84.851692 
L 292.383965 -88.097331 
L 289.110874 -91.342969 
L 285.803842 -94.588607 
L 282.506098 -97.834245 
L 279.258671 -101.079883 
L 276.098539 -104.325522 
L 273.057597 -107.57116 
L 270.162479 -110.816798 
L 267.435112 -114.062436 
L 264.893735 -117.308074 
L 262.55405 -120.553713 
L 260.430256 -123.799351 
L 258.535784 -127.044989 
L 256.883742 -130.290627 
L 255.48713 -133.536265 
L 254.35894 -136.781904 
L 253.512191 -140.027542 
L 252.959872 -143.27318 
L 252.714625 -146.518818 
L 252.788027 -149.764456 
L 253.189323 -153.010095 
L 253.923647 -156.255733 
L 254.98993 -159.501371 
L 256.378881 -162.747009 
L 258.071482 -165.992647 
L 260.038448 -169.238286 
L 262.240881 -172.483924 
L 264.632166 -175.729562 
L 267.160869 -178.9752 
L 269.774203 -182.220838 
L 272.421561 -185.466477 
L 275.057601 -188.712115 
L 277.644554 -191.957753 
L 280.153545 -195.203391 
L 282.564948 -198.449029 
L 284.867895 -201.694668 
L 287.059148 -204.940306 
L 289.141573 -208.185944 
L 291.122392 -211.431582 
L 293.01141 -214.677221 
L 294.819344 -217.922859 
L 296.556375 -221.168497 
L 298.231027 -224.414135 
L 299.84945 -227.659773 
L 301.415133 -230.905412 
L 302.929033 -234.15105 
L 304.390039 -237.396688 
L 305.795645 -240.642326 
L 307.142698 -243.887964 
L 308.428075 -247.133603 
L 309.649214 -250.379241 
L 310.804442 -253.624879 
L 311.893113 -256.870517 
L 312.9156 -260.116155 
L 313.873201 -263.361794 
L 314.768006 -266.607432 
L 315.602758 -269.85307 
L 316.380733 -273.098708 
L 317.105617 -276.344346 
L 317.781398 -279.589985 
L 318.412233 -282.835623 
L 319.002318 -286.081261 
L 319.555735 -289.326899 
L 320.076301 -292.572537 
L 320.567402 -295.818176 
L 321.031832 -299.063814 
L 321.471625 -302.309452 
L 321.887901 -305.55509 
L 322.280746 -308.800728 
L 322.649138 -312.046367 
L 322.990979 -315.292005 
L 323.303238 -318.537643 
L 323.582244 -321.783281 
L 323.824108 -325.028919 
L 324.025264 -328.274558 
L 324.183063 -331.520196 
L 324.296359 -334.765834 
L 324.365991 -338.011472 
L 324.395101 -341.25711 
L 324.389208 -344.502749 
L 324.356027 -347.748387 
L 324.305012 -350.994025 
L 324.246671 -354.239663 
L 324.191733 -357.485301 
L 324.150247 -360.73094 
L 324.130735 -363.976578 
L 324.139487 -367.222216 
L 328.061763 -367.222216 
L 328.061763 -367.222216 
L 328.070515 -363.976578 
L 328.051003 -360.73094 
L 328.009517 -357.485301 
L 327.954579 -354.239663 
L 327.896238 -350.994025 
L 327.845223 -347.748387 
L 327.812042 -344.502749 
L 327.806149 -341.25711 
L 327.835259 -338.011472 
L 327.904891 -334.765834 
L 328.018187 -331.520196 
L 328.175986 -328.274558 
L 328.377142 -325.028919 
L 328.619006 -321.783281 
L 328.898012 -318.537643 
L 329.210271 -315.292005 
L 329.552112 -312.046367 
L 329.920504 -308.800728 
L 330.313349 -305.55509 
L 330.729625 -302.309452 
L 331.169418 -299.063814 
L 331.633848 -295.818176 
L 332.124949 -292.572537 
L 332.645515 -289.326899 
L 333.198932 -286.081261 
L 333.789017 -282.835623 
L 334.419852 -279.589985 
L 335.095633 -276.344346 
L 335.820517 -273.098708 
L 336.598492 -269.85307 
L 337.433244 -266.607432 
L 338.328049 -263.361794 
L 339.28565 -260.116155 
L 340.308137 -256.870517 
L 341.396808 -253.624879 
L 342.552036 -250.379241 
L 343.773175 -247.133603 
L 345.058552 -243.887964 
L 346.405605 -240.642326 
L 347.811211 -237.396688 
L 349.272217 -234.15105 
L 350.786117 -230.905412 
L 352.3518 -227.659773 
L 353.970223 -224.414135 
L 355.644875 -221.168497 
L 357.381906 -217.922859 
L 359.18984 -214.677221 
L 361.078858 -211.431582 
L 363.059677 -208.185944 
L 365.142102 -204.940306 
L 367.333355 -201.694668 
L 369.636302 -198.449029 
L 372.047705 -195.203391 
L 374.556696 -191.957753 
L 377.143649 -188.712115 
L 379.779689 -185.466477 
L 382.427047 -182.220838 
L 385.040381 -178.9752 
L 387.569084 -175.729562 
L 389.960369 -172.483924 
L 392.162802 -169.238286 
L 394.129768 -165.992647 
L 395.822369 -162.747009 
L 397.21132 -159.501371 
L 398.277603 -156.255733 
L 399.011927 -153.010095 
L 399.413223 -149.764456 
L 399.486625 -146.518818 
L 399.241378 -143.27318 
L 398.689059 -140.027542 
L 397.84231 -136.781904 
L 396.71412 -133.536265 
L 395.317508 -130.290627 
L 393.665466 -127.044989 
L 391.770994 -123.799351 
L 389.6472 -120.553713 
L 387.307515 -117.308074 
L 384.766138 -114.062436 
L 382.038771 -110.816798 
L 379.143653 -107.57116 
L 376.102711 -104.325522 
L 372.942579 -101.079883 
L 369.695152 -97.834245 
L 366.397408 -94.588607 
L 363.090376 -91.342969 
L 359.817285 -88.097331 
L 356.621152 -84.851692 
L 353.542162 -81.606054 
L 350.615253 -78.360416 
L 347.868262 -75.114778 
L 345.320851 -71.86914 
L 342.984282 -68.623501 
L 340.861964 -65.377863 
L 338.950557 -62.132225 
L 337.241425 -58.886587 
L 335.722173 -55.640949 
L 334.378102 -52.39531 
L 333.193456 -49.149672 
L 332.15241 -45.904034 
z
" style="stroke: #686868; stroke-width: 1.5"/>
    </defs>
    <g clip-path="url(#p8285c9f3d8)">
     <use xlink:href="#m1e6fb04a17" x="0" y="425.0475" style="fill: #eba670; stroke: #686868; stroke-width: 1.5"/>
    </g>
   </g>
   <g id="line2d_9">
    <path d="M 142.635625 349.932722 
L 142.635625 174.668259 
" clip-path="url(#p8285c9f3d8)" style="fill: none; stroke: #686868; stroke-width: 2.25; stroke-linecap: round"/>
   </g>
   <g id="line2d_10">
    <path d="M 142.635625 313.419292 
L 142.635625 233.089747 
" clip-path="url(#p8285c9f3d8)" style="fill: none; stroke: #686868; stroke-width: 6.75; stroke-linecap: round"/>
   </g>
   <g id="line2d_11">
    <path d="M 142.635625 262.300491 
" clip-path="url(#p8285c9f3d8)" style="fill: none; stroke: #686868; stroke-width: 1.5; stroke-linecap: round"/>
    <defs>
     <path id="mc7b29f2f14" d="M 2.8125 0 
L -2.8125 -0 
" style="stroke: #ffffff; stroke-width: 1.35"/>
    </defs>
    <g clip-path="url(#p8285c9f3d8)">
     <use xlink:href="#mc7b29f2f14" x="142.635625" y="262.300491" style="fill: #ffffff; stroke: #ffffff; stroke-width: 1.35"/>
    </g>
   </g>
   <g id="line2d_12">
    <path d="M 326.100625 379.143466 
L 326.100625 145.457515 
" clip-path="url(#p8285c9f3d8)" style="fill: none; stroke: #686868; stroke-width: 2.25; stroke-linecap: round"/>
   </g>
   <g id="line2d_13">
    <path d="M 326.100625 291.511235 
L 326.100625 233.089747 
" clip-path="url(#p8285c9f3d8)" style="fill: none; stroke: #686868; stroke-width: 6.75; stroke-linecap: round"/>
   </g>
   <g id="line2d_14">
    <path d="M 326.100625 262.300491 
" clip-path="url(#p8285c9f3d8)" style="fill: none; stroke: #686868; stroke-width: 1.5; stroke-linecap: round"/>
    <g clip-path="url(#p8285c9f3d8)">
     <use xlink:href="#mc7b29f2f14" x="326.100625" y="262.300491" style="fill: #ffffff; stroke: #ffffff; stroke-width: 1.35"/>
    </g>
   </g>
   <g id="patch_3">
    <path d="M 50.903125 395.209375 
L 50.903125 41.759375 
" style="fill: none; stroke: #262626; stroke-width: 2; stroke-linejoin: miter; stroke-linecap: square"/>
   </g>
   <g id="patch_4">
    <path d="M 50.903125 395.209375 
L 417.833125 395.209375 
" style="fill: none; stroke: #262626; stroke-width: 2; stroke-linejoin: miter; stroke-linecap: square"/>
   </g>
   <g id="text_10">
    <!-- Mutational Scanning vs Generative Design -->
    <g style="fill: #262626" transform="translate(45.385312 21.759375) scale(0.2 -0.2)">
     <use xlink:href="#ArialMT-4d"/>
     <use xlink:href="#ArialMT-75" transform="translate(83.300781 0)"/>
     <use xlink:href="#ArialMT-74" transform="translate(138.916016 0)"/>
     <use xlink:href="#ArialMT-61" transform="translate(166.699219 0)"/>
     <use xlink:href="#ArialMT-74" transform="translate(222.314453 0)"/>
     <use xlink:href="#ArialMT-69" transform="translate(250.097656 0)"/>
     <use xlink:href="#ArialMT-6f" transform="translate(272.314453 0)"/>
     <use xlink:href="#ArialMT-6e" transform="translate(327.929688 0)"/>
     <use xlink:href="#ArialMT-61" transform="translate(383.544922 0)"/>
     <use xlink:href="#ArialMT-6c" transform="translate(439.160156 0)"/>
     <use xlink:href="#ArialMT-20" transform="translate(461.376953 0)"/>
     <use xlink:href="#ArialMT-53" transform="translate(489.160156 0)"/>
     <use xlink:href="#ArialMT-63" transform="translate(555.859375 0)"/>
     <use xlink:href="#ArialMT-61" transform="translate(605.859375 0)"/>
     <use xlink:href="#ArialMT-6e" transform="translate(661.474609 0)"/>
     <use xlink:href="#ArialMT-6e" transform="translate(717.089844 0)"/>
     <use xlink:href="#ArialMT-69" transform="translate(772.705078 0)"/>
     <use xlink:href="#ArialMT-6e" transform="translate(794.921875 0)"/>
     <use xlink:href="#ArialMT-67" transform="translate(850.537109 0)"/>
     <use xlink:href="#ArialMT-20" transform="translate(906.152344 0)"/>
     <use xlink:href="#ArialMT-76" transform="translate(933.935547 0)"/>
     <use xlink:href="#ArialMT-73" transform="translate(983.935547 0)"/>
     <use xlink:href="#ArialMT-20" transform="translate(1033.935547 0)"/>
     <use xlink:href="#ArialMT-47" transform="translate(1061.71875 0)"/>
     <use xlink:href="#ArialMT-65" transform="translate(1139.501953 0)"/>
     <use xlink:href="#ArialMT-6e" transform="translate(1195.117188 0)"/>
     <use xlink:href="#ArialMT-65" transform="translate(1250.732422 0)"/>
     <use xlink:href="#ArialMT-72" transform="translate(1306.347656 0)"/>
     <use xlink:href="#ArialMT-61" transform="translate(1339.648438 0)"/>
     <use xlink:href="#ArialMT-74" transform="translate(1395.263672 0)"/>
     <use xlink:href="#ArialMT-69" transform="translate(1423.046875 0)"/>
     <use xlink:href="#ArialMT-76" transform="translate(1445.263672 0)"/>
     <use xlink:href="#ArialMT-65" transform="translate(1495.263672 0)"/>
     <use xlink:href="#ArialMT-20" transform="translate(1550.878906 0)"/>
     <use xlink:href="#ArialMT-44" transform="translate(1578.662109 0)"/>
     <use xlink:href="#ArialMT-65" transform="translate(1650.878906 0)"/>
     <use xlink:href="#ArialMT-73" transform="translate(1706.494141 0)"/>
     <use xlink:href="#ArialMT-69" transform="translate(1756.494141 0)"/>
     <use xlink:href="#ArialMT-67" transform="translate(1778.710938 0)"/>
     <use xlink:href="#ArialMT-6e" transform="translate(1834.326172 0)"/>
    </g>
   </g>
  </g>
 </g>
 <defs>
  <clipPath id="p8285c9f3d8">
   <rect x="50.903125" y="41.759375" width="366.93" height="353.45"/>
  </clipPath>
 </defs>
</svg>
