<?xml version="1.0" encoding="utf-8" standalone="no"?>
<!DOCTYPE svg PUBLIC "-//W3C//DTD SVG 1.1//EN"
  "http://www.w3.org/Graphics/SVG/1.1/DTD/svg11.dtd">
<svg xmlns:xlink="http://www.w3.org/1999/xlink" width="857.00875pt" height="280.502344pt" viewBox="0 0 857.00875 280.502344" xmlns="http://www.w3.org/2000/svg" version="1.1">
 <metadata>
  <rdf:RDF xmlns:dc="http://purl.org/dc/elements/1.1/" xmlns:cc="http://creativecommons.org/ns#" xmlns:rdf="http://www.w3.org/1999/02/22-rdf-syntax-ns#">
   <cc:Work>
    <dc:type rdf:resource="http://purl.org/dc/dcmitype/StillImage"/>
    <dc:date>2026-02-14T06:49:55.989114</dc:date>
    <dc:format>image/svg+xml</dc:format>
    <dc:creator>
     <cc:Agent>
      <dc:title>Matplotlib v3.10.8, https://matplotlib.org/</dc:title>
     </cc:Agent>
    </dc:creator>
   </cc:Work>
  </rdf:RDF>
 </metadata>
 <defs>
  <style type="text/css">*{stroke-linejoin: round; stroke-linecap: butt}</style>
 </defs>
 <g id="figure_1">
  <g id="patch_1">
   <path d="M 0 280.502344 
L 857.00875 280.502344 
L 857.00875 0 
L 0 0 
L 0 280.502344 
z
" style="fill: none"/>
  </g>
  <g id="axes_1">
   <g id="patch_2">
    <path d="M 43.215 258.071562 
L 849.80875 258.071562 
L 849.80875 27.391562 
L 43.215 27.391562 
L 43.215 258.071562 
z
" style="fill: none"/>
   </g>
   <g id="matplotlib.axis_1">
    <g id="xtick_1">
     <g id="line2d_1">
      <defs>
       <path id="mbacf6aaf96" d="M 0 0 
L 0 3.5 
" style="stroke: #262626; stroke-width: 0.8"/>
      </defs>
      <g>
       <use xlink:href="#mbacf6aaf96" x="76.823073" y="258.071562" style="fill: #262626; stroke: #262626; stroke-width: 0.8"/>
      </g>
     </g>
     <g id="text_1">
      <!-- 5 -->
      <g style="fill: #262626" transform="translate(74.320651 271.513594) scale(0.09 -0.09)">
       <defs>
        <path id="ArialMT-35" d="M 266 1200 
L 856 1250 
Q 922 819 1161 601 
Q 1400 384 1738 384 
Q 2144 384 2425 690 
Q 2706 997 2706 1503 
Q 2706 1984 2436 2262 
Q 2166 2541 1728 2541 
Q 1456 2541 1237 2417 
Q 1019 2294 894 2097 
L 366 2166 
L 809 4519 
L 3088 4519 
L 3088 3981 
L 1259 3981 
L 1013 2750 
Q 1425 3038 1878 3038 
Q 2478 3038 2890 2622 
Q 3303 2206 3303 1553 
Q 3303 931 2941 478 
Q 2500 -78 1738 -78 
Q 1113 -78 717 272 
Q 322 622 266 1200 
z
" transform="scale(0.015625)"/>
       </defs>
       <use xlink:href="#ArialMT-35"/>
      </g>
     </g>
    </g>
    <g id="xtick_2">
     <g id="line2d_2">
      <g>
       <use xlink:href="#mbacf6aaf96" x="144.039219" y="258.071562" style="fill: #262626; stroke: #262626; stroke-width: 0.8"/>
      </g>
     </g>
     <g id="text_2">
      <!-- 6 -->
      <g style="fill: #262626" transform="translate(141.536797 271.513594) scale(0.09 -0.09)">
       <defs>
        <path id="ArialMT-36" d="M 3184 3459 
L 2625 3416 
Q 2550 3747 2413 3897 
Q 2184 4138 1850 4138 
Q 1581 4138 1378 3988 
Q 1113 3794 959 3422 
Q 806 3050 800 2363 
Q 1003 2672 1297 2822 
Q 1591 2972 1913 2972 
Q 2475 2972 2870 2558 
Q 3266 2144 3266 1488 
Q 3266 1056 3080 686 
Q 2894 316 2569 119 
Q 2244 -78 1831 -78 
Q 1128 -78 684 439 
Q 241 956 241 2144 
Q 241 3472 731 4075 
Q 1159 4600 1884 4600 
Q 2425 4600 2770 4297 
Q 3116 3994 3184 3459 
z
M 888 1484 
Q 888 1194 1011 928 
Q 1134 663 1356 523 
Q 1578 384 1822 384 
Q 2178 384 2434 671 
Q 2691 959 2691 1453 
Q 2691 1928 2437 2201 
Q 2184 2475 1800 2475 
Q 1419 2475 1153 2201 
Q 888 1928 888 1484 
z
" transform="scale(0.015625)"/>
       </defs>
       <use xlink:href="#ArialMT-36"/>
      </g>
     </g>
    </g>
    <g id="xtick_3">
     <g id="line2d_3">
      <g>
       <use xlink:href="#mbacf6aaf96" x="211.255365" y="258.071562" style="fill: #262626; stroke: #262626; stroke-width: 0.8"/>
      </g>
     </g>
     <g id="text_3">
      <!-- 7 -->
      <g style="fill: #262626" transform="translate(208.752943 271.513594) scale(0.09 -0.09)">
       <defs>
        <path id="ArialMT-37" d="M 303 3981 
L 303 4522 
L 3269 4522 
L 3269 4084 
Q 2831 3619 2401 2847 
Q 1972 2075 1738 1259 
Q 1569 684 1522 0 
L 944 0 
Q 953 541 1156 1306 
Q 1359 2072 1739 2783 
Q 2119 3494 2547 3981 
L 303 3981 
z
" transform="scale(0.015625)"/>
       </defs>
       <use xlink:href="#ArialMT-37"/>
      </g>
     </g>
    </g>
    <g id="xtick_4">
     <g id="line2d_4">
      <g>
       <use xlink:href="#mbacf6aaf96" x="278.47151" y="258.071562" style="fill: #262626; stroke: #262626; stroke-width: 0.8"/>
      </g>
     </g>
     <g id="text_4">
      <!-- 12 -->
      <g style="fill: #262626" transform="translate(273.466667 271.513594) scale(0.09 -0.09)">
       <defs>
        <path id="ArialMT-31" d="M 2384 0 
L 1822 0 
L 1822 3584 
Q 1619 3391 1289 3197 
Q 959 3003 697 2906 
L 697 3450 
Q 1169 3672 1522 3987 
Q 1875 4303 2022 4600 
L 2384 4600 
L 2384 0 
z
" transform="scale(0.015625)"/>
        <path id="ArialMT-32" d="M 3222 541 
L 3222 0 
L 194 0 
Q 188 203 259 391 
Q 375 700 629 1000 
Q 884 1300 1366 1694 
Q 2113 2306 2375 2664 
Q 2638 3022 2638 3341 
Q 2638 3675 2398 3904 
Q 2159 4134 1775 4134 
Q 1369 4134 1125 3890 
Q 881 3647 878 3216 
L 300 3275 
Q 359 3922 746 4261 
Q 1134 4600 1788 4600 
Q 2447 4600 2831 4234 
Q 3216 3869 3216 3328 
Q 3216 3053 3103 2787 
Q 2991 2522 2730 2228 
Q 2469 1934 1863 1422 
Q 1356 997 1212 845 
Q 1069 694 975 541 
L 3222 541 
z
" transform="scale(0.015625)"/>
       </defs>
       <use xlink:href="#ArialMT-31"/>
       <use xlink:href="#ArialMT-32" transform="translate(55.615234 0)"/>
      </g>
     </g>
    </g>
    <g id="xtick_5">
     <g id="line2d_5">
      <g>
       <use xlink:href="#mbacf6aaf96" x="345.687656" y="258.071562" style="fill: #262626; stroke: #262626; stroke-width: 0.8"/>
      </g>
     </g>
     <g id="text_5">
      <!-- 19 -->
      <g style="fill: #262626" transform="translate(340.682812 271.513594) scale(0.09 -0.09)">
       <defs>
        <path id="ArialMT-39" d="M 350 1059 
L 891 1109 
Q 959 728 1153 556 
Q 1347 384 1650 384 
Q 1909 384 2104 503 
Q 2300 622 2425 820 
Q 2550 1019 2634 1356 
Q 2719 1694 2719 2044 
Q 2719 2081 2716 2156 
Q 2547 1888 2255 1720 
Q 1963 1553 1622 1553 
Q 1053 1553 659 1965 
Q 266 2378 266 3053 
Q 266 3750 677 4175 
Q 1088 4600 1706 4600 
Q 2153 4600 2523 4359 
Q 2894 4119 3086 3673 
Q 3278 3228 3278 2384 
Q 3278 1506 3087 986 
Q 2897 466 2520 194 
Q 2144 -78 1638 -78 
Q 1100 -78 759 220 
Q 419 519 350 1059 
z
M 2653 3081 
Q 2653 3566 2395 3850 
Q 2138 4134 1775 4134 
Q 1400 4134 1122 3828 
Q 844 3522 844 3034 
Q 844 2597 1108 2323 
Q 1372 2050 1759 2050 
Q 2150 2050 2401 2323 
Q 2653 2597 2653 3081 
z
" transform="scale(0.015625)"/>
       </defs>
       <use xlink:href="#ArialMT-31"/>
       <use xlink:href="#ArialMT-39" transform="translate(55.615234 0)"/>
      </g>
     </g>
    </g>
    <g id="xtick_6">
     <g id="line2d_6">
      <g>
       <use xlink:href="#mbacf6aaf96" x="412.903802" y="258.071562" style="fill: #262626; stroke: #262626; stroke-width: 0.8"/>
      </g>
     </g>
     <g id="text_6">
      <!-- 21 -->
      <g style="fill: #262626" transform="translate(407.898958 271.513594) scale(0.09 -0.09)">
       <use xlink:href="#ArialMT-32"/>
       <use xlink:href="#ArialMT-31" transform="translate(55.615234 0)"/>
      </g>
     </g>
    </g>
    <g id="xtick_7">
     <g id="line2d_7">
      <g>
       <use xlink:href="#mbacf6aaf96" x="480.119948" y="258.071562" style="fill: #262626; stroke: #262626; stroke-width: 0.8"/>
      </g>
     </g>
     <g id="text_7">
      <!-- 26 -->
      <g style="fill: #262626" transform="translate(475.115104 271.513594) scale(0.09 -0.09)">
       <use xlink:href="#ArialMT-32"/>
       <use xlink:href="#ArialMT-36" transform="translate(55.615234 0)"/>
      </g>
     </g>
    </g>
    <g id="xtick_8">
     <g id="line2d_8">
      <g>
       <use xlink:href="#mbacf6aaf96" x="547.336094" y="258.071562" style="fill: #262626; stroke: #262626; stroke-width: 0.8"/>
      </g>
     </g>
     <g id="text_8">
      <!-- 28 -->
      <g style="fill: #262626" transform="translate(542.33125 271.513594) scale(0.09 -0.09)">
       <defs>
        <path id="ArialMT-38" d="M 1131 2484 
Q 781 2613 612 2850 
Q 444 3088 444 3419 
Q 444 3919 803 4259 
Q 1163 4600 1759 4600 
Q 2359 4600 2725 4251 
Q 3091 3903 3091 3403 
Q 3091 3084 2923 2848 
Q 2756 2613 2416 2484 
Q 2838 2347 3058 2040 
Q 3278 1734 3278 1309 
Q 3278 722 2862 322 
Q 2447 -78 1769 -78 
Q 1091 -78 675 323 
Q 259 725 259 1325 
Q 259 1772 486 2073 
Q 713 2375 1131 2484 
z
M 1019 3438 
Q 1019 3113 1228 2906 
Q 1438 2700 1772 2700 
Q 2097 2700 2305 2904 
Q 2513 3109 2513 3406 
Q 2513 3716 2298 3927 
Q 2084 4138 1766 4138 
Q 1444 4138 1231 3931 
Q 1019 3725 1019 3438 
z
M 838 1322 
Q 838 1081 952 856 
Q 1066 631 1291 507 
Q 1516 384 1775 384 
Q 2178 384 2440 643 
Q 2703 903 2703 1303 
Q 2703 1709 2433 1975 
Q 2163 2241 1756 2241 
Q 1359 2241 1098 1978 
Q 838 1716 838 1322 
z
" transform="scale(0.015625)"/>
       </defs>
       <use xlink:href="#ArialMT-32"/>
       <use xlink:href="#ArialMT-38" transform="translate(55.615234 0)"/>
      </g>
     </g>
    </g>
    <g id="xtick_9">
     <g id="line2d_9">
      <g>
       <use xlink:href="#mbacf6aaf96" x="614.55224" y="258.071562" style="fill: #262626; stroke: #262626; stroke-width: 0.8"/>
      </g>
     </g>
     <g id="text_9">
      <!-- 29 -->
      <g style="fill: #262626" transform="translate(609.547396 271.513594) scale(0.09 -0.09)">
       <use xlink:href="#ArialMT-32"/>
       <use xlink:href="#ArialMT-39" transform="translate(55.615234 0)"/>
      </g>
     </g>
    </g>
    <g id="xtick_10">
     <g id="line2d_10">
      <g>
       <use xlink:href="#mbacf6aaf96" x="681.768385" y="258.071562" style="fill: #262626; stroke: #262626; stroke-width: 0.8"/>
      </g>
     </g>
     <g id="text_10">
      <!-- 31 -->
      <g style="fill: #262626" transform="translate(676.763542 271.513594) scale(0.09 -0.09)">
       <defs>
        <path id="ArialMT-33" d="M 269 1209 
L 831 1284 
Q 928 806 1161 595 
Q 1394 384 1728 384 
Q 2125 384 2398 659 
Q 2672 934 2672 1341 
Q 2672 1728 2419 1979 
Q 2166 2231 1775 2231 
Q 1616 2231 1378 2169 
L 1441 2663 
Q 1497 2656 1531 2656 
Q 1891 2656 2178 2843 
Q 2466 3031 2466 3422 
Q 2466 3731 2256 3934 
Q 2047 4138 1716 4138 
Q 1388 4138 1169 3931 
Q 950 3725 888 3313 
L 325 3413 
Q 428 3978 793 4289 
Q 1159 4600 1703 4600 
Q 2078 4600 2393 4439 
Q 2709 4278 2876 4000 
Q 3044 3722 3044 3409 
Q 3044 3113 2884 2869 
Q 2725 2625 2413 2481 
Q 2819 2388 3044 2092 
Q 3269 1797 3269 1353 
Q 3269 753 2831 336 
Q 2394 -81 1725 -81 
Q 1122 -81 723 278 
Q 325 638 269 1209 
z
" transform="scale(0.015625)"/>
       </defs>
       <use xlink:href="#ArialMT-33"/>
       <use xlink:href="#ArialMT-31" transform="translate(55.615234 0)"/>
      </g>
     </g>
    </g>
    <g id="xtick_11">
     <g id="line2d_11">
      <g>
       <use xlink:href="#mbacf6aaf96" x="748.984531" y="258.071562" style="fill: #262626; stroke: #262626; stroke-width: 0.8"/>
      </g>
     </g>
     <g id="text_11">
      <!-- 36 -->
      <g style="fill: #262626" transform="translate(743.979687 271.513594) scale(0.09 -0.09)">
       <use xlink:href="#ArialMT-33"/>
       <use xlink:href="#ArialMT-36" transform="translate(55.615234 0)"/>
      </g>
     </g>
    </g>
    <g id="xtick_12">
     <g id="line2d_12">
      <g>
       <use xlink:href="#mbacf6aaf96" x="816.200677" y="258.071562" style="fill: #262626; stroke: #262626; stroke-width: 0.8"/>
      </g>
     </g>
     <g id="text_12">
      <!-- 45 -->
      <g style="fill: #262626" transform="translate(811.195833 271.513594) scale(0.09 -0.09)">
       <defs>
        <path id="ArialMT-34" d="M 2069 0 
L 2069 1097 
L 81 1097 
L 81 1613 
L 2172 4581 
L 2631 4581 
L 2631 1613 
L 3250 1613 
L 3250 1097 
L 2631 1097 
L 2631 0 
L 2069 0 
z
M 2069 1613 
L 2069 3678 
L 634 1613 
L 2069 1613 
z
" transform="scale(0.015625)"/>
       </defs>
       <use xlink:href="#ArialMT-34"/>
       <use xlink:href="#ArialMT-35" transform="translate(55.615234 0)"/>
      </g>
     </g>
    </g>
   </g>
   <g id="matplotlib.axis_2">
    <g id="ytick_1">
     <g id="line2d_13">
      <defs>
       <path id="m646535a86d" d="M 0 0 
L -3.5 0 
" style="stroke: #262626; stroke-width: 0.8"/>
      </defs>
      <g>
       <use xlink:href="#m646535a86d" x="43.215" y="258.071562" style="fill: #262626; stroke: #262626; stroke-width: 0.8"/>
      </g>
     </g>
     <g id="text_13">
      <!-- 0.0 -->
      <g style="fill: #262626" transform="translate(22.315 261.650469) scale(0.1 -0.1)">
       <defs>
        <path id="ArialMT-30" d="M 266 2259 
Q 266 3072 433 3567 
Q 600 4063 929 4331 
Q 1259 4600 1759 4600 
Q 2128 4600 2406 4451 
Q 2684 4303 2865 4023 
Q 3047 3744 3150 3342 
Q 3253 2941 3253 2259 
Q 3253 1453 3087 958 
Q 2922 463 2592 192 
Q 2263 -78 1759 -78 
Q 1097 -78 719 397 
Q 266 969 266 2259 
z
M 844 2259 
Q 844 1131 1108 757 
Q 1372 384 1759 384 
Q 2147 384 2411 759 
Q 2675 1134 2675 2259 
Q 2675 3391 2411 3762 
Q 2147 4134 1753 4134 
Q 1366 4134 1134 3806 
Q 844 3388 844 2259 
z
" transform="scale(0.015625)"/>
        <path id="ArialMT-2e" d="M 581 0 
L 581 641 
L 1222 641 
L 1222 0 
L 581 0 
z
" transform="scale(0.015625)"/>
       </defs>
       <use xlink:href="#ArialMT-30"/>
       <use xlink:href="#ArialMT-2e" transform="translate(55.615234 0)"/>
       <use xlink:href="#ArialMT-30" transform="translate(83.398438 0)"/>
      </g>
     </g>
    </g>
    <g id="ytick_2">
     <g id="line2d_14">
      <g>
       <use xlink:href="#m646535a86d" x="43.215" y="148.223943" style="fill: #262626; stroke: #262626; stroke-width: 0.8"/>
      </g>
     </g>
     <g id="text_14">
      <!-- 0.5 -->
      <g style="fill: #262626" transform="translate(22.315 151.80285) scale(0.1 -0.1)">
       <use xlink:href="#ArialMT-30"/>
       <use xlink:href="#ArialMT-2e" transform="translate(55.615234 0)"/>
       <use xlink:href="#ArialMT-35" transform="translate(83.398438 0)"/>
      </g>
     </g>
    </g>
    <g id="ytick_3">
     <g id="line2d_15">
      <g>
       <use xlink:href="#m646535a86d" x="43.215" y="38.376324" style="fill: #262626; stroke: #262626; stroke-width: 0.8"/>
      </g>
     </g>
     <g id="text_15">
      <!-- 1.0 -->
      <g style="fill: #262626" transform="translate(22.315 41.955231) scale(0.1 -0.1)">
       <use xlink:href="#ArialMT-31"/>
       <use xlink:href="#ArialMT-2e" transform="translate(55.615234 0)"/>
       <use xlink:href="#ArialMT-30" transform="translate(83.398438 0)"/>
      </g>
     </g>
    </g>
    <g id="text_16">
     <!-- Probability -->
     <g style="fill: #262626" transform="translate(15.789375 170.744062) rotate(-90) scale(0.12 -0.12)">
      <defs>
       <path id="ArialMT-50" d="M 494 0 
L 494 4581 
L 2222 4581 
Q 2678 4581 2919 4538 
Q 3256 4481 3484 4323 
Q 3713 4166 3852 3881 
Q 3991 3597 3991 3256 
Q 3991 2672 3619 2267 
Q 3247 1863 2275 1863 
L 1100 1863 
L 1100 0 
L 494 0 
z
M 1100 2403 
L 2284 2403 
Q 2872 2403 3119 2622 
Q 3366 2841 3366 3238 
Q 3366 3525 3220 3729 
Q 3075 3934 2838 4000 
Q 2684 4041 2272 4041 
L 1100 4041 
L 1100 2403 
z
" transform="scale(0.015625)"/>
       <path id="ArialMT-72" d="M 416 0 
L 416 3319 
L 922 3319 
L 922 2816 
Q 1116 3169 1280 3281 
Q 1444 3394 1641 3394 
Q 1925 3394 2219 3213 
L 2025 2691 
Q 1819 2813 1613 2813 
Q 1428 2813 1281 2702 
Q 1134 2591 1072 2394 
Q 978 2094 978 1738 
L 978 0 
L 416 0 
z
" transform="scale(0.015625)"/>
       <path id="ArialMT-6f" d="M 213 1659 
Q 213 2581 725 3025 
Q 1153 3394 1769 3394 
Q 2453 3394 2887 2945 
Q 3322 2497 3322 1706 
Q 3322 1066 3130 698 
Q 2938 331 2570 128 
Q 2203 -75 1769 -75 
Q 1072 -75 642 372 
Q 213 819 213 1659 
z
M 791 1659 
Q 791 1022 1069 705 
Q 1347 388 1769 388 
Q 2188 388 2466 706 
Q 2744 1025 2744 1678 
Q 2744 2294 2464 2611 
Q 2184 2928 1769 2928 
Q 1347 2928 1069 2612 
Q 791 2297 791 1659 
z
" transform="scale(0.015625)"/>
       <path id="ArialMT-62" d="M 941 0 
L 419 0 
L 419 4581 
L 981 4581 
L 981 2947 
Q 1338 3394 1891 3394 
Q 2197 3394 2470 3270 
Q 2744 3147 2920 2923 
Q 3097 2700 3197 2384 
Q 3297 2069 3297 1709 
Q 3297 856 2875 390 
Q 2453 -75 1863 -75 
Q 1275 -75 941 416 
L 941 0 
z
M 934 1684 
Q 934 1088 1097 822 
Q 1363 388 1816 388 
Q 2184 388 2453 708 
Q 2722 1028 2722 1663 
Q 2722 2313 2464 2622 
Q 2206 2931 1841 2931 
Q 1472 2931 1203 2611 
Q 934 2291 934 1684 
z
" transform="scale(0.015625)"/>
       <path id="ArialMT-61" d="M 2588 409 
Q 2275 144 1986 34 
Q 1697 -75 1366 -75 
Q 819 -75 525 192 
Q 231 459 231 875 
Q 231 1119 342 1320 
Q 453 1522 633 1644 
Q 813 1766 1038 1828 
Q 1203 1872 1538 1913 
Q 2219 1994 2541 2106 
Q 2544 2222 2544 2253 
Q 2544 2597 2384 2738 
Q 2169 2928 1744 2928 
Q 1347 2928 1158 2789 
Q 969 2650 878 2297 
L 328 2372 
Q 403 2725 575 2942 
Q 747 3159 1072 3276 
Q 1397 3394 1825 3394 
Q 2250 3394 2515 3294 
Q 2781 3194 2906 3042 
Q 3031 2891 3081 2659 
Q 3109 2516 3109 2141 
L 3109 1391 
Q 3109 606 3145 398 
Q 3181 191 3288 0 
L 2700 0 
Q 2613 175 2588 409 
z
M 2541 1666 
Q 2234 1541 1622 1453 
Q 1275 1403 1131 1340 
Q 988 1278 909 1158 
Q 831 1038 831 891 
Q 831 666 1001 516 
Q 1172 366 1500 366 
Q 1825 366 2078 508 
Q 2331 650 2450 897 
Q 2541 1088 2541 1459 
L 2541 1666 
z
" transform="scale(0.015625)"/>
       <path id="ArialMT-69" d="M 425 3934 
L 425 4581 
L 988 4581 
L 988 3934 
L 425 3934 
z
M 425 0 
L 425 3319 
L 988 3319 
L 988 0 
L 425 0 
z
" transform="scale(0.015625)"/>
       <path id="ArialMT-6c" d="M 409 0 
L 409 4581 
L 972 4581 
L 972 0 
L 409 0 
z
" transform="scale(0.015625)"/>
       <path id="ArialMT-74" d="M 1650 503 
L 1731 6 
Q 1494 -44 1306 -44 
Q 1000 -44 831 53 
Q 663 150 594 308 
Q 525 466 525 972 
L 525 2881 
L 113 2881 
L 113 3319 
L 525 3319 
L 525 4141 
L 1084 4478 
L 1084 3319 
L 1650 3319 
L 1650 2881 
L 1084 2881 
L 1084 941 
Q 1084 700 1114 631 
Q 1144 563 1211 522 
Q 1278 481 1403 481 
Q 1497 481 1650 503 
z
" transform="scale(0.015625)"/>
       <path id="ArialMT-79" d="M 397 -1278 
L 334 -750 
Q 519 -800 656 -800 
Q 844 -800 956 -737 
Q 1069 -675 1141 -563 
Q 1194 -478 1313 -144 
Q 1328 -97 1363 -6 
L 103 3319 
L 709 3319 
L 1400 1397 
Q 1534 1031 1641 628 
Q 1738 1016 1872 1384 
L 2581 3319 
L 3144 3319 
L 1881 -56 
Q 1678 -603 1566 -809 
Q 1416 -1088 1222 -1217 
Q 1028 -1347 759 -1347 
Q 597 -1347 397 -1278 
z
" transform="scale(0.015625)"/>
      </defs>
      <use xlink:href="#ArialMT-50"/>
      <use xlink:href="#ArialMT-72" transform="translate(66.699219 0)"/>
      <use xlink:href="#ArialMT-6f" transform="translate(100 0)"/>
      <use xlink:href="#ArialMT-62" transform="translate(155.615234 0)"/>
      <use xlink:href="#ArialMT-61" transform="translate(211.230469 0)"/>
      <use xlink:href="#ArialMT-62" transform="translate(266.845703 0)"/>
      <use xlink:href="#ArialMT-69" transform="translate(322.460938 0)"/>
      <use xlink:href="#ArialMT-6c" transform="translate(344.677734 0)"/>
      <use xlink:href="#ArialMT-69" transform="translate(366.894531 0)"/>
      <use xlink:href="#ArialMT-74" transform="translate(389.111328 0)"/>
      <use xlink:href="#ArialMT-79" transform="translate(416.894531 0)"/>
     </g>
    </g>
   </g>
   <g id="patch_3">
    <path d="M 97.591368 226.149862 
L 104.832788 229.190971 
Q 102.550426 244.038735 96.635405 251.830333 
Q 90.720384 259.621932 82.164516 259.621932 
Q 73.309909 259.621932 67.765324 253.639097 
Q 62.220739 247.636387 59.328951 236.267014 
Q 56.437163 224.897641 56.437163 211.85864 
Q 56.437163 197.627048 59.699386 187.052736 
Q 62.973559 176.458548 68.996126 170.972627 
Q 75.030642 165.466829 82.272062 165.466829 
Q 90.493343 165.466829 96.085727 172.423613 
Q 101.690059 179.380397 103.900724 191.982115 
L 96.76685 194.784705 
Q 94.854924 184.846442 91.234215 180.314594 
Q 87.613505 175.76287 82.128667 175.76287 
Q 75.819312 175.76287 71.577226 180.811507 
Q 67.335141 185.840268 65.614407 194.327545 
Q 63.905623 202.794945 63.905623 211.799011 
Q 63.905623 223.406902 65.937045 232.073067 
Q 67.968466 240.739232 72.25835 245.032562 
Q 76.560183 249.306015 81.567039 249.306015 
Q 87.649353 249.306015 91.86754 243.482193 
Q 96.097676 237.638494 97.591368 226.149862 
z
" clip-path="url(#pe4c70a2b5c)" style="fill: #3498db"/>
   </g>
   <g id="patch_4">
    <path d="M 52.52366 163.91646 
L 72.380881 38.376324 
L 79.752549 38.376324 
L 100.919285 163.91646 
L 93.129926 163.91646 
L 87.090351 125.878978 
L 65.472058 125.878978 
L 59.782439 163.91646 
L 52.52366 163.91646 
z
M 67.44762 112.368546 
L 84.979322 112.368546 
L 79.583215 77.592202 
Q 77.110941 61.752386 75.914314 51.557902 
Q 74.920889 63.643298 73.12595 75.536862 
L 67.44762 112.368546 
z
" clip-path="url(#pe4c70a2b5c)" style="fill: #3498db"/>
   </g>
   <g id="patch_5">
    <path d="M 119.739806 258.071562 
L 139.597026 156.070202 
L 146.968695 156.070202 
L 168.135431 258.071562 
L 160.346072 258.071562 
L 154.306497 227.166108 
L 132.688204 227.166108 
L 126.998585 258.071562 
L 119.739806 258.071562 
z
M 134.663766 216.188882 
L 152.195468 216.188882 
L 146.799361 187.933102 
Q 144.327086 175.063252 143.13046 166.780233 
Q 142.137035 176.599618 140.342096 186.263139 
L 134.663766 216.188882 
z
" clip-path="url(#pe4c70a2b5c)" style="fill: #3498db"/>
   </g>
   <g id="patch_6">
    <path d="M 164.807514 116.168077 
L 172.048934 119.969462 
Q 169.766572 138.529168 163.851551 148.268666 
Q 157.93653 158.008163 149.380662 158.008163 
Q 140.526055 158.008163 134.98147 150.52962 
Q 129.436884 143.026232 126.545097 128.814516 
Q 123.653309 114.6028 123.653309 98.304049 
Q 123.653309 80.514559 126.915532 67.296669 
Q 130.189705 54.053934 136.212272 47.196533 
Q 142.246788 40.314286 149.488208 40.314286 
Q 157.709489 40.314286 163.301872 49.010266 
Q 168.906205 57.706246 171.11687 73.458392 
L 163.982996 76.96163 
Q 162.07107 64.538801 158.45036 58.873991 
Q 154.829651 53.184336 149.344813 53.184336 
Q 143.035458 53.184336 138.793372 59.495133 
Q 134.551286 65.781084 132.830553 76.39018 
Q 131.121769 86.97443 131.121769 98.229512 
Q 131.121769 112.739376 133.153191 123.572083 
Q 135.184612 134.404789 139.474496 139.771451 
Q 143.776329 145.113267 148.783185 145.113267 
Q 154.865499 145.113267 159.083686 137.83349 
Q 163.313822 130.528866 164.807514 116.168077 
z
" clip-path="url(#pe4c70a2b5c)" style="fill: #3498db"/>
   </g>
   <g id="patch_7">
    <path d="M 186.955952 258.071562 
L 206.813172 156.070202 
L 214.184841 156.070202 
L 235.351577 258.071562 
L 227.562218 258.071562 
L 221.522643 227.166108 
L 199.90435 227.166108 
L 194.214731 258.071562 
L 186.955952 258.071562 
z
M 201.879912 216.188882 
L 219.411613 216.188882 
L 214.015507 187.933102 
Q 211.543232 175.063252 210.346606 166.780233 
Q 209.353181 176.599618 207.558241 186.263139 
L 201.879912 216.188882 
z
" clip-path="url(#pe4c70a2b5c)" style="fill: #3498db"/>
   </g>
   <g id="patch_8">
    <path d="M 232.02366 116.168077 
L 239.265079 119.969462 
Q 236.982718 138.529168 231.067697 148.268666 
Q 225.152676 158.008163 216.596808 158.008163 
Q 207.742201 158.008163 202.197616 150.52962 
Q 196.65303 143.026232 193.761242 128.814516 
Q 190.869454 114.6028 190.869454 98.304049 
Q 190.869454 80.514559 194.131678 67.296669 
Q 197.405851 54.053934 203.428418 47.196533 
Q 209.462934 40.314286 216.704353 40.314286 
Q 224.925635 40.314286 230.518018 49.010266 
Q 236.122351 57.706246 238.333016 73.458392 
L 231.199142 76.96163 
Q 229.287216 64.538801 225.666506 58.873991 
Q 222.045797 53.184336 216.560959 53.184336 
Q 210.251603 53.184336 206.009518 59.495133 
Q 201.767432 65.781084 200.046699 76.39018 
Q 198.337915 86.97443 198.337915 98.229512 
Q 198.337915 112.739376 200.369336 123.572083 
Q 202.400758 134.404789 206.690641 139.771451 
Q 210.992475 145.113267 215.999331 145.113267 
Q 222.081645 145.113267 226.299832 137.83349 
Q 230.529968 130.528866 232.02366 116.168077 
z
" clip-path="url(#pe4c70a2b5c)" style="fill: #3498db"/>
   </g>
   <g id="patch_9">
    <path d="M 254.172098 258.071562 
L 274.029318 179.608977 
L 281.400987 179.608977 
L 302.567723 258.071562 
L 294.778364 258.071562 
L 288.738788 234.298136 
L 267.120496 234.298136 
L 261.430877 258.071562 
L 254.172098 258.071562 
z
M 269.096058 225.854116 
L 286.627759 225.854116 
L 281.231653 204.118901 
Q 278.759378 194.219016 277.562752 187.847463 
Q 276.569326 195.400836 274.774387 202.834314 
L 269.096058 225.854116 
z
" clip-path="url(#pe4c70a2b5c)" style="fill: #3498db"/>
   </g>
   <g id="patch_10">
    <path d="M 284.405314 126.031803 
L 284.405314 110.021261 
L 306.564274 109.902002 
L 306.564274 160.587142 
Q 301.458576 171.231022 296.033057 176.597684 
Q 290.607539 181.934531 284.896467 181.934531 
Q 277.186519 181.934531 270.881496 173.318057 
Q 264.587894 164.701583 261.378272 148.392894 
Q 258.168649 132.084205 258.168649 111.959222 
Q 258.168649 92.013129 261.355427 74.750366 
Q 264.553628 57.457789 270.550253 49.079833 
Q 276.546879 40.701878 284.359626 40.701878 
Q 290.036431 40.701878 294.616711 45.502059 
Q 299.208413 50.272425 301.812662 58.859084 
Q 304.428333 67.415928 305.776146 81.220175 
L 299.539655 85.692394 
Q 298.351752 75.257218 296.604164 69.29426 
Q 294.856576 63.331302 291.601265 59.753528 
Q 288.357376 56.145938 284.405314 56.145938 
Q 279.653702 56.145938 276.192793 59.932416 
Q 272.731883 63.68908 270.607364 69.860741 
Q 268.482845 76.002587 267.306364 83.36684 
Q 265.307489 96.038125 265.307489 110.856075 
Q 265.307489 129.102726 267.717562 141.416233 
Q 270.127634 153.699926 274.730758 159.662884 
Q 279.333882 165.625842 284.508114 165.625842 
Q 289.008438 165.625842 293.291743 161.123809 
Q 297.575047 156.591961 299.77952 151.463817 
L 299.77952 126.031803 
L 284.405314 126.031803 
z
" clip-path="url(#pe4c70a2b5c)" style="fill: #3498db"/>
   </g>
   <g id="patch_11">
    <path d="M 366.455952 234.130287 
L 373.697371 236.411119 
Q 371.415009 247.546942 365.499989 253.390641 
Q 359.584968 259.234339 351.029099 259.234339 
Q 342.174492 259.234339 336.629907 254.747214 
Q 331.085322 250.245181 328.193534 241.718151 
Q 325.301746 233.191122 325.301746 223.411871 
Q 325.301746 212.738177 328.56397 204.807443 
Q 331.838143 196.861802 337.860709 192.747361 
Q 343.895226 188.618013 351.136645 188.618013 
Q 359.357927 188.618013 364.95031 193.835601 
Q 370.554643 199.053189 372.765307 208.504477 
L 365.631434 210.606419 
Q 363.719508 203.152722 360.098798 199.753836 
Q 356.478088 196.340043 350.993251 196.340043 
Q 344.683895 196.340043 340.441809 200.126521 
Q 336.199724 203.898092 334.478991 210.263549 
Q 332.770207 216.614099 332.770207 223.367149 
Q 332.770207 232.073067 334.801628 238.572691 
Q 336.833049 245.072315 341.122933 248.292312 
Q 345.424766 251.497402 350.431622 251.497402 
Q 356.513937 251.497402 360.732123 247.129535 
Q 364.962259 242.746761 366.455952 234.130287 
z
" clip-path="url(#pe4c70a2b5c)" style="fill: #3498db"/>
   </g>
   <g id="patch_12">
    <path d="M 368.501969 40.872172 
L 376.641783 40.872172 
L 376.641783 125.571009 
Q 376.641783 147.649663 374.546385 160.672869 
Q 372.450988 173.664077 366.970717 181.823579 
Q 361.490446 189.951084 352.598439 189.951084 
Q 343.948208 189.951084 338.441073 182.847517 
Q 332.94737 175.74395 330.596764 162.304769 
Q 328.246158 148.865589 328.246158 125.571009 
L 328.246158 40.872172 
L 336.385971 40.872172 
L 336.385971 125.443016 
Q 336.385971 144.545852 337.876927 153.6013 
Q 339.367883 162.656748 342.994533 167.552449 
Q 346.634615 172.448151 351.886541 172.448151 
Q 360.859141 172.448151 364.673839 162.752742 
Q 368.501969 153.057333 368.501969 125.443016 
L 368.501969 40.872172 
z
" clip-path="url(#pe4c70a2b5c)" style="fill: #3498db"/>
   </g>
   <g id="patch_13">
    <path d="M 388.604389 258.071562 
L 408.46161 148.223943 
L 415.833278 148.223943 
L 437.000014 258.071562 
L 429.210655 258.071562 
L 423.17108 224.788765 
L 401.552787 224.788765 
L 395.863169 258.071562 
L 388.604389 258.071562 
z
M 403.528349 212.967137 
L 421.060051 212.967137 
L 415.663944 182.537836 
Q 413.19167 168.677997 411.995044 159.757824 
Q 411.001618 170.332545 409.206679 180.739414 
L 403.528349 212.967137 
z
" clip-path="url(#pe4c70a2b5c)" style="fill: #3498db"/>
   </g>
   <g id="patch_14">
    <path d="M 418.837606 106.552807 
L 418.837606 94.100164 
L 440.996566 94.007407 
L 440.996566 133.429183 
Q 435.890867 141.707756 430.465349 145.881826 
Q 425.03983 150.032707 419.328758 150.032707 
Q 411.618811 150.032707 405.313787 143.331005 
Q 399.020186 136.629303 395.810563 123.944767 
Q 392.600941 111.260231 392.600941 95.607467 
Q 392.600941 80.093839 395.787719 66.667246 
Q 398.985919 53.217464 404.982545 46.701276 
Q 410.979171 40.185088 418.791917 40.185088 
Q 424.468723 40.185088 429.049003 43.918562 
Q 433.640705 47.628847 436.244954 54.30736 
Q 438.860625 60.962683 440.208438 71.69932 
L 433.971947 75.177712 
Q 432.784044 67.061464 431.036456 62.423608 
Q 429.288868 57.785752 426.033557 55.003038 
Q 422.789668 52.197135 418.837606 52.197135 
Q 414.085994 52.197135 410.625084 55.142174 
Q 407.164175 58.064023 405.039656 62.864204 
Q 402.915137 67.641196 401.738656 73.368948 
Q 399.739781 83.224392 399.739781 94.749464 
Q 399.739781 108.941303 402.149853 118.518476 
Q 404.559926 128.072459 409.16305 132.710315 
Q 413.766174 137.348171 418.940405 137.348171 
Q 423.44073 137.348171 427.724034 133.84659 
Q 432.007338 130.321819 434.211812 126.333263 
L 434.211812 106.552807 
L 418.837606 106.552807 
z
" clip-path="url(#pe4c70a2b5c)" style="fill: #3498db"/>
   </g>
   <g id="patch_15">
    <path d="M 502.934261 234.926868 
L 511.074074 234.926868 
L 511.074074 248.300369 
Q 511.074074 251.786472 508.978677 253.842768 
Q 506.883279 255.894011 501.403009 257.182354 
Q 495.922738 258.465644 487.03073 258.465644 
Q 478.380499 258.465644 472.873365 257.344028 
Q 467.379662 256.222412 465.029056 254.100436 
Q 462.678449 251.97846 462.678449 248.300369 
L 462.678449 234.926868 
L 470.818263 234.926868 
L 470.818263 248.280159 
Q 470.818263 251.296397 472.309219 252.726204 
Q 473.800175 254.156012 477.426825 254.929017 
Q 481.066906 255.702023 486.318832 255.702023 
Q 495.291432 255.702023 499.106131 254.171169 
Q 502.934261 252.640315 502.934261 248.280159 
L 502.934261 234.926868 
z
" clip-path="url(#pe4c70a2b5c)" style="fill: #3498db"/>
   </g>
   <g id="patch_16">
    <path d="M 500.888243 168.029245 
L 508.129663 174.364887 
Q 505.847301 205.297731 499.93228 221.530226 
Q 494.017259 237.762722 485.461391 237.762722 
Q 476.606784 237.762722 471.062199 225.298484 
Q 465.517614 212.792837 462.625826 189.106644 
Q 459.734038 165.420451 459.734038 138.255866 
Q 459.734038 108.606715 462.996261 86.576899 
Q 466.270434 64.505674 472.293001 53.076672 
Q 478.327517 41.60626 485.568937 41.60626 
Q 493.790218 41.60626 499.382602 56.09956 
Q 504.986934 70.59286 507.197599 96.846437 
L 500.063725 102.685167 
Q 498.151799 81.980453 494.53109 72.539103 
Q 490.91038 63.056344 485.425542 63.056344 
Q 479.116187 63.056344 474.874101 73.574339 
Q 470.632016 84.050924 468.911282 101.73275 
Q 467.202498 119.373166 467.202498 138.131638 
Q 467.202498 162.314744 469.23392 180.369255 
Q 471.265341 198.423765 475.555225 207.368202 
Q 479.857058 216.271229 484.863914 216.271229 
Q 490.946228 216.271229 495.164415 204.138267 
Q 499.394551 191.963895 500.888243 168.029245 
z
" clip-path="url(#pe4c70a2b5c)" style="fill: #3498db"/>
   </g>
   <g id="patch_17">
    <path d="M 523.036681 258.071562 
L 542.893901 242.379045 
L 550.26557 242.379045 
L 571.432306 258.071562 
L 563.642947 258.071562 
L 557.603372 253.316877 
L 535.985079 253.316877 
L 530.29546 258.071562 
L 523.036681 258.071562 
z
M 537.960641 251.628073 
L 555.492343 251.628073 
L 550.096236 247.28103 
Q 547.623961 245.301053 546.427335 244.026743 
Q 545.43391 245.537417 543.638971 247.024113 
L 537.960641 251.628073 
z
" clip-path="url(#pe4c70a2b5c)" style="fill: #3498db"/>
   </g>
   <g id="patch_18">
    <path d="M 553.269898 236.426026 
L 553.269898 234.647077 
L 575.428857 234.633826 
L 575.428857 240.265508 
Q 570.323159 241.448162 564.89764 242.044457 
Q 559.472122 242.63744 553.76105 242.63744 
Q 546.051103 242.63744 539.746079 241.680054 
Q 533.452477 240.722668 530.242855 238.910592 
Q 527.033232 237.098515 527.033232 234.862406 
Q 527.033232 232.646173 530.220011 230.728089 
Q 533.418211 228.806691 539.414837 227.875807 
Q 545.411462 226.944923 553.224209 226.944923 
Q 558.901015 226.944923 563.481295 227.478277 
Q 568.072997 228.008317 570.677245 228.962391 
Q 573.292916 229.913151 574.640729 231.446956 
L 568.404239 231.94387 
Q 567.216336 230.784406 565.468748 230.121855 
Q 563.72116 229.459304 560.465849 229.061773 
Q 557.22196 228.66093 553.269898 228.66093 
Q 548.518286 228.66093 545.057376 229.08165 
Q 541.596466 229.499057 539.471947 230.184797 
Q 537.347429 230.867224 536.170948 231.685475 
Q 534.172073 233.093395 534.172073 234.739834 
Q 534.172073 236.76724 536.582145 238.135407 
Q 538.992217 239.500262 543.595342 240.162813 
Q 548.198466 240.825364 553.372697 240.825364 
Q 557.873022 240.825364 562.156326 240.325138 
Q 566.43963 239.821599 568.644104 239.251805 
L 568.644104 236.426026 
L 553.269898 236.426026 
z
" clip-path="url(#pe4c70a2b5c)" style="fill: #3498db"/>
   </g>
   <g id="patch_19">
    <path d="M 570.150407 41.528974 
L 578.29022 41.528974 
L 578.29022 148.516978 
Q 578.29022 176.405804 576.194823 192.85617 
Q 574.099425 209.266117 568.619154 219.572857 
Q 563.138884 229.839178 554.246876 229.839178 
Q 545.596645 229.839178 540.08951 220.866252 
Q 534.595808 211.893325 532.245202 194.917518 
Q 529.894595 177.941711 529.894595 148.516978 
L 529.894595 41.528974 
L 538.034409 41.528974 
L 538.034409 148.355304 
Q 538.034409 172.485201 539.525365 183.923662 
Q 541.016321 195.362122 544.642971 201.546166 
Q 548.283052 207.73021 553.534978 207.73021 
Q 562.507578 207.73021 566.322276 195.483378 
Q 570.150407 183.236546 570.150407 148.355304 
L 570.150407 41.528974 
z
" clip-path="url(#pe4c70a2b5c)" style="fill: #3498db"/>
   </g>
   <g id="patch_20">
    <path d="M 590.252827 258.071562 
L 610.110047 250.225304 
L 617.481716 250.225304 
L 638.648452 258.071562 
L 630.859093 258.071562 
L 624.819518 255.69422 
L 603.201225 255.69422 
L 597.511606 258.071562 
L 590.252827 258.071562 
z
M 605.176787 254.849818 
L 622.708488 254.849818 
L 617.312382 252.676296 
Q 614.840107 251.686308 613.643481 251.049153 
Q 612.650056 251.80449 610.855116 252.547838 
L 605.176787 254.849818 
z
" clip-path="url(#pe4c70a2b5c)" style="fill: #3498db"/>
   </g>
   <g id="patch_21">
    <path d="M 637.366552 234.795508 
L 645.506366 234.795508 
L 645.506366 243.711175 
Q 645.506366 246.035244 643.410969 247.406107 
Q 641.315571 248.773603 635.8353 249.632498 
Q 630.35503 250.488025 621.463022 250.488025 
Q 612.812791 250.488025 607.305656 249.740281 
Q 601.811954 248.992537 599.461347 247.577886 
Q 597.110741 246.163236 597.110741 243.711175 
L 597.110741 234.795508 
L 605.250555 234.795508 
L 605.250555 243.697702 
Q 605.250555 245.708527 606.741511 246.661732 
Q 608.232467 247.614937 611.859116 248.130274 
Q 615.499198 248.645611 620.751124 248.645611 
Q 629.723724 248.645611 633.538422 247.625041 
Q 637.366552 246.604472 637.366552 243.697702 
L 637.366552 234.795508 
z
" clip-path="url(#pe4c70a2b5c)" style="fill: #3498db"/>
   </g>
   <g id="patch_22">
    <path d="M 635.320535 168.029245 
L 642.561954 174.364887 
Q 640.279593 205.297731 634.364572 221.530226 
Q 628.449551 237.762722 619.893683 237.762722 
Q 611.039076 237.762722 605.494491 225.298484 
Q 599.949905 212.792837 597.058117 189.106644 
Q 594.166329 165.420451 594.166329 138.255866 
Q 594.166329 108.606715 597.428553 86.576899 
Q 600.702726 64.505674 606.725293 53.076672 
Q 612.759809 41.60626 620.001228 41.60626 
Q 628.22251 41.60626 633.814893 56.09956 
Q 639.419226 70.59286 641.629891 96.846437 
L 634.496017 102.685167 
Q 632.584091 81.980453 628.963381 72.539103 
Q 625.342672 63.056344 619.857834 63.056344 
Q 613.548478 63.056344 609.306393 73.574339 
Q 605.064307 84.050924 603.343574 101.73275 
Q 601.63479 119.373166 601.63479 138.131638 
Q 601.63479 162.314744 603.666211 180.369255 
Q 605.697633 198.423765 609.987516 207.368202 
Q 614.28935 216.271229 619.296206 216.271229 
Q 625.37852 216.271229 629.596707 204.138267 
Q 633.826843 191.963895 635.320535 168.029245 
z
" clip-path="url(#pe4c70a2b5c)" style="fill: #3498db"/>
   </g>
   <g id="patch_23">
    <path d="M 657.468973 258.071562 
L 677.326193 234.532787 
L 684.697862 234.532787 
L 705.864598 258.071562 
L 698.075239 258.071562 
L 692.035663 250.939534 
L 670.417371 250.939534 
L 664.727752 258.071562 
L 657.468973 258.071562 
z
M 672.392933 248.406329 
L 689.924634 248.406329 
L 684.528528 241.885764 
Q 682.056253 238.915798 680.859627 237.004333 
Q 679.866201 239.270345 678.071262 241.500388 
L 672.392933 248.406329 
z
" clip-path="url(#pe4c70a2b5c)" style="fill: #3498db"/>
   </g>
   <g id="patch_24">
    <path d="M 687.702189 160.120044 
L 687.702189 137.883181 
L 709.861149 137.717543 
L 709.861149 208.113572 
Q 704.755451 222.896738 699.329932 230.350435 
Q 693.904414 237.762722 688.193342 237.762722 
Q 680.483394 237.762722 674.178371 225.795398 
Q 667.884769 213.828073 664.675147 191.177115 
Q 661.465524 168.526158 661.465524 140.574794 
Q 661.465524 112.871886 664.652302 88.895827 
Q 667.850503 64.878359 673.847128 53.242309 
Q 679.843754 41.60626 687.656501 41.60626 
Q 693.333306 41.60626 697.913586 48.273178 
Q 702.505288 54.898686 705.109537 66.824602 
Q 707.725208 78.709108 709.073021 97.881673 
L 702.83653 104.093087 
Q 701.648627 89.599787 699.901039 81.317902 
Q 698.153451 73.036016 694.89814 68.066885 
Q 691.654251 63.056344 687.702189 63.056344 
Q 682.950577 63.056344 679.489668 68.315341 
Q 676.028758 73.532929 673.904239 82.104681 
Q 671.77972 90.635023 670.603239 100.863152 
Q 668.604364 118.462159 668.604364 139.042645 
Q 668.604364 164.385215 671.014437 181.487309 
Q 673.424509 198.547994 678.027633 206.829879 
Q 682.630757 215.111765 687.804989 215.111765 
Q 692.305313 215.111765 696.588618 208.858941 
Q 700.871922 202.564708 703.076395 195.442287 
L 703.076395 160.120044 
L 687.702189 160.120044 
z
" clip-path="url(#pe4c70a2b5c)" style="fill: #3498db"/>
   </g>
   <g id="patch_25">
    <path d="M 769.752827 247.430996 
L 776.994246 248.444699 
Q 774.711884 253.393953 768.796864 255.991153 
Q 762.881843 258.588352 754.325974 258.588352 
Q 745.471367 258.588352 739.926782 256.594074 
Q 734.382197 254.593171 731.490409 250.80338 
Q 728.598621 247.013589 728.598621 242.667255 
Q 728.598621 237.923391 731.860845 234.39862 
Q 735.135018 230.867224 741.157584 229.038584 
Q 747.192101 227.203318 754.43352 227.203318 
Q 762.654802 227.203318 768.247185 229.522246 
Q 773.851518 231.841174 776.062182 236.041747 
L 768.928309 236.975943 
Q 767.016383 233.663189 763.395673 232.152573 
Q 759.774963 230.635332 754.290126 230.635332 
Q 747.98077 230.635332 743.738684 232.318211 
Q 739.496599 233.994464 737.775866 236.823557 
Q 736.067082 239.646023 736.067082 242.647379 
Q 736.067082 246.516676 738.098503 249.405397 
Q 740.129924 252.294119 744.419808 253.725229 
Q 748.721641 255.149713 753.728497 255.149713 
Q 759.810812 255.149713 764.028998 253.208439 
Q 768.259134 251.26054 769.752827 247.430996 
z
" clip-path="url(#pe4c70a2b5c)" style="fill: #3498db"/>
   </g>
   <g id="patch_26">
    <path d="M 724.685118 226.686528 
L 744.542339 148.223943 
L 751.914008 148.223943 
L 773.080743 226.686528 
L 765.291385 226.686528 
L 759.251809 202.913102 
L 737.633516 202.913102 
L 731.943898 226.686528 
L 724.685118 226.686528 
z
M 739.609078 194.469082 
L 757.14078 194.469082 
L 751.744674 172.733867 
Q 749.272399 162.833982 748.075773 156.462429 
Q 747.082347 164.015802 745.287408 171.44928 
L 739.609078 194.469082 
z
" clip-path="url(#pe4c70a2b5c)" style="fill: #3498db"/>
   </g>
   <g id="patch_27">
    <path d="M 771.798844 40.21537 
L 779.938658 40.21537 
L 779.938658 102.625039 
Q 779.938658 118.893521 777.84326 128.489568 
Q 775.747863 138.062037 770.267592 144.074302 
Q 764.787321 150.062989 755.895314 150.062989 
Q 747.245083 150.062989 741.737948 144.828782 
Q 736.244245 139.594575 733.893639 129.692021 
Q 731.543033 119.789466 731.543033 102.625039 
L 731.543033 40.21537 
L 739.682846 40.21537 
L 739.682846 102.530729 
Q 739.682846 116.606503 741.173802 123.278938 
Q 742.664758 129.951373 746.291408 133.558732 
Q 749.93149 137.166091 755.183416 137.166091 
Q 764.156016 137.166091 767.970714 130.022106 
Q 771.798844 122.87812 771.798844 102.530729 
L 771.798844 40.21537 
z
" clip-path="url(#pe4c70a2b5c)" style="fill: #3498db"/>
   </g>
   <g id="patch_28">
    <path d="M 839.01499 180.922582 
L 847.154804 180.922582 
L 847.154804 225.500917 
Q 847.154804 237.121261 845.059406 243.97558 
Q 842.964008 250.813058 837.483738 255.107533 
Q 832.003467 259.385167 823.11146 259.385167 
Q 814.461228 259.385167 808.954094 255.646447 
Q 803.460391 251.907728 801.109785 244.834475 
Q 798.759179 237.761222 798.759179 225.500917 
L 798.759179 180.922582 
L 806.898992 180.922582 
L 806.898992 225.433552 
Q 806.898992 235.487676 808.389948 240.253701 
Q 809.880904 245.019727 813.507554 247.596412 
Q 817.147636 250.173097 822.399562 250.173097 
Q 831.372162 250.173097 835.18686 245.07025 
Q 839.01499 239.967403 839.01499 225.433552 
L 839.01499 180.922582 
z
" clip-path="url(#pe4c70a2b5c)" style="fill: #3498db"/>
   </g>
   <g id="patch_29">
    <path d="M 836.968972 131.726427 
L 844.210392 136.28809 
Q 841.92803 158.559737 836.013009 170.247134 
Q 830.097989 181.934531 821.54212 181.934531 
Q 812.687513 181.934531 807.142928 172.96028 
Q 801.598343 163.956214 798.706555 146.902154 
Q 795.814767 129.848095 795.814767 110.289594 
Q 795.814767 88.942206 799.076991 73.080738 
Q 802.351164 57.189456 808.37373 48.960574 
Q 814.408247 40.701878 821.649666 40.701878 
Q 829.870947 40.701878 835.463331 51.137054 
Q 841.067664 61.57223 843.278328 80.474806 
L 836.144454 84.678691 
Q 834.232528 69.771297 830.611819 62.973525 
Q 826.991109 56.145938 821.506272 56.145938 
Q 815.196916 56.145938 810.95483 63.718895 
Q 806.712745 71.262036 804.992011 83.992951 
Q 803.283228 96.694051 803.283228 110.20015 
Q 803.283228 127.611986 805.314649 140.611234 
Q 807.34607 153.610482 811.635954 160.050476 
Q 815.937787 166.460656 820.944643 166.460656 
Q 827.026958 166.460656 831.245144 157.724923 
Q 835.47528 148.959375 836.968972 131.726427 
z
" clip-path="url(#pe4c70a2b5c)" style="fill: #3498db"/>
   </g>
   <g id="patch_30">
    <path d="M 43.215 258.071562 
L 43.215 27.391562 
" style="fill: none; stroke: #262626; stroke-width: 2; stroke-linejoin: miter; stroke-linecap: square"/>
   </g>
   <g id="patch_31">
    <path d="M 43.215 258.071562 
L 849.80875 258.071562 
" style="fill: none; stroke: #262626; stroke-width: 2; stroke-linejoin: miter; stroke-linecap: square"/>
   </g>
   <g id="text_17">
    <!-- Improved/Neutral Mutations (n=28) -->
    <g style="fill: #262626" transform="translate(338.162813 17.391562) scale(0.14 -0.14)">
     <defs>
      <path id="ArialMT-49" d="M 597 0 
L 597 4581 
L 1203 4581 
L 1203 0 
L 597 0 
z
" transform="scale(0.015625)"/>
      <path id="ArialMT-6d" d="M 422 0 
L 422 3319 
L 925 3319 
L 925 2853 
Q 1081 3097 1340 3245 
Q 1600 3394 1931 3394 
Q 2300 3394 2536 3241 
Q 2772 3088 2869 2813 
Q 3263 3394 3894 3394 
Q 4388 3394 4653 3120 
Q 4919 2847 4919 2278 
L 4919 0 
L 4359 0 
L 4359 2091 
Q 4359 2428 4304 2576 
Q 4250 2725 4106 2815 
Q 3963 2906 3769 2906 
Q 3419 2906 3187 2673 
Q 2956 2441 2956 1928 
L 2956 0 
L 2394 0 
L 2394 2156 
Q 2394 2531 2256 2718 
Q 2119 2906 1806 2906 
Q 1569 2906 1367 2781 
Q 1166 2656 1075 2415 
Q 984 2175 984 1722 
L 984 0 
L 422 0 
z
" transform="scale(0.015625)"/>
      <path id="ArialMT-70" d="M 422 -1272 
L 422 3319 
L 934 3319 
L 934 2888 
Q 1116 3141 1344 3267 
Q 1572 3394 1897 3394 
Q 2322 3394 2647 3175 
Q 2972 2956 3137 2557 
Q 3303 2159 3303 1684 
Q 3303 1175 3120 767 
Q 2938 359 2589 142 
Q 2241 -75 1856 -75 
Q 1575 -75 1351 44 
Q 1128 163 984 344 
L 984 -1272 
L 422 -1272 
z
M 931 1641 
Q 931 1000 1190 694 
Q 1450 388 1819 388 
Q 2194 388 2461 705 
Q 2728 1022 2728 1688 
Q 2728 2322 2467 2637 
Q 2206 2953 1844 2953 
Q 1484 2953 1207 2617 
Q 931 2281 931 1641 
z
" transform="scale(0.015625)"/>
      <path id="ArialMT-76" d="M 1344 0 
L 81 3319 
L 675 3319 
L 1388 1331 
Q 1503 1009 1600 663 
Q 1675 925 1809 1294 
L 2547 3319 
L 3125 3319 
L 1869 0 
L 1344 0 
z
" transform="scale(0.015625)"/>
      <path id="ArialMT-65" d="M 2694 1069 
L 3275 997 
Q 3138 488 2766 206 
Q 2394 -75 1816 -75 
Q 1088 -75 661 373 
Q 234 822 234 1631 
Q 234 2469 665 2931 
Q 1097 3394 1784 3394 
Q 2450 3394 2872 2941 
Q 3294 2488 3294 1666 
Q 3294 1616 3291 1516 
L 816 1516 
Q 847 969 1125 678 
Q 1403 388 1819 388 
Q 2128 388 2347 550 
Q 2566 713 2694 1069 
z
M 847 1978 
L 2700 1978 
Q 2663 2397 2488 2606 
Q 2219 2931 1791 2931 
Q 1403 2931 1139 2672 
Q 875 2413 847 1978 
z
" transform="scale(0.015625)"/>
      <path id="ArialMT-64" d="M 2575 0 
L 2575 419 
Q 2259 -75 1647 -75 
Q 1250 -75 917 144 
Q 584 363 401 755 
Q 219 1147 219 1656 
Q 219 2153 384 2558 
Q 550 2963 881 3178 
Q 1213 3394 1622 3394 
Q 1922 3394 2156 3267 
Q 2391 3141 2538 2938 
L 2538 4581 
L 3097 4581 
L 3097 0 
L 2575 0 
z
M 797 1656 
Q 797 1019 1065 703 
Q 1334 388 1700 388 
Q 2069 388 2326 689 
Q 2584 991 2584 1609 
Q 2584 2291 2321 2609 
Q 2059 2928 1675 2928 
Q 1300 2928 1048 2622 
Q 797 2316 797 1656 
z
" transform="scale(0.015625)"/>
      <path id="ArialMT-2f" d="M 0 -78 
L 1328 4659 
L 1778 4659 
L 453 -78 
L 0 -78 
z
" transform="scale(0.015625)"/>
      <path id="ArialMT-4e" d="M 488 0 
L 488 4581 
L 1109 4581 
L 3516 984 
L 3516 4581 
L 4097 4581 
L 4097 0 
L 3475 0 
L 1069 3600 
L 1069 0 
L 488 0 
z
" transform="scale(0.015625)"/>
      <path id="ArialMT-75" d="M 2597 0 
L 2597 488 
Q 2209 -75 1544 -75 
Q 1250 -75 995 37 
Q 741 150 617 320 
Q 494 491 444 738 
Q 409 903 409 1263 
L 409 3319 
L 972 3319 
L 972 1478 
Q 972 1038 1006 884 
Q 1059 663 1231 536 
Q 1403 409 1656 409 
Q 1909 409 2131 539 
Q 2353 669 2445 892 
Q 2538 1116 2538 1541 
L 2538 3319 
L 3100 3319 
L 3100 0 
L 2597 0 
z
" transform="scale(0.015625)"/>
      <path id="ArialMT-20" transform="scale(0.015625)"/>
      <path id="ArialMT-4d" d="M 475 0 
L 475 4581 
L 1388 4581 
L 2472 1338 
Q 2622 884 2691 659 
Q 2769 909 2934 1394 
L 4031 4581 
L 4847 4581 
L 4847 0 
L 4263 0 
L 4263 3834 
L 2931 0 
L 2384 0 
L 1059 3900 
L 1059 0 
L 475 0 
z
" transform="scale(0.015625)"/>
      <path id="ArialMT-6e" d="M 422 0 
L 422 3319 
L 928 3319 
L 928 2847 
Q 1294 3394 1984 3394 
Q 2284 3394 2536 3286 
Q 2788 3178 2913 3003 
Q 3038 2828 3088 2588 
Q 3119 2431 3119 2041 
L 3119 0 
L 2556 0 
L 2556 2019 
Q 2556 2363 2490 2533 
Q 2425 2703 2258 2804 
Q 2091 2906 1866 2906 
Q 1506 2906 1245 2678 
Q 984 2450 984 1813 
L 984 0 
L 422 0 
z
" transform="scale(0.015625)"/>
      <path id="ArialMT-73" d="M 197 991 
L 753 1078 
Q 800 744 1014 566 
Q 1228 388 1613 388 
Q 2000 388 2187 545 
Q 2375 703 2375 916 
Q 2375 1106 2209 1216 
Q 2094 1291 1634 1406 
Q 1016 1563 777 1677 
Q 538 1791 414 1992 
Q 291 2194 291 2438 
Q 291 2659 392 2848 
Q 494 3038 669 3163 
Q 800 3259 1026 3326 
Q 1253 3394 1513 3394 
Q 1903 3394 2198 3281 
Q 2494 3169 2634 2976 
Q 2775 2784 2828 2463 
L 2278 2388 
Q 2241 2644 2061 2787 
Q 1881 2931 1553 2931 
Q 1166 2931 1000 2803 
Q 834 2675 834 2503 
Q 834 2394 903 2306 
Q 972 2216 1119 2156 
Q 1203 2125 1616 2013 
Q 2213 1853 2448 1751 
Q 2684 1650 2818 1456 
Q 2953 1263 2953 975 
Q 2953 694 2789 445 
Q 2625 197 2315 61 
Q 2006 -75 1616 -75 
Q 969 -75 630 194 
Q 291 463 197 991 
z
" transform="scale(0.015625)"/>
      <path id="ArialMT-28" d="M 1497 -1347 
Q 1031 -759 709 28 
Q 388 816 388 1659 
Q 388 2403 628 3084 
Q 909 3875 1497 4659 
L 1900 4659 
Q 1522 4009 1400 3731 
Q 1209 3300 1100 2831 
Q 966 2247 966 1656 
Q 966 153 1900 -1347 
L 1497 -1347 
z
" transform="scale(0.015625)"/>
      <path id="ArialMT-3d" d="M 3381 2694 
L 356 2694 
L 356 3219 
L 3381 3219 
L 3381 2694 
z
M 3381 1303 
L 356 1303 
L 356 1828 
L 3381 1828 
L 3381 1303 
z
" transform="scale(0.015625)"/>
      <path id="ArialMT-29" d="M 791 -1347 
L 388 -1347 
Q 1322 153 1322 1656 
Q 1322 2244 1188 2822 
Q 1081 3291 891 3722 
Q 769 4003 388 4659 
L 791 4659 
Q 1378 3875 1659 3084 
Q 1900 2403 1900 1659 
Q 1900 816 1576 28 
Q 1253 -759 791 -1347 
z
" transform="scale(0.015625)"/>
     </defs>
     <use xlink:href="#ArialMT-49"/>
     <use xlink:href="#ArialMT-6d" transform="translate(27.783203 0)"/>
     <use xlink:href="#ArialMT-70" transform="translate(111.083984 0)"/>
     <use xlink:href="#ArialMT-72" transform="translate(166.699219 0)"/>
     <use xlink:href="#ArialMT-6f" transform="translate(200 0)"/>
     <use xlink:href="#ArialMT-76" transform="translate(255.615234 0)"/>
     <use xlink:href="#ArialMT-65" transform="translate(305.615234 0)"/>
     <use xlink:href="#ArialMT-64" transform="translate(361.230469 0)"/>
     <use xlink:href="#ArialMT-2f" transform="translate(416.845703 0)"/>
     <use xlink:href="#ArialMT-4e" transform="translate(444.628906 0)"/>
     <use xlink:href="#ArialMT-65" transform="translate(516.845703 0)"/>
     <use xlink:href="#ArialMT-75" transform="translate(572.460938 0)"/>
     <use xlink:href="#ArialMT-74" transform="translate(628.076172 0)"/>
     <use xlink:href="#ArialMT-72" transform="translate(655.859375 0)"/>
     <use xlink:href="#ArialMT-61" transform="translate(689.160156 0)"/>
     <use xlink:href="#ArialMT-6c" transform="translate(744.775391 0)"/>
     <use xlink:href="#ArialMT-20" transform="translate(766.992188 0)"/>
     <use xlink:href="#ArialMT-4d" transform="translate(794.775391 0)"/>
     <use xlink:href="#ArialMT-75" transform="translate(878.076172 0)"/>
     <use xlink:href="#ArialMT-74" transform="translate(933.691406 0)"/>
     <use xlink:href="#ArialMT-61" transform="translate(961.474609 0)"/>
     <use xlink:href="#ArialMT-74" transform="translate(1017.089844 0)"/>
     <use xlink:href="#ArialMT-69" transform="translate(1044.873047 0)"/>
     <use xlink:href="#ArialMT-6f" transform="translate(1067.089844 0)"/>
     <use xlink:href="#ArialMT-6e" transform="translate(1122.705078 0)"/>
     <use xlink:href="#ArialMT-73" transform="translate(1178.320312 0)"/>
     <use xlink:href="#ArialMT-20" transform="translate(1228.320312 0)"/>
     <use xlink:href="#ArialMT-28" transform="translate(1256.103516 0)"/>
     <use xlink:href="#ArialMT-6e" transform="translate(1289.404297 0)"/>
     <use xlink:href="#ArialMT-3d" transform="translate(1345.019531 0)"/>
     <use xlink:href="#ArialMT-32" transform="translate(1403.417969 0)"/>
     <use xlink:href="#ArialMT-38" transform="translate(1459.033203 0)"/>
     <use xlink:href="#ArialMT-29" transform="translate(1514.648438 0)"/>
    </g>
   </g>
  </g>
 </g>
 <defs>
  <clipPath id="pe4c70a2b5c">
   <rect x="43.215" y="27.391562" width="806.59375" height="230.68"/>
  </clipPath>
 </defs>
</svg>
