<?xml version="1.0" encoding="utf-8" standalone="no"?>
<!DOCTYPE svg PUBLIC "-//W3C//DTD SVG 1.1//EN"
  "http://www.w3.org/Graphics/SVG/1.1/DTD/svg11.dtd">
<svg xmlns:xlink="http://www.w3.org/1999/xlink" width="857.00875pt" height="280.502344pt" viewBox="0 0 857.00875 280.502344" xmlns="http://www.w3.org/2000/svg" version="1.1">
 <metadata>
  <rdf:RDF xmlns:dc="http://purl.org/dc/elements/1.1/" xmlns:cc="http://creativecommons.org/ns#" xmlns:rdf="http://www.w3.org/1999/02/22-rdf-syntax-ns#">
   <cc:Work>
    <dc:type rdf:resource="http://purl.org/dc/dcmitype/StillImage"/>
    <dc:date>2026-02-14T06:49:55.403178</dc:date>
    <dc:format>image/svg+xml</dc:format>
    <dc:creator>
     <cc:Agent>
      <dc:title>Matplotlib v3.10.8, https://matplotlib.org/</dc:title>
     </cc:Agent>
    </dc:creator>
   </cc:Work>
  </rdf:RDF>
 </metadata>
 <defs>
  <style type="text/css">*{stroke-linejoin: round; stroke-linecap: butt}</style>
 </defs>
 <g id="figure_1">
  <g id="patch_1">
   <path d="M 0 280.502344 
L 857.00875 280.502344 
L 857.00875 0 
L 0 0 
L 0 280.502344 
z
" style="fill: none"/>
  </g>
  <g id="axes_1">
   <g id="patch_2">
    <path d="M 43.215 258.071562 
L 849.80875 258.071562 
L 849.80875 27.391562 
L 43.215 27.391562 
L 43.215 258.071562 
z
" style="fill: none"/>
   </g>
   <g id="matplotlib.axis_1">
    <g id="xtick_1">
     <g id="line2d_1">
      <defs>
       <path id="m6c0d2909c3" d="M 0 0 
L 0 3.5 
" style="stroke: #262626; stroke-width: 0.8"/>
      </defs>
      <g>
       <use xlink:href="#m6c0d2909c3" x="76.823073" y="258.071562" style="fill: #262626; stroke: #262626; stroke-width: 0.8"/>
      </g>
     </g>
     <g id="text_1">
      <!-- 5 -->
      <g style="fill: #262626" transform="translate(74.320651 271.513594) scale(0.09 -0.09)">
       <defs>
        <path id="ArialMT-35" d="M 266 1200 
L 856 1250 
Q 922 819 1161 601 
Q 1400 384 1738 384 
Q 2144 384 2425 690 
Q 2706 997 2706 1503 
Q 2706 1984 2436 2262 
Q 2166 2541 1728 2541 
Q 1456 2541 1237 2417 
Q 1019 2294 894 2097 
L 366 2166 
L 809 4519 
L 3088 4519 
L 3088 3981 
L 1259 3981 
L 1013 2750 
Q 1425 3038 1878 3038 
Q 2478 3038 2890 2622 
Q 3303 2206 3303 1553 
Q 3303 931 2941 478 
Q 2500 -78 1738 -78 
Q 1113 -78 717 272 
Q 322 622 266 1200 
z
" transform="scale(0.015625)"/>
       </defs>
       <use xlink:href="#ArialMT-35"/>
      </g>
     </g>
    </g>
    <g id="xtick_2">
     <g id="line2d_2">
      <g>
       <use xlink:href="#m6c0d2909c3" x="144.039219" y="258.071562" style="fill: #262626; stroke: #262626; stroke-width: 0.8"/>
      </g>
     </g>
     <g id="text_2">
      <!-- 6 -->
      <g style="fill: #262626" transform="translate(141.536797 271.513594) scale(0.09 -0.09)">
       <defs>
        <path id="ArialMT-36" d="M 3184 3459 
L 2625 3416 
Q 2550 3747 2413 3897 
Q 2184 4138 1850 4138 
Q 1581 4138 1378 3988 
Q 1113 3794 959 3422 
Q 806 3050 800 2363 
Q 1003 2672 1297 2822 
Q 1591 2972 1913 2972 
Q 2475 2972 2870 2558 
Q 3266 2144 3266 1488 
Q 3266 1056 3080 686 
Q 2894 316 2569 119 
Q 2244 -78 1831 -78 
Q 1128 -78 684 439 
Q 241 956 241 2144 
Q 241 3472 731 4075 
Q 1159 4600 1884 4600 
Q 2425 4600 2770 4297 
Q 3116 3994 3184 3459 
z
M 888 1484 
Q 888 1194 1011 928 
Q 1134 663 1356 523 
Q 1578 384 1822 384 
Q 2178 384 2434 671 
Q 2691 959 2691 1453 
Q 2691 1928 2437 2201 
Q 2184 2475 1800 2475 
Q 1419 2475 1153 2201 
Q 888 1928 888 1484 
z
" transform="scale(0.015625)"/>
       </defs>
       <use xlink:href="#ArialMT-36"/>
      </g>
     </g>
    </g>
    <g id="xtick_3">
     <g id="line2d_3">
      <g>
       <use xlink:href="#m6c0d2909c3" x="211.255365" y="258.071562" style="fill: #262626; stroke: #262626; stroke-width: 0.8"/>
      </g>
     </g>
     <g id="text_3">
      <!-- 7 -->
      <g style="fill: #262626" transform="translate(208.752943 271.513594) scale(0.09 -0.09)">
       <defs>
        <path id="ArialMT-37" d="M 303 3981 
L 303 4522 
L 3269 4522 
L 3269 4084 
Q 2831 3619 2401 2847 
Q 1972 2075 1738 1259 
Q 1569 684 1522 0 
L 944 0 
Q 953 541 1156 1306 
Q 1359 2072 1739 2783 
Q 2119 3494 2547 3981 
L 303 3981 
z
" transform="scale(0.015625)"/>
       </defs>
       <use xlink:href="#ArialMT-37"/>
      </g>
     </g>
    </g>
    <g id="xtick_4">
     <g id="line2d_4">
      <g>
       <use xlink:href="#m6c0d2909c3" x="278.47151" y="258.071562" style="fill: #262626; stroke: #262626; stroke-width: 0.8"/>
      </g>
     </g>
     <g id="text_4">
      <!-- 12 -->
      <g style="fill: #262626" transform="translate(273.466667 271.513594) scale(0.09 -0.09)">
       <defs>
        <path id="ArialMT-31" d="M 2384 0 
L 1822 0 
L 1822 3584 
Q 1619 3391 1289 3197 
Q 959 3003 697 2906 
L 697 3450 
Q 1169 3672 1522 3987 
Q 1875 4303 2022 4600 
L 2384 4600 
L 2384 0 
z
" transform="scale(0.015625)"/>
        <path id="ArialMT-32" d="M 3222 541 
L 3222 0 
L 194 0 
Q 188 203 259 391 
Q 375 700 629 1000 
Q 884 1300 1366 1694 
Q 2113 2306 2375 2664 
Q 2638 3022 2638 3341 
Q 2638 3675 2398 3904 
Q 2159 4134 1775 4134 
Q 1369 4134 1125 3890 
Q 881 3647 878 3216 
L 300 3275 
Q 359 3922 746 4261 
Q 1134 4600 1788 4600 
Q 2447 4600 2831 4234 
Q 3216 3869 3216 3328 
Q 3216 3053 3103 2787 
Q 2991 2522 2730 2228 
Q 2469 1934 1863 1422 
Q 1356 997 1212 845 
Q 1069 694 975 541 
L 3222 541 
z
" transform="scale(0.015625)"/>
       </defs>
       <use xlink:href="#ArialMT-31"/>
       <use xlink:href="#ArialMT-32" transform="translate(55.615234 0)"/>
      </g>
     </g>
    </g>
    <g id="xtick_5">
     <g id="line2d_5">
      <g>
       <use xlink:href="#m6c0d2909c3" x="345.687656" y="258.071562" style="fill: #262626; stroke: #262626; stroke-width: 0.8"/>
      </g>
     </g>
     <g id="text_5">
      <!-- 19 -->
      <g style="fill: #262626" transform="translate(340.682812 271.513594) scale(0.09 -0.09)">
       <defs>
        <path id="ArialMT-39" d="M 350 1059 
L 891 1109 
Q 959 728 1153 556 
Q 1347 384 1650 384 
Q 1909 384 2104 503 
Q 2300 622 2425 820 
Q 2550 1019 2634 1356 
Q 2719 1694 2719 2044 
Q 2719 2081 2716 2156 
Q 2547 1888 2255 1720 
Q 1963 1553 1622 1553 
Q 1053 1553 659 1965 
Q 266 2378 266 3053 
Q 266 3750 677 4175 
Q 1088 4600 1706 4600 
Q 2153 4600 2523 4359 
Q 2894 4119 3086 3673 
Q 3278 3228 3278 2384 
Q 3278 1506 3087 986 
Q 2897 466 2520 194 
Q 2144 -78 1638 -78 
Q 1100 -78 759 220 
Q 419 519 350 1059 
z
M 2653 3081 
Q 2653 3566 2395 3850 
Q 2138 4134 1775 4134 
Q 1400 4134 1122 3828 
Q 844 3522 844 3034 
Q 844 2597 1108 2323 
Q 1372 2050 1759 2050 
Q 2150 2050 2401 2323 
Q 2653 2597 2653 3081 
z
" transform="scale(0.015625)"/>
       </defs>
       <use xlink:href="#ArialMT-31"/>
       <use xlink:href="#ArialMT-39" transform="translate(55.615234 0)"/>
      </g>
     </g>
    </g>
    <g id="xtick_6">
     <g id="line2d_6">
      <g>
       <use xlink:href="#m6c0d2909c3" x="412.903802" y="258.071562" style="fill: #262626; stroke: #262626; stroke-width: 0.8"/>
      </g>
     </g>
     <g id="text_6">
      <!-- 21 -->
      <g style="fill: #262626" transform="translate(407.898958 271.513594) scale(0.09 -0.09)">
       <use xlink:href="#ArialMT-32"/>
       <use xlink:href="#ArialMT-31" transform="translate(55.615234 0)"/>
      </g>
     </g>
    </g>
    <g id="xtick_7">
     <g id="line2d_7">
      <g>
       <use xlink:href="#m6c0d2909c3" x="480.119948" y="258.071562" style="fill: #262626; stroke: #262626; stroke-width: 0.8"/>
      </g>
     </g>
     <g id="text_7">
      <!-- 26 -->
      <g style="fill: #262626" transform="translate(475.115104 271.513594) scale(0.09 -0.09)">
       <use xlink:href="#ArialMT-32"/>
       <use xlink:href="#ArialMT-36" transform="translate(55.615234 0)"/>
      </g>
     </g>
    </g>
    <g id="xtick_8">
     <g id="line2d_8">
      <g>
       <use xlink:href="#m6c0d2909c3" x="547.336094" y="258.071562" style="fill: #262626; stroke: #262626; stroke-width: 0.8"/>
      </g>
     </g>
     <g id="text_8">
      <!-- 28 -->
      <g style="fill: #262626" transform="translate(542.33125 271.513594) scale(0.09 -0.09)">
       <defs>
        <path id="ArialMT-38" d="M 1131 2484 
Q 781 2613 612 2850 
Q 444 3088 444 3419 
Q 444 3919 803 4259 
Q 1163 4600 1759 4600 
Q 2359 4600 2725 4251 
Q 3091 3903 3091 3403 
Q 3091 3084 2923 2848 
Q 2756 2613 2416 2484 
Q 2838 2347 3058 2040 
Q 3278 1734 3278 1309 
Q 3278 722 2862 322 
Q 2447 -78 1769 -78 
Q 1091 -78 675 323 
Q 259 725 259 1325 
Q 259 1772 486 2073 
Q 713 2375 1131 2484 
z
M 1019 3438 
Q 1019 3113 1228 2906 
Q 1438 2700 1772 2700 
Q 2097 2700 2305 2904 
Q 2513 3109 2513 3406 
Q 2513 3716 2298 3927 
Q 2084 4138 1766 4138 
Q 1444 4138 1231 3931 
Q 1019 3725 1019 3438 
z
M 838 1322 
Q 838 1081 952 856 
Q 1066 631 1291 507 
Q 1516 384 1775 384 
Q 2178 384 2440 643 
Q 2703 903 2703 1303 
Q 2703 1709 2433 1975 
Q 2163 2241 1756 2241 
Q 1359 2241 1098 1978 
Q 838 1716 838 1322 
z
" transform="scale(0.015625)"/>
       </defs>
       <use xlink:href="#ArialMT-32"/>
       <use xlink:href="#ArialMT-38" transform="translate(55.615234 0)"/>
      </g>
     </g>
    </g>
    <g id="xtick_9">
     <g id="line2d_9">
      <g>
       <use xlink:href="#m6c0d2909c3" x="614.55224" y="258.071562" style="fill: #262626; stroke: #262626; stroke-width: 0.8"/>
      </g>
     </g>
     <g id="text_9">
      <!-- 29 -->
      <g style="fill: #262626" transform="translate(609.547396 271.513594) scale(0.09 -0.09)">
       <use xlink:href="#ArialMT-32"/>
       <use xlink:href="#ArialMT-39" transform="translate(55.615234 0)"/>
      </g>
     </g>
    </g>
    <g id="xtick_10">
     <g id="line2d_10">
      <g>
       <use xlink:href="#m6c0d2909c3" x="681.768385" y="258.071562" style="fill: #262626; stroke: #262626; stroke-width: 0.8"/>
      </g>
     </g>
     <g id="text_10">
      <!-- 31 -->
      <g style="fill: #262626" transform="translate(676.763542 271.513594) scale(0.09 -0.09)">
       <defs>
        <path id="ArialMT-33" d="M 269 1209 
L 831 1284 
Q 928 806 1161 595 
Q 1394 384 1728 384 
Q 2125 384 2398 659 
Q 2672 934 2672 1341 
Q 2672 1728 2419 1979 
Q 2166 2231 1775 2231 
Q 1616 2231 1378 2169 
L 1441 2663 
Q 1497 2656 1531 2656 
Q 1891 2656 2178 2843 
Q 2466 3031 2466 3422 
Q 2466 3731 2256 3934 
Q 2047 4138 1716 4138 
Q 1388 4138 1169 3931 
Q 950 3725 888 3313 
L 325 3413 
Q 428 3978 793 4289 
Q 1159 4600 1703 4600 
Q 2078 4600 2393 4439 
Q 2709 4278 2876 4000 
Q 3044 3722 3044 3409 
Q 3044 3113 2884 2869 
Q 2725 2625 2413 2481 
Q 2819 2388 3044 2092 
Q 3269 1797 3269 1353 
Q 3269 753 2831 336 
Q 2394 -81 1725 -81 
Q 1122 -81 723 278 
Q 325 638 269 1209 
z
" transform="scale(0.015625)"/>
       </defs>
       <use xlink:href="#ArialMT-33"/>
       <use xlink:href="#ArialMT-31" transform="translate(55.615234 0)"/>
      </g>
     </g>
    </g>
    <g id="xtick_11">
     <g id="line2d_11">
      <g>
       <use xlink:href="#m6c0d2909c3" x="748.984531" y="258.071562" style="fill: #262626; stroke: #262626; stroke-width: 0.8"/>
      </g>
     </g>
     <g id="text_11">
      <!-- 36 -->
      <g style="fill: #262626" transform="translate(743.979687 271.513594) scale(0.09 -0.09)">
       <use xlink:href="#ArialMT-33"/>
       <use xlink:href="#ArialMT-36" transform="translate(55.615234 0)"/>
      </g>
     </g>
    </g>
    <g id="xtick_12">
     <g id="line2d_12">
      <g>
       <use xlink:href="#m6c0d2909c3" x="816.200677" y="258.071562" style="fill: #262626; stroke: #262626; stroke-width: 0.8"/>
      </g>
     </g>
     <g id="text_12">
      <!-- 45 -->
      <g style="fill: #262626" transform="translate(811.195833 271.513594) scale(0.09 -0.09)">
       <defs>
        <path id="ArialMT-34" d="M 2069 0 
L 2069 1097 
L 81 1097 
L 81 1613 
L 2172 4581 
L 2631 4581 
L 2631 1613 
L 3250 1613 
L 3250 1097 
L 2631 1097 
L 2631 0 
L 2069 0 
z
M 2069 1613 
L 2069 3678 
L 634 1613 
L 2069 1613 
z
" transform="scale(0.015625)"/>
       </defs>
       <use xlink:href="#ArialMT-34"/>
       <use xlink:href="#ArialMT-35" transform="translate(55.615234 0)"/>
      </g>
     </g>
    </g>
   </g>
   <g id="matplotlib.axis_2">
    <g id="ytick_1">
     <g id="line2d_13">
      <defs>
       <path id="m90e3152369" d="M 0 0 
L -3.5 0 
" style="stroke: #262626; stroke-width: 0.8"/>
      </defs>
      <g>
       <use xlink:href="#m90e3152369" x="43.215" y="258.071562" style="fill: #262626; stroke: #262626; stroke-width: 0.8"/>
      </g>
     </g>
     <g id="text_13">
      <!-- 0.0 -->
      <g style="fill: #262626" transform="translate(22.315 261.650469) scale(0.1 -0.1)">
       <defs>
        <path id="ArialMT-30" d="M 266 2259 
Q 266 3072 433 3567 
Q 600 4063 929 4331 
Q 1259 4600 1759 4600 
Q 2128 4600 2406 4451 
Q 2684 4303 2865 4023 
Q 3047 3744 3150 3342 
Q 3253 2941 3253 2259 
Q 3253 1453 3087 958 
Q 2922 463 2592 192 
Q 2263 -78 1759 -78 
Q 1097 -78 719 397 
Q 266 969 266 2259 
z
M 844 2259 
Q 844 1131 1108 757 
Q 1372 384 1759 384 
Q 2147 384 2411 759 
Q 2675 1134 2675 2259 
Q 2675 3391 2411 3762 
Q 2147 4134 1753 4134 
Q 1366 4134 1134 3806 
Q 844 3388 844 2259 
z
" transform="scale(0.015625)"/>
        <path id="ArialMT-2e" d="M 581 0 
L 581 641 
L 1222 641 
L 1222 0 
L 581 0 
z
" transform="scale(0.015625)"/>
       </defs>
       <use xlink:href="#ArialMT-30"/>
       <use xlink:href="#ArialMT-2e" transform="translate(55.615234 0)"/>
       <use xlink:href="#ArialMT-30" transform="translate(83.398438 0)"/>
      </g>
     </g>
    </g>
    <g id="ytick_2">
     <g id="line2d_14">
      <g>
       <use xlink:href="#m90e3152369" x="43.215" y="148.223943" style="fill: #262626; stroke: #262626; stroke-width: 0.8"/>
      </g>
     </g>
     <g id="text_14">
      <!-- 0.5 -->
      <g style="fill: #262626" transform="translate(22.315 151.80285) scale(0.1 -0.1)">
       <use xlink:href="#ArialMT-30"/>
       <use xlink:href="#ArialMT-2e" transform="translate(55.615234 0)"/>
       <use xlink:href="#ArialMT-35" transform="translate(83.398438 0)"/>
      </g>
     </g>
    </g>
    <g id="ytick_3">
     <g id="line2d_15">
      <g>
       <use xlink:href="#m90e3152369" x="43.215" y="38.376324" style="fill: #262626; stroke: #262626; stroke-width: 0.8"/>
      </g>
     </g>
     <g id="text_15">
      <!-- 1.0 -->
      <g style="fill: #262626" transform="translate(22.315 41.955231) scale(0.1 -0.1)">
       <use xlink:href="#ArialMT-31"/>
       <use xlink:href="#ArialMT-2e" transform="translate(55.615234 0)"/>
       <use xlink:href="#ArialMT-30" transform="translate(83.398438 0)"/>
      </g>
     </g>
    </g>
    <g id="text_16">
     <!-- Probability -->
     <g style="fill: #262626" transform="translate(15.789375 170.744062) rotate(-90) scale(0.12 -0.12)">
      <defs>
       <path id="ArialMT-50" d="M 494 0 
L 494 4581 
L 2222 4581 
Q 2678 4581 2919 4538 
Q 3256 4481 3484 4323 
Q 3713 4166 3852 3881 
Q 3991 3597 3991 3256 
Q 3991 2672 3619 2267 
Q 3247 1863 2275 1863 
L 1100 1863 
L 1100 0 
L 494 0 
z
M 1100 2403 
L 2284 2403 
Q 2872 2403 3119 2622 
Q 3366 2841 3366 3238 
Q 3366 3525 3220 3729 
Q 3075 3934 2838 4000 
Q 2684 4041 2272 4041 
L 1100 4041 
L 1100 2403 
z
" transform="scale(0.015625)"/>
       <path id="ArialMT-72" d="M 416 0 
L 416 3319 
L 922 3319 
L 922 2816 
Q 1116 3169 1280 3281 
Q 1444 3394 1641 3394 
Q 1925 3394 2219 3213 
L 2025 2691 
Q 1819 2813 1613 2813 
Q 1428 2813 1281 2702 
Q 1134 2591 1072 2394 
Q 978 2094 978 1738 
L 978 0 
L 416 0 
z
" transform="scale(0.015625)"/>
       <path id="ArialMT-6f" d="M 213 1659 
Q 213 2581 725 3025 
Q 1153 3394 1769 3394 
Q 2453 3394 2887 2945 
Q 3322 2497 3322 1706 
Q 3322 1066 3130 698 
Q 2938 331 2570 128 
Q 2203 -75 1769 -75 
Q 1072 -75 642 372 
Q 213 819 213 1659 
z
M 791 1659 
Q 791 1022 1069 705 
Q 1347 388 1769 388 
Q 2188 388 2466 706 
Q 2744 1025 2744 1678 
Q 2744 2294 2464 2611 
Q 2184 2928 1769 2928 
Q 1347 2928 1069 2612 
Q 791 2297 791 1659 
z
" transform="scale(0.015625)"/>
       <path id="ArialMT-62" d="M 941 0 
L 419 0 
L 419 4581 
L 981 4581 
L 981 2947 
Q 1338 3394 1891 3394 
Q 2197 3394 2470 3270 
Q 2744 3147 2920 2923 
Q 3097 2700 3197 2384 
Q 3297 2069 3297 1709 
Q 3297 856 2875 390 
Q 2453 -75 1863 -75 
Q 1275 -75 941 416 
L 941 0 
z
M 934 1684 
Q 934 1088 1097 822 
Q 1363 388 1816 388 
Q 2184 388 2453 708 
Q 2722 1028 2722 1663 
Q 2722 2313 2464 2622 
Q 2206 2931 1841 2931 
Q 1472 2931 1203 2611 
Q 934 2291 934 1684 
z
" transform="scale(0.015625)"/>
       <path id="ArialMT-61" d="M 2588 409 
Q 2275 144 1986 34 
Q 1697 -75 1366 -75 
Q 819 -75 525 192 
Q 231 459 231 875 
Q 231 1119 342 1320 
Q 453 1522 633 1644 
Q 813 1766 1038 1828 
Q 1203 1872 1538 1913 
Q 2219 1994 2541 2106 
Q 2544 2222 2544 2253 
Q 2544 2597 2384 2738 
Q 2169 2928 1744 2928 
Q 1347 2928 1158 2789 
Q 969 2650 878 2297 
L 328 2372 
Q 403 2725 575 2942 
Q 747 3159 1072 3276 
Q 1397 3394 1825 3394 
Q 2250 3394 2515 3294 
Q 2781 3194 2906 3042 
Q 3031 2891 3081 2659 
Q 3109 2516 3109 2141 
L 3109 1391 
Q 3109 606 3145 398 
Q 3181 191 3288 0 
L 2700 0 
Q 2613 175 2588 409 
z
M 2541 1666 
Q 2234 1541 1622 1453 
Q 1275 1403 1131 1340 
Q 988 1278 909 1158 
Q 831 1038 831 891 
Q 831 666 1001 516 
Q 1172 366 1500 366 
Q 1825 366 2078 508 
Q 2331 650 2450 897 
Q 2541 1088 2541 1459 
L 2541 1666 
z
" transform="scale(0.015625)"/>
       <path id="ArialMT-69" d="M 425 3934 
L 425 4581 
L 988 4581 
L 988 3934 
L 425 3934 
z
M 425 0 
L 425 3319 
L 988 3319 
L 988 0 
L 425 0 
z
" transform="scale(0.015625)"/>
       <path id="ArialMT-6c" d="M 409 0 
L 409 4581 
L 972 4581 
L 972 0 
L 409 0 
z
" transform="scale(0.015625)"/>
       <path id="ArialMT-74" d="M 1650 503 
L 1731 6 
Q 1494 -44 1306 -44 
Q 1000 -44 831 53 
Q 663 150 594 308 
Q 525 466 525 972 
L 525 2881 
L 113 2881 
L 113 3319 
L 525 3319 
L 525 4141 
L 1084 4478 
L 1084 3319 
L 1650 3319 
L 1650 2881 
L 1084 2881 
L 1084 941 
Q 1084 700 1114 631 
Q 1144 563 1211 522 
Q 1278 481 1403 481 
Q 1497 481 1650 503 
z
" transform="scale(0.015625)"/>
       <path id="ArialMT-79" d="M 397 -1278 
L 334 -750 
Q 519 -800 656 -800 
Q 844 -800 956 -737 
Q 1069 -675 1141 -563 
Q 1194 -478 1313 -144 
Q 1328 -97 1363 -6 
L 103 3319 
L 709 3319 
L 1400 1397 
Q 1534 1031 1641 628 
Q 1738 1016 1872 1384 
L 2581 3319 
L 3144 3319 
L 1881 -56 
Q 1678 -603 1566 -809 
Q 1416 -1088 1222 -1217 
Q 1028 -1347 759 -1347 
Q 597 -1347 397 -1278 
z
" transform="scale(0.015625)"/>
      </defs>
      <use xlink:href="#ArialMT-50"/>
      <use xlink:href="#ArialMT-72" transform="translate(66.699219 0)"/>
      <use xlink:href="#ArialMT-6f" transform="translate(100 0)"/>
      <use xlink:href="#ArialMT-62" transform="translate(155.615234 0)"/>
      <use xlink:href="#ArialMT-61" transform="translate(211.230469 0)"/>
      <use xlink:href="#ArialMT-62" transform="translate(266.845703 0)"/>
      <use xlink:href="#ArialMT-69" transform="translate(322.460938 0)"/>
      <use xlink:href="#ArialMT-6c" transform="translate(344.677734 0)"/>
      <use xlink:href="#ArialMT-69" transform="translate(366.894531 0)"/>
      <use xlink:href="#ArialMT-74" transform="translate(389.111328 0)"/>
      <use xlink:href="#ArialMT-79" transform="translate(416.894531 0)"/>
     </g>
    </g>
   </g>
   <g id="patch_3">
    <path d="M 99.637386 255.337168 
L 107.777199 255.337168 
L 107.777199 256.91716 
Q 107.777199 257.32902 105.681802 257.571958 
Q 103.586404 257.814299 98.106134 257.966508 
Q 92.625863 258.118121 83.733855 258.118121 
Q 75.083624 258.118121 69.57649 257.985609 
Q 64.082787 257.853097 61.732181 257.6024 
Q 59.381574 257.351702 59.381574 256.91716 
L 59.381574 255.337168 
L 67.521388 255.337168 
L 67.521388 256.914772 
Q 67.521388 257.271121 69.012344 257.440043 
Q 70.5033 257.608966 74.12995 257.700291 
Q 77.770031 257.791617 83.021957 257.791617 
Q 91.994557 257.791617 95.809256 257.610756 
Q 99.637386 257.429896 99.637386 256.914772 
L 99.637386 255.337168 
z
" clip-path="url(#p654e8058c1)" style="fill: #3498db"/>
   </g>
   <g id="patch_4">
    <path d="M 82.756877 252.125714 
L 82.756877 251.179943 
L 104.915837 251.172898 
L 104.915837 254.166957 
Q 99.810138 254.79571 94.38462 255.112728 
Q 88.959101 255.427985 83.248029 255.427985 
Q 75.538082 255.427985 69.233058 254.918995 
Q 62.939457 254.410005 59.729834 253.446622 
Q 56.520212 252.48324 56.520212 251.294422 
Q 56.520212 250.116172 59.70699 249.096431 
Q 62.90519 248.074928 68.901816 247.580028 
Q 74.898442 247.085127 82.711188 247.085127 
Q 88.387994 247.085127 92.968274 247.368682 
Q 97.559976 247.650476 100.164225 248.157705 
Q 102.779896 248.663173 104.127709 249.478613 
L 97.891218 249.742795 
Q 96.703315 249.126371 94.955727 248.774129 
Q 93.208139 248.421887 89.952828 248.210541 
Q 86.708939 247.997435 82.756877 247.997435 
Q 78.005265 247.997435 74.544355 248.221109 
Q 71.083445 248.443021 68.958927 248.807592 
Q 66.834408 249.170401 65.657927 249.605421 
Q 63.659052 250.353935 63.659052 251.229257 
Q 63.659052 252.307118 66.069124 253.034499 
Q 68.479197 253.760118 73.082321 254.11236 
Q 77.685445 254.464602 82.859676 254.464602 
Q 87.360001 254.464602 91.643305 254.198659 
Q 95.926609 253.930955 98.131083 253.628027 
L 98.131083 252.125714 
L 82.756877 252.125714 
z
" clip-path="url(#p654e8058c1)" style="fill: #3498db"/>
   </g>
   <g id="patch_5">
    <path d="M 97.591368 218.662702 
L 104.832788 221.357355 
Q 102.550426 234.513602 96.635405 241.41755 
Q 90.720384 248.321498 82.164516 248.321498 
Q 73.309909 248.321498 67.765324 243.020252 
Q 62.220739 237.701395 59.328951 227.627267 
Q 56.437163 217.553139 56.437163 205.999594 
Q 56.437163 193.389322 59.699386 184.019679 
Q 62.973559 174.632424 68.996126 169.771481 
Q 75.030642 164.892926 82.272062 164.892926 
Q 90.493343 164.892926 96.085727 171.057165 
Q 101.690059 177.221404 103.900724 188.387483 
L 96.76685 190.87079 
Q 94.854924 182.064735 91.234215 178.049173 
Q 87.613505 174.016 82.128667 174.016 
Q 75.819312 174.016 71.577226 178.489476 
Q 67.335141 182.94534 65.614407 190.465712 
Q 63.905623 197.968471 63.905623 205.946758 
Q 63.905623 216.232231 65.937045 223.911111 
Q 67.968466 231.589992 72.25835 235.394208 
Q 76.560183 239.180812 81.567039 239.180812 
Q 87.649353 239.180812 91.86754 234.020463 
Q 96.097676 228.842503 97.591368 218.662702 
z
" clip-path="url(#p654e8058c1)" style="fill: #3498db"/>
   </g>
   <g id="patch_6">
    <path d="M 52.52366 163.519182 
L 72.380881 38.376324 
L 79.752549 38.376324 
L 100.919285 163.519182 
L 93.129926 163.519182 
L 87.090351 125.60207 
L 65.472058 125.60207 
L 59.782439 163.519182 
L 52.52366 163.519182 
z
M 67.44762 112.134393 
L 84.979322 112.134393 
L 79.583215 77.468101 
Q 77.110941 61.678411 75.914314 51.516188 
Q 74.920889 63.563339 73.12595 75.419266 
L 67.44762 112.134393 
z
" clip-path="url(#p654e8058c1)" style="fill: #3498db"/>
   </g>
   <g id="patch_7">
    <path d="M 149.973023 255.961632 
L 149.973023 255.331118 
L 172.131982 255.326421 
L 172.131982 257.322461 
Q 167.026284 257.741629 161.600765 257.952974 
Q 156.175247 258.163145 150.464175 258.163145 
Q 142.754228 258.163145 136.449204 257.823819 
Q 130.155602 257.484492 126.94598 256.842237 
Q 123.736357 256.199982 123.736357 255.407437 
Q 123.736357 254.621937 126.923136 253.942109 
Q 130.121336 253.261108 136.117962 252.931174 
Q 142.114587 252.601241 149.927334 252.601241 
Q 155.60414 252.601241 160.18442 252.790277 
Q 164.776122 252.97814 167.38037 253.316292 
Q 169.996041 253.653271 171.343854 254.196898 
L 165.107364 254.373019 
Q 163.919461 253.96207 162.171873 253.727242 
Q 160.424285 253.492414 157.168974 253.351517 
Q 153.925085 253.209446 149.973023 253.209446 
Q 145.221411 253.209446 141.760501 253.358562 
Q 138.299591 253.506503 136.175072 253.74955 
Q 134.050554 253.991423 132.874073 254.281436 
Q 130.875198 254.780446 130.875198 255.363994 
Q 130.875198 256.082568 133.28527 256.567488 
Q 135.695342 257.051234 140.298467 257.286062 
Q 144.901591 257.52089 150.075822 257.52089 
Q 154.576147 257.52089 158.859451 257.343595 
Q 163.142755 257.165126 165.347229 256.963174 
L 165.347229 255.961632 
L 149.973023 255.961632 
z
" clip-path="url(#p654e8058c1)" style="fill: #3498db"/>
   </g>
   <g id="patch_8">
    <path d="M 166.853532 244.306475 
L 174.993345 244.306475 
L 174.993345 249.04645 
Q 174.993345 250.282031 172.897948 251.010844 
Q 170.80255 251.737867 165.322279 252.194495 
Q 159.842009 252.649332 150.950001 252.649332 
Q 142.29977 252.649332 136.792635 252.251797 
Q 131.298933 251.854263 128.948327 251.10217 
Q 126.59772 250.350077 126.59772 249.04645 
L 126.59772 244.306475 
L 134.737534 244.306475 
L 134.737534 249.039287 
Q 134.737534 250.108333 136.22849 250.6151 
Q 137.719446 251.121868 141.346096 251.395844 
Q 144.986177 251.669821 150.238103 251.669821 
Q 159.210703 251.669821 163.025401 251.12724 
Q 166.853532 250.584659 166.853532 249.039287 
L 166.853532 244.306475 
z
" clip-path="url(#p654e8058c1)" style="fill: #3498db"/>
   </g>
   <g id="patch_9">
    <path d="M 119.739806 244.166801 
L 139.597026 177.423943 
L 146.968695 177.423943 
L 168.135431 244.166801 
L 160.346072 244.166801 
L 154.306497 223.944341 
L 132.688204 223.944341 
L 126.998585 244.166801 
L 119.739806 244.166801 
z
M 134.663766 216.76158 
L 152.195468 216.76158 
L 146.799361 198.272891 
Q 144.327086 189.851723 143.13046 184.431871 
Q 142.137035 190.857018 140.342096 197.180179 
L 134.663766 216.76158 
z
" clip-path="url(#p654e8058c1)" style="fill: #3498db"/>
   </g>
   <g id="patch_10">
    <path d="M 164.807514 130.282192 
L 172.048934 134.77328 
Q 169.766572 156.700359 163.851551 168.206939 
Q 157.93653 179.713518 149.380662 179.713518 
Q 140.526055 179.713518 134.98147 170.878109 
Q 129.436884 162.013346 126.545097 145.223133 
Q 123.653309 128.43292 123.653309 109.177012 
Q 123.653309 88.159892 126.915532 72.54382 
Q 130.189705 56.898395 136.212272 48.796824 
Q 142.246788 40.665899 149.488208 40.665899 
Q 157.709489 40.665899 163.301872 50.93963 
Q 168.906205 61.213362 171.11687 79.823493 
L 163.982996 83.962339 
Q 162.07107 69.28558 158.45036 62.592978 
Q 154.829651 55.871022 149.344813 55.871022 
Q 143.035458 55.871022 138.793372 63.326815 
Q 134.551286 70.753256 132.830553 83.287208 
Q 131.121769 95.791807 131.121769 109.088951 
Q 131.121769 126.231406 133.153191 139.029541 
Q 135.184612 151.827675 139.474496 158.168035 
Q 143.776329 164.479042 148.783185 164.479042 
Q 154.865499 164.479042 159.083686 155.878461 
Q 163.313822 147.248526 164.807514 130.282192 
z
" clip-path="url(#p654e8058c1)" style="fill: #3498db"/>
   </g>
   <g id="patch_11">
    <path d="M 186.955952 258.071562 
L 206.813172 188.547753 
L 214.184841 188.547753 
L 235.351577 258.071562 
L 227.562218 258.071562 
L 221.522643 237.006501 
L 199.90435 237.006501 
L 194.214731 258.071562 
L 186.955952 258.071562 
z
M 201.879912 229.524458 
L 219.411613 229.524458 
L 214.015507 210.265407 
Q 211.543232 201.493356 210.346606 195.847677 
Q 209.353181 202.540539 207.558241 209.127165 
L 201.879912 229.524458 
z
" clip-path="url(#p654e8058c1)" style="fill: #3498db"/>
   </g>
   <g id="patch_12">
    <path d="M 232.02366 137.634662 
L 239.265079 142.485037 
Q 236.982718 166.166282 231.067697 178.593388 
Q 225.152676 191.020493 216.596808 191.020493 
Q 207.742201 191.020493 202.197616 181.478251 
Q 196.65303 171.904308 193.761242 153.770878 
Q 190.869454 135.637448 190.869454 114.841067 
Q 190.869454 92.142578 194.131678 75.27722 
Q 197.405851 58.38016 203.428418 49.630464 
Q 209.462934 40.849065 216.704353 40.849065 
Q 224.925635 40.849065 230.518018 51.944695 
Q 236.122351 63.040325 238.333016 83.139267 
L 231.199142 87.60922 
Q 229.287216 71.75832 225.666506 64.53031 
Q 222.045797 57.270597 216.560959 57.270597 
Q 210.251603 57.270597 206.009518 65.322855 
Q 201.767432 73.34341 200.046699 86.880079 
Q 198.337915 100.385046 198.337915 114.745962 
Q 198.337915 133.259813 200.369336 147.081798 
Q 202.400758 160.903783 206.690641 167.751372 
Q 210.992475 174.567259 215.999331 174.567259 
Q 222.081645 174.567259 226.299832 165.278631 
Q 230.529968 155.958302 232.02366 137.634662 
z
" clip-path="url(#p654e8058c1)" style="fill: #3498db"/>
   </g>
   <g id="patch_13">
    <path d="M 301.285823 255.337168 
L 309.425637 255.337168 
L 309.425637 256.91716 
Q 309.425637 257.32902 307.330239 257.571958 
Q 305.234842 257.814299 299.754571 257.966508 
Q 294.274301 258.118121 285.382293 258.118121 
Q 276.732062 258.118121 271.224927 257.985609 
Q 265.731224 257.853097 263.380618 257.6024 
Q 261.030012 257.351702 261.030012 256.91716 
L 261.030012 255.337168 
L 269.169826 255.337168 
L 269.169826 256.914772 
Q 269.169826 257.271121 270.660782 257.440043 
Q 272.151738 257.608966 275.778387 257.700291 
Q 279.418469 257.791617 284.670395 257.791617 
Q 293.642995 257.791617 297.457693 257.610756 
Q 301.285823 257.429896 301.285823 256.914772 
L 301.285823 255.337168 
z
" clip-path="url(#p654e8058c1)" style="fill: #3498db"/>
   </g>
   <g id="patch_14">
    <path d="M 254.172098 255.29061 
L 274.029318 160.738229 
L 281.400987 160.738229 
L 302.567723 255.29061 
L 294.778364 255.29061 
L 288.738788 226.642126 
L 267.120496 226.642126 
L 261.430877 255.29061 
L 254.172098 255.29061 
z
M 269.096058 216.466548 
L 286.627759 216.466548 
L 281.231653 190.274238 
Q 278.759378 178.34425 277.562752 170.666126 
Q 276.569326 179.768418 274.774387 188.726229 
L 269.096058 216.466548 
z
" clip-path="url(#p654e8058c1)" style="fill: #3498db"/>
   </g>
   <g id="patch_15">
    <path d="M 284.405314 114.319749 
L 284.405314 100.44845 
L 306.564274 100.345125 
L 306.564274 144.25799 
Q 301.458576 153.479691 296.033057 158.129288 
Q 290.607539 162.753055 284.896467 162.753055 
Q 277.186519 162.753055 270.881496 155.287868 
Q 264.587894 147.822681 261.378272 133.693071 
Q 258.168649 119.563461 258.168649 102.127471 
Q 258.168649 84.846467 261.355427 69.890262 
Q 264.553628 54.908226 270.550253 47.649688 
Q 276.546879 40.39115 284.359626 40.39115 
Q 290.036431 40.39115 294.616711 44.549957 
Q 299.208413 48.682932 301.812662 56.122288 
Q 304.428333 63.535813 305.776146 75.49561 
L 299.539655 79.370275 
Q 298.351752 70.329391 296.604164 65.163172 
Q 294.856576 59.996952 291.601265 56.897221 
Q 288.357376 53.771658 284.405314 53.771658 
Q 279.653702 53.771658 276.192793 57.052207 
Q 272.731883 60.306925 270.607364 65.653962 
Q 268.482845 70.975168 267.306364 77.355449 
Q 265.307489 88.333665 265.307489 101.17172 
Q 265.307489 116.980351 267.717562 127.648594 
Q 270.127634 138.291006 274.730758 143.457226 
Q 279.333882 148.623445 284.508114 148.623445 
Q 289.008438 148.623445 293.291743 144.722949 
Q 297.575047 140.796623 299.77952 136.353674 
L 299.77952 114.319749 
L 284.405314 114.319749 
z
" clip-path="url(#p654e8058c1)" style="fill: #3498db"/>
   </g>
   <g id="patch_16">
    <path d="M 366.455952 226.015172 
L 373.697371 229.069112 
Q 371.415009 243.979525 365.499989 251.803999 
Q 359.584968 259.628473 351.029099 259.628473 
Q 342.174492 259.628473 336.629907 253.620395 
Q 331.085322 247.592356 328.193534 236.175012 
Q 325.301746 224.757667 325.301746 211.663649 
Q 325.301746 197.372008 328.56397 186.753079 
Q 331.838143 176.114189 337.860709 170.605121 
Q 343.895226 165.076092 351.136645 165.076092 
Q 359.357927 165.076092 364.95031 172.06223 
Q 370.554643 179.048367 372.765307 191.703256 
L 365.631434 194.517672 
Q 363.719508 184.537475 360.098798 179.986506 
Q 356.478088 175.415576 350.993251 175.415576 
Q 344.683895 175.415576 340.441809 180.485515 
Q 336.199724 185.535495 334.478991 194.058583 
Q 332.770207 202.56171 332.770207 211.603768 
Q 332.770207 223.260637 334.801628 231.963369 
Q 336.833049 240.6661 341.122933 244.977545 
Q 345.424766 249.269029 350.431622 249.269029 
Q 356.513937 249.269029 360.732123 243.420634 
Q 364.962259 237.552279 366.455952 226.015172 
z
" clip-path="url(#p654e8058c1)" style="fill: #3498db"/>
   </g>
   <g id="patch_17">
    <path d="M 368.501969 40.47144 
L 376.641783 40.47144 
L 376.641783 111.571063 
Q 376.641783 130.104776 374.546385 141.036981 
Q 372.450988 151.942326 366.970717 158.791742 
Q 361.490446 165.614297 352.598439 165.614297 
Q 343.948208 165.614297 338.441073 159.651276 
Q 332.94737 153.688255 330.596764 142.406864 
Q 328.246158 131.125474 328.246158 111.571063 
L 328.246158 40.47144 
L 336.385971 40.47144 
L 336.385971 111.463621 
Q 336.385971 127.499312 337.876927 135.100821 
Q 339.367883 142.702329 342.994533 146.811979 
Q 346.634615 150.921628 351.886541 150.921628 
Q 360.859141 150.921628 364.673839 142.782911 
Q 368.501969 134.644193 368.501969 111.463621 
L 368.501969 40.47144 
z
" clip-path="url(#p654e8058c1)" style="fill: #3498db"/>
   </g>
   <g id="patch_18">
    <path d="M 435.718115 255.337168 
L 443.857929 255.337168 
L 443.857929 256.91716 
Q 443.857929 257.32902 441.762531 257.571958 
Q 439.667133 257.814299 434.186863 257.966508 
Q 428.706592 258.118121 419.814585 258.118121 
Q 411.164353 258.118121 405.657219 257.985609 
Q 400.163516 257.853097 397.81291 257.6024 
Q 395.462304 257.351702 395.462304 256.91716 
L 395.462304 255.337168 
L 403.602117 255.337168 
L 403.602117 256.914772 
Q 403.602117 257.271121 405.093073 257.440043 
Q 406.584029 257.608966 410.210679 257.700291 
Q 413.850761 257.791617 419.102687 257.791617 
Q 428.075287 257.791617 431.889985 257.610756 
Q 435.718115 257.429896 435.718115 256.914772 
L 435.718115 255.337168 
z
" clip-path="url(#p654e8058c1)" style="fill: #3498db"/>
   </g>
   <g id="patch_19">
    <path d="M 433.672097 252.462105 
L 440.913517 252.73157 
Q 438.631155 254.047195 432.716134 254.73759 
Q 426.801114 255.427985 418.245245 255.427985 
Q 409.390638 255.427985 403.846053 254.89786 
Q 398.301468 254.365974 395.40968 253.358562 
Q 392.517892 252.351149 392.517892 251.195794 
Q 392.517892 249.934767 395.780116 248.997803 
Q 399.054289 248.059077 405.076855 247.572983 
Q 411.111372 247.085127 418.352791 247.085127 
Q 426.574072 247.085127 432.166456 247.701551 
Q 437.770789 248.317975 439.981453 249.434583 
L 432.847579 249.682914 
Q 430.935653 248.802308 427.314944 248.400752 
Q 423.694234 247.997435 418.209397 247.997435 
Q 411.900041 247.997435 407.657955 248.444782 
Q 403.41587 248.890369 401.695136 249.642406 
Q 399.986353 250.392682 399.986353 251.190511 
Q 399.986353 252.219058 402.017774 252.986946 
Q 404.049195 253.754834 408.339079 254.135256 
Q 412.640912 254.513916 417.647768 254.513916 
Q 423.730083 254.513916 427.948269 253.997881 
Q 432.178405 253.480085 433.672097 252.462105 
z
" clip-path="url(#p654e8058c1)" style="fill: #3498db"/>
   </g>
   <g id="patch_20">
    <path d="M 388.604389 246.947753 
L 408.46161 160.738229 
L 415.833278 160.738229 
L 437.000014 246.947753 
L 429.210655 246.947753 
L 423.17108 220.827076 
L 401.552787 220.827076 
L 395.863169 246.947753 
L 388.604389 246.947753 
z
M 403.528349 211.549343 
L 421.060051 211.549343 
L 415.663944 187.66812 
Q 413.19167 176.790777 411.995044 169.790135 
Q 411.001618 178.089284 409.206679 186.2567 
L 403.528349 211.549343 
z
" clip-path="url(#p654e8058c1)" style="fill: #3498db"/>
   </g>
   <g id="patch_21">
    <path d="M 418.837606 114.319749 
L 418.837606 100.44845 
L 440.996566 100.345125 
L 440.996566 144.25799 
Q 435.890867 153.479691 430.465349 158.129288 
Q 425.03983 162.753055 419.328758 162.753055 
Q 411.618811 162.753055 405.313787 155.287868 
Q 399.020186 147.822681 395.810563 133.693071 
Q 392.600941 119.563461 392.600941 102.127471 
Q 392.600941 84.846467 395.787719 69.890262 
Q 398.985919 54.908226 404.982545 47.649688 
Q 410.979171 40.39115 418.791917 40.39115 
Q 424.468723 40.39115 429.049003 44.549957 
Q 433.640705 48.682932 436.244954 56.122288 
Q 438.860625 63.535813 440.208438 75.49561 
L 433.971947 79.370275 
Q 432.784044 70.329391 431.036456 65.163172 
Q 429.288868 59.996952 426.033557 56.897221 
Q 422.789668 53.771658 418.837606 53.771658 
Q 414.085994 53.771658 410.625084 57.052207 
Q 407.164175 60.306925 405.039656 65.653962 
Q 402.915137 70.975168 401.738656 77.355449 
Q 399.739781 88.333665 399.739781 101.17172 
Q 399.739781 116.980351 402.149853 127.648594 
Q 404.559926 138.291006 409.16305 143.457226 
Q 413.766174 148.623445 418.940405 148.623445 
Q 423.44073 148.623445 427.724034 144.722949 
Q 432.007338 140.796623 434.211812 136.353674 
L 434.211812 114.319749 
L 418.837606 114.319749 
z
" clip-path="url(#p654e8058c1)" style="fill: #3498db"/>
   </g>
   <g id="patch_22">
    <path d="M 455.820535 258.071562 
L 475.677756 255.29061 
L 483.049424 255.29061 
L 504.21616 258.071562 
L 496.426801 258.071562 
L 490.387226 257.22896 
L 468.768933 257.22896 
L 463.079314 258.071562 
L 455.820535 258.071562 
z
M 470.744495 256.929678 
L 488.276197 256.929678 
L 482.88009 256.159316 
Q 480.407816 255.808434 479.211189 255.582607 
Q 478.217764 255.850322 476.422825 256.113787 
L 470.744495 256.929678 
z
" clip-path="url(#p654e8058c1)" style="fill: #3498db"/>
   </g>
   <g id="patch_23">
    <path d="M 486.053752 253.180679 
L 486.053752 252.550166 
L 508.212712 252.545469 
L 508.212712 254.541508 
Q 503.107013 254.960677 497.681495 255.172022 
Q 492.255976 255.382193 486.544904 255.382193 
Q 478.834957 255.382193 472.529933 255.042866 
Q 466.236332 254.70354 463.026709 254.061285 
Q 459.817087 253.41903 459.817087 252.626485 
Q 459.817087 251.840985 463.003865 251.161157 
Q 466.202065 250.480155 472.198691 250.150222 
Q 478.195317 249.820288 486.008063 249.820288 
Q 491.684869 249.820288 496.265149 250.009325 
Q 500.856851 250.197188 503.4611 250.53534 
Q 506.076771 250.872318 507.424584 251.415946 
L 501.188093 251.592067 
Q 500.00019 251.181117 498.252602 250.946289 
Q 496.505014 250.711461 493.249703 250.570564 
Q 490.005814 250.428493 486.053752 250.428493 
Q 481.30214 250.428493 477.84123 250.577609 
Q 474.38032 250.725551 472.255802 250.968598 
Q 470.131283 251.210471 468.954802 251.500484 
Q 466.955927 251.999494 466.955927 252.583042 
Q 466.955927 253.301616 469.365999 253.786536 
Q 471.776072 254.270282 476.379196 254.50511 
Q 480.98232 254.739938 486.156551 254.739938 
Q 490.656876 254.739938 494.94018 254.562643 
Q 499.223484 254.384173 501.427958 254.182221 
L 501.427958 253.180679 
L 486.053752 253.180679 
z
" clip-path="url(#p654e8058c1)" style="fill: #3498db"/>
   </g>
   <g id="patch_24">
    <path d="M 500.888243 178.073243 
L 508.129663 184.899698 
Q 505.847301 218.228857 499.93228 235.718858 
Q 494.017259 253.208859 485.461391 253.208859 
Q 476.606784 253.208859 471.062199 239.779037 
Q 465.517614 226.304597 462.625826 200.783474 
Q 459.734038 175.26235 459.734038 145.99337 
Q 459.734038 114.047348 462.996261 90.310918 
Q 466.270434 66.529871 472.293001 54.215483 
Q 478.327517 41.856478 485.568937 41.856478 
Q 493.790218 41.856478 499.382602 57.47255 
Q 504.986934 73.088622 507.197599 101.376021 
L 500.063725 107.667067 
Q 498.151799 85.358393 494.53109 75.185637 
Q 490.91038 64.968264 485.425542 64.968264 
Q 479.116187 64.968264 474.874101 76.301071 
Q 470.632016 87.58926 468.911282 106.640868 
Q 467.202498 125.647859 467.202498 145.859518 
Q 467.202498 171.916049 469.23392 191.369213 
Q 471.265341 210.822377 475.555225 220.459725 
Q 479.857058 230.052455 484.863914 230.052455 
Q 490.946228 230.052455 495.164415 216.979571 
Q 499.394551 203.862071 500.888243 178.073243 
z
" clip-path="url(#p654e8058c1)" style="fill: #3498db"/>
   </g>
   <g id="patch_25">
    <path d="M 553.269898 257.016597 
L 553.269898 256.70134 
L 575.428857 256.698992 
L 575.428857 257.697012 
Q 570.323159 257.906596 564.89764 258.012268 
Q 559.472122 258.117354 553.76105 258.117354 
Q 546.051103 258.117354 539.746079 257.947691 
Q 533.452477 257.778027 530.242855 257.4569 
Q 527.033232 257.135772 527.033232 256.7395 
Q 527.033232 256.34675 530.220011 256.006836 
Q 533.418211 255.666335 539.414837 255.501368 
Q 545.411462 255.336402 553.224209 255.336402 
Q 558.901015 255.336402 563.481295 255.43092 
Q 568.072997 255.524851 570.677245 255.693927 
Q 573.292916 255.862417 574.640729 256.13423 
L 568.404239 256.222291 
Q 567.216336 256.016816 565.468748 255.899402 
Q 563.72116 255.781988 560.465849 255.71154 
Q 557.22196 255.640504 553.269898 255.640504 
Q 548.518286 255.640504 545.057376 255.715062 
Q 541.596466 255.789033 539.471947 255.910556 
Q 537.347429 256.031493 536.170948 256.176499 
Q 534.172073 256.426004 534.172073 256.717778 
Q 534.172073 257.077065 536.582145 257.319525 
Q 538.992217 257.561398 543.595342 257.678812 
Q 548.198466 257.796226 553.372697 257.796226 
Q 557.873022 257.796226 562.156326 257.707579 
Q 566.43963 257.618344 568.644104 257.517368 
L 568.644104 257.016597 
L 553.269898 257.016597 
z
" clip-path="url(#p654e8058c1)" style="fill: #3498db"/>
   </g>
   <g id="patch_26">
    <path d="M 523.036681 255.29061 
L 542.893901 249.728705 
L 550.26557 249.728705 
L 571.432306 255.29061 
L 563.642947 255.29061 
L 557.603372 253.605405 
L 535.985079 253.605405 
L 530.29546 255.29061 
L 523.036681 255.29061 
z
M 537.960641 253.006842 
L 555.492343 253.006842 
L 550.096236 251.466118 
Q 547.623961 250.764354 546.427335 250.312699 
Q 545.43391 250.848128 543.638971 251.375058 
L 537.960641 253.006842 
z
" clip-path="url(#p654e8058c1)" style="fill: #3498db"/>
   </g>
   <g id="patch_27">
    <path d="M 570.150407 41.914742 
L 578.29022 41.914742 
L 578.29022 161.994105 
Q 578.29022 193.295488 576.194823 211.758767 
Q 574.099425 230.176682 568.619154 241.744585 
Q 563.138884 253.267123 554.246876 253.267123 
Q 545.596645 253.267123 540.08951 243.196243 
Q 534.595808 233.125363 532.245202 214.072347 
Q 529.894595 195.019332 529.894595 161.994105 
L 529.894595 41.914742 
L 538.034409 41.914742 
L 538.034409 161.812647 
Q 538.034409 188.895148 539.525365 201.733252 
Q 541.016321 214.571355 544.642971 221.512096 
Q 548.283052 228.452838 553.534978 228.452838 
Q 562.507578 228.452838 566.322276 214.707448 
Q 570.150407 200.962058 570.150407 161.812647 
L 570.150407 41.914742 
z
" clip-path="url(#p654e8058c1)" style="fill: #3498db"/>
   </g>
   <g id="patch_28">
    <path d="M 620.486043 257.016597 
L 620.486043 256.70134 
L 642.645003 256.698992 
L 642.645003 257.697012 
Q 637.539305 257.906596 632.113786 258.012268 
Q 626.688268 258.117354 620.977196 258.117354 
Q 613.267248 258.117354 606.962225 257.947691 
Q 600.668623 257.778027 597.459001 257.4569 
Q 594.249378 257.135772 594.249378 256.7395 
Q 594.249378 256.34675 597.436156 256.006836 
Q 600.634357 255.666335 606.630983 255.501368 
Q 612.627608 255.336402 620.440355 255.336402 
Q 626.117161 255.336402 630.69744 255.43092 
Q 635.289142 255.524851 637.893391 255.693927 
Q 640.509062 255.862417 641.856875 256.13423 
L 635.620385 256.222291 
Q 634.432482 256.016816 632.684894 255.899402 
Q 630.937305 255.781988 627.681994 255.71154 
Q 624.438105 255.640504 620.486043 255.640504 
Q 615.734432 255.640504 612.273522 255.715062 
Q 608.812612 255.789033 606.688093 255.910556 
Q 604.563574 256.031493 603.387094 256.176499 
Q 601.388218 256.426004 601.388218 256.717778 
Q 601.388218 257.077065 603.798291 257.319525 
Q 606.208363 257.561398 610.811487 257.678812 
Q 615.414611 257.796226 620.588843 257.796226 
Q 625.089168 257.796226 629.372472 257.707579 
Q 633.655776 257.618344 635.86025 257.517368 
L 635.86025 257.016597 
L 620.486043 257.016597 
z
" clip-path="url(#p654e8058c1)" style="fill: #3498db"/>
   </g>
   <g id="patch_29">
    <path d="M 637.366552 244.353033 
L 645.506366 244.353033 
L 645.506366 250.673 
Q 645.506366 252.320441 643.410969 253.292192 
Q 641.315571 254.261556 635.8353 254.870393 
Q 630.35503 255.476843 621.463022 255.476843 
Q 612.812791 255.476843 607.305656 254.946796 
Q 601.811954 254.41675 599.461347 253.41396 
Q 597.110741 252.411169 597.110741 250.673 
L 597.110741 244.353033 
L 605.250555 244.353033 
L 605.250555 250.663449 
Q 605.250555 252.088844 606.741511 252.764534 
Q 608.232467 253.440223 611.859116 253.805525 
Q 615.499198 254.170828 620.751124 254.170828 
Q 629.723724 254.170828 633.538422 253.447386 
Q 637.366552 252.723944 637.366552 250.663449 
L 637.366552 244.353033 
z
" clip-path="url(#p654e8058c1)" style="fill: #3498db"/>
   </g>
   <g id="patch_30">
    <path d="M 635.320535 174.397009 
L 642.561954 181.043819 
Q 640.279593 213.495896 634.364572 230.525633 
Q 628.449551 247.555371 619.893683 247.555371 
Q 611.039076 247.555371 605.494491 234.478965 
Q 599.949905 221.359116 597.058117 196.509601 
Q 594.166329 171.660086 594.166329 143.161342 
Q 594.166329 112.056005 597.428553 88.944218 
Q 600.702726 65.788989 606.725293 53.798663 
Q 612.759809 41.764895 620.001228 41.764895 
Q 628.22251 41.764895 633.814893 56.970017 
Q 639.419226 72.17514 641.629891 99.718134 
L 634.496017 105.843626 
Q 632.584091 84.122022 628.963381 74.216971 
Q 625.342672 64.268476 619.857834 64.268476 
Q 613.548478 64.268476 609.306393 75.303051 
Q 605.064307 86.294183 603.343574 104.844433 
Q 601.63479 123.351239 601.63479 143.031012 
Q 601.63479 168.401846 603.666211 187.343085 
Q 605.697633 206.284323 609.987516 215.668056 
Q 614.28935 225.008346 619.296206 225.008346 
Q 625.37852 225.008346 629.596707 212.279486 
Q 633.826843 199.507183 635.320535 174.397009 
z
" clip-path="url(#p654e8058c1)" style="fill: #3498db"/>
   </g>
   <g id="patch_31">
    <path d="M 687.702189 174.72929 
L 687.702189 149.824004 
L 709.861149 149.63849 
L 709.861149 228.482041 
Q 704.755451 245.039187 699.329932 253.387328 
Q 693.904414 261.68909 688.193342 261.68909 
Q 680.483394 261.68909 674.178371 248.285686 
Q 667.884769 234.882283 664.675147 209.51321 
Q 661.465524 184.144138 661.465524 152.83861 
Q 661.465524 121.811354 664.652302 94.958167 
Q 667.850503 68.058603 673.847128 55.026227 
Q 679.843754 41.993852 687.656501 41.993852 
Q 693.333306 41.993852 697.913586 49.4608 
Q 702.505288 56.88137 705.109537 70.238395 
Q 707.725208 83.549042 709.073021 105.022315 
L 702.83653 111.979099 
Q 701.648627 95.746603 699.901039 86.470891 
Q 698.153451 77.195179 694.89814 71.629752 
Q 691.654251 66.017946 687.702189 66.017946 
Q 682.950577 66.017946 679.489668 71.908023 
Q 676.028758 77.751722 673.904239 87.352084 
Q 671.77972 96.906067 670.603239 108.361571 
Q 668.604364 128.072459 668.604364 151.122603 
Q 668.604364 179.506282 671.014437 198.660627 
Q 673.424509 217.768594 678.027633 227.044306 
Q 682.630757 236.320018 687.804989 236.320018 
Q 692.305313 236.320018 696.588618 229.316855 
Q 700.871922 222.267314 703.076395 214.290202 
L 703.076395 174.72929 
L 687.702189 174.72929 
z
" clip-path="url(#p654e8058c1)" style="fill: #3498db"/>
   </g>
   <g id="patch_32">
    <path d="M 769.752827 250.528882 
L 776.994246 251.247456 
Q 774.711884 254.755789 768.796864 256.596842 
Q 762.881843 258.437894 754.325974 258.437894 
Q 745.471367 258.437894 739.926782 257.024229 
Q 734.382197 255.605867 731.490409 252.919433 
Q 728.598621 250.232999 728.598621 247.152053 
Q 728.598621 243.789314 731.860845 241.290743 
Q 735.135018 238.787475 741.157584 237.491223 
Q 747.192101 236.190275 754.43352 236.190275 
Q 762.654802 236.190275 768.247185 237.834072 
Q 773.851518 239.477869 776.062182 242.45549 
L 768.928309 243.117706 
Q 767.016383 240.769424 763.395673 239.698608 
Q 759.774963 238.623095 754.290126 238.623095 
Q 747.98077 238.623095 743.738684 239.816022 
Q 739.496599 241.004252 737.775866 243.009685 
Q 736.067082 245.010421 736.067082 247.137964 
Q 736.067082 249.880757 738.098503 251.928458 
Q 740.129924 253.97616 744.419808 254.990617 
Q 748.721641 256.000378 753.728497 256.000378 
Q 759.810812 256.000378 764.028998 254.624285 
Q 768.259134 253.243496 769.752827 250.528882 
z
" clip-path="url(#p654e8058c1)" style="fill: #3498db"/>
   </g>
   <g id="patch_33">
    <path d="M 724.685118 235.823943 
L 744.542339 149.61442 
L 751.914008 149.61442 
L 773.080743 235.823943 
L 765.291385 235.823943 
L 759.251809 209.703267 
L 737.633516 209.703267 
L 731.943898 235.823943 
L 724.685118 235.823943 
z
M 739.609078 200.425534 
L 757.14078 200.425534 
L 751.744674 176.54431 
Q 749.272399 165.666968 748.075773 158.666326 
Q 747.082347 166.965474 745.287408 175.13289 
L 739.609078 200.425534 
z
" clip-path="url(#p654e8058c1)" style="fill: #3498db"/>
   </g>
   <g id="patch_34">
    <path d="M 771.798844 40.238649 
L 779.938658 40.238649 
L 779.938658 103.438314 
Q 779.938658 119.912726 777.84326 129.630242 
Q 775.747863 139.323881 770.267592 145.412251 
Q 764.787321 151.476744 755.895314 151.476744 
Q 747.245083 151.476744 741.737948 146.176281 
Q 736.244245 140.875818 733.893639 130.847915 
Q 731.543033 120.820013 731.543033 103.438314 
L 731.543033 40.238649 
L 739.682846 40.238649 
L 739.682846 103.34281 
Q 739.682846 117.596758 741.173802 124.353655 
Q 742.664758 131.110551 746.291408 134.763573 
Q 749.93149 138.416595 755.183416 138.416595 
Q 764.156016 138.416595 767.970714 131.182179 
Q 771.798844 123.947763 771.798844 103.34281 
L 771.798844 40.238649 
z
" clip-path="url(#p654e8058c1)" style="fill: #3498db"/>
   </g>
   <g id="patch_35">
    <path d="M 839.01499 176.039735 
L 847.154804 176.039735 
L 847.154804 223.439483 
Q 847.154804 235.795292 845.059406 243.083429 
Q 842.964008 250.353659 837.483738 254.919936 
Q 832.003467 259.468306 823.11146 259.468306 
Q 814.461228 259.468306 808.954094 255.492959 
Q 803.460391 251.517612 801.109785 243.996684 
Q 798.759179 236.475757 798.759179 223.439483 
L 798.759179 176.039735 
L 806.898992 176.039735 
L 806.898992 223.367855 
Q 806.898992 234.058316 808.389948 239.125989 
Q 809.880904 244.193661 813.507554 246.933427 
Q 817.147636 249.673194 822.399562 249.673194 
Q 831.372162 249.673194 835.18686 244.247382 
Q 839.01499 238.82157 839.01499 223.367855 
L 839.01499 176.039735 
z
" clip-path="url(#p654e8058c1)" style="fill: #3498db"/>
   </g>
   <g id="patch_36">
    <path d="M 836.968972 128.444075 
L 844.210392 132.845341 
Q 841.92803 154.333878 836.013009 165.610326 
Q 830.097989 176.886774 821.54212 176.886774 
Q 812.687513 176.886774 807.142928 168.228073 
Q 801.598343 159.540606 798.706555 143.086197 
Q 795.814767 126.631788 795.814767 107.760998 
Q 795.814767 87.164221 799.076991 71.86047 
Q 802.351164 56.527953 808.37373 48.588414 
Q 814.408247 40.620107 821.649666 40.620107 
Q 829.870947 40.620107 835.463331 50.688364 
Q 841.067664 60.756621 843.278328 78.99455 
L 836.144454 83.050619 
Q 834.232528 68.667395 830.611819 62.108644 
Q 826.991109 55.521128 821.506272 55.521128 
Q 815.196916 55.521128 810.95483 62.827806 
Q 806.712745 70.105717 804.992011 82.388991 
Q 803.283228 94.643498 803.283228 107.674699 
Q 803.283228 124.474305 805.314649 137.016476 
Q 807.34607 149.558648 811.635954 155.772201 
Q 815.937787 161.956987 820.944643 161.956987 
Q 827.026958 161.956987 831.245144 153.528418 
Q 835.47528 145.071082 836.968972 128.444075 
z
" clip-path="url(#p654e8058c1)" style="fill: #3498db"/>
   </g>
   <g id="patch_37">
    <path d="M 43.215 258.071562 
L 43.215 27.391562 
" style="fill: none; stroke: #262626; stroke-width: 2; stroke-linejoin: miter; stroke-linecap: square"/>
   </g>
   <g id="patch_38">
    <path d="M 43.215 258.071562 
L 849.80875 258.071562 
" style="fill: none; stroke: #262626; stroke-width: 2; stroke-linejoin: miter; stroke-linecap: square"/>
   </g>
   <g id="text_17">
    <!-- Selected Mutation Sites Logo (n=93) -->
    <g style="fill: #262626" transform="translate(333.086719 17.391562) scale(0.14 -0.14)">
     <defs>
      <path id="ArialMT-53" d="M 288 1472 
L 859 1522 
Q 900 1178 1048 958 
Q 1197 738 1509 602 
Q 1822 466 2213 466 
Q 2559 466 2825 569 
Q 3091 672 3220 851 
Q 3350 1031 3350 1244 
Q 3350 1459 3225 1620 
Q 3100 1781 2813 1891 
Q 2628 1963 1997 2114 
Q 1366 2266 1113 2400 
Q 784 2572 623 2826 
Q 463 3081 463 3397 
Q 463 3744 659 4045 
Q 856 4347 1234 4503 
Q 1613 4659 2075 4659 
Q 2584 4659 2973 4495 
Q 3363 4331 3572 4012 
Q 3781 3694 3797 3291 
L 3216 3247 
Q 3169 3681 2898 3903 
Q 2628 4125 2100 4125 
Q 1550 4125 1298 3923 
Q 1047 3722 1047 3438 
Q 1047 3191 1225 3031 
Q 1400 2872 2139 2705 
Q 2878 2538 3153 2413 
Q 3553 2228 3743 1945 
Q 3934 1663 3934 1294 
Q 3934 928 3725 604 
Q 3516 281 3123 101 
Q 2731 -78 2241 -78 
Q 1619 -78 1198 103 
Q 778 284 539 648 
Q 300 1013 288 1472 
z
" transform="scale(0.015625)"/>
      <path id="ArialMT-65" d="M 2694 1069 
L 3275 997 
Q 3138 488 2766 206 
Q 2394 -75 1816 -75 
Q 1088 -75 661 373 
Q 234 822 234 1631 
Q 234 2469 665 2931 
Q 1097 3394 1784 3394 
Q 2450 3394 2872 2941 
Q 3294 2488 3294 1666 
Q 3294 1616 3291 1516 
L 816 1516 
Q 847 969 1125 678 
Q 1403 388 1819 388 
Q 2128 388 2347 550 
Q 2566 713 2694 1069 
z
M 847 1978 
L 2700 1978 
Q 2663 2397 2488 2606 
Q 2219 2931 1791 2931 
Q 1403 2931 1139 2672 
Q 875 2413 847 1978 
z
" transform="scale(0.015625)"/>
      <path id="ArialMT-63" d="M 2588 1216 
L 3141 1144 
Q 3050 572 2676 248 
Q 2303 -75 1759 -75 
Q 1078 -75 664 370 
Q 250 816 250 1647 
Q 250 2184 428 2587 
Q 606 2991 970 3192 
Q 1334 3394 1763 3394 
Q 2303 3394 2647 3120 
Q 2991 2847 3088 2344 
L 2541 2259 
Q 2463 2594 2264 2762 
Q 2066 2931 1784 2931 
Q 1359 2931 1093 2626 
Q 828 2322 828 1663 
Q 828 994 1084 691 
Q 1341 388 1753 388 
Q 2084 388 2306 591 
Q 2528 794 2588 1216 
z
" transform="scale(0.015625)"/>
      <path id="ArialMT-64" d="M 2575 0 
L 2575 419 
Q 2259 -75 1647 -75 
Q 1250 -75 917 144 
Q 584 363 401 755 
Q 219 1147 219 1656 
Q 219 2153 384 2558 
Q 550 2963 881 3178 
Q 1213 3394 1622 3394 
Q 1922 3394 2156 3267 
Q 2391 3141 2538 2938 
L 2538 4581 
L 3097 4581 
L 3097 0 
L 2575 0 
z
M 797 1656 
Q 797 1019 1065 703 
Q 1334 388 1700 388 
Q 2069 388 2326 689 
Q 2584 991 2584 1609 
Q 2584 2291 2321 2609 
Q 2059 2928 1675 2928 
Q 1300 2928 1048 2622 
Q 797 2316 797 1656 
z
" transform="scale(0.015625)"/>
      <path id="ArialMT-20" transform="scale(0.015625)"/>
      <path id="ArialMT-4d" d="M 475 0 
L 475 4581 
L 1388 4581 
L 2472 1338 
Q 2622 884 2691 659 
Q 2769 909 2934 1394 
L 4031 4581 
L 4847 4581 
L 4847 0 
L 4263 0 
L 4263 3834 
L 2931 0 
L 2384 0 
L 1059 3900 
L 1059 0 
L 475 0 
z
" transform="scale(0.015625)"/>
      <path id="ArialMT-75" d="M 2597 0 
L 2597 488 
Q 2209 -75 1544 -75 
Q 1250 -75 995 37 
Q 741 150 617 320 
Q 494 491 444 738 
Q 409 903 409 1263 
L 409 3319 
L 972 3319 
L 972 1478 
Q 972 1038 1006 884 
Q 1059 663 1231 536 
Q 1403 409 1656 409 
Q 1909 409 2131 539 
Q 2353 669 2445 892 
Q 2538 1116 2538 1541 
L 2538 3319 
L 3100 3319 
L 3100 0 
L 2597 0 
z
" transform="scale(0.015625)"/>
      <path id="ArialMT-6e" d="M 422 0 
L 422 3319 
L 928 3319 
L 928 2847 
Q 1294 3394 1984 3394 
Q 2284 3394 2536 3286 
Q 2788 3178 2913 3003 
Q 3038 2828 3088 2588 
Q 3119 2431 3119 2041 
L 3119 0 
L 2556 0 
L 2556 2019 
Q 2556 2363 2490 2533 
Q 2425 2703 2258 2804 
Q 2091 2906 1866 2906 
Q 1506 2906 1245 2678 
Q 984 2450 984 1813 
L 984 0 
L 422 0 
z
" transform="scale(0.015625)"/>
      <path id="ArialMT-73" d="M 197 991 
L 753 1078 
Q 800 744 1014 566 
Q 1228 388 1613 388 
Q 2000 388 2187 545 
Q 2375 703 2375 916 
Q 2375 1106 2209 1216 
Q 2094 1291 1634 1406 
Q 1016 1563 777 1677 
Q 538 1791 414 1992 
Q 291 2194 291 2438 
Q 291 2659 392 2848 
Q 494 3038 669 3163 
Q 800 3259 1026 3326 
Q 1253 3394 1513 3394 
Q 1903 3394 2198 3281 
Q 2494 3169 2634 2976 
Q 2775 2784 2828 2463 
L 2278 2388 
Q 2241 2644 2061 2787 
Q 1881 2931 1553 2931 
Q 1166 2931 1000 2803 
Q 834 2675 834 2503 
Q 834 2394 903 2306 
Q 972 2216 1119 2156 
Q 1203 2125 1616 2013 
Q 2213 1853 2448 1751 
Q 2684 1650 2818 1456 
Q 2953 1263 2953 975 
Q 2953 694 2789 445 
Q 2625 197 2315 61 
Q 2006 -75 1616 -75 
Q 969 -75 630 194 
Q 291 463 197 991 
z
" transform="scale(0.015625)"/>
      <path id="ArialMT-4c" d="M 469 0 
L 469 4581 
L 1075 4581 
L 1075 541 
L 3331 541 
L 3331 0 
L 469 0 
z
" transform="scale(0.015625)"/>
      <path id="ArialMT-67" d="M 319 -275 
L 866 -356 
Q 900 -609 1056 -725 
Q 1266 -881 1628 -881 
Q 2019 -881 2231 -725 
Q 2444 -569 2519 -288 
Q 2563 -116 2559 434 
Q 2191 0 1641 0 
Q 956 0 581 494 
Q 206 988 206 1678 
Q 206 2153 378 2554 
Q 550 2956 876 3175 
Q 1203 3394 1644 3394 
Q 2231 3394 2613 2919 
L 2613 3319 
L 3131 3319 
L 3131 450 
Q 3131 -325 2973 -648 
Q 2816 -972 2473 -1159 
Q 2131 -1347 1631 -1347 
Q 1038 -1347 672 -1080 
Q 306 -813 319 -275 
z
M 784 1719 
Q 784 1066 1043 766 
Q 1303 466 1694 466 
Q 2081 466 2343 764 
Q 2606 1063 2606 1700 
Q 2606 2309 2336 2618 
Q 2066 2928 1684 2928 
Q 1309 2928 1046 2623 
Q 784 2319 784 1719 
z
" transform="scale(0.015625)"/>
      <path id="ArialMT-28" d="M 1497 -1347 
Q 1031 -759 709 28 
Q 388 816 388 1659 
Q 388 2403 628 3084 
Q 909 3875 1497 4659 
L 1900 4659 
Q 1522 4009 1400 3731 
Q 1209 3300 1100 2831 
Q 966 2247 966 1656 
Q 966 153 1900 -1347 
L 1497 -1347 
z
" transform="scale(0.015625)"/>
      <path id="ArialMT-3d" d="M 3381 2694 
L 356 2694 
L 356 3219 
L 3381 3219 
L 3381 2694 
z
M 3381 1303 
L 356 1303 
L 356 1828 
L 3381 1828 
L 3381 1303 
z
" transform="scale(0.015625)"/>
      <path id="ArialMT-29" d="M 791 -1347 
L 388 -1347 
Q 1322 153 1322 1656 
Q 1322 2244 1188 2822 
Q 1081 3291 891 3722 
Q 769 4003 388 4659 
L 791 4659 
Q 1378 3875 1659 3084 
Q 1900 2403 1900 1659 
Q 1900 816 1576 28 
Q 1253 -759 791 -1347 
z
" transform="scale(0.015625)"/>
     </defs>
     <use xlink:href="#ArialMT-53"/>
     <use xlink:href="#ArialMT-65" transform="translate(66.699219 0)"/>
     <use xlink:href="#ArialMT-6c" transform="translate(122.314453 0)"/>
     <use xlink:href="#ArialMT-65" transform="translate(144.53125 0)"/>
     <use xlink:href="#ArialMT-63" transform="translate(200.146484 0)"/>
     <use xlink:href="#ArialMT-74" transform="translate(250.146484 0)"/>
     <use xlink:href="#ArialMT-65" transform="translate(277.929688 0)"/>
     <use xlink:href="#ArialMT-64" transform="translate(333.544922 0)"/>
     <use xlink:href="#ArialMT-20" transform="translate(389.160156 0)"/>
     <use xlink:href="#ArialMT-4d" transform="translate(416.943359 0)"/>
     <use xlink:href="#ArialMT-75" transform="translate(500.244141 0)"/>
     <use xlink:href="#ArialMT-74" transform="translate(555.859375 0)"/>
     <use xlink:href="#ArialMT-61" transform="translate(583.642578 0)"/>
     <use xlink:href="#ArialMT-74" transform="translate(639.257812 0)"/>
     <use xlink:href="#ArialMT-69" transform="translate(667.041016 0)"/>
     <use xlink:href="#ArialMT-6f" transform="translate(689.257812 0)"/>
     <use xlink:href="#ArialMT-6e" transform="translate(744.873047 0)"/>
     <use xlink:href="#ArialMT-20" transform="translate(800.488281 0)"/>
     <use xlink:href="#ArialMT-53" transform="translate(828.271484 0)"/>
     <use xlink:href="#ArialMT-69" transform="translate(894.970703 0)"/>
     <use xlink:href="#ArialMT-74" transform="translate(917.1875 0)"/>
     <use xlink:href="#ArialMT-65" transform="translate(944.970703 0)"/>
     <use xlink:href="#ArialMT-73" transform="translate(1000.585938 0)"/>
     <use xlink:href="#ArialMT-20" transform="translate(1050.585938 0)"/>
     <use xlink:href="#ArialMT-4c" transform="translate(1078.369141 0)"/>
     <use xlink:href="#ArialMT-6f" transform="translate(1133.984375 0)"/>
     <use xlink:href="#ArialMT-67" transform="translate(1189.599609 0)"/>
     <use xlink:href="#ArialMT-6f" transform="translate(1245.214844 0)"/>
     <use xlink:href="#ArialMT-20" transform="translate(1300.830078 0)"/>
     <use xlink:href="#ArialMT-28" transform="translate(1328.613281 0)"/>
     <use xlink:href="#ArialMT-6e" transform="translate(1361.914062 0)"/>
     <use xlink:href="#ArialMT-3d" transform="translate(1417.529297 0)"/>
     <use xlink:href="#ArialMT-39" transform="translate(1475.927734 0)"/>
     <use xlink:href="#ArialMT-33" transform="translate(1531.542969 0)"/>
     <use xlink:href="#ArialMT-29" transform="translate(1587.158203 0)"/>
    </g>
   </g>
  </g>
 </g>
 <defs>
  <clipPath id="p654e8058c1">
   <rect x="43.215" y="27.391562" width="806.59375" height="230.68"/>
  </clipPath>
 </defs>
</svg>
