<?xml version="1.0" encoding="utf-8" standalone="no"?>
<!DOCTYPE svg PUBLIC "-//W3C//DTD SVG 1.1//EN"
  "http://www.w3.org/Graphics/SVG/1.1/DTD/svg11.dtd">
<svg xmlns:xlink="http://www.w3.org/1999/xlink" width="857.00875pt" height="280.502344pt" viewBox="0 0 857.00875 280.502344" xmlns="http://www.w3.org/2000/svg" version="1.1">
 <metadata>
  <rdf:RDF xmlns:dc="http://purl.org/dc/elements/1.1/" xmlns:cc="http://creativecommons.org/ns#" xmlns:rdf="http://www.w3.org/1999/02/22-rdf-syntax-ns#">
   <cc:Work>
    <dc:type rdf:resource="http://purl.org/dc/dcmitype/StillImage"/>
    <dc:date>2026-02-14T06:49:56.606432</dc:date>
    <dc:format>image/svg+xml</dc:format>
    <dc:creator>
     <cc:Agent>
      <dc:title>Matplotlib v3.10.8, https://matplotlib.org/</dc:title>
     </cc:Agent>
    </dc:creator>
   </cc:Work>
  </rdf:RDF>
 </metadata>
 <defs>
  <style type="text/css">*{stroke-linejoin: round; stroke-linecap: butt}</style>
 </defs>
 <g id="figure_1">
  <g id="patch_1">
   <path d="M 0 280.502344 
L 857.00875 280.502344 
L 857.00875 0 
L 0 0 
L 0 280.502344 
z
" style="fill: none"/>
  </g>
  <g id="axes_1">
   <g id="patch_2">
    <path d="M 43.215 258.071562 
L 849.80875 258.071562 
L 849.80875 27.391562 
L 43.215 27.391562 
L 43.215 258.071562 
z
" style="fill: none"/>
   </g>
   <g id="matplotlib.axis_1">
    <g id="xtick_1">
     <g id="line2d_1">
      <defs>
       <path id="m399a33f580" d="M 0 0 
L 0 3.5 
" style="stroke: #262626; stroke-width: 0.8"/>
      </defs>
      <g>
       <use xlink:href="#m399a33f580" x="68.421055" y="258.071562" style="fill: #262626; stroke: #262626; stroke-width: 0.8"/>
      </g>
     </g>
     <g id="text_1">
      <!-- 5 -->
      <g style="fill: #262626" transform="translate(65.918633 271.513594) scale(0.09 -0.09)">
       <defs>
        <path id="ArialMT-35" d="M 266 1200 
L 856 1250 
Q 922 819 1161 601 
Q 1400 384 1738 384 
Q 2144 384 2425 690 
Q 2706 997 2706 1503 
Q 2706 1984 2436 2262 
Q 2166 2541 1728 2541 
Q 1456 2541 1237 2417 
Q 1019 2294 894 2097 
L 366 2166 
L 809 4519 
L 3088 4519 
L 3088 3981 
L 1259 3981 
L 1013 2750 
Q 1425 3038 1878 3038 
Q 2478 3038 2890 2622 
Q 3303 2206 3303 1553 
Q 3303 931 2941 478 
Q 2500 -78 1738 -78 
Q 1113 -78 717 272 
Q 322 622 266 1200 
z
" transform="scale(0.015625)"/>
       </defs>
       <use xlink:href="#ArialMT-35"/>
      </g>
     </g>
    </g>
    <g id="xtick_2">
     <g id="line2d_2">
      <g>
       <use xlink:href="#m399a33f580" x="118.833164" y="258.071562" style="fill: #262626; stroke: #262626; stroke-width: 0.8"/>
      </g>
     </g>
     <g id="text_2">
      <!-- 6 -->
      <g style="fill: #262626" transform="translate(116.330742 271.513594) scale(0.09 -0.09)">
       <defs>
        <path id="ArialMT-36" d="M 3184 3459 
L 2625 3416 
Q 2550 3747 2413 3897 
Q 2184 4138 1850 4138 
Q 1581 4138 1378 3988 
Q 1113 3794 959 3422 
Q 806 3050 800 2363 
Q 1003 2672 1297 2822 
Q 1591 2972 1913 2972 
Q 2475 2972 2870 2558 
Q 3266 2144 3266 1488 
Q 3266 1056 3080 686 
Q 2894 316 2569 119 
Q 2244 -78 1831 -78 
Q 1128 -78 684 439 
Q 241 956 241 2144 
Q 241 3472 731 4075 
Q 1159 4600 1884 4600 
Q 2425 4600 2770 4297 
Q 3116 3994 3184 3459 
z
M 888 1484 
Q 888 1194 1011 928 
Q 1134 663 1356 523 
Q 1578 384 1822 384 
Q 2178 384 2434 671 
Q 2691 959 2691 1453 
Q 2691 1928 2437 2201 
Q 2184 2475 1800 2475 
Q 1419 2475 1153 2201 
Q 888 1928 888 1484 
z
" transform="scale(0.015625)"/>
       </defs>
       <use xlink:href="#ArialMT-36"/>
      </g>
     </g>
    </g>
    <g id="xtick_3">
     <g id="line2d_3">
      <g>
       <use xlink:href="#m399a33f580" x="169.245273" y="258.071562" style="fill: #262626; stroke: #262626; stroke-width: 0.8"/>
      </g>
     </g>
     <g id="text_3">
      <!-- 7 -->
      <g style="fill: #262626" transform="translate(166.742852 271.513594) scale(0.09 -0.09)">
       <defs>
        <path id="ArialMT-37" d="M 303 3981 
L 303 4522 
L 3269 4522 
L 3269 4084 
Q 2831 3619 2401 2847 
Q 1972 2075 1738 1259 
Q 1569 684 1522 0 
L 944 0 
Q 953 541 1156 1306 
Q 1359 2072 1739 2783 
Q 2119 3494 2547 3981 
L 303 3981 
z
" transform="scale(0.015625)"/>
       </defs>
       <use xlink:href="#ArialMT-37"/>
      </g>
     </g>
    </g>
    <g id="xtick_4">
     <g id="line2d_4">
      <g>
       <use xlink:href="#m399a33f580" x="219.657383" y="258.071562" style="fill: #262626; stroke: #262626; stroke-width: 0.8"/>
      </g>
     </g>
     <g id="text_4">
      <!-- 9 -->
      <g style="fill: #262626" transform="translate(217.154961 271.513594) scale(0.09 -0.09)">
       <defs>
        <path id="ArialMT-39" d="M 350 1059 
L 891 1109 
Q 959 728 1153 556 
Q 1347 384 1650 384 
Q 1909 384 2104 503 
Q 2300 622 2425 820 
Q 2550 1019 2634 1356 
Q 2719 1694 2719 2044 
Q 2719 2081 2716 2156 
Q 2547 1888 2255 1720 
Q 1963 1553 1622 1553 
Q 1053 1553 659 1965 
Q 266 2378 266 3053 
Q 266 3750 677 4175 
Q 1088 4600 1706 4600 
Q 2153 4600 2523 4359 
Q 2894 4119 3086 3673 
Q 3278 3228 3278 2384 
Q 3278 1506 3087 986 
Q 2897 466 2520 194 
Q 2144 -78 1638 -78 
Q 1100 -78 759 220 
Q 419 519 350 1059 
z
M 2653 3081 
Q 2653 3566 2395 3850 
Q 2138 4134 1775 4134 
Q 1400 4134 1122 3828 
Q 844 3522 844 3034 
Q 844 2597 1108 2323 
Q 1372 2050 1759 2050 
Q 2150 2050 2401 2323 
Q 2653 2597 2653 3081 
z
" transform="scale(0.015625)"/>
       </defs>
       <use xlink:href="#ArialMT-39"/>
      </g>
     </g>
    </g>
    <g id="xtick_5">
     <g id="line2d_5">
      <g>
       <use xlink:href="#m399a33f580" x="270.069492" y="258.071562" style="fill: #262626; stroke: #262626; stroke-width: 0.8"/>
      </g>
     </g>
     <g id="text_5">
      <!-- 10 -->
      <g style="fill: #262626" transform="translate(265.064648 271.513594) scale(0.09 -0.09)">
       <defs>
        <path id="ArialMT-31" d="M 2384 0 
L 1822 0 
L 1822 3584 
Q 1619 3391 1289 3197 
Q 959 3003 697 2906 
L 697 3450 
Q 1169 3672 1522 3987 
Q 1875 4303 2022 4600 
L 2384 4600 
L 2384 0 
z
" transform="scale(0.015625)"/>
        <path id="ArialMT-30" d="M 266 2259 
Q 266 3072 433 3567 
Q 600 4063 929 4331 
Q 1259 4600 1759 4600 
Q 2128 4600 2406 4451 
Q 2684 4303 2865 4023 
Q 3047 3744 3150 3342 
Q 3253 2941 3253 2259 
Q 3253 1453 3087 958 
Q 2922 463 2592 192 
Q 2263 -78 1759 -78 
Q 1097 -78 719 397 
Q 266 969 266 2259 
z
M 844 2259 
Q 844 1131 1108 757 
Q 1372 384 1759 384 
Q 2147 384 2411 759 
Q 2675 1134 2675 2259 
Q 2675 3391 2411 3762 
Q 2147 4134 1753 4134 
Q 1366 4134 1134 3806 
Q 844 3388 844 2259 
z
" transform="scale(0.015625)"/>
       </defs>
       <use xlink:href="#ArialMT-31"/>
       <use xlink:href="#ArialMT-30" transform="translate(55.615234 0)"/>
      </g>
     </g>
    </g>
    <g id="xtick_6">
     <g id="line2d_6">
      <g>
       <use xlink:href="#m399a33f580" x="320.481602" y="258.071562" style="fill: #262626; stroke: #262626; stroke-width: 0.8"/>
      </g>
     </g>
     <g id="text_6">
      <!-- 12 -->
      <g style="fill: #262626" transform="translate(315.476758 271.513594) scale(0.09 -0.09)">
       <defs>
        <path id="ArialMT-32" d="M 3222 541 
L 3222 0 
L 194 0 
Q 188 203 259 391 
Q 375 700 629 1000 
Q 884 1300 1366 1694 
Q 2113 2306 2375 2664 
Q 2638 3022 2638 3341 
Q 2638 3675 2398 3904 
Q 2159 4134 1775 4134 
Q 1369 4134 1125 3890 
Q 881 3647 878 3216 
L 300 3275 
Q 359 3922 746 4261 
Q 1134 4600 1788 4600 
Q 2447 4600 2831 4234 
Q 3216 3869 3216 3328 
Q 3216 3053 3103 2787 
Q 2991 2522 2730 2228 
Q 2469 1934 1863 1422 
Q 1356 997 1212 845 
Q 1069 694 975 541 
L 3222 541 
z
" transform="scale(0.015625)"/>
       </defs>
       <use xlink:href="#ArialMT-31"/>
       <use xlink:href="#ArialMT-32" transform="translate(55.615234 0)"/>
      </g>
     </g>
    </g>
    <g id="xtick_7">
     <g id="line2d_7">
      <g>
       <use xlink:href="#m399a33f580" x="370.893711" y="258.071562" style="fill: #262626; stroke: #262626; stroke-width: 0.8"/>
      </g>
     </g>
     <g id="text_7">
      <!-- 16 -->
      <g style="fill: #262626" transform="translate(365.888867 271.513594) scale(0.09 -0.09)">
       <use xlink:href="#ArialMT-31"/>
       <use xlink:href="#ArialMT-36" transform="translate(55.615234 0)"/>
      </g>
     </g>
    </g>
    <g id="xtick_8">
     <g id="line2d_8">
      <g>
       <use xlink:href="#m399a33f580" x="421.30582" y="258.071562" style="fill: #262626; stroke: #262626; stroke-width: 0.8"/>
      </g>
     </g>
     <g id="text_8">
      <!-- 19 -->
      <g style="fill: #262626" transform="translate(416.300977 271.513594) scale(0.09 -0.09)">
       <use xlink:href="#ArialMT-31"/>
       <use xlink:href="#ArialMT-39" transform="translate(55.615234 0)"/>
      </g>
     </g>
    </g>
    <g id="xtick_9">
     <g id="line2d_9">
      <g>
       <use xlink:href="#m399a33f580" x="471.71793" y="258.071562" style="fill: #262626; stroke: #262626; stroke-width: 0.8"/>
      </g>
     </g>
     <g id="text_9">
      <!-- 20 -->
      <g style="fill: #262626" transform="translate(466.713086 271.513594) scale(0.09 -0.09)">
       <use xlink:href="#ArialMT-32"/>
       <use xlink:href="#ArialMT-30" transform="translate(55.615234 0)"/>
      </g>
     </g>
    </g>
    <g id="xtick_10">
     <g id="line2d_10">
      <g>
       <use xlink:href="#m399a33f580" x="522.130039" y="258.071562" style="fill: #262626; stroke: #262626; stroke-width: 0.8"/>
      </g>
     </g>
     <g id="text_10">
      <!-- 21 -->
      <g style="fill: #262626" transform="translate(517.125195 271.513594) scale(0.09 -0.09)">
       <use xlink:href="#ArialMT-32"/>
       <use xlink:href="#ArialMT-31" transform="translate(55.615234 0)"/>
      </g>
     </g>
    </g>
    <g id="xtick_11">
     <g id="line2d_11">
      <g>
       <use xlink:href="#m399a33f580" x="572.542148" y="258.071562" style="fill: #262626; stroke: #262626; stroke-width: 0.8"/>
      </g>
     </g>
     <g id="text_11">
      <!-- 26 -->
      <g style="fill: #262626" transform="translate(567.537305 271.513594) scale(0.09 -0.09)">
       <use xlink:href="#ArialMT-32"/>
       <use xlink:href="#ArialMT-36" transform="translate(55.615234 0)"/>
      </g>
     </g>
    </g>
    <g id="xtick_12">
     <g id="line2d_12">
      <g>
       <use xlink:href="#m399a33f580" x="622.954258" y="258.071562" style="fill: #262626; stroke: #262626; stroke-width: 0.8"/>
      </g>
     </g>
     <g id="text_12">
      <!-- 28 -->
      <g style="fill: #262626" transform="translate(617.949414 271.513594) scale(0.09 -0.09)">
       <defs>
        <path id="ArialMT-38" d="M 1131 2484 
Q 781 2613 612 2850 
Q 444 3088 444 3419 
Q 444 3919 803 4259 
Q 1163 4600 1759 4600 
Q 2359 4600 2725 4251 
Q 3091 3903 3091 3403 
Q 3091 3084 2923 2848 
Q 2756 2613 2416 2484 
Q 2838 2347 3058 2040 
Q 3278 1734 3278 1309 
Q 3278 722 2862 322 
Q 2447 -78 1769 -78 
Q 1091 -78 675 323 
Q 259 725 259 1325 
Q 259 1772 486 2073 
Q 713 2375 1131 2484 
z
M 1019 3438 
Q 1019 3113 1228 2906 
Q 1438 2700 1772 2700 
Q 2097 2700 2305 2904 
Q 2513 3109 2513 3406 
Q 2513 3716 2298 3927 
Q 2084 4138 1766 4138 
Q 1444 4138 1231 3931 
Q 1019 3725 1019 3438 
z
M 838 1322 
Q 838 1081 952 856 
Q 1066 631 1291 507 
Q 1516 384 1775 384 
Q 2178 384 2440 643 
Q 2703 903 2703 1303 
Q 2703 1709 2433 1975 
Q 2163 2241 1756 2241 
Q 1359 2241 1098 1978 
Q 838 1716 838 1322 
z
" transform="scale(0.015625)"/>
       </defs>
       <use xlink:href="#ArialMT-32"/>
       <use xlink:href="#ArialMT-38" transform="translate(55.615234 0)"/>
      </g>
     </g>
    </g>
    <g id="xtick_13">
     <g id="line2d_13">
      <g>
       <use xlink:href="#m399a33f580" x="673.366367" y="258.071562" style="fill: #262626; stroke: #262626; stroke-width: 0.8"/>
      </g>
     </g>
     <g id="text_13">
      <!-- 29 -->
      <g style="fill: #262626" transform="translate(668.361523 271.513594) scale(0.09 -0.09)">
       <use xlink:href="#ArialMT-32"/>
       <use xlink:href="#ArialMT-39" transform="translate(55.615234 0)"/>
      </g>
     </g>
    </g>
    <g id="xtick_14">
     <g id="line2d_14">
      <g>
       <use xlink:href="#m399a33f580" x="723.778477" y="258.071562" style="fill: #262626; stroke: #262626; stroke-width: 0.8"/>
      </g>
     </g>
     <g id="text_14">
      <!-- 31 -->
      <g style="fill: #262626" transform="translate(718.773633 271.513594) scale(0.09 -0.09)">
       <defs>
        <path id="ArialMT-33" d="M 269 1209 
L 831 1284 
Q 928 806 1161 595 
Q 1394 384 1728 384 
Q 2125 384 2398 659 
Q 2672 934 2672 1341 
Q 2672 1728 2419 1979 
Q 2166 2231 1775 2231 
Q 1616 2231 1378 2169 
L 1441 2663 
Q 1497 2656 1531 2656 
Q 1891 2656 2178 2843 
Q 2466 3031 2466 3422 
Q 2466 3731 2256 3934 
Q 2047 4138 1716 4138 
Q 1388 4138 1169 3931 
Q 950 3725 888 3313 
L 325 3413 
Q 428 3978 793 4289 
Q 1159 4600 1703 4600 
Q 2078 4600 2393 4439 
Q 2709 4278 2876 4000 
Q 3044 3722 3044 3409 
Q 3044 3113 2884 2869 
Q 2725 2625 2413 2481 
Q 2819 2388 3044 2092 
Q 3269 1797 3269 1353 
Q 3269 753 2831 336 
Q 2394 -81 1725 -81 
Q 1122 -81 723 278 
Q 325 638 269 1209 
z
" transform="scale(0.015625)"/>
       </defs>
       <use xlink:href="#ArialMT-33"/>
       <use xlink:href="#ArialMT-31" transform="translate(55.615234 0)"/>
      </g>
     </g>
    </g>
    <g id="xtick_15">
     <g id="line2d_15">
      <g>
       <use xlink:href="#m399a33f580" x="774.190586" y="258.071562" style="fill: #262626; stroke: #262626; stroke-width: 0.8"/>
      </g>
     </g>
     <g id="text_15">
      <!-- 36 -->
      <g style="fill: #262626" transform="translate(769.185742 271.513594) scale(0.09 -0.09)">
       <use xlink:href="#ArialMT-33"/>
       <use xlink:href="#ArialMT-36" transform="translate(55.615234 0)"/>
      </g>
     </g>
    </g>
    <g id="xtick_16">
     <g id="line2d_16">
      <g>
       <use xlink:href="#m399a33f580" x="824.602695" y="258.071562" style="fill: #262626; stroke: #262626; stroke-width: 0.8"/>
      </g>
     </g>
     <g id="text_16">
      <!-- 45 -->
      <g style="fill: #262626" transform="translate(819.597852 271.513594) scale(0.09 -0.09)">
       <defs>
        <path id="ArialMT-34" d="M 2069 0 
L 2069 1097 
L 81 1097 
L 81 1613 
L 2172 4581 
L 2631 4581 
L 2631 1613 
L 3250 1613 
L 3250 1097 
L 2631 1097 
L 2631 0 
L 2069 0 
z
M 2069 1613 
L 2069 3678 
L 634 1613 
L 2069 1613 
z
" transform="scale(0.015625)"/>
       </defs>
       <use xlink:href="#ArialMT-34"/>
       <use xlink:href="#ArialMT-35" transform="translate(55.615234 0)"/>
      </g>
     </g>
    </g>
   </g>
   <g id="matplotlib.axis_2">
    <g id="ytick_1">
     <g id="line2d_17">
      <defs>
       <path id="m01a58616c1" d="M 0 0 
L -3.5 0 
" style="stroke: #262626; stroke-width: 0.8"/>
      </defs>
      <g>
       <use xlink:href="#m01a58616c1" x="43.215" y="258.071562" style="fill: #262626; stroke: #262626; stroke-width: 0.8"/>
      </g>
     </g>
     <g id="text_17">
      <!-- 0.0 -->
      <g style="fill: #262626" transform="translate(22.315 261.650469) scale(0.1 -0.1)">
       <defs>
        <path id="ArialMT-2e" d="M 581 0 
L 581 641 
L 1222 641 
L 1222 0 
L 581 0 
z
" transform="scale(0.015625)"/>
       </defs>
       <use xlink:href="#ArialMT-30"/>
       <use xlink:href="#ArialMT-2e" transform="translate(55.615234 0)"/>
       <use xlink:href="#ArialMT-30" transform="translate(83.398438 0)"/>
      </g>
     </g>
    </g>
    <g id="ytick_2">
     <g id="line2d_18">
      <g>
       <use xlink:href="#m01a58616c1" x="43.215" y="148.223943" style="fill: #262626; stroke: #262626; stroke-width: 0.8"/>
      </g>
     </g>
     <g id="text_18">
      <!-- 0.5 -->
      <g style="fill: #262626" transform="translate(22.315 151.80285) scale(0.1 -0.1)">
       <use xlink:href="#ArialMT-30"/>
       <use xlink:href="#ArialMT-2e" transform="translate(55.615234 0)"/>
       <use xlink:href="#ArialMT-35" transform="translate(83.398438 0)"/>
      </g>
     </g>
    </g>
    <g id="ytick_3">
     <g id="line2d_19">
      <g>
       <use xlink:href="#m01a58616c1" x="43.215" y="38.376324" style="fill: #262626; stroke: #262626; stroke-width: 0.8"/>
      </g>
     </g>
     <g id="text_19">
      <!-- 1.0 -->
      <g style="fill: #262626" transform="translate(22.315 41.955231) scale(0.1 -0.1)">
       <use xlink:href="#ArialMT-31"/>
       <use xlink:href="#ArialMT-2e" transform="translate(55.615234 0)"/>
       <use xlink:href="#ArialMT-30" transform="translate(83.398438 0)"/>
      </g>
     </g>
    </g>
    <g id="text_20">
     <!-- Probability -->
     <g style="fill: #262626" transform="translate(15.789375 170.744062) rotate(-90) scale(0.12 -0.12)">
      <defs>
       <path id="ArialMT-50" d="M 494 0 
L 494 4581 
L 2222 4581 
Q 2678 4581 2919 4538 
Q 3256 4481 3484 4323 
Q 3713 4166 3852 3881 
Q 3991 3597 3991 3256 
Q 3991 2672 3619 2267 
Q 3247 1863 2275 1863 
L 1100 1863 
L 1100 0 
L 494 0 
z
M 1100 2403 
L 2284 2403 
Q 2872 2403 3119 2622 
Q 3366 2841 3366 3238 
Q 3366 3525 3220 3729 
Q 3075 3934 2838 4000 
Q 2684 4041 2272 4041 
L 1100 4041 
L 1100 2403 
z
" transform="scale(0.015625)"/>
       <path id="ArialMT-72" d="M 416 0 
L 416 3319 
L 922 3319 
L 922 2816 
Q 1116 3169 1280 3281 
Q 1444 3394 1641 3394 
Q 1925 3394 2219 3213 
L 2025 2691 
Q 1819 2813 1613 2813 
Q 1428 2813 1281 2702 
Q 1134 2591 1072 2394 
Q 978 2094 978 1738 
L 978 0 
L 416 0 
z
" transform="scale(0.015625)"/>
       <path id="ArialMT-6f" d="M 213 1659 
Q 213 2581 725 3025 
Q 1153 3394 1769 3394 
Q 2453 3394 2887 2945 
Q 3322 2497 3322 1706 
Q 3322 1066 3130 698 
Q 2938 331 2570 128 
Q 2203 -75 1769 -75 
Q 1072 -75 642 372 
Q 213 819 213 1659 
z
M 791 1659 
Q 791 1022 1069 705 
Q 1347 388 1769 388 
Q 2188 388 2466 706 
Q 2744 1025 2744 1678 
Q 2744 2294 2464 2611 
Q 2184 2928 1769 2928 
Q 1347 2928 1069 2612 
Q 791 2297 791 1659 
z
" transform="scale(0.015625)"/>
       <path id="ArialMT-62" d="M 941 0 
L 419 0 
L 419 4581 
L 981 4581 
L 981 2947 
Q 1338 3394 1891 3394 
Q 2197 3394 2470 3270 
Q 2744 3147 2920 2923 
Q 3097 2700 3197 2384 
Q 3297 2069 3297 1709 
Q 3297 856 2875 390 
Q 2453 -75 1863 -75 
Q 1275 -75 941 416 
L 941 0 
z
M 934 1684 
Q 934 1088 1097 822 
Q 1363 388 1816 388 
Q 2184 388 2453 708 
Q 2722 1028 2722 1663 
Q 2722 2313 2464 2622 
Q 2206 2931 1841 2931 
Q 1472 2931 1203 2611 
Q 934 2291 934 1684 
z
" transform="scale(0.015625)"/>
       <path id="ArialMT-61" d="M 2588 409 
Q 2275 144 1986 34 
Q 1697 -75 1366 -75 
Q 819 -75 525 192 
Q 231 459 231 875 
Q 231 1119 342 1320 
Q 453 1522 633 1644 
Q 813 1766 1038 1828 
Q 1203 1872 1538 1913 
Q 2219 1994 2541 2106 
Q 2544 2222 2544 2253 
Q 2544 2597 2384 2738 
Q 2169 2928 1744 2928 
Q 1347 2928 1158 2789 
Q 969 2650 878 2297 
L 328 2372 
Q 403 2725 575 2942 
Q 747 3159 1072 3276 
Q 1397 3394 1825 3394 
Q 2250 3394 2515 3294 
Q 2781 3194 2906 3042 
Q 3031 2891 3081 2659 
Q 3109 2516 3109 2141 
L 3109 1391 
Q 3109 606 3145 398 
Q 3181 191 3288 0 
L 2700 0 
Q 2613 175 2588 409 
z
M 2541 1666 
Q 2234 1541 1622 1453 
Q 1275 1403 1131 1340 
Q 988 1278 909 1158 
Q 831 1038 831 891 
Q 831 666 1001 516 
Q 1172 366 1500 366 
Q 1825 366 2078 508 
Q 2331 650 2450 897 
Q 2541 1088 2541 1459 
L 2541 1666 
z
" transform="scale(0.015625)"/>
       <path id="ArialMT-69" d="M 425 3934 
L 425 4581 
L 988 4581 
L 988 3934 
L 425 3934 
z
M 425 0 
L 425 3319 
L 988 3319 
L 988 0 
L 425 0 
z
" transform="scale(0.015625)"/>
       <path id="ArialMT-6c" d="M 409 0 
L 409 4581 
L 972 4581 
L 972 0 
L 409 0 
z
" transform="scale(0.015625)"/>
       <path id="ArialMT-74" d="M 1650 503 
L 1731 6 
Q 1494 -44 1306 -44 
Q 1000 -44 831 53 
Q 663 150 594 308 
Q 525 466 525 972 
L 525 2881 
L 113 2881 
L 113 3319 
L 525 3319 
L 525 4141 
L 1084 4478 
L 1084 3319 
L 1650 3319 
L 1650 2881 
L 1084 2881 
L 1084 941 
Q 1084 700 1114 631 
Q 1144 563 1211 522 
Q 1278 481 1403 481 
Q 1497 481 1650 503 
z
" transform="scale(0.015625)"/>
       <path id="ArialMT-79" d="M 397 -1278 
L 334 -750 
Q 519 -800 656 -800 
Q 844 -800 956 -737 
Q 1069 -675 1141 -563 
Q 1194 -478 1313 -144 
Q 1328 -97 1363 -6 
L 103 3319 
L 709 3319 
L 1400 1397 
Q 1534 1031 1641 628 
Q 1738 1016 1872 1384 
L 2581 3319 
L 3144 3319 
L 1881 -56 
Q 1678 -603 1566 -809 
Q 1416 -1088 1222 -1217 
Q 1028 -1347 759 -1347 
Q 597 -1347 397 -1278 
z
" transform="scale(0.015625)"/>
      </defs>
      <use xlink:href="#ArialMT-50"/>
      <use xlink:href="#ArialMT-72" transform="translate(66.699219 0)"/>
      <use xlink:href="#ArialMT-6f" transform="translate(100 0)"/>
      <use xlink:href="#ArialMT-62" transform="translate(155.615234 0)"/>
      <use xlink:href="#ArialMT-61" transform="translate(211.230469 0)"/>
      <use xlink:href="#ArialMT-62" transform="translate(266.845703 0)"/>
      <use xlink:href="#ArialMT-69" transform="translate(322.460938 0)"/>
      <use xlink:href="#ArialMT-6c" transform="translate(344.677734 0)"/>
      <use xlink:href="#ArialMT-69" transform="translate(366.894531 0)"/>
      <use xlink:href="#ArialMT-74" transform="translate(389.111328 0)"/>
      <use xlink:href="#ArialMT-79" transform="translate(416.894531 0)"/>
     </g>
    </g>
   </g>
   <g id="patch_3">
    <path d="M 83.997276 229.696718 
L 89.428341 232.399925 
Q 87.71657 245.597938 83.280304 252.523803 
Q 78.844038 259.449668 72.427137 259.449668 
Q 65.786182 259.449668 61.627743 254.131593 
Q 57.469304 248.795851 55.300463 238.689741 
Q 53.131622 228.583632 53.131622 216.993409 
Q 53.131622 204.343105 55.57829 194.943717 
Q 58.03392 185.526661 62.550845 180.650287 
Q 67.076732 175.756244 72.507796 175.756244 
Q 78.673757 175.756244 82.868045 181.940052 
Q 87.071295 188.12386 88.729293 199.325387 
L 83.378888 201.816578 
Q 81.944943 192.982566 79.229411 188.954257 
Q 76.513879 184.90828 72.400251 184.90828 
Q 67.668234 184.90828 64.48667 189.395958 
Q 61.305105 193.865968 60.014555 201.410213 
Q 58.732968 208.936791 58.732968 216.940405 
Q 58.732968 227.258531 60.256534 234.961789 
Q 61.780099 242.665047 64.997512 246.48134 
Q 68.223887 250.279964 71.979029 250.279964 
Q 76.540765 250.279964 79.704405 245.103234 
Q 82.877007 239.908835 83.997276 229.696718 
z
" clip-path="url(#p25c2c7a07e)" style="fill: #e07b54"/>
   </g>
   <g id="patch_4">
    <path d="M 50.196495 174.378138 
L 65.08941 43.607163 
L 70.618162 43.607163 
L 86.493214 174.378138 
L 80.651195 174.378138 
L 76.121513 134.755761 
L 59.907794 134.755761 
L 55.64058 174.378138 
L 50.196495 174.378138 
z
M 61.389465 120.682394 
L 74.538241 120.682394 
L 70.491161 84.457036 
Q 68.636955 67.957227 67.739486 57.337973 
Q 66.994417 69.926927 65.648212 82.316057 
L 61.389465 120.682394 
z
" clip-path="url(#p25c2c7a07e)" style="fill: #e07b54"/>
   </g>
   <g id="patch_5">
    <path d="M 134.409386 222.603007 
L 139.84045 225.982016 
Q 138.128679 242.479532 133.692413 251.136864 
Q 129.256148 259.794195 122.839246 259.794195 
Q 116.198291 259.794195 112.039852 253.146601 
Q 107.881413 246.476923 105.712572 233.844286 
Q 103.543731 221.21165 103.543731 206.723871 
Q 103.543731 190.910991 105.990399 179.161756 
Q 108.446029 167.390435 112.962954 161.294968 
Q 117.488841 155.177415 122.919906 155.177415 
Q 129.085867 155.177415 133.280154 162.907175 
Q 137.483404 170.636935 139.141402 184.638843 
L 133.790997 187.752832 
Q 132.357053 176.710317 129.64152 171.674931 
Q 126.925988 166.617459 122.81236 166.617459 
Q 118.080343 166.617459 114.898779 172.227057 
Q 111.717215 177.814569 110.426665 187.244876 
Q 109.145077 196.653098 109.145077 206.657616 
Q 109.145077 219.555273 110.668643 229.184345 
Q 112.192209 238.813418 115.409622 243.583784 
Q 118.635997 248.332065 122.391139 248.332065 
Q 126.952874 248.332065 130.116514 241.861152 
Q 133.289116 235.368153 134.409386 222.603007 
z
" clip-path="url(#p25c2c7a07e)" style="fill: #e07b54"/>
   </g>
   <g id="patch_6">
    <path d="M 100.608604 153.454782 
L 115.50152 43.607163 
L 121.030271 43.607163 
L 136.905323 153.454782 
L 131.063304 153.454782 
L 126.533623 120.171985 
L 110.319903 120.171985 
L 106.052689 153.454782 
L 100.608604 153.454782 
z
M 111.801574 108.350357 
L 124.950351 108.350357 
L 120.903271 77.921056 
Q 119.049065 64.061217 118.151595 55.141044 
Q 117.406526 65.715765 116.060322 76.122634 
L 111.801574 108.350357 
z
" clip-path="url(#p25c2c7a07e)" style="fill: #e07b54"/>
   </g>
   <g id="patch_7">
    <path d="M 151.020714 258.071562 
L 165.913629 179.608977 
L 171.442381 179.608977 
L 187.317433 258.071562 
L 181.475413 258.071562 
L 176.945732 234.298136 
L 160.732012 234.298136 
L 156.464798 258.071562 
L 151.020714 258.071562 
z
M 162.213684 225.854116 
L 175.36246 225.854116 
L 171.31538 204.118901 
Q 169.461174 194.219016 168.563705 187.847463 
Q 167.818635 195.400836 166.472431 202.834314 
L 162.213684 225.854116 
z
" clip-path="url(#p25c2c7a07e)" style="fill: #e07b54"/>
   </g>
   <g id="patch_8">
    <path d="M 184.821495 133.499855 
L 190.25256 137.892567 
Q 188.540788 159.339338 184.104523 170.593869 
Q 179.668257 181.848399 173.251356 181.848399 
Q 166.610401 181.848399 162.451962 173.206528 
Q 158.293523 164.535946 156.124682 148.113518 
Q 153.955841 131.691091 153.955841 112.856979 
Q 153.955841 92.300234 156.402509 77.026229 
Q 158.858138 61.723512 163.375063 53.799404 
Q 167.900951 45.846585 173.332015 45.846585 
Q 179.497976 45.846585 183.692264 55.895273 
Q 187.895513 65.943961 189.553512 84.146442 
L 184.203106 88.194627 
Q 182.769162 73.839359 180.05363 67.293356 
Q 177.338097 60.718643 173.224469 60.718643 
Q 168.492453 60.718643 165.310888 68.01112 
Q 162.129324 75.274886 160.838774 87.534285 
Q 159.557186 99.764974 159.557186 112.770847 
Q 159.557186 129.537801 161.080752 142.055595 
Q 162.604318 154.573389 165.821731 160.774865 
Q 169.048106 166.947631 172.803248 166.947631 
Q 177.364984 166.947631 180.528624 158.535443 
Q 183.701226 150.094545 184.821495 133.499855 
z
" clip-path="url(#p25c2c7a07e)" style="fill: #e07b54"/>
   </g>
   <g id="patch_9">
    <path d="M 236.768117 155.206255 
L 242.872978 155.206255 
L 242.872978 214.644035 
Q 242.872978 230.137827 241.30143 239.276919 
Q 239.729881 248.393556 235.619678 254.119523 
Q 231.509475 259.823035 224.84047 259.823035 
Q 218.352796 259.823035 214.222445 254.838075 
Q 210.102168 249.853116 208.339214 240.422112 
Q 206.576259 230.991108 206.576259 214.644035 
L 206.576259 155.206255 
L 212.681119 155.206255 
L 212.681119 214.554215 
Q 212.681119 227.959714 213.799336 234.314414 
Q 214.917553 240.669115 217.63754 244.104695 
Q 220.367602 247.540275 224.306546 247.540275 
Q 231.035996 247.540275 233.89702 240.736479 
Q 236.768117 233.932683 236.768117 214.554215 
L 236.768117 155.206255 
z
" clip-path="url(#p25c2c7a07e)" style="fill: #e07b54"/>
   </g>
   <g id="patch_10">
    <path d="M 235.233604 116.212799 
L 240.664669 119.760759 
Q 238.952898 137.083151 234.516632 146.173349 
Q 230.080366 155.263546 223.663465 155.263546 
Q 217.02251 155.263546 212.864071 148.283573 
Q 208.705632 141.28041 206.536791 128.016142 
Q 204.36795 114.751874 204.36795 99.539707 
Q 204.36795 82.936182 206.814618 70.599485 
Q 209.270248 58.239599 213.787173 51.839358 
Q 218.31306 45.415927 223.744124 45.415927 
Q 229.910086 45.415927 234.104373 53.532175 
Q 238.307623 61.648423 239.965621 76.350427 
L 234.615216 79.620115 
Q 233.181271 68.025475 230.465739 62.738319 
Q 227.750207 57.427974 223.636579 57.427974 
Q 218.904562 57.427974 215.722998 63.318051 
Q 212.541434 69.184939 211.250884 79.086762 
Q 209.969296 88.965395 209.969296 99.470139 
Q 209.969296 113.012678 211.492862 123.123204 
Q 213.016428 133.23373 216.23384 138.242615 
Q 219.460215 143.22831 223.215357 143.22831 
Q 227.777093 143.22831 230.940733 136.433851 
Q 234.113335 129.616203 235.233604 116.212799 
z
" clip-path="url(#p25c2c7a07e)" style="fill: #e07b54"/>
   </g>
   <g id="patch_11">
    <path d="M 274.519845 220.369106 
L 274.519845 209.102429 
L 291.139065 209.018506 
L 291.139065 244.685827 
Q 287.309791 252.175964 283.240652 255.952504 
Q 279.171513 259.708063 274.888209 259.708063 
Q 269.105749 259.708063 264.376981 253.644619 
Q 259.65678 247.581174 257.249563 236.104689 
Q 254.842346 224.628204 254.842346 210.466179 
Q 254.842346 196.430039 257.23243 184.282169 
Q 259.63108 172.113319 264.128549 166.21772 
Q 268.626019 160.322122 274.485579 160.322122 
Q 278.743183 160.322122 282.178393 163.700027 
Q 285.622169 167.056952 287.575356 173.099415 
Q 289.537109 179.120898 290.547969 188.834998 
L 285.870601 191.982115 
Q 284.979674 184.638843 283.668983 180.442687 
Q 282.358292 176.246532 279.916808 173.728839 
Q 277.483892 171.190165 274.519845 171.190165 
Q 270.956136 171.190165 268.360454 173.854723 
Q 265.764772 176.498301 264.171382 180.841322 
Q 262.577993 185.163362 261.695633 190.345614 
Q 260.196476 199.262444 260.196476 209.689891 
Q 260.196476 222.530126 262.004031 231.195187 
Q 263.811585 239.839267 267.263928 244.035423 
Q 270.716271 248.231578 274.596945 248.231578 
Q 277.972188 248.231578 281.184666 245.063481 
Q 284.397144 241.874403 286.0505 238.265709 
L 286.0505 220.369106 
L 274.519845 220.369106 
z
" clip-path="url(#p25c2c7a07e)" style="fill: #e07b54"/>
   </g>
   <g id="patch_12">
    <path d="M 285.645714 119.67021 
L 291.076778 123.38712 
Q 289.365007 141.534388 284.928741 151.057453 
Q 280.492476 160.580517 274.075574 160.580517 
Q 267.434619 160.580517 263.27618 153.268164 
Q 259.117741 145.931517 256.948901 132.035618 
Q 254.78006 118.139718 254.78006 102.203161 
Q 254.78006 84.808993 257.226727 71.884834 
Q 259.682357 58.936382 264.199282 52.231367 
Q 268.725169 45.502059 274.156234 45.502059 
Q 280.322195 45.502059 284.516482 54.004795 
Q 288.719732 62.507531 290.37773 77.90963 
L 285.027325 81.335018 
Q 283.593381 69.188252 280.877848 63.649327 
Q 278.162316 58.086108 274.048688 58.086108 
Q 269.316671 58.086108 266.135107 64.256665 
Q 262.953543 70.402928 261.662993 80.776266 
Q 260.381405 91.125311 260.381405 102.13028 
Q 260.381405 116.317703 261.904971 126.909682 
Q 263.428537 137.501662 266.64595 142.749065 
Q 269.872325 147.972174 273.627467 147.972174 
Q 278.189203 147.972174 281.352843 140.854169 
Q 284.525445 133.711871 285.645714 119.67021 
z
" clip-path="url(#p25c2c7a07e)" style="fill: #e07b54"/>
   </g>
   <g id="patch_13">
    <path d="M 302.257042 258.071562 
L 317.149957 163.91646 
L 322.678709 163.91646 
L 338.553761 258.071562 
L 332.711742 258.071562 
L 328.18206 229.54345 
L 311.96834 229.54345 
L 307.701126 258.071562 
L 302.257042 258.071562 
z
M 313.450012 219.410627 
L 326.598788 219.410627 
L 322.551708 193.328369 
Q 320.697502 181.448506 319.800033 173.802643 
Q 319.054964 182.866691 317.708759 191.786864 
L 313.450012 219.410627 
z
" clip-path="url(#p25c2c7a07e)" style="fill: #e07b54"/>
   </g>
   <g id="patch_14">
    <path d="M 324.931954 118.276645 
L 324.931954 104.638035 
L 341.551174 104.536444 
L 341.551174 147.712675 
Q 337.7219 156.779683 333.652762 161.351284 
Q 329.583623 165.897488 325.300319 165.897488 
Q 319.517858 165.897488 314.78909 158.557528 
Q 310.068889 151.217569 307.661672 137.324982 
Q 305.254456 123.432395 305.254456 106.288891 
Q 305.254456 89.297775 307.644539 74.592458 
Q 310.04319 59.861744 314.540659 52.724967 
Q 319.038128 45.58819 324.897688 45.58819 
Q 329.155292 45.58819 332.590502 49.677233 
Q 336.034279 53.740879 337.987465 61.05544 
Q 339.949219 68.344604 340.960078 80.103777 
L 336.28271 83.913445 
Q 335.391783 75.024221 334.081092 69.944664 
Q 332.770401 64.865108 330.328918 61.817374 
Q 327.896001 58.744242 324.931954 58.744242 
Q 321.368246 58.744242 318.772563 61.96976 
Q 316.176881 65.169881 314.583492 70.427222 
Q 312.990103 75.659165 312.107742 81.932418 
Q 310.608586 92.726475 310.608586 105.349173 
Q 310.608586 120.892616 312.41614 131.381901 
Q 314.223694 141.845787 317.676037 146.925344 
Q 321.12838 152.0049 325.009054 152.0049 
Q 328.384298 152.0049 331.596776 148.169835 
Q 334.809254 144.309372 336.462609 139.940954 
L 336.462609 118.276645 
L 324.931954 118.276645 
z
" clip-path="url(#p25c2c7a07e)" style="fill: #e07b54"/>
   </g>
   <g id="patch_15">
    <path d="M 375.344064 234.259485 
L 375.344064 227.143689 
L 391.963284 227.090685 
L 391.963284 249.617414 
Q 388.13401 254.348027 384.064871 256.73321 
Q 379.995732 259.105142 375.712428 259.105142 
Q 369.929968 259.105142 365.2012 255.275598 
Q 360.480999 251.446054 358.073782 244.197748 
Q 355.666565 236.949441 355.666565 228.005005 
Q 355.666565 219.140074 358.056649 211.467735 
Q 360.455299 203.782145 364.952768 200.05861 
Q 369.450237 196.335074 375.309797 196.335074 
Q 379.567402 196.335074 383.002612 198.468488 
Q 386.446388 200.58865 388.399575 204.404943 
Q 390.361328 208.207985 391.372188 214.343206 
L 386.69482 216.330859 
Q 385.803892 211.693003 384.493201 209.042799 
Q 383.18251 206.392596 380.741027 204.802474 
Q 378.30811 203.199101 375.344064 203.199101 
Q 371.780355 203.199101 369.184673 204.88198 
Q 366.58899 206.551608 364.995601 209.294569 
Q 363.402212 212.024278 362.519851 215.297279 
Q 361.020695 220.928962 361.020695 227.514717 
Q 361.020695 235.62434 362.828249 241.09701 
Q 364.635804 246.556429 368.088147 249.206632 
Q 371.54049 251.856835 375.421163 251.856835 
Q 378.796407 251.856835 382.008885 249.855932 
Q 385.221363 247.841777 386.874718 245.562602 
L 386.874718 234.259485 
L 375.344064 234.259485 
z
" clip-path="url(#p25c2c7a07e)" style="fill: #e07b54"/>
   </g>
   <g id="patch_16">
    <path d="M 388.004446 46.146798 
L 394.109306 46.146798 
L 394.109306 132.331579 
Q 394.109306 154.797578 392.537758 168.049261 
Q 390.966209 181.268385 386.856006 189.571037 
Q 382.745804 197.841129 376.076798 197.841129 
Q 369.589124 197.841129 365.458773 190.612938 
Q 361.338496 183.384747 359.575542 169.709791 
Q 357.812587 156.034836 357.812587 132.331579 
L 357.812587 46.146798 
L 363.917447 46.146798 
L 363.917447 132.201341 
Q 363.917447 151.639314 365.035664 160.85363 
Q 366.153881 170.067945 368.873869 175.049536 
Q 371.60393 180.031127 375.542874 180.031127 
Q 382.272324 180.031127 385.133348 170.165623 
Q 388.004446 160.30012 388.004446 132.201341 
L 388.004446 46.146798 
z
" clip-path="url(#p25c2c7a07e)" style="fill: #e07b54"/>
   </g>
   <g id="patch_17">
    <path d="M 438.416555 175.779316 
L 444.521415 175.779316 
L 444.521415 223.32954 
Q 444.521415 235.724574 442.949867 243.035848 
Q 441.378319 250.329157 437.268116 254.909931 
Q 433.157913 259.47274 426.488907 259.47274 
Q 420.001234 259.47274 415.870883 255.484773 
Q 411.750606 251.496805 409.987651 243.952002 
Q 408.224696 236.407199 408.224696 223.32954 
L 408.224696 175.779316 
L 414.329557 175.779316 
L 414.329557 223.257685 
Q 414.329557 233.982084 415.447774 239.065844 
Q 416.565991 244.149604 419.285978 246.898068 
Q 422.016039 249.646532 425.954984 249.646532 
Q 432.684434 249.646532 435.545457 244.203496 
Q 438.416555 238.760459 438.416555 223.257685 
L 438.416555 175.779316 
z
" clip-path="url(#p25c2c7a07e)" style="fill: #e07b54"/>
   </g>
   <g id="patch_18">
    <path d="M 436.882042 130.042444 
L 442.313106 134.266205 
Q 440.601335 154.888101 436.16507 165.709765 
Q 431.728804 176.531429 425.311903 176.531429 
Q 418.670947 176.531429 414.512509 168.221937 
Q 410.35407 159.884839 408.185229 144.094043 
Q 406.016388 128.303248 406.016388 110.193524 
Q 406.016388 90.427424 408.463055 75.74088 
Q 410.918685 61.02673 415.43561 53.407395 
Q 419.961497 45.760454 425.392562 45.760454 
Q 431.558523 45.760454 435.752811 55.422654 
Q 439.95606 65.084854 441.614059 82.587239 
L 436.263653 86.479725 
Q 434.829709 72.676582 432.114177 66.382349 
Q 429.398644 60.06051 425.285016 60.06051 
Q 420.552999 60.06051 417.371435 67.072506 
Q 414.189871 74.056896 412.899321 85.84478 
Q 411.617733 97.605058 411.617733 110.110706 
Q 411.617733 126.232776 413.141299 138.269117 
Q 414.664865 150.305457 417.882278 156.268415 
Q 421.108653 162.203766 424.863795 162.203766 
Q 429.425531 162.203766 432.589171 154.115125 
Q 435.761773 145.998877 436.882042 130.042444 
z
" clip-path="url(#p25c2c7a07e)" style="fill: #e07b54"/>
   </g>
   <g id="patch_19">
    <path d="M 487.294151 238.563857 
L 492.725216 240.422312 
Q 491.013445 249.495946 486.577179 254.257478 
Q 482.140913 259.01901 475.724012 259.01901 
Q 469.083057 259.01901 464.924618 255.362834 
Q 460.766179 251.694511 458.597338 244.746561 
Q 456.428497 237.798611 456.428497 229.830332 
Q 456.428497 221.133248 458.875165 214.671169 
Q 461.330795 208.196943 465.84772 204.844435 
Q 470.373607 201.479781 475.804671 201.479781 
Q 481.970632 201.479781 486.16492 205.731149 
Q 490.36817 209.982517 492.026168 217.683567 
L 486.675763 219.396261 
Q 485.241818 213.322878 482.526286 210.553415 
Q 479.810754 207.771806 475.697126 207.771806 
Q 470.965109 207.771806 467.783545 210.857084 
Q 464.60198 213.930216 463.31143 219.116885 
Q 462.029843 224.291407 462.029843 229.793892 
Q 462.029843 236.887603 463.553409 242.183593 
Q 465.076974 247.479583 468.294387 250.103284 
Q 471.520762 252.714839 475.275904 252.714839 
Q 479.83764 252.714839 483.00128 249.155836 
Q 486.173882 245.584687 487.294151 238.563857 
z
" clip-path="url(#p25c2c7a07e)" style="fill: #e07b54"/>
   </g>
   <g id="patch_20">
    <path d="M 476.168283 141.002139 
L 476.168283 123.212649 
L 492.787502 123.080138 
L 492.787502 179.396961 
Q 488.958229 191.223494 484.88909 197.186452 
Q 480.819951 203.116282 476.536647 203.116282 
Q 470.754186 203.116282 466.025419 193.542422 
Q 461.305217 183.968562 458.898001 165.847796 
Q 456.490784 147.72703 456.490784 125.365939 
Q 456.490784 103.203613 458.880867 84.022766 
Q 461.279518 64.808791 465.776987 55.499951 
Q 470.274456 46.191112 476.134016 46.191112 
Q 480.39162 46.191112 483.82683 51.524646 
Q 487.270607 56.825053 489.223793 66.365785 
Q 491.185547 75.87339 492.196406 91.211442 
L 487.519038 96.180574 
Q 486.628111 84.585934 485.31742 77.960425 
Q 484.006729 71.334917 481.565246 67.359612 
Q 479.132329 63.351179 476.168283 63.351179 
Q 472.604574 63.351179 470.008891 67.558377 
Q 467.413209 71.732447 465.81982 78.589849 
Q 464.226431 85.414122 463.34407 93.596625 
Q 461.844914 107.675831 461.844914 124.14022 
Q 461.844914 144.414276 463.652468 158.095951 
Q 465.460022 171.744499 468.912366 178.370007 
Q 472.364709 184.995516 476.245382 184.995516 
Q 479.620626 184.995516 482.833104 179.993257 
Q 486.045582 174.95787 487.698937 169.259933 
L 487.698937 141.002139 
L 476.168283 141.002139 
z
" clip-path="url(#p25c2c7a07e)" style="fill: #e07b54"/>
   </g>
   <g id="patch_21">
    <path d="M 526.580392 238.228164 
L 526.580392 232.298334 
L 543.199612 232.254164 
L 543.199612 251.026438 
Q 539.370338 254.968616 535.301199 256.956269 
Q 531.23206 258.932879 526.948756 258.932879 
Q 521.166296 258.932879 516.437528 255.741592 
Q 511.717327 252.550305 509.31011 246.51005 
Q 506.902893 240.469795 506.902893 233.016098 
Q 506.902893 225.628656 509.292977 219.23504 
Q 511.691627 212.830382 516.189096 209.727435 
Q 520.686566 206.624489 526.546126 206.624489 
Q 530.80373 206.624489 534.23894 208.402333 
Q 537.682716 210.169136 539.635903 213.34938 
Q 541.597656 216.518581 542.608516 221.631265 
L 537.931148 223.287643 
Q 537.040221 219.422763 535.72953 217.21426 
Q 534.418838 215.005757 531.977355 213.680655 
Q 529.544438 212.344511 526.580392 212.344511 
Q 523.016683 212.344511 520.421001 213.74691 
Q 517.825318 215.138267 516.231929 217.424068 
Q 514.63854 219.698825 513.75618 222.426326 
Q 512.257023 227.119395 512.257023 232.607525 
Q 512.257023 239.365543 514.064577 243.926102 
Q 515.872132 248.475618 519.324475 250.68412 
Q 522.776818 252.892623 526.657491 252.892623 
Q 530.032735 252.892623 533.245213 251.225204 
Q 536.457691 249.546741 538.111047 247.647429 
L 538.111047 238.228164 
L 526.580392 238.228164 
z
" clip-path="url(#p25c2c7a07e)" style="fill: #e07b54"/>
   </g>
   <g id="patch_22">
    <path d="M 503.905479 205.763172 
L 518.798395 43.607163 
L 524.327146 43.607163 
L 540.202198 205.763172 
L 534.360179 205.763172 
L 529.830498 156.631424 
L 513.616778 156.631424 
L 509.349564 205.763172 
L 503.905479 205.763172 
z
M 515.098449 139.18045 
L 528.247226 139.18045 
L 524.200146 94.261005 
Q 522.34594 73.801242 521.44847 60.633367 
Q 520.703401 76.243671 519.357197 91.606192 
L 515.098449 139.18045 
z
" clip-path="url(#p25c2c7a07e)" style="fill: #e07b54"/>
   </g>
   <g id="patch_23">
    <path d="M 576.992501 254.102883 
L 576.992501 252.916917 
L 593.611721 252.908083 
L 593.611721 256.662538 
Q 589.782447 257.450973 585.713308 257.848504 
Q 581.64417 258.243826 577.360866 258.243826 
Q 571.578405 258.243826 566.849637 257.605568 
Q 562.129436 256.967311 559.722219 255.75926 
Q 557.315002 254.551209 557.315002 253.06047 
Q 557.315002 251.582981 559.705086 250.304258 
Q 562.103736 249.023326 566.601206 248.402737 
Q 571.098675 247.782148 576.958235 247.782148 
Q 581.215839 247.782148 584.651049 248.137717 
Q 588.094826 248.491077 590.048012 249.127126 
Q 592.009765 249.760966 593.020625 250.783503 
L 588.343257 251.114779 
Q 587.45233 250.341803 586.141639 249.900102 
Q 584.830948 249.458401 582.389465 249.193381 
Q 579.956548 248.926152 576.992501 248.926152 
Q 573.428792 248.926152 570.83311 249.206632 
Q 568.237428 249.484903 566.644039 249.942064 
Q 565.05065 250.397015 564.168289 250.942515 
Q 562.669133 251.881129 562.669133 252.978755 
Q 562.669133 254.330359 564.476687 255.24247 
Q 566.284241 256.152374 569.736584 256.594074 
Q 573.188927 257.035775 577.069601 257.035775 
Q 580.444844 257.035775 583.657323 256.702291 
Q 586.869801 256.366598 588.523156 255.986736 
L 588.523156 254.102883 
L 576.992501 254.102883 
z
" clip-path="url(#p25c2c7a07e)" style="fill: #e07b54"/>
   </g>
   <g id="patch_24">
    <path d="M 589.652883 201.320496 
L 595.757743 201.320496 
L 595.757743 228.067497 
Q 595.757743 235.039703 594.186195 239.152295 
Q 592.614647 243.254782 588.504444 245.831467 
Q 584.394241 248.398047 577.725235 248.398047 
Q 571.237562 248.398047 567.107211 246.154815 
Q 562.986934 243.911584 561.223979 239.667632 
Q 559.461025 235.42368 559.461025 228.067497 
L 559.461025 201.320496 
L 565.565885 201.320496 
L 565.565885 228.027078 
Q 565.565885 234.059553 566.684102 236.919168 
Q 567.802319 239.778783 570.522306 241.324794 
Q 573.252367 242.870805 577.191312 242.870805 
Q 583.920762 242.870805 586.781785 239.809097 
Q 589.652883 236.747389 589.652883 228.027078 
L 589.652883 201.320496 
z
" clip-path="url(#p25c2c7a07e)" style="fill: #e07b54"/>
   </g>
   <g id="patch_25">
    <path d="M 588.11837 147.3295 
L 593.549435 152.398014 
Q 591.837663 177.144288 587.401398 190.130285 
Q 582.965132 203.116282 576.548231 203.116282 
Q 569.907276 203.116282 565.748837 193.144891 
Q 561.590398 183.140374 559.421557 164.191419 
Q 557.252716 145.242465 557.252716 123.510797 
Q 557.252716 99.791476 559.699384 82.167623 
Q 562.155013 64.510643 566.671938 55.367441 
Q 571.197826 46.191112 576.62889 46.191112 
Q 582.794851 46.191112 586.989139 57.785752 
Q 591.192388 69.380392 592.850387 90.383254 
L 587.499981 95.054237 
Q 586.066037 78.490466 583.350505 70.937386 
Q 580.634972 63.351179 576.521344 63.351179 
Q 571.789328 63.351179 568.607763 71.765575 
Q 565.426199 80.146843 564.135649 94.292304 
Q 562.854061 108.404637 562.854061 123.411414 
Q 562.854061 142.757899 564.377627 157.201508 
Q 565.901193 171.645116 569.118606 178.800665 
Q 572.344981 185.923087 576.100123 185.923087 
Q 580.661859 185.923087 583.825499 176.216717 
Q 586.998101 166.47722 588.11837 147.3295 
z
" clip-path="url(#p25c2c7a07e)" style="fill: #e07b54"/>
   </g>
   <g id="patch_26">
    <path d="M 627.404611 256.087223 
L 627.404611 255.49424 
L 644.023831 255.489823 
L 644.023831 257.36705 
Q 640.194557 257.761268 636.125418 257.960033 
Q 632.056279 258.157694 627.772975 258.157694 
Q 621.990514 258.157694 617.261747 257.838565 
Q 612.541546 257.519437 610.134329 256.915411 
Q 607.727112 256.311386 607.727112 255.566016 
Q 607.727112 254.827272 610.117195 254.18791 
Q 612.515846 253.547444 617.013315 253.23715 
Q 621.510784 252.926855 627.370344 252.926855 
Q 631.627949 252.926855 635.063158 253.10464 
Q 638.506935 253.28132 640.460122 253.599344 
Q 642.421875 253.916264 643.432735 254.427533 
L 638.755367 254.593171 
Q 637.864439 254.206683 636.553748 253.985832 
Q 635.243057 253.764982 632.801574 253.632472 
Q 630.368657 253.498857 627.404611 253.498857 
Q 623.840902 253.498857 621.245219 253.639097 
Q 618.649537 253.778233 617.056148 254.006813 
Q 615.462759 254.234289 614.580398 254.507039 
Q 613.081242 254.976346 613.081242 255.525159 
Q 613.081242 256.200961 614.888796 256.657016 
Q 616.696351 257.111968 620.148694 257.332818 
Q 623.601037 257.553669 627.48171 257.553669 
Q 630.856954 257.553669 634.069432 257.386927 
Q 637.28191 257.21908 638.935265 257.029149 
L 638.935265 256.087223 
L 627.404611 256.087223 
z
" clip-path="url(#p25c2c7a07e)" style="fill: #e07b54"/>
   </g>
   <g id="patch_27">
    <path d="M 604.729698 252.840723 
L 619.622614 231.917367 
L 625.151365 231.917367 
L 641.026417 252.840723 
L 635.184398 252.840723 
L 630.654716 246.501143 
L 614.440997 246.501143 
L 610.173783 252.840723 
L 604.729698 252.840723 
z
M 615.922668 244.249404 
L 629.071444 244.249404 
L 625.024365 238.453347 
Q 623.170159 235.813378 622.272689 234.114297 
Q 621.52762 236.12853 620.181415 238.11079 
L 615.922668 244.249404 
z
" clip-path="url(#p25c2c7a07e)" style="fill: #e07b54"/>
   </g>
   <g id="patch_28">
    <path d="M 638.530479 219.503373 
L 643.961544 220.686026 
Q 642.249773 226.460157 637.813507 229.490223 
Q 633.377241 232.520289 626.96034 232.520289 
Q 620.319385 232.520289 616.160946 230.193631 
Q 612.002507 227.859244 609.833666 223.437821 
Q 607.664825 219.016398 607.664825 213.945676 
Q 607.664825 208.411167 610.111493 204.298935 
Q 612.567123 200.178973 617.084048 198.045559 
Q 621.609935 195.904416 627.040999 195.904416 
Q 633.206961 195.904416 637.401248 198.609832 
Q 641.604498 201.315248 643.262496 206.215916 
L 637.912091 207.305812 
Q 636.478146 203.440932 633.762614 201.678546 
Q 631.047082 199.908431 626.933454 199.908431 
Q 622.201437 199.908431 619.019873 201.87179 
Q 615.838309 203.82742 614.547759 207.128027 
Q 613.266171 210.420905 613.266171 213.922486 
Q 613.266171 218.436666 614.789737 221.806841 
Q 616.313303 225.177017 619.530715 226.846645 
Q 622.75709 228.508543 626.512232 228.508543 
Q 631.073968 228.508543 634.237608 226.243724 
Q 637.41021 223.971174 638.530479 219.503373 
z
" clip-path="url(#p25c2c7a07e)" style="fill: #e07b54"/>
   </g>
   <g id="patch_29">
    <path d="M 640.064992 46.146798 
L 646.169853 46.146798 
L 646.169853 132.331579 
Q 646.169853 154.797578 644.598305 168.049261 
Q 643.026756 181.268385 638.916553 189.571037 
Q 634.80635 197.841129 628.137345 197.841129 
Q 621.649671 197.841129 617.51932 190.612938 
Q 613.399043 183.384747 611.636089 169.709791 
Q 609.873134 156.034836 609.873134 132.331579 
L 609.873134 46.146798 
L 615.977994 46.146798 
L 615.977994 132.201341 
Q 615.977994 151.639314 617.096211 160.85363 
Q 618.214428 170.067945 620.934415 175.049536 
Q 623.664477 180.031127 627.603421 180.031127 
Q 634.332871 180.031127 637.193895 170.165623 
Q 640.064992 160.30012 640.064992 132.201341 
L 640.064992 46.146798 
z
" clip-path="url(#p25c2c7a07e)" style="fill: #e07b54"/>
   </g>
   <g id="patch_30">
    <path d="M 655.141808 258.071562 
L 670.034723 242.379045 
L 675.563474 242.379045 
L 691.438526 258.071562 
L 685.596507 258.071562 
L 681.066826 253.316877 
L 664.853106 253.316877 
L 660.585892 258.071562 
L 655.141808 258.071562 
z
M 666.334778 251.628073 
L 679.483554 251.628073 
L 675.436474 247.28103 
Q 673.582268 245.301053 672.684798 244.026743 
Q 671.939729 245.537417 670.593525 247.024113 
L 666.334778 251.628073 
z
" clip-path="url(#p25c2c7a07e)" style="fill: #e07b54"/>
   </g>
   <g id="patch_31">
    <path d="M 690.477102 221.805984 
L 696.581962 221.805984 
L 696.581962 233.69354 
Q 696.581962 236.792298 695.010414 238.620117 
Q 693.438866 240.443444 689.328663 241.588638 
Q 685.21846 242.72934 678.549454 242.72934 
Q 672.061781 242.72934 667.93143 241.732348 
Q 663.811153 240.735356 662.048198 238.849155 
Q 660.285243 236.962955 660.285243 233.69354 
L 660.285243 221.805984 
L 666.390104 221.805984 
L 666.390104 233.675576 
Q 666.390104 236.356676 667.508321 237.627616 
Q 668.626538 238.898556 671.346525 239.585672 
Q 674.076586 240.272788 678.015531 240.272788 
Q 684.744981 240.272788 687.606004 238.912029 
Q 690.477102 237.55127 690.477102 233.675576 
L 690.477102 221.805984 
z
" clip-path="url(#p25c2c7a07e)" style="fill: #e07b54"/>
   </g>
   <g id="patch_32">
    <path d="M 677.81672 207.565311 
L 677.81672 203.41443 
L 694.43594 203.383511 
L 694.43594 216.524103 
Q 690.606666 219.283627 686.537527 220.674984 
Q 682.468388 222.058611 678.185084 222.058611 
Q 672.402624 222.058611 667.673856 219.82471 
Q 662.953655 217.590809 660.546438 213.362631 
Q 658.139221 209.134452 658.139221 203.916864 
Q 658.139221 198.745655 660.529305 194.270124 
Q 662.927955 189.786863 667.425424 187.6148 
Q 671.922894 185.442738 677.782454 185.442738 
Q 682.040058 185.442738 685.475268 186.687229 
Q 688.919044 187.923991 690.872231 190.150162 
Q 692.833984 192.368603 693.844844 195.947482 
L 689.167476 197.106946 
Q 688.276549 194.40153 686.965858 192.855578 
Q 685.655167 191.309626 683.213683 190.382054 
Q 680.780767 189.446753 677.81672 189.446753 
Q 674.253011 189.446753 671.657329 190.428433 
Q 669.061647 191.402383 667.468257 193.002443 
Q 665.874868 194.594774 664.992508 196.504024 
Q 663.493351 199.789172 663.493351 203.630863 
Q 663.493351 208.361476 665.300906 211.553867 
Q 667.10846 214.738528 670.560803 216.28448 
Q 674.013146 217.830432 677.89382 217.830432 
Q 681.269063 217.830432 684.481541 216.663238 
Q 687.694019 215.488315 689.347375 214.158796 
L 689.347375 207.565311 
L 677.81672 207.565311 
z
" clip-path="url(#p25c2c7a07e)" style="fill: #e07b54"/>
   </g>
   <g id="patch_33">
    <path d="M 688.942589 136.957266 
L 694.373653 141.518929 
Q 692.661882 163.790576 688.225616 175.477973 
Q 683.789351 187.16537 677.372449 187.16537 
Q 670.731494 187.16537 666.573055 178.191119 
Q 662.414616 169.187053 660.245776 152.132993 
Q 658.076935 135.078934 658.076935 115.520433 
Q 658.076935 94.173045 660.523602 78.311577 
Q 662.979232 62.420295 667.496157 54.191413 
Q 672.022044 45.932717 677.453109 45.932717 
Q 683.61907 45.932717 687.813357 56.367893 
Q 692.016607 66.803069 693.674605 85.705645 
L 688.3242 89.90953 
Q 686.890256 75.002136 684.174723 68.204364 
Q 681.459191 61.376777 677.345563 61.376777 
Q 672.613546 61.376777 669.431982 68.949734 
Q 666.250418 76.492875 664.959868 89.22379 
Q 663.67828 101.92489 663.67828 115.430989 
Q 663.67828 132.842825 665.201846 145.842073 
Q 666.725412 158.841321 669.942825 165.281315 
Q 673.1692 171.691495 676.924342 171.691495 
Q 681.486078 171.691495 684.649718 162.955762 
Q 687.82232 154.190214 688.942589 136.957266 
z
" clip-path="url(#p25c2c7a07e)" style="fill: #e07b54"/>
   </g>
   <g id="patch_34">
    <path d="M 739.354698 254.524707 
L 744.785763 254.862608 
Q 743.073991 256.512359 738.637726 257.378093 
Q 734.20146 258.243826 727.784559 258.243826 
Q 721.143604 258.243826 716.985165 257.579066 
Q 712.826726 256.912099 710.657885 255.648835 
Q 708.489044 254.385571 708.489044 252.936793 
Q 708.489044 251.355505 710.935712 250.180582 
Q 713.391341 249.00345 717.908266 248.393903 
Q 722.434154 247.782148 727.865218 247.782148 
Q 734.031179 247.782148 738.225467 248.555124 
Q 742.428716 249.3281 744.086715 250.728291 
L 738.73631 251.039689 
Q 737.302365 249.935438 734.586833 249.431899 
Q 731.871301 248.926152 727.757672 248.926152 
Q 723.025656 248.926152 719.844091 249.487112 
Q 716.662527 250.045863 715.371977 250.988894 
Q 714.090389 251.929716 714.090389 252.930168 
Q 714.090389 254.219934 715.613955 255.182841 
Q 717.137521 256.145748 720.354934 256.622785 
Q 723.581309 257.097613 727.336451 257.097613 
Q 731.898187 257.097613 735.061827 256.450521 
Q 738.234429 255.801222 739.354698 254.524707 
z
" clip-path="url(#p25c2c7a07e)" style="fill: #e07b54"/>
   </g>
   <g id="patch_35">
    <path d="M 705.553917 247.609884 
L 720.446832 200.532333 
L 725.975584 200.532333 
L 741.850636 247.609884 
L 736.008617 247.609884 
L 731.478935 233.345828 
L 715.265215 233.345828 
L 710.998001 247.609884 
L 705.553917 247.609884 
z
M 716.746887 228.279417 
L 729.895663 228.279417 
L 725.848583 215.238288 
Q 723.994377 209.298356 723.096908 205.475425 
Q 722.351839 210.007449 721.005634 214.467535 
L 716.746887 228.279417 
z
" clip-path="url(#p25c2c7a07e)" style="fill: #e07b54"/>
   </g>
   <g id="patch_36">
    <path d="M 728.228829 141.002139 
L 728.228829 123.212649 
L 744.848049 123.080138 
L 744.848049 179.396961 
Q 741.018775 191.223494 736.949637 197.186452 
Q 732.880498 203.116282 728.597194 203.116282 
Q 722.814733 203.116282 718.085965 193.542422 
Q 713.365764 183.968562 710.958547 165.847796 
Q 708.551331 147.72703 708.551331 125.365939 
Q 708.551331 103.203613 710.941414 84.022766 
Q 713.340065 64.808791 717.837534 55.499951 
Q 722.335003 46.191112 728.194563 46.191112 
Q 732.452167 46.191112 735.887377 51.524646 
Q 739.331154 56.825053 741.28434 66.365785 
Q 743.246094 75.87339 744.256953 91.211442 
L 739.579585 96.180574 
Q 738.688658 84.585934 737.377967 77.960425 
Q 736.067276 71.334917 733.625793 67.359612 
Q 731.192876 63.351179 728.228829 63.351179 
Q 724.665121 63.351179 722.069438 67.558377 
Q 719.473756 71.732447 717.880367 78.589849 
Q 716.286978 85.414122 715.404617 93.596625 
Q 713.905461 107.675831 713.905461 124.14022 
Q 713.905461 144.414276 715.713015 158.095951 
Q 717.520569 171.744499 720.972912 178.370007 
Q 724.425255 184.995516 728.305929 184.995516 
Q 731.681173 184.995516 734.893651 179.993257 
Q 738.106129 174.95787 739.759484 169.259933 
L 739.759484 141.002139 
L 728.228829 141.002139 
z
" clip-path="url(#p25c2c7a07e)" style="fill: #e07b54"/>
   </g>
   <g id="patch_37">
    <path d="M 755.966026 258.071562 
L 770.858942 216.22485 
L 776.387693 216.22485 
L 792.262745 258.071562 
L 786.420726 258.071562 
L 781.891044 245.392402 
L 765.677325 245.392402 
L 761.410111 258.071562 
L 755.966026 258.071562 
z
M 767.158996 240.888924 
L 780.307773 240.888924 
L 776.260693 229.29681 
Q 774.406487 224.016871 773.509017 220.61871 
Q 772.763948 224.647175 771.417744 228.611696 
L 767.158996 240.888924 
z
" clip-path="url(#p25c2c7a07e)" style="fill: #e07b54"/>
   </g>
   <g id="patch_38">
    <path d="M 789.766807 202.037428 
L 795.197872 203.389032 
Q 793.486101 209.988038 789.049835 213.450971 
Q 784.61357 216.913903 778.196668 216.913903 
Q 771.555713 216.913903 767.397274 214.254866 
Q 763.238835 211.586994 761.069994 206.53394 
Q 758.901153 201.480885 758.901153 195.685774 
Q 758.901153 189.360622 761.347821 184.660928 
Q 763.803451 179.9524 768.320376 177.514213 
Q 772.846263 175.067191 778.277328 175.067191 
Q 784.443289 175.067191 788.637576 178.159095 
Q 792.840826 181.250999 794.498824 186.851763 
L 789.148419 188.097358 
Q 787.714474 183.680352 784.998942 181.666198 
Q 782.28341 179.643209 778.169782 179.643209 
Q 773.437765 179.643209 770.256201 181.887048 
Q 767.074637 184.122053 765.784087 187.894176 
Q 764.502499 191.657465 764.502499 195.659272 
Q 764.502499 200.818335 766.026065 204.669964 
Q 767.549631 208.521593 770.767044 210.429739 
Q 773.993419 212.329051 777.748561 212.329051 
Q 782.310296 212.329051 785.473936 209.740686 
Q 788.646538 207.143487 789.766807 202.037428 
z
" clip-path="url(#p25c2c7a07e)" style="fill: #e07b54"/>
   </g>
   <g id="patch_39">
    <path d="M 791.301321 45.796504 
L 797.406181 45.796504 
L 797.406181 120.093729 
Q 797.406181 139.460969 795.834633 150.884834 
Q 794.263084 162.28063 790.152881 169.438089 
Q 786.042679 176.567479 779.373673 176.567479 
Q 772.885999 176.567479 768.755648 170.33628 
Q 764.635371 164.105081 762.872417 152.316326 
Q 761.109462 140.527571 761.109462 120.093729 
L 761.109462 45.796504 
L 767.214322 45.796504 
L 767.214322 119.981455 
Q 767.214322 136.738328 768.332539 144.681703 
Q 769.450756 152.625079 772.170744 156.919554 
Q 774.900805 161.214029 778.839749 161.214029 
Q 785.569199 161.214029 788.430223 152.709284 
Q 791.301321 144.204539 791.301321 119.981455 
L 791.301321 45.796504 
z
" clip-path="url(#p25c2c7a07e)" style="fill: #e07b54"/>
   </g>
   <g id="patch_40">
    <path d="M 841.71343 165.492785 
L 847.81829 165.492785 
L 847.81829 218.986787 
Q 847.81829 232.9312 846.246742 241.156383 
Q 844.675194 249.361357 840.564991 254.514727 
Q 836.454788 259.647887 829.785782 259.647887 
Q 823.298109 259.647887 819.167758 255.161424 
Q 815.047481 250.674961 813.284526 242.187057 
Q 811.521571 233.699154 811.521571 218.986787 
L 811.521571 165.492785 
L 817.626432 165.492785 
L 817.626432 218.90595 
Q 817.626432 230.970899 818.744649 236.690129 
Q 819.862866 242.409359 822.582853 245.501381 
Q 825.312914 248.593403 829.251859 248.593403 
Q 835.981309 248.593403 838.842332 242.469987 
Q 841.71343 236.346571 841.71343 218.90595 
L 841.71343 165.492785 
z
" clip-path="url(#p25c2c7a07e)" style="fill: #e07b54"/>
   </g>
   <g id="patch_41">
    <path d="M 840.178917 123.127621 
L 845.609981 127.013482 
Q 843.89821 145.985626 839.461945 155.941557 
Q 835.025679 165.897488 828.608778 165.897488 
Q 821.967822 165.897488 817.809384 158.252755 
Q 813.650945 150.582624 811.482104 136.055093 
Q 809.313263 121.527561 809.313263 104.866615 
Q 809.313263 86.681803 811.75993 73.170183 
Q 814.21556 59.633164 818.732485 52.623376 
Q 823.258372 45.58819 828.689437 45.58819 
Q 834.855398 45.58819 839.049686 54.477414 
Q 843.252935 63.366638 844.910934 79.468833 
L 839.560528 83.04992 
Q 838.126584 70.351029 835.411052 64.560334 
Q 832.695519 58.744242 828.581891 58.744242 
Q 823.849874 58.744242 820.66831 65.195279 
Q 817.486746 71.620918 816.196196 82.465771 
Q 814.914608 93.285227 814.914608 104.790422 
Q 814.914608 119.622727 816.438174 130.696161 
Q 817.96174 141.769594 821.179153 147.255515 
Q 824.405528 152.716038 828.16067 152.716038 
Q 832.722406 152.716038 835.886046 145.274488 
Q 839.058648 137.80754 840.178917 123.127621 
z
" clip-path="url(#p25c2c7a07e)" style="fill: #e07b54"/>
   </g>
   <g id="patch_42">
    <path d="M 43.215 258.071562 
L 43.215 27.391562 
" style="fill: none; stroke: #262626; stroke-width: 2; stroke-linejoin: miter; stroke-linecap: square"/>
   </g>
   <g id="patch_43">
    <path d="M 43.215 258.071562 
L 849.80875 258.071562 
" style="fill: none; stroke: #262626; stroke-width: 2; stroke-linejoin: miter; stroke-linecap: square"/>
   </g>
   <g id="text_21">
    <!-- Decreased Mutations (n=42) -->
    <g style="fill: #262626" transform="translate(357.999063 17.391562) scale(0.14 -0.14)">
     <defs>
      <path id="ArialMT-44" d="M 494 0 
L 494 4581 
L 2072 4581 
Q 2606 4581 2888 4516 
Q 3281 4425 3559 4188 
Q 3922 3881 4101 3404 
Q 4281 2928 4281 2316 
Q 4281 1794 4159 1391 
Q 4038 988 3847 723 
Q 3656 459 3429 307 
Q 3203 156 2883 78 
Q 2563 0 2147 0 
L 494 0 
z
M 1100 541 
L 2078 541 
Q 2531 541 2789 625 
Q 3047 709 3200 863 
Q 3416 1078 3536 1442 
Q 3656 1806 3656 2325 
Q 3656 3044 3420 3430 
Q 3184 3816 2847 3947 
Q 2603 4041 2063 4041 
L 1100 4041 
L 1100 541 
z
" transform="scale(0.015625)"/>
      <path id="ArialMT-65" d="M 2694 1069 
L 3275 997 
Q 3138 488 2766 206 
Q 2394 -75 1816 -75 
Q 1088 -75 661 373 
Q 234 822 234 1631 
Q 234 2469 665 2931 
Q 1097 3394 1784 3394 
Q 2450 3394 2872 2941 
Q 3294 2488 3294 1666 
Q 3294 1616 3291 1516 
L 816 1516 
Q 847 969 1125 678 
Q 1403 388 1819 388 
Q 2128 388 2347 550 
Q 2566 713 2694 1069 
z
M 847 1978 
L 2700 1978 
Q 2663 2397 2488 2606 
Q 2219 2931 1791 2931 
Q 1403 2931 1139 2672 
Q 875 2413 847 1978 
z
" transform="scale(0.015625)"/>
      <path id="ArialMT-63" d="M 2588 1216 
L 3141 1144 
Q 3050 572 2676 248 
Q 2303 -75 1759 -75 
Q 1078 -75 664 370 
Q 250 816 250 1647 
Q 250 2184 428 2587 
Q 606 2991 970 3192 
Q 1334 3394 1763 3394 
Q 2303 3394 2647 3120 
Q 2991 2847 3088 2344 
L 2541 2259 
Q 2463 2594 2264 2762 
Q 2066 2931 1784 2931 
Q 1359 2931 1093 2626 
Q 828 2322 828 1663 
Q 828 994 1084 691 
Q 1341 388 1753 388 
Q 2084 388 2306 591 
Q 2528 794 2588 1216 
z
" transform="scale(0.015625)"/>
      <path id="ArialMT-73" d="M 197 991 
L 753 1078 
Q 800 744 1014 566 
Q 1228 388 1613 388 
Q 2000 388 2187 545 
Q 2375 703 2375 916 
Q 2375 1106 2209 1216 
Q 2094 1291 1634 1406 
Q 1016 1563 777 1677 
Q 538 1791 414 1992 
Q 291 2194 291 2438 
Q 291 2659 392 2848 
Q 494 3038 669 3163 
Q 800 3259 1026 3326 
Q 1253 3394 1513 3394 
Q 1903 3394 2198 3281 
Q 2494 3169 2634 2976 
Q 2775 2784 2828 2463 
L 2278 2388 
Q 2241 2644 2061 2787 
Q 1881 2931 1553 2931 
Q 1166 2931 1000 2803 
Q 834 2675 834 2503 
Q 834 2394 903 2306 
Q 972 2216 1119 2156 
Q 1203 2125 1616 2013 
Q 2213 1853 2448 1751 
Q 2684 1650 2818 1456 
Q 2953 1263 2953 975 
Q 2953 694 2789 445 
Q 2625 197 2315 61 
Q 2006 -75 1616 -75 
Q 969 -75 630 194 
Q 291 463 197 991 
z
" transform="scale(0.015625)"/>
      <path id="ArialMT-64" d="M 2575 0 
L 2575 419 
Q 2259 -75 1647 -75 
Q 1250 -75 917 144 
Q 584 363 401 755 
Q 219 1147 219 1656 
Q 219 2153 384 2558 
Q 550 2963 881 3178 
Q 1213 3394 1622 3394 
Q 1922 3394 2156 3267 
Q 2391 3141 2538 2938 
L 2538 4581 
L 3097 4581 
L 3097 0 
L 2575 0 
z
M 797 1656 
Q 797 1019 1065 703 
Q 1334 388 1700 388 
Q 2069 388 2326 689 
Q 2584 991 2584 1609 
Q 2584 2291 2321 2609 
Q 2059 2928 1675 2928 
Q 1300 2928 1048 2622 
Q 797 2316 797 1656 
z
" transform="scale(0.015625)"/>
      <path id="ArialMT-20" transform="scale(0.015625)"/>
      <path id="ArialMT-4d" d="M 475 0 
L 475 4581 
L 1388 4581 
L 2472 1338 
Q 2622 884 2691 659 
Q 2769 909 2934 1394 
L 4031 4581 
L 4847 4581 
L 4847 0 
L 4263 0 
L 4263 3834 
L 2931 0 
L 2384 0 
L 1059 3900 
L 1059 0 
L 475 0 
z
" transform="scale(0.015625)"/>
      <path id="ArialMT-75" d="M 2597 0 
L 2597 488 
Q 2209 -75 1544 -75 
Q 1250 -75 995 37 
Q 741 150 617 320 
Q 494 491 444 738 
Q 409 903 409 1263 
L 409 3319 
L 972 3319 
L 972 1478 
Q 972 1038 1006 884 
Q 1059 663 1231 536 
Q 1403 409 1656 409 
Q 1909 409 2131 539 
Q 2353 669 2445 892 
Q 2538 1116 2538 1541 
L 2538 3319 
L 3100 3319 
L 3100 0 
L 2597 0 
z
" transform="scale(0.015625)"/>
      <path id="ArialMT-6e" d="M 422 0 
L 422 3319 
L 928 3319 
L 928 2847 
Q 1294 3394 1984 3394 
Q 2284 3394 2536 3286 
Q 2788 3178 2913 3003 
Q 3038 2828 3088 2588 
Q 3119 2431 3119 2041 
L 3119 0 
L 2556 0 
L 2556 2019 
Q 2556 2363 2490 2533 
Q 2425 2703 2258 2804 
Q 2091 2906 1866 2906 
Q 1506 2906 1245 2678 
Q 984 2450 984 1813 
L 984 0 
L 422 0 
z
" transform="scale(0.015625)"/>
      <path id="ArialMT-28" d="M 1497 -1347 
Q 1031 -759 709 28 
Q 388 816 388 1659 
Q 388 2403 628 3084 
Q 909 3875 1497 4659 
L 1900 4659 
Q 1522 4009 1400 3731 
Q 1209 3300 1100 2831 
Q 966 2247 966 1656 
Q 966 153 1900 -1347 
L 1497 -1347 
z
" transform="scale(0.015625)"/>
      <path id="ArialMT-3d" d="M 3381 2694 
L 356 2694 
L 356 3219 
L 3381 3219 
L 3381 2694 
z
M 3381 1303 
L 356 1303 
L 356 1828 
L 3381 1828 
L 3381 1303 
z
" transform="scale(0.015625)"/>
      <path id="ArialMT-29" d="M 791 -1347 
L 388 -1347 
Q 1322 153 1322 1656 
Q 1322 2244 1188 2822 
Q 1081 3291 891 3722 
Q 769 4003 388 4659 
L 791 4659 
Q 1378 3875 1659 3084 
Q 1900 2403 1900 1659 
Q 1900 816 1576 28 
Q 1253 -759 791 -1347 
z
" transform="scale(0.015625)"/>
     </defs>
     <use xlink:href="#ArialMT-44"/>
     <use xlink:href="#ArialMT-65" transform="translate(72.216797 0)"/>
     <use xlink:href="#ArialMT-63" transform="translate(127.832031 0)"/>
     <use xlink:href="#ArialMT-72" transform="translate(177.832031 0)"/>
     <use xlink:href="#ArialMT-65" transform="translate(211.132812 0)"/>
     <use xlink:href="#ArialMT-61" transform="translate(266.748047 0)"/>
     <use xlink:href="#ArialMT-73" transform="translate(322.363281 0)"/>
     <use xlink:href="#ArialMT-65" transform="translate(372.363281 0)"/>
     <use xlink:href="#ArialMT-64" transform="translate(427.978516 0)"/>
     <use xlink:href="#ArialMT-20" transform="translate(483.59375 0)"/>
     <use xlink:href="#ArialMT-4d" transform="translate(511.376953 0)"/>
     <use xlink:href="#ArialMT-75" transform="translate(594.677734 0)"/>
     <use xlink:href="#ArialMT-74" transform="translate(650.292969 0)"/>
     <use xlink:href="#ArialMT-61" transform="translate(678.076172 0)"/>
     <use xlink:href="#ArialMT-74" transform="translate(733.691406 0)"/>
     <use xlink:href="#ArialMT-69" transform="translate(761.474609 0)"/>
     <use xlink:href="#ArialMT-6f" transform="translate(783.691406 0)"/>
     <use xlink:href="#ArialMT-6e" transform="translate(839.306641 0)"/>
     <use xlink:href="#ArialMT-73" transform="translate(894.921875 0)"/>
     <use xlink:href="#ArialMT-20" transform="translate(944.921875 0)"/>
     <use xlink:href="#ArialMT-28" transform="translate(972.705078 0)"/>
     <use xlink:href="#ArialMT-6e" transform="translate(1006.005859 0)"/>
     <use xlink:href="#ArialMT-3d" transform="translate(1061.621094 0)"/>
     <use xlink:href="#ArialMT-34" transform="translate(1120.019531 0)"/>
     <use xlink:href="#ArialMT-32" transform="translate(1175.634766 0)"/>
     <use xlink:href="#ArialMT-29" transform="translate(1231.25 0)"/>
    </g>
   </g>
  </g>
 </g>
 <defs>
  <clipPath id="p25c2c7a07e">
   <rect x="43.215" y="27.391562" width="806.59375" height="230.68"/>
  </clipPath>
 </defs>
</svg>
