<?xml version="1.0" encoding="utf-8" standalone="no"?>
<!DOCTYPE svg PUBLIC "-//W3C//DTD SVG 1.1//EN"
  "http://www.w3.org/Graphics/SVG/1.1/DTD/svg11.dtd">
<svg xmlns:xlink="http://www.w3.org/1999/xlink" width="370.921719pt" height="425.147437pt" viewBox="0 0 370.921719 425.147437" xmlns="http://www.w3.org/2000/svg" version="1.1">
 <metadata>
  <rdf:RDF xmlns:dc="http://purl.org/dc/elements/1.1/" xmlns:cc="http://creativecommons.org/ns#" xmlns:rdf="http://www.w3.org/1999/02/22-rdf-syntax-ns#">
   <cc:Work>
    <dc:type rdf:resource="http://purl.org/dc/dcmitype/StillImage"/>
    <dc:date>2026-02-14T07:06:29.943034</dc:date>
    <dc:format>image/svg+xml</dc:format>
    <dc:creator>
     <cc:Agent>
      <dc:title>Matplotlib v3.10.8, https://matplotlib.org/</dc:title>
     </cc:Agent>
    </dc:creator>
   </cc:Work>
  </rdf:RDF>
 </metadata>
 <defs>
  <style type="text/css">*{stroke-linejoin: round; stroke-linecap: butt}</style>
 </defs>
 <g id="figure_1">
  <g id="patch_1">
   <path d="M 0 425.147437 
L 370.921719 425.147437 
L 370.921719 0 
L 0 0 
L 0 425.147437 
z
" style="fill: none"/>
  </g>
  <g id="axes_1">
   <g id="patch_2">
    <path d="M 55.175 395.644 
L 346.0775 395.644 
L 346.0775 59.816 
L 55.175 59.816 
L 55.175 395.644 
z
" style="fill: none"/>
   </g>
   <g id="matplotlib.axis_1">
    <g id="xtick_1">
     <g id="line2d_1">
      <defs>
       <path id="m871181769d" d="M 0 0 
L 0 6 
" style="stroke: #262626; stroke-width: 2"/>
      </defs>
      <g>
       <use xlink:href="#m871181769d" x="200.62625" y="395.644" style="fill: #262626; stroke: #262626; stroke-width: 2"/>
      </g>
     </g>
     <g id="text_1">
      <!-- Generated ωRNA -->
      <g style="fill: #262626" transform="translate(145.360156 415.164937) scale(0.14 -0.14)">
       <defs>
        <path id="ArialMT-47" d="M 2638 1797 
L 2638 2334 
L 4578 2338 
L 4578 638 
Q 4131 281 3656 101 
Q 3181 -78 2681 -78 
Q 2006 -78 1454 211 
Q 903 500 622 1047 
Q 341 1594 341 2269 
Q 341 2938 620 3517 
Q 900 4097 1425 4378 
Q 1950 4659 2634 4659 
Q 3131 4659 3532 4498 
Q 3934 4338 4162 4050 
Q 4391 3763 4509 3300 
L 3963 3150 
Q 3859 3500 3706 3700 
Q 3553 3900 3268 4020 
Q 2984 4141 2638 4141 
Q 2222 4141 1919 4014 
Q 1616 3888 1430 3681 
Q 1244 3475 1141 3228 
Q 966 2803 966 2306 
Q 966 1694 1177 1281 
Q 1388 869 1791 669 
Q 2194 469 2647 469 
Q 3041 469 3416 620 
Q 3791 772 3984 944 
L 3984 1797 
L 2638 1797 
z
" transform="scale(0.015625)"/>
        <path id="ArialMT-65" d="M 2694 1069 
L 3275 997 
Q 3138 488 2766 206 
Q 2394 -75 1816 -75 
Q 1088 -75 661 373 
Q 234 822 234 1631 
Q 234 2469 665 2931 
Q 1097 3394 1784 3394 
Q 2450 3394 2872 2941 
Q 3294 2488 3294 1666 
Q 3294 1616 3291 1516 
L 816 1516 
Q 847 969 1125 678 
Q 1403 388 1819 388 
Q 2128 388 2347 550 
Q 2566 713 2694 1069 
z
M 847 1978 
L 2700 1978 
Q 2663 2397 2488 2606 
Q 2219 2931 1791 2931 
Q 1403 2931 1139 2672 
Q 875 2413 847 1978 
z
" transform="scale(0.015625)"/>
        <path id="ArialMT-6e" d="M 422 0 
L 422 3319 
L 928 3319 
L 928 2847 
Q 1294 3394 1984 3394 
Q 2284 3394 2536 3286 
Q 2788 3178 2913 3003 
Q 3038 2828 3088 2588 
Q 3119 2431 3119 2041 
L 3119 0 
L 2556 0 
L 2556 2019 
Q 2556 2363 2490 2533 
Q 2425 2703 2258 2804 
Q 2091 2906 1866 2906 
Q 1506 2906 1245 2678 
Q 984 2450 984 1813 
L 984 0 
L 422 0 
z
" transform="scale(0.015625)"/>
        <path id="ArialMT-72" d="M 416 0 
L 416 3319 
L 922 3319 
L 922 2816 
Q 1116 3169 1280 3281 
Q 1444 3394 1641 3394 
Q 1925 3394 2219 3213 
L 2025 2691 
Q 1819 2813 1613 2813 
Q 1428 2813 1281 2702 
Q 1134 2591 1072 2394 
Q 978 2094 978 1738 
L 978 0 
L 416 0 
z
" transform="scale(0.015625)"/>
        <path id="ArialMT-61" d="M 2588 409 
Q 2275 144 1986 34 
Q 1697 -75 1366 -75 
Q 819 -75 525 192 
Q 231 459 231 875 
Q 231 1119 342 1320 
Q 453 1522 633 1644 
Q 813 1766 1038 1828 
Q 1203 1872 1538 1913 
Q 2219 1994 2541 2106 
Q 2544 2222 2544 2253 
Q 2544 2597 2384 2738 
Q 2169 2928 1744 2928 
Q 1347 2928 1158 2789 
Q 969 2650 878 2297 
L 328 2372 
Q 403 2725 575 2942 
Q 747 3159 1072 3276 
Q 1397 3394 1825 3394 
Q 2250 3394 2515 3294 
Q 2781 3194 2906 3042 
Q 3031 2891 3081 2659 
Q 3109 2516 3109 2141 
L 3109 1391 
Q 3109 606 3145 398 
Q 3181 191 3288 0 
L 2700 0 
Q 2613 175 2588 409 
z
M 2541 1666 
Q 2234 1541 1622 1453 
Q 1275 1403 1131 1340 
Q 988 1278 909 1158 
Q 831 1038 831 891 
Q 831 666 1001 516 
Q 1172 366 1500 366 
Q 1825 366 2078 508 
Q 2331 650 2450 897 
Q 2541 1088 2541 1459 
L 2541 1666 
z
" transform="scale(0.015625)"/>
        <path id="ArialMT-74" d="M 1650 503 
L 1731 6 
Q 1494 -44 1306 -44 
Q 1000 -44 831 53 
Q 663 150 594 308 
Q 525 466 525 972 
L 525 2881 
L 113 2881 
L 113 3319 
L 525 3319 
L 525 4141 
L 1084 4478 
L 1084 3319 
L 1650 3319 
L 1650 2881 
L 1084 2881 
L 1084 941 
Q 1084 700 1114 631 
Q 1144 563 1211 522 
Q 1278 481 1403 481 
Q 1497 481 1650 503 
z
" transform="scale(0.015625)"/>
        <path id="ArialMT-64" d="M 2575 0 
L 2575 419 
Q 2259 -75 1647 -75 
Q 1250 -75 917 144 
Q 584 363 401 755 
Q 219 1147 219 1656 
Q 219 2153 384 2558 
Q 550 2963 881 3178 
Q 1213 3394 1622 3394 
Q 1922 3394 2156 3267 
Q 2391 3141 2538 2938 
L 2538 4581 
L 3097 4581 
L 3097 0 
L 2575 0 
z
M 797 1656 
Q 797 1019 1065 703 
Q 1334 388 1700 388 
Q 2069 388 2326 689 
Q 2584 991 2584 1609 
Q 2584 2291 2321 2609 
Q 2059 2928 1675 2928 
Q 1300 2928 1048 2622 
Q 797 2316 797 1656 
z
" transform="scale(0.015625)"/>
        <path id="ArialMT-20" transform="scale(0.015625)"/>
        <path id="ArialMT-3c9" d="M 766 3319 
L 1309 3319 
Q 844 2291 844 1581 
Q 844 1034 1044 700 
Q 1244 366 1553 366 
Q 1753 366 1928 522 
Q 2103 678 2161 897 
Q 2219 1116 2219 1509 
L 2219 2481 
L 2778 2481 
L 2778 1509 
Q 2778 1125 2836 900 
Q 2894 675 3070 520 
Q 3247 366 3447 366 
Q 3753 366 3953 698 
Q 4153 1031 4153 1581 
Q 4153 2291 3691 3319 
L 4231 3319 
Q 4725 2441 4725 1616 
Q 4725 788 4383 356 
Q 4041 -75 3509 -75 
Q 2803 -75 2500 672 
Q 2194 -75 1488 -75 
Q 928 -75 600 378 
Q 272 831 272 1616 
Q 272 2441 766 3319 
z
" transform="scale(0.015625)"/>
        <path id="ArialMT-52" d="M 503 0 
L 503 4581 
L 2534 4581 
Q 3147 4581 3465 4457 
Q 3784 4334 3975 4021 
Q 4166 3709 4166 3331 
Q 4166 2844 3850 2509 
Q 3534 2175 2875 2084 
Q 3116 1969 3241 1856 
Q 3506 1613 3744 1247 
L 4541 0 
L 3778 0 
L 3172 953 
Q 2906 1366 2734 1584 
Q 2563 1803 2427 1890 
Q 2291 1978 2150 2013 
Q 2047 2034 1813 2034 
L 1109 2034 
L 1109 0 
L 503 0 
z
M 1109 2559 
L 2413 2559 
Q 2828 2559 3062 2645 
Q 3297 2731 3419 2920 
Q 3541 3109 3541 3331 
Q 3541 3656 3305 3865 
Q 3069 4075 2559 4075 
L 1109 4075 
L 1109 2559 
z
" transform="scale(0.015625)"/>
        <path id="ArialMT-4e" d="M 488 0 
L 488 4581 
L 1109 4581 
L 3516 984 
L 3516 4581 
L 4097 4581 
L 4097 0 
L 3475 0 
L 1069 3600 
L 1069 0 
L 488 0 
z
" transform="scale(0.015625)"/>
        <path id="ArialMT-41" d="M -9 0 
L 1750 4581 
L 2403 4581 
L 4278 0 
L 3588 0 
L 3053 1388 
L 1138 1388 
L 634 0 
L -9 0 
z
M 1313 1881 
L 2866 1881 
L 2388 3150 
Q 2169 3728 2063 4100 
Q 1975 3659 1816 3225 
L 1313 1881 
z
" transform="scale(0.015625)"/>
       </defs>
       <use xlink:href="#ArialMT-47"/>
       <use xlink:href="#ArialMT-65" transform="translate(77.783203 0)"/>
       <use xlink:href="#ArialMT-6e" transform="translate(133.398438 0)"/>
       <use xlink:href="#ArialMT-65" transform="translate(189.013672 0)"/>
       <use xlink:href="#ArialMT-72" transform="translate(244.628906 0)"/>
       <use xlink:href="#ArialMT-61" transform="translate(277.929688 0)"/>
       <use xlink:href="#ArialMT-74" transform="translate(333.544922 0)"/>
       <use xlink:href="#ArialMT-65" transform="translate(361.328125 0)"/>
       <use xlink:href="#ArialMT-64" transform="translate(416.943359 0)"/>
       <use xlink:href="#ArialMT-20" transform="translate(472.558594 0)"/>
       <use xlink:href="#ArialMT-3c9" transform="translate(500.341797 0)"/>
       <use xlink:href="#ArialMT-52" transform="translate(578.417969 0)"/>
       <use xlink:href="#ArialMT-4e" transform="translate(650.634766 0)"/>
       <use xlink:href="#ArialMT-41" transform="translate(722.851562 0)"/>
      </g>
     </g>
    </g>
   </g>
   <g id="matplotlib.axis_2">
    <g id="ytick_1">
     <g id="line2d_2">
      <defs>
       <path id="mf37946583f" d="M 0 0 
L -6 0 
" style="stroke: #262626; stroke-width: 2"/>
      </defs>
      <g>
       <use xlink:href="#mf37946583f" x="55.175" y="395.644" style="fill: #262626; stroke: #262626; stroke-width: 2"/>
      </g>
     </g>
     <g id="text_2">
      <!-- 0.0 -->
      <g style="fill: #262626" transform="translate(26.215 400.654469) scale(0.14 -0.14)">
       <defs>
        <path id="ArialMT-30" d="M 266 2259 
Q 266 3072 433 3567 
Q 600 4063 929 4331 
Q 1259 4600 1759 4600 
Q 2128 4600 2406 4451 
Q 2684 4303 2865 4023 
Q 3047 3744 3150 3342 
Q 3253 2941 3253 2259 
Q 3253 1453 3087 958 
Q 2922 463 2592 192 
Q 2263 -78 1759 -78 
Q 1097 -78 719 397 
Q 266 969 266 2259 
z
M 844 2259 
Q 844 1131 1108 757 
Q 1372 384 1759 384 
Q 2147 384 2411 759 
Q 2675 1134 2675 2259 
Q 2675 3391 2411 3762 
Q 2147 4134 1753 4134 
Q 1366 4134 1134 3806 
Q 844 3388 844 2259 
z
" transform="scale(0.015625)"/>
        <path id="ArialMT-2e" d="M 581 0 
L 581 641 
L 1222 641 
L 1222 0 
L 581 0 
z
" transform="scale(0.015625)"/>
       </defs>
       <use xlink:href="#ArialMT-30"/>
       <use xlink:href="#ArialMT-2e" transform="translate(55.615234 0)"/>
       <use xlink:href="#ArialMT-30" transform="translate(83.398438 0)"/>
      </g>
     </g>
    </g>
    <g id="ytick_2">
     <g id="line2d_3">
      <g>
       <use xlink:href="#mf37946583f" x="55.175" y="328.4784" style="fill: #262626; stroke: #262626; stroke-width: 2"/>
      </g>
     </g>
     <g id="text_3">
      <!-- 0.2 -->
      <g style="fill: #262626" transform="translate(26.215 333.488869) scale(0.14 -0.14)">
       <defs>
        <path id="ArialMT-32" d="M 3222 541 
L 3222 0 
L 194 0 
Q 188 203 259 391 
Q 375 700 629 1000 
Q 884 1300 1366 1694 
Q 2113 2306 2375 2664 
Q 2638 3022 2638 3341 
Q 2638 3675 2398 3904 
Q 2159 4134 1775 4134 
Q 1369 4134 1125 3890 
Q 881 3647 878 3216 
L 300 3275 
Q 359 3922 746 4261 
Q 1134 4600 1788 4600 
Q 2447 4600 2831 4234 
Q 3216 3869 3216 3328 
Q 3216 3053 3103 2787 
Q 2991 2522 2730 2228 
Q 2469 1934 1863 1422 
Q 1356 997 1212 845 
Q 1069 694 975 541 
L 3222 541 
z
" transform="scale(0.015625)"/>
       </defs>
       <use xlink:href="#ArialMT-30"/>
       <use xlink:href="#ArialMT-2e" transform="translate(55.615234 0)"/>
       <use xlink:href="#ArialMT-32" transform="translate(83.398438 0)"/>
      </g>
     </g>
    </g>
    <g id="ytick_3">
     <g id="line2d_4">
      <g>
       <use xlink:href="#mf37946583f" x="55.175" y="261.3128" style="fill: #262626; stroke: #262626; stroke-width: 2"/>
      </g>
     </g>
     <g id="text_4">
      <!-- 0.4 -->
      <g style="fill: #262626" transform="translate(26.215 266.323269) scale(0.14 -0.14)">
       <defs>
        <path id="ArialMT-34" d="M 2069 0 
L 2069 1097 
L 81 1097 
L 81 1613 
L 2172 4581 
L 2631 4581 
L 2631 1613 
L 3250 1613 
L 3250 1097 
L 2631 1097 
L 2631 0 
L 2069 0 
z
M 2069 1613 
L 2069 3678 
L 634 1613 
L 2069 1613 
z
" transform="scale(0.015625)"/>
       </defs>
       <use xlink:href="#ArialMT-30"/>
       <use xlink:href="#ArialMT-2e" transform="translate(55.615234 0)"/>
       <use xlink:href="#ArialMT-34" transform="translate(83.398438 0)"/>
      </g>
     </g>
    </g>
    <g id="ytick_4">
     <g id="line2d_5">
      <g>
       <use xlink:href="#mf37946583f" x="55.175" y="194.1472" style="fill: #262626; stroke: #262626; stroke-width: 2"/>
      </g>
     </g>
     <g id="text_5">
      <!-- 0.6 -->
      <g style="fill: #262626" transform="translate(26.215 199.157669) scale(0.14 -0.14)">
       <defs>
        <path id="ArialMT-36" d="M 3184 3459 
L 2625 3416 
Q 2550 3747 2413 3897 
Q 2184 4138 1850 4138 
Q 1581 4138 1378 3988 
Q 1113 3794 959 3422 
Q 806 3050 800 2363 
Q 1003 2672 1297 2822 
Q 1591 2972 1913 2972 
Q 2475 2972 2870 2558 
Q 3266 2144 3266 1488 
Q 3266 1056 3080 686 
Q 2894 316 2569 119 
Q 2244 -78 1831 -78 
Q 1128 -78 684 439 
Q 241 956 241 2144 
Q 241 3472 731 4075 
Q 1159 4600 1884 4600 
Q 2425 4600 2770 4297 
Q 3116 3994 3184 3459 
z
M 888 1484 
Q 888 1194 1011 928 
Q 1134 663 1356 523 
Q 1578 384 1822 384 
Q 2178 384 2434 671 
Q 2691 959 2691 1453 
Q 2691 1928 2437 2201 
Q 2184 2475 1800 2475 
Q 1419 2475 1153 2201 
Q 888 1928 888 1484 
z
" transform="scale(0.015625)"/>
       </defs>
       <use xlink:href="#ArialMT-30"/>
       <use xlink:href="#ArialMT-2e" transform="translate(55.615234 0)"/>
       <use xlink:href="#ArialMT-36" transform="translate(83.398438 0)"/>
      </g>
     </g>
    </g>
    <g id="ytick_5">
     <g id="line2d_6">
      <g>
       <use xlink:href="#mf37946583f" x="55.175" y="126.9816" style="fill: #262626; stroke: #262626; stroke-width: 2"/>
      </g>
     </g>
     <g id="text_6">
      <!-- 0.8 -->
      <g style="fill: #262626" transform="translate(26.215 131.992069) scale(0.14 -0.14)">
       <defs>
        <path id="ArialMT-38" d="M 1131 2484 
Q 781 2613 612 2850 
Q 444 3088 444 3419 
Q 444 3919 803 4259 
Q 1163 4600 1759 4600 
Q 2359 4600 2725 4251 
Q 3091 3903 3091 3403 
Q 3091 3084 2923 2848 
Q 2756 2613 2416 2484 
Q 2838 2347 3058 2040 
Q 3278 1734 3278 1309 
Q 3278 722 2862 322 
Q 2447 -78 1769 -78 
Q 1091 -78 675 323 
Q 259 725 259 1325 
Q 259 1772 486 2073 
Q 713 2375 1131 2484 
z
M 1019 3438 
Q 1019 3113 1228 2906 
Q 1438 2700 1772 2700 
Q 2097 2700 2305 2904 
Q 2513 3109 2513 3406 
Q 2513 3716 2298 3927 
Q 2084 4138 1766 4138 
Q 1444 4138 1231 3931 
Q 1019 3725 1019 3438 
z
M 838 1322 
Q 838 1081 952 856 
Q 1066 631 1291 507 
Q 1516 384 1775 384 
Q 2178 384 2440 643 
Q 2703 903 2703 1303 
Q 2703 1709 2433 1975 
Q 2163 2241 1756 2241 
Q 1359 2241 1098 1978 
Q 838 1716 838 1322 
z
" transform="scale(0.015625)"/>
       </defs>
       <use xlink:href="#ArialMT-30"/>
       <use xlink:href="#ArialMT-2e" transform="translate(55.615234 0)"/>
       <use xlink:href="#ArialMT-38" transform="translate(83.398438 0)"/>
      </g>
     </g>
    </g>
    <g id="ytick_6">
     <g id="line2d_7">
      <g>
       <use xlink:href="#mf37946583f" x="55.175" y="59.816" style="fill: #262626; stroke: #262626; stroke-width: 2"/>
      </g>
     </g>
     <g id="text_7">
      <!-- 1.0 -->
      <g style="fill: #262626" transform="translate(26.215 64.826469) scale(0.14 -0.14)">
       <defs>
        <path id="ArialMT-31" d="M 2384 0 
L 1822 0 
L 1822 3584 
Q 1619 3391 1289 3197 
Q 959 3003 697 2906 
L 697 3450 
Q 1169 3672 1522 3987 
Q 1875 4303 2022 4600 
L 2384 4600 
L 2384 0 
z
" transform="scale(0.015625)"/>
       </defs>
       <use xlink:href="#ArialMT-31"/>
       <use xlink:href="#ArialMT-2e" transform="translate(55.615234 0)"/>
       <use xlink:href="#ArialMT-30" transform="translate(83.398438 0)"/>
      </g>
     </g>
    </g>
    <g id="text_8">
     <!-- Sequence Similarity -->
     <g style="fill: #262626" transform="translate(18.8475 298.42625) rotate(-90) scale(0.16 -0.16)">
      <defs>
       <path id="ArialMT-53" d="M 288 1472 
L 859 1522 
Q 900 1178 1048 958 
Q 1197 738 1509 602 
Q 1822 466 2213 466 
Q 2559 466 2825 569 
Q 3091 672 3220 851 
Q 3350 1031 3350 1244 
Q 3350 1459 3225 1620 
Q 3100 1781 2813 1891 
Q 2628 1963 1997 2114 
Q 1366 2266 1113 2400 
Q 784 2572 623 2826 
Q 463 3081 463 3397 
Q 463 3744 659 4045 
Q 856 4347 1234 4503 
Q 1613 4659 2075 4659 
Q 2584 4659 2973 4495 
Q 3363 4331 3572 4012 
Q 3781 3694 3797 3291 
L 3216 3247 
Q 3169 3681 2898 3903 
Q 2628 4125 2100 4125 
Q 1550 4125 1298 3923 
Q 1047 3722 1047 3438 
Q 1047 3191 1225 3031 
Q 1400 2872 2139 2705 
Q 2878 2538 3153 2413 
Q 3553 2228 3743 1945 
Q 3934 1663 3934 1294 
Q 3934 928 3725 604 
Q 3516 281 3123 101 
Q 2731 -78 2241 -78 
Q 1619 -78 1198 103 
Q 778 284 539 648 
Q 300 1013 288 1472 
z
" transform="scale(0.015625)"/>
       <path id="ArialMT-71" d="M 2538 -1272 
L 2538 353 
Q 2406 169 2170 47 
Q 1934 -75 1669 -75 
Q 1078 -75 651 397 
Q 225 869 225 1691 
Q 225 2191 398 2587 
Q 572 2984 901 3189 
Q 1231 3394 1625 3394 
Q 2241 3394 2594 2875 
L 2594 3319 
L 3100 3319 
L 3100 -1272 
L 2538 -1272 
z
M 803 1669 
Q 803 1028 1072 708 
Q 1341 388 1716 388 
Q 2075 388 2334 692 
Q 2594 997 2594 1619 
Q 2594 2281 2320 2615 
Q 2047 2950 1678 2950 
Q 1313 2950 1058 2639 
Q 803 2328 803 1669 
z
" transform="scale(0.015625)"/>
       <path id="ArialMT-75" d="M 2597 0 
L 2597 488 
Q 2209 -75 1544 -75 
Q 1250 -75 995 37 
Q 741 150 617 320 
Q 494 491 444 738 
Q 409 903 409 1263 
L 409 3319 
L 972 3319 
L 972 1478 
Q 972 1038 1006 884 
Q 1059 663 1231 536 
Q 1403 409 1656 409 
Q 1909 409 2131 539 
Q 2353 669 2445 892 
Q 2538 1116 2538 1541 
L 2538 3319 
L 3100 3319 
L 3100 0 
L 2597 0 
z
" transform="scale(0.015625)"/>
       <path id="ArialMT-63" d="M 2588 1216 
L 3141 1144 
Q 3050 572 2676 248 
Q 2303 -75 1759 -75 
Q 1078 -75 664 370 
Q 250 816 250 1647 
Q 250 2184 428 2587 
Q 606 2991 970 3192 
Q 1334 3394 1763 3394 
Q 2303 3394 2647 3120 
Q 2991 2847 3088 2344 
L 2541 2259 
Q 2463 2594 2264 2762 
Q 2066 2931 1784 2931 
Q 1359 2931 1093 2626 
Q 828 2322 828 1663 
Q 828 994 1084 691 
Q 1341 388 1753 388 
Q 2084 388 2306 591 
Q 2528 794 2588 1216 
z
" transform="scale(0.015625)"/>
       <path id="ArialMT-69" d="M 425 3934 
L 425 4581 
L 988 4581 
L 988 3934 
L 425 3934 
z
M 425 0 
L 425 3319 
L 988 3319 
L 988 0 
L 425 0 
z
" transform="scale(0.015625)"/>
       <path id="ArialMT-6d" d="M 422 0 
L 422 3319 
L 925 3319 
L 925 2853 
Q 1081 3097 1340 3245 
Q 1600 3394 1931 3394 
Q 2300 3394 2536 3241 
Q 2772 3088 2869 2813 
Q 3263 3394 3894 3394 
Q 4388 3394 4653 3120 
Q 4919 2847 4919 2278 
L 4919 0 
L 4359 0 
L 4359 2091 
Q 4359 2428 4304 2576 
Q 4250 2725 4106 2815 
Q 3963 2906 3769 2906 
Q 3419 2906 3187 2673 
Q 2956 2441 2956 1928 
L 2956 0 
L 2394 0 
L 2394 2156 
Q 2394 2531 2256 2718 
Q 2119 2906 1806 2906 
Q 1569 2906 1367 2781 
Q 1166 2656 1075 2415 
Q 984 2175 984 1722 
L 984 0 
L 422 0 
z
" transform="scale(0.015625)"/>
       <path id="ArialMT-6c" d="M 409 0 
L 409 4581 
L 972 4581 
L 972 0 
L 409 0 
z
" transform="scale(0.015625)"/>
       <path id="ArialMT-79" d="M 397 -1278 
L 334 -750 
Q 519 -800 656 -800 
Q 844 -800 956 -737 
Q 1069 -675 1141 -563 
Q 1194 -478 1313 -144 
Q 1328 -97 1363 -6 
L 103 3319 
L 709 3319 
L 1400 1397 
Q 1534 1031 1641 628 
Q 1738 1016 1872 1384 
L 2581 3319 
L 3144 3319 
L 1881 -56 
Q 1678 -603 1566 -809 
Q 1416 -1088 1222 -1217 
Q 1028 -1347 759 -1347 
Q 597 -1347 397 -1278 
z
" transform="scale(0.015625)"/>
      </defs>
      <use xlink:href="#ArialMT-53"/>
      <use xlink:href="#ArialMT-65" transform="translate(66.699219 0)"/>
      <use xlink:href="#ArialMT-71" transform="translate(122.314453 0)"/>
      <use xlink:href="#ArialMT-75" transform="translate(177.929688 0)"/>
      <use xlink:href="#ArialMT-65" transform="translate(233.544922 0)"/>
      <use xlink:href="#ArialMT-6e" transform="translate(289.160156 0)"/>
      <use xlink:href="#ArialMT-63" transform="translate(344.775391 0)"/>
      <use xlink:href="#ArialMT-65" transform="translate(394.775391 0)"/>
      <use xlink:href="#ArialMT-20" transform="translate(450.390625 0)"/>
      <use xlink:href="#ArialMT-53" transform="translate(478.173828 0)"/>
      <use xlink:href="#ArialMT-69" transform="translate(544.873047 0)"/>
      <use xlink:href="#ArialMT-6d" transform="translate(567.089844 0)"/>
      <use xlink:href="#ArialMT-69" transform="translate(650.390625 0)"/>
      <use xlink:href="#ArialMT-6c" transform="translate(672.607422 0)"/>
      <use xlink:href="#ArialMT-61" transform="translate(694.824219 0)"/>
      <use xlink:href="#ArialMT-72" transform="translate(750.439453 0)"/>
      <use xlink:href="#ArialMT-69" transform="translate(783.740234 0)"/>
      <use xlink:href="#ArialMT-74" transform="translate(805.957031 0)"/>
      <use xlink:href="#ArialMT-79" transform="translate(833.740234 0)"/>
     </g>
    </g>
   </g>
   <g id="FillBetweenPolyCollection_1">
    <defs>
     <path id="m9730133593" d="M 201.05485 -60.987312 
L 200.19765 -60.987312 
L 200.162916 -64.061496 
L 200.148087 -67.135679 
L 200.151911 -70.209862 
L 200.170735 -73.284045 
L 200.199857 -76.358228 
L 200.234471 -79.432411 
L 200.26996 -82.506594 
L 200.301786 -85.580777 
L 200.32553 -88.65496 
L 200.33742 -91.729143 
L 200.335232 -94.803326 
L 200.319074 -97.877509 
L 200.291529 -100.951693 
L 200.256981 -104.025876 
L 200.220363 -107.100059 
L 200.185821 -110.174242 
L 200.155757 -113.248425 
L 200.130449 -116.322608 
L 200.108263 -119.396791 
L 200.086274 -122.470974 
L 200.061106 -125.545157 
L 200.029747 -128.61934 
L 199.990025 -131.693523 
L 199.940529 -134.767706 
L 199.879916 -137.84189 
L 199.805931 -140.916073 
L 199.714751 -143.990256 
L 199.60129 -147.064439 
L 199.460703 -150.138622 
L 199.290663 -153.212805 
L 199.093349 -156.286988 
L 198.875944 -159.361171 
L 198.648944 -162.435354 
L 198.422631 -165.509537 
L 198.203142 -168.58372 
L 197.990131 -171.657903 
L 197.777507 -174.732086 
L 197.557316 -177.80627 
L 197.324979 -180.880453 
L 197.083103 -183.954636 
L 196.841789 -187.028819 
L 196.615451 -190.103002 
L 196.418494 -193.177185 
L 196.262772 -196.251368 
L 196.158202 -199.325551 
L 196.115218 -202.399734 
L 196.146115 -205.473917 
L 196.262927 -208.5481 
L 196.471966 -211.622283 
L 196.767685 -214.696467 
L 197.129395 -217.77065 
L 197.523082 -220.844833 
L 197.907658 -223.919016 
L 198.241946 -226.993199 
L 198.486612 -230.067382 
L 198.595067 -233.141565 
L 198.489 -236.215748 
L 198.017864 -239.289931 
L 196.907622 -242.364114 
L 194.713789 -245.438297 
L 190.807206 -248.51248 
L 184.433143 -251.586664 
L 174.882684 -254.660847 
L 161.78385 -257.73503 
L 145.453227 -260.809213 
L 127.16902 -263.883396 
L 109.185831 -266.957579 
L 94.365631 -270.031762 
L 85.45869 -273.105945 
L 84.26525 -276.180128 
L 91.022669 -279.254311 
L 104.300426 -282.328494 
L 121.460148 -285.402677 
L 139.475481 -288.47686 
L 155.761047 -291.551044 
L 168.704603 -294.625227 
L 177.78053 -297.69941 
L 183.320869 -300.773593 
L 186.127715 -303.847776 
L 187.103651 -306.921959 
L 187.001177 -309.996142 
L 186.310946 -313.070325 
L 185.259578 -316.144508 
L 183.872921 -319.218691 
L 182.06483 -322.292874 
L 179.721372 -325.367057 
L 176.760404 -328.441241 
L 173.156497 -331.515424 
L 168.931336 -334.589607 
L 164.120704 -337.66379 
L 158.740969 -340.737973 
L 152.78718 -343.812156 
L 146.291562 -346.886339 
L 139.444477 -349.960522 
L 132.731772 -353.034705 
L 126.998649 -356.108888 
L 123.350581 -359.183071 
L 122.869 -362.257254 
L 126.229063 -365.331437 
L 275.023437 -365.331437 
L 275.023437 -365.331437 
L 278.3835 -362.257254 
L 277.901919 -359.183071 
L 274.253851 -356.108888 
L 268.520728 -353.034705 
L 261.808023 -349.960522 
L 254.960938 -346.886339 
L 248.46532 -343.812156 
L 242.511531 -340.737973 
L 237.131796 -337.66379 
L 232.321164 -334.589607 
L 228.096003 -331.515424 
L 224.492096 -328.441241 
L 221.531128 -325.367057 
L 219.18767 -322.292874 
L 217.379579 -319.218691 
L 215.992922 -316.144508 
L 214.941554 -313.070325 
L 214.251323 -309.996142 
L 214.148849 -306.921959 
L 215.124785 -303.847776 
L 217.931631 -300.773593 
L 223.47197 -297.69941 
L 232.547897 -294.625227 
L 245.491453 -291.551044 
L 261.777019 -288.47686 
L 279.792352 -285.402677 
L 296.952074 -282.328494 
L 310.229831 -279.254311 
L 316.98725 -276.180128 
L 315.79381 -273.105945 
L 306.886869 -270.031762 
L 292.066669 -266.957579 
L 274.08348 -263.883396 
L 255.799273 -260.809213 
L 239.46865 -257.73503 
L 226.369816 -254.660847 
L 216.819357 -251.586664 
L 210.445294 -248.51248 
L 206.538711 -245.438297 
L 204.344878 -242.364114 
L 203.234636 -239.289931 
L 202.7635 -236.215748 
L 202.657433 -233.141565 
L 202.765888 -230.067382 
L 203.010554 -226.993199 
L 203.344842 -223.919016 
L 203.729418 -220.844833 
L 204.123105 -217.77065 
L 204.484815 -214.696467 
L 204.780534 -211.622283 
L 204.989573 -208.5481 
L 205.106385 -205.473917 
L 205.137282 -202.399734 
L 205.094298 -199.325551 
L 204.989728 -196.251368 
L 204.834006 -193.177185 
L 204.637049 -190.103002 
L 204.410711 -187.028819 
L 204.169397 -183.954636 
L 203.927521 -180.880453 
L 203.695184 -177.80627 
L 203.474993 -174.732086 
L 203.262369 -171.657903 
L 203.049358 -168.58372 
L 202.829869 -165.509537 
L 202.603556 -162.435354 
L 202.376556 -159.361171 
L 202.159151 -156.286988 
L 201.961837 -153.212805 
L 201.791797 -150.138622 
L 201.65121 -147.064439 
L 201.537749 -143.990256 
L 201.446569 -140.916073 
L 201.372584 -137.84189 
L 201.311971 -134.767706 
L 201.262475 -131.693523 
L 201.222753 -128.61934 
L 201.191394 -125.545157 
L 201.166226 -122.470974 
L 201.144237 -119.396791 
L 201.122051 -116.322608 
L 201.096743 -113.248425 
L 201.066679 -110.174242 
L 201.032137 -107.100059 
L 200.995519 -104.025876 
L 200.960971 -100.951693 
L 200.933426 -97.877509 
L 200.917268 -94.803326 
L 200.91508 -91.729143 
L 200.92697 -88.65496 
L 200.950714 -85.580777 
L 200.98254 -82.506594 
L 201.018029 -79.432411 
L 201.052643 -76.358228 
L 201.081765 -73.284045 
L 201.100589 -70.209862 
L 201.104413 -67.135679 
L 201.089584 -64.061496 
L 201.05485 -60.987312 
z
" style="stroke: #686868; stroke-width: 1.5"/>
    </defs>
    <g clip-path="url(#p9f05461fa0)">
     <use xlink:href="#m9730133593" x="0" y="425.147437" style="fill: #82b6d9; stroke: #686868; stroke-width: 1.5"/>
    </g>
   </g>
   <g id="line2d_8">
    <path d="M 200.62625 272.707108 
L 200.62625 59.816 
" clip-path="url(#p9f05461fa0)" style="fill: none; stroke: #686868; stroke-width: 2.25; stroke-linecap: round"/>
   </g>
   <g id="line2d_9">
    <path d="M 200.62625 150.862665 
L 200.62625 67.312017 
" clip-path="url(#p9f05461fa0)" style="fill: none; stroke: #686868; stroke-width: 6.75; stroke-linecap: round"/>
   </g>
   <g id="line2d_10">
    <path d="M 200.62625 148.270744 
" clip-path="url(#p9f05461fa0)" style="fill: none; stroke: #686868; stroke-width: 1.5; stroke-linecap: round"/>
    <defs>
     <path id="m0ca3d50b31" d="M 2.8125 0 
L -2.8125 -0 
" style="stroke: #ffffff; stroke-width: 1.35"/>
    </defs>
    <g clip-path="url(#p9f05461fa0)">
     <use xlink:href="#m0ca3d50b31" x="200.62625" y="148.270744" style="fill: #ffffff; stroke: #ffffff; stroke-width: 1.35"/>
    </g>
   </g>
   <g id="patch_3">
    <path d="M 55.175 395.644 
L 55.175 59.816 
" style="fill: none; stroke: #262626; stroke-width: 2; stroke-linejoin: miter; stroke-linecap: square"/>
   </g>
   <g id="patch_4">
    <path d="M 55.175 395.644 
L 346.0775 395.644 
" style="fill: none; stroke: #262626; stroke-width: 2; stroke-linejoin: miter; stroke-linecap: square"/>
   </g>
   <g id="text_9">
    <!-- Sequence Similarity of Generated ωRNA -->
    <g style="fill: #262626" transform="translate(37.530781 20.303438) scale(0.18 -0.18)">
     <defs>
      <path id="ArialMT-6f" d="M 213 1659 
Q 213 2581 725 3025 
Q 1153 3394 1769 3394 
Q 2453 3394 2887 2945 
Q 3322 2497 3322 1706 
Q 3322 1066 3130 698 
Q 2938 331 2570 128 
Q 2203 -75 1769 -75 
Q 1072 -75 642 372 
Q 213 819 213 1659 
z
M 791 1659 
Q 791 1022 1069 705 
Q 1347 388 1769 388 
Q 2188 388 2466 706 
Q 2744 1025 2744 1678 
Q 2744 2294 2464 2611 
Q 2184 2928 1769 2928 
Q 1347 2928 1069 2612 
Q 791 2297 791 1659 
z
" transform="scale(0.015625)"/>
      <path id="ArialMT-66" d="M 556 0 
L 556 2881 
L 59 2881 
L 59 3319 
L 556 3319 
L 556 3672 
Q 556 4006 616 4169 
Q 697 4388 901 4523 
Q 1106 4659 1475 4659 
Q 1713 4659 2000 4603 
L 1916 4113 
Q 1741 4144 1584 4144 
Q 1328 4144 1222 4034 
Q 1116 3925 1116 3625 
L 1116 3319 
L 1763 3319 
L 1763 2881 
L 1116 2881 
L 1116 0 
L 556 0 
z
" transform="scale(0.015625)"/>
     </defs>
     <use xlink:href="#ArialMT-53"/>
     <use xlink:href="#ArialMT-65" transform="translate(66.699219 0)"/>
     <use xlink:href="#ArialMT-71" transform="translate(122.314453 0)"/>
     <use xlink:href="#ArialMT-75" transform="translate(177.929688 0)"/>
     <use xlink:href="#ArialMT-65" transform="translate(233.544922 0)"/>
     <use xlink:href="#ArialMT-6e" transform="translate(289.160156 0)"/>
     <use xlink:href="#ArialMT-63" transform="translate(344.775391 0)"/>
     <use xlink:href="#ArialMT-65" transform="translate(394.775391 0)"/>
     <use xlink:href="#ArialMT-20" transform="translate(450.390625 0)"/>
     <use xlink:href="#ArialMT-53" transform="translate(478.173828 0)"/>
     <use xlink:href="#ArialMT-69" transform="translate(544.873047 0)"/>
     <use xlink:href="#ArialMT-6d" transform="translate(567.089844 0)"/>
     <use xlink:href="#ArialMT-69" transform="translate(650.390625 0)"/>
     <use xlink:href="#ArialMT-6c" transform="translate(672.607422 0)"/>
     <use xlink:href="#ArialMT-61" transform="translate(694.824219 0)"/>
     <use xlink:href="#ArialMT-72" transform="translate(750.439453 0)"/>
     <use xlink:href="#ArialMT-69" transform="translate(783.740234 0)"/>
     <use xlink:href="#ArialMT-74" transform="translate(805.957031 0)"/>
     <use xlink:href="#ArialMT-79" transform="translate(833.740234 0)"/>
     <use xlink:href="#ArialMT-20" transform="translate(883.740234 0)"/>
     <use xlink:href="#ArialMT-6f" transform="translate(911.523438 0)"/>
     <use xlink:href="#ArialMT-66" transform="translate(967.138672 0)"/>
     <use xlink:href="#ArialMT-20" transform="translate(994.921875 0)"/>
     <use xlink:href="#ArialMT-47" transform="translate(1022.705078 0)"/>
     <use xlink:href="#ArialMT-65" transform="translate(1100.488281 0)"/>
     <use xlink:href="#ArialMT-6e" transform="translate(1156.103516 0)"/>
     <use xlink:href="#ArialMT-65" transform="translate(1211.71875 0)"/>
     <use xlink:href="#ArialMT-72" transform="translate(1267.333984 0)"/>
     <use xlink:href="#ArialMT-61" transform="translate(1300.634766 0)"/>
     <use xlink:href="#ArialMT-74" transform="translate(1356.25 0)"/>
     <use xlink:href="#ArialMT-65" transform="translate(1384.033203 0)"/>
     <use xlink:href="#ArialMT-64" transform="translate(1439.648438 0)"/>
     <use xlink:href="#ArialMT-20" transform="translate(1495.263672 0)"/>
     <use xlink:href="#ArialMT-3c9" transform="translate(1523.046875 0)"/>
     <use xlink:href="#ArialMT-52" transform="translate(1601.123047 0)"/>
     <use xlink:href="#ArialMT-4e" transform="translate(1673.339844 0)"/>
     <use xlink:href="#ArialMT-41" transform="translate(1745.556641 0)"/>
    </g>
    <!-- vs IscB ωRNA (m17) -->
    <g style="fill: #262626" transform="translate(117.587187 39.816) scale(0.18 -0.18)">
     <defs>
      <path id="ArialMT-76" d="M 1344 0 
L 81 3319 
L 675 3319 
L 1388 1331 
Q 1503 1009 1600 663 
Q 1675 925 1809 1294 
L 2547 3319 
L 3125 3319 
L 1869 0 
L 1344 0 
z
" transform="scale(0.015625)"/>
      <path id="ArialMT-73" d="M 197 991 
L 753 1078 
Q 800 744 1014 566 
Q 1228 388 1613 388 
Q 2000 388 2187 545 
Q 2375 703 2375 916 
Q 2375 1106 2209 1216 
Q 2094 1291 1634 1406 
Q 1016 1563 777 1677 
Q 538 1791 414 1992 
Q 291 2194 291 2438 
Q 291 2659 392 2848 
Q 494 3038 669 3163 
Q 800 3259 1026 3326 
Q 1253 3394 1513 3394 
Q 1903 3394 2198 3281 
Q 2494 3169 2634 2976 
Q 2775 2784 2828 2463 
L 2278 2388 
Q 2241 2644 2061 2787 
Q 1881 2931 1553 2931 
Q 1166 2931 1000 2803 
Q 834 2675 834 2503 
Q 834 2394 903 2306 
Q 972 2216 1119 2156 
Q 1203 2125 1616 2013 
Q 2213 1853 2448 1751 
Q 2684 1650 2818 1456 
Q 2953 1263 2953 975 
Q 2953 694 2789 445 
Q 2625 197 2315 61 
Q 2006 -75 1616 -75 
Q 969 -75 630 194 
Q 291 463 197 991 
z
" transform="scale(0.015625)"/>
      <path id="ArialMT-49" d="M 597 0 
L 597 4581 
L 1203 4581 
L 1203 0 
L 597 0 
z
" transform="scale(0.015625)"/>
      <path id="ArialMT-42" d="M 469 0 
L 469 4581 
L 2188 4581 
Q 2713 4581 3030 4442 
Q 3347 4303 3526 4014 
Q 3706 3725 3706 3409 
Q 3706 3116 3547 2856 
Q 3388 2597 3066 2438 
Q 3481 2316 3704 2022 
Q 3928 1728 3928 1328 
Q 3928 1006 3792 729 
Q 3656 453 3456 303 
Q 3256 153 2954 76 
Q 2653 0 2216 0 
L 469 0 
z
M 1075 2656 
L 2066 2656 
Q 2469 2656 2644 2709 
Q 2875 2778 2992 2937 
Q 3109 3097 3109 3338 
Q 3109 3566 3000 3739 
Q 2891 3913 2687 3977 
Q 2484 4041 1991 4041 
L 1075 4041 
L 1075 2656 
z
M 1075 541 
L 2216 541 
Q 2509 541 2628 563 
Q 2838 600 2978 687 
Q 3119 775 3209 942 
Q 3300 1109 3300 1328 
Q 3300 1584 3169 1773 
Q 3038 1963 2805 2039 
Q 2572 2116 2134 2116 
L 1075 2116 
L 1075 541 
z
" transform="scale(0.015625)"/>
      <path id="ArialMT-28" d="M 1497 -1347 
Q 1031 -759 709 28 
Q 388 816 388 1659 
Q 388 2403 628 3084 
Q 909 3875 1497 4659 
L 1900 4659 
Q 1522 4009 1400 3731 
Q 1209 3300 1100 2831 
Q 966 2247 966 1656 
Q 966 153 1900 -1347 
L 1497 -1347 
z
" transform="scale(0.015625)"/>
      <path id="ArialMT-37" d="M 303 3981 
L 303 4522 
L 3269 4522 
L 3269 4084 
Q 2831 3619 2401 2847 
Q 1972 2075 1738 1259 
Q 1569 684 1522 0 
L 944 0 
Q 953 541 1156 1306 
Q 1359 2072 1739 2783 
Q 2119 3494 2547 3981 
L 303 3981 
z
" transform="scale(0.015625)"/>
      <path id="ArialMT-29" d="M 791 -1347 
L 388 -1347 
Q 1322 153 1322 1656 
Q 1322 2244 1188 2822 
Q 1081 3291 891 3722 
Q 769 4003 388 4659 
L 791 4659 
Q 1378 3875 1659 3084 
Q 1900 2403 1900 1659 
Q 1900 816 1576 28 
Q 1253 -759 791 -1347 
z
" transform="scale(0.015625)"/>
     </defs>
     <use xlink:href="#ArialMT-76"/>
     <use xlink:href="#ArialMT-73" transform="translate(50 0)"/>
     <use xlink:href="#ArialMT-20" transform="translate(100 0)"/>
     <use xlink:href="#ArialMT-49" transform="translate(127.783203 0)"/>
     <use xlink:href="#ArialMT-73" transform="translate(155.566406 0)"/>
     <use xlink:href="#ArialMT-63" transform="translate(205.566406 0)"/>
     <use xlink:href="#ArialMT-42" transform="translate(255.566406 0)"/>
     <use xlink:href="#ArialMT-20" transform="translate(322.265625 0)"/>
     <use xlink:href="#ArialMT-3c9" transform="translate(350.048828 0)"/>
     <use xlink:href="#ArialMT-52" transform="translate(428.125 0)"/>
     <use xlink:href="#ArialMT-4e" transform="translate(500.341797 0)"/>
     <use xlink:href="#ArialMT-41" transform="translate(572.558594 0)"/>
     <use xlink:href="#ArialMT-20" transform="translate(633.757812 0)"/>
     <use xlink:href="#ArialMT-28" transform="translate(661.541016 0)"/>
     <use xlink:href="#ArialMT-6d" transform="translate(694.841797 0)"/>
     <use xlink:href="#ArialMT-31" transform="translate(778.142578 0)"/>
     <use xlink:href="#ArialMT-37" transform="translate(833.757812 0)"/>
     <use xlink:href="#ArialMT-29" transform="translate(889.373047 0)"/>
    </g>
   </g>
  </g>
 </g>
 <defs>
  <clipPath id="p9f05461fa0">
   <rect x="55.175" y="59.816" width="290.9025" height="335.828"/>
  </clipPath>
 </defs>
</svg>
