<?xml version="1.0" encoding="utf-8" standalone="no"?>
<!DOCTYPE svg PUBLIC "-//W3C//DTD SVG 1.1//EN"
  "http://www.w3.org/Graphics/SVG/1.1/DTD/svg11.dtd">
<svg xmlns:xlink="http://www.w3.org/1999/xlink" width="391.029687pt" height="424.5675pt" viewBox="0 0 391.029687 424.5675" xmlns="http://www.w3.org/2000/svg" version="1.1">
 <metadata>
  <rdf:RDF xmlns:dc="http://purl.org/dc/elements/1.1/" xmlns:cc="http://creativecommons.org/ns#" xmlns:rdf="http://www.w3.org/1999/02/22-rdf-syntax-ns#">
   <cc:Work>
    <dc:type rdf:resource="http://purl.org/dc/dcmitype/StillImage"/>
    <dc:date>2026-02-16T03:47:23.923220</dc:date>
    <dc:format>image/svg+xml</dc:format>
    <dc:creator>
     <cc:Agent>
      <dc:title>Matplotlib v3.10.8, https://matplotlib.org/</dc:title>
     </cc:Agent>
    </dc:creator>
   </cc:Work>
  </rdf:RDF>
 </metadata>
 <defs>
  <style type="text/css">*{stroke-linejoin: round; stroke-linecap: butt}</style>
 </defs>
 <g id="figure_1">
  <g id="patch_1">
   <path d="M 0 424.5675 
L 391.029687 424.5675 
L 391.029687 0 
L 0 0 
L 0 424.5675 
z
" style="fill: none"/>
  </g>
  <g id="axes_1">
   <g id="patch_2">
    <path d="M 54.7925 395.064062 
L 345.7625 395.064062 
L 345.7625 40.084063 
L 54.7925 40.084063 
L 54.7925 395.064062 
z
" style="fill: none"/>
   </g>
   <g id="matplotlib.axis_1">
    <g id="xtick_1">
     <g id="line2d_1">
      <defs>
       <path id="m56e218dc2a" d="M 0 0 
L 0 6 
" style="stroke: #262626; stroke-width: 2"/>
      </defs>
      <g>
       <use xlink:href="#m56e218dc2a" x="200.2775" y="395.064062" style="fill: #262626; stroke: #262626; stroke-width: 2"/>
      </g>
     </g>
     <g id="text_1">
      <!-- Generated tRNA -->
      <g style="fill: #262626" transform="translate(148.532187 414.585) scale(0.14 -0.14)">
       <defs>
        <path id="ArialMT-47" d="M 2638 1797 
L 2638 2334 
L 4578 2338 
L 4578 638 
Q 4131 281 3656 101 
Q 3181 -78 2681 -78 
Q 2006 -78 1454 211 
Q 903 500 622 1047 
Q 341 1594 341 2269 
Q 341 2938 620 3517 
Q 900 4097 1425 4378 
Q 1950 4659 2634 4659 
Q 3131 4659 3532 4498 
Q 3934 4338 4162 4050 
Q 4391 3763 4509 3300 
L 3963 3150 
Q 3859 3500 3706 3700 
Q 3553 3900 3268 4020 
Q 2984 4141 2638 4141 
Q 2222 4141 1919 4014 
Q 1616 3888 1430 3681 
Q 1244 3475 1141 3228 
Q 966 2803 966 2306 
Q 966 1694 1177 1281 
Q 1388 869 1791 669 
Q 2194 469 2647 469 
Q 3041 469 3416 620 
Q 3791 772 3984 944 
L 3984 1797 
L 2638 1797 
z
" transform="scale(0.015625)"/>
        <path id="ArialMT-65" d="M 2694 1069 
L 3275 997 
Q 3138 488 2766 206 
Q 2394 -75 1816 -75 
Q 1088 -75 661 373 
Q 234 822 234 1631 
Q 234 2469 665 2931 
Q 1097 3394 1784 3394 
Q 2450 3394 2872 2941 
Q 3294 2488 3294 1666 
Q 3294 1616 3291 1516 
L 816 1516 
Q 847 969 1125 678 
Q 1403 388 1819 388 
Q 2128 388 2347 550 
Q 2566 713 2694 1069 
z
M 847 1978 
L 2700 1978 
Q 2663 2397 2488 2606 
Q 2219 2931 1791 2931 
Q 1403 2931 1139 2672 
Q 875 2413 847 1978 
z
" transform="scale(0.015625)"/>
        <path id="ArialMT-6e" d="M 422 0 
L 422 3319 
L 928 3319 
L 928 2847 
Q 1294 3394 1984 3394 
Q 2284 3394 2536 3286 
Q 2788 3178 2913 3003 
Q 3038 2828 3088 2588 
Q 3119 2431 3119 2041 
L 3119 0 
L 2556 0 
L 2556 2019 
Q 2556 2363 2490 2533 
Q 2425 2703 2258 2804 
Q 2091 2906 1866 2906 
Q 1506 2906 1245 2678 
Q 984 2450 984 1813 
L 984 0 
L 422 0 
z
" transform="scale(0.015625)"/>
        <path id="ArialMT-72" d="M 416 0 
L 416 3319 
L 922 3319 
L 922 2816 
Q 1116 3169 1280 3281 
Q 1444 3394 1641 3394 
Q 1925 3394 2219 3213 
L 2025 2691 
Q 1819 2813 1613 2813 
Q 1428 2813 1281 2702 
Q 1134 2591 1072 2394 
Q 978 2094 978 1738 
L 978 0 
L 416 0 
z
" transform="scale(0.015625)"/>
        <path id="ArialMT-61" d="M 2588 409 
Q 2275 144 1986 34 
Q 1697 -75 1366 -75 
Q 819 -75 525 192 
Q 231 459 231 875 
Q 231 1119 342 1320 
Q 453 1522 633 1644 
Q 813 1766 1038 1828 
Q 1203 1872 1538 1913 
Q 2219 1994 2541 2106 
Q 2544 2222 2544 2253 
Q 2544 2597 2384 2738 
Q 2169 2928 1744 2928 
Q 1347 2928 1158 2789 
Q 969 2650 878 2297 
L 328 2372 
Q 403 2725 575 2942 
Q 747 3159 1072 3276 
Q 1397 3394 1825 3394 
Q 2250 3394 2515 3294 
Q 2781 3194 2906 3042 
Q 3031 2891 3081 2659 
Q 3109 2516 3109 2141 
L 3109 1391 
Q 3109 606 3145 398 
Q 3181 191 3288 0 
L 2700 0 
Q 2613 175 2588 409 
z
M 2541 1666 
Q 2234 1541 1622 1453 
Q 1275 1403 1131 1340 
Q 988 1278 909 1158 
Q 831 1038 831 891 
Q 831 666 1001 516 
Q 1172 366 1500 366 
Q 1825 366 2078 508 
Q 2331 650 2450 897 
Q 2541 1088 2541 1459 
L 2541 1666 
z
" transform="scale(0.015625)"/>
        <path id="ArialMT-74" d="M 1650 503 
L 1731 6 
Q 1494 -44 1306 -44 
Q 1000 -44 831 53 
Q 663 150 594 308 
Q 525 466 525 972 
L 525 2881 
L 113 2881 
L 113 3319 
L 525 3319 
L 525 4141 
L 1084 4478 
L 1084 3319 
L 1650 3319 
L 1650 2881 
L 1084 2881 
L 1084 941 
Q 1084 700 1114 631 
Q 1144 563 1211 522 
Q 1278 481 1403 481 
Q 1497 481 1650 503 
z
" transform="scale(0.015625)"/>
        <path id="ArialMT-64" d="M 2575 0 
L 2575 419 
Q 2259 -75 1647 -75 
Q 1250 -75 917 144 
Q 584 363 401 755 
Q 219 1147 219 1656 
Q 219 2153 384 2558 
Q 550 2963 881 3178 
Q 1213 3394 1622 3394 
Q 1922 3394 2156 3267 
Q 2391 3141 2538 2938 
L 2538 4581 
L 3097 4581 
L 3097 0 
L 2575 0 
z
M 797 1656 
Q 797 1019 1065 703 
Q 1334 388 1700 388 
Q 2069 388 2326 689 
Q 2584 991 2584 1609 
Q 2584 2291 2321 2609 
Q 2059 2928 1675 2928 
Q 1300 2928 1048 2622 
Q 797 2316 797 1656 
z
" transform="scale(0.015625)"/>
        <path id="ArialMT-20" transform="scale(0.015625)"/>
        <path id="ArialMT-52" d="M 503 0 
L 503 4581 
L 2534 4581 
Q 3147 4581 3465 4457 
Q 3784 4334 3975 4021 
Q 4166 3709 4166 3331 
Q 4166 2844 3850 2509 
Q 3534 2175 2875 2084 
Q 3116 1969 3241 1856 
Q 3506 1613 3744 1247 
L 4541 0 
L 3778 0 
L 3172 953 
Q 2906 1366 2734 1584 
Q 2563 1803 2427 1890 
Q 2291 1978 2150 2013 
Q 2047 2034 1813 2034 
L 1109 2034 
L 1109 0 
L 503 0 
z
M 1109 2559 
L 2413 2559 
Q 2828 2559 3062 2645 
Q 3297 2731 3419 2920 
Q 3541 3109 3541 3331 
Q 3541 3656 3305 3865 
Q 3069 4075 2559 4075 
L 1109 4075 
L 1109 2559 
z
" transform="scale(0.015625)"/>
        <path id="ArialMT-4e" d="M 488 0 
L 488 4581 
L 1109 4581 
L 3516 984 
L 3516 4581 
L 4097 4581 
L 4097 0 
L 3475 0 
L 1069 3600 
L 1069 0 
L 488 0 
z
" transform="scale(0.015625)"/>
        <path id="ArialMT-41" d="M -9 0 
L 1750 4581 
L 2403 4581 
L 4278 0 
L 3588 0 
L 3053 1388 
L 1138 1388 
L 634 0 
L -9 0 
z
M 1313 1881 
L 2866 1881 
L 2388 3150 
Q 2169 3728 2063 4100 
Q 1975 3659 1816 3225 
L 1313 1881 
z
" transform="scale(0.015625)"/>
       </defs>
       <use xlink:href="#ArialMT-47"/>
       <use xlink:href="#ArialMT-65" transform="translate(77.783203 0)"/>
       <use xlink:href="#ArialMT-6e" transform="translate(133.398438 0)"/>
       <use xlink:href="#ArialMT-65" transform="translate(189.013672 0)"/>
       <use xlink:href="#ArialMT-72" transform="translate(244.628906 0)"/>
       <use xlink:href="#ArialMT-61" transform="translate(277.929688 0)"/>
       <use xlink:href="#ArialMT-74" transform="translate(333.544922 0)"/>
       <use xlink:href="#ArialMT-65" transform="translate(361.328125 0)"/>
       <use xlink:href="#ArialMT-64" transform="translate(416.943359 0)"/>
       <use xlink:href="#ArialMT-20" transform="translate(472.558594 0)"/>
       <use xlink:href="#ArialMT-74" transform="translate(500.341797 0)"/>
       <use xlink:href="#ArialMT-52" transform="translate(528.125 0)"/>
       <use xlink:href="#ArialMT-4e" transform="translate(600.341797 0)"/>
       <use xlink:href="#ArialMT-41" transform="translate(672.558594 0)"/>
      </g>
     </g>
    </g>
   </g>
   <g id="matplotlib.axis_2">
    <g id="ytick_1">
     <g id="line2d_2">
      <defs>
       <path id="m6000da5bf6" d="M 0 0 
L -6 0 
" style="stroke: #262626; stroke-width: 2"/>
      </defs>
      <g>
       <use xlink:href="#m6000da5bf6" x="54.7925" y="395.064062" style="fill: #262626; stroke: #262626; stroke-width: 2"/>
      </g>
     </g>
     <g id="text_2">
      <!-- 0.0 -->
      <g style="fill: #262626" transform="translate(25.8325 400.074531) scale(0.14 -0.14)">
       <defs>
        <path id="ArialMT-30" d="M 266 2259 
Q 266 3072 433 3567 
Q 600 4063 929 4331 
Q 1259 4600 1759 4600 
Q 2128 4600 2406 4451 
Q 2684 4303 2865 4023 
Q 3047 3744 3150 3342 
Q 3253 2941 3253 2259 
Q 3253 1453 3087 958 
Q 2922 463 2592 192 
Q 2263 -78 1759 -78 
Q 1097 -78 719 397 
Q 266 969 266 2259 
z
M 844 2259 
Q 844 1131 1108 757 
Q 1372 384 1759 384 
Q 2147 384 2411 759 
Q 2675 1134 2675 2259 
Q 2675 3391 2411 3762 
Q 2147 4134 1753 4134 
Q 1366 4134 1134 3806 
Q 844 3388 844 2259 
z
" transform="scale(0.015625)"/>
        <path id="ArialMT-2e" d="M 581 0 
L 581 641 
L 1222 641 
L 1222 0 
L 581 0 
z
" transform="scale(0.015625)"/>
       </defs>
       <use xlink:href="#ArialMT-30"/>
       <use xlink:href="#ArialMT-2e" transform="translate(55.615234 0)"/>
       <use xlink:href="#ArialMT-30" transform="translate(83.398438 0)"/>
      </g>
     </g>
    </g>
    <g id="ytick_2">
     <g id="line2d_3">
      <g>
       <use xlink:href="#m6000da5bf6" x="54.7925" y="324.068062" style="fill: #262626; stroke: #262626; stroke-width: 2"/>
      </g>
     </g>
     <g id="text_3">
      <!-- 0.2 -->
      <g style="fill: #262626" transform="translate(25.8325 329.078531) scale(0.14 -0.14)">
       <defs>
        <path id="ArialMT-32" d="M 3222 541 
L 3222 0 
L 194 0 
Q 188 203 259 391 
Q 375 700 629 1000 
Q 884 1300 1366 1694 
Q 2113 2306 2375 2664 
Q 2638 3022 2638 3341 
Q 2638 3675 2398 3904 
Q 2159 4134 1775 4134 
Q 1369 4134 1125 3890 
Q 881 3647 878 3216 
L 300 3275 
Q 359 3922 746 4261 
Q 1134 4600 1788 4600 
Q 2447 4600 2831 4234 
Q 3216 3869 3216 3328 
Q 3216 3053 3103 2787 
Q 2991 2522 2730 2228 
Q 2469 1934 1863 1422 
Q 1356 997 1212 845 
Q 1069 694 975 541 
L 3222 541 
z
" transform="scale(0.015625)"/>
       </defs>
       <use xlink:href="#ArialMT-30"/>
       <use xlink:href="#ArialMT-2e" transform="translate(55.615234 0)"/>
       <use xlink:href="#ArialMT-32" transform="translate(83.398438 0)"/>
      </g>
     </g>
    </g>
    <g id="ytick_3">
     <g id="line2d_4">
      <g>
       <use xlink:href="#m6000da5bf6" x="54.7925" y="253.072062" style="fill: #262626; stroke: #262626; stroke-width: 2"/>
      </g>
     </g>
     <g id="text_4">
      <!-- 0.4 -->
      <g style="fill: #262626" transform="translate(25.8325 258.082531) scale(0.14 -0.14)">
       <defs>
        <path id="ArialMT-34" d="M 2069 0 
L 2069 1097 
L 81 1097 
L 81 1613 
L 2172 4581 
L 2631 4581 
L 2631 1613 
L 3250 1613 
L 3250 1097 
L 2631 1097 
L 2631 0 
L 2069 0 
z
M 2069 1613 
L 2069 3678 
L 634 1613 
L 2069 1613 
z
" transform="scale(0.015625)"/>
       </defs>
       <use xlink:href="#ArialMT-30"/>
       <use xlink:href="#ArialMT-2e" transform="translate(55.615234 0)"/>
       <use xlink:href="#ArialMT-34" transform="translate(83.398438 0)"/>
      </g>
     </g>
    </g>
    <g id="ytick_4">
     <g id="line2d_5">
      <g>
       <use xlink:href="#m6000da5bf6" x="54.7925" y="182.076062" style="fill: #262626; stroke: #262626; stroke-width: 2"/>
      </g>
     </g>
     <g id="text_5">
      <!-- 0.6 -->
      <g style="fill: #262626" transform="translate(25.8325 187.086531) scale(0.14 -0.14)">
       <defs>
        <path id="ArialMT-36" d="M 3184 3459 
L 2625 3416 
Q 2550 3747 2413 3897 
Q 2184 4138 1850 4138 
Q 1581 4138 1378 3988 
Q 1113 3794 959 3422 
Q 806 3050 800 2363 
Q 1003 2672 1297 2822 
Q 1591 2972 1913 2972 
Q 2475 2972 2870 2558 
Q 3266 2144 3266 1488 
Q 3266 1056 3080 686 
Q 2894 316 2569 119 
Q 2244 -78 1831 -78 
Q 1128 -78 684 439 
Q 241 956 241 2144 
Q 241 3472 731 4075 
Q 1159 4600 1884 4600 
Q 2425 4600 2770 4297 
Q 3116 3994 3184 3459 
z
M 888 1484 
Q 888 1194 1011 928 
Q 1134 663 1356 523 
Q 1578 384 1822 384 
Q 2178 384 2434 671 
Q 2691 959 2691 1453 
Q 2691 1928 2437 2201 
Q 2184 2475 1800 2475 
Q 1419 2475 1153 2201 
Q 888 1928 888 1484 
z
" transform="scale(0.015625)"/>
       </defs>
       <use xlink:href="#ArialMT-30"/>
       <use xlink:href="#ArialMT-2e" transform="translate(55.615234 0)"/>
       <use xlink:href="#ArialMT-36" transform="translate(83.398438 0)"/>
      </g>
     </g>
    </g>
    <g id="ytick_5">
     <g id="line2d_6">
      <g>
       <use xlink:href="#m6000da5bf6" x="54.7925" y="111.080062" style="fill: #262626; stroke: #262626; stroke-width: 2"/>
      </g>
     </g>
     <g id="text_6">
      <!-- 0.8 -->
      <g style="fill: #262626" transform="translate(25.8325 116.090531) scale(0.14 -0.14)">
       <defs>
        <path id="ArialMT-38" d="M 1131 2484 
Q 781 2613 612 2850 
Q 444 3088 444 3419 
Q 444 3919 803 4259 
Q 1163 4600 1759 4600 
Q 2359 4600 2725 4251 
Q 3091 3903 3091 3403 
Q 3091 3084 2923 2848 
Q 2756 2613 2416 2484 
Q 2838 2347 3058 2040 
Q 3278 1734 3278 1309 
Q 3278 722 2862 322 
Q 2447 -78 1769 -78 
Q 1091 -78 675 323 
Q 259 725 259 1325 
Q 259 1772 486 2073 
Q 713 2375 1131 2484 
z
M 1019 3438 
Q 1019 3113 1228 2906 
Q 1438 2700 1772 2700 
Q 2097 2700 2305 2904 
Q 2513 3109 2513 3406 
Q 2513 3716 2298 3927 
Q 2084 4138 1766 4138 
Q 1444 4138 1231 3931 
Q 1019 3725 1019 3438 
z
M 838 1322 
Q 838 1081 952 856 
Q 1066 631 1291 507 
Q 1516 384 1775 384 
Q 2178 384 2440 643 
Q 2703 903 2703 1303 
Q 2703 1709 2433 1975 
Q 2163 2241 1756 2241 
Q 1359 2241 1098 1978 
Q 838 1716 838 1322 
z
" transform="scale(0.015625)"/>
       </defs>
       <use xlink:href="#ArialMT-30"/>
       <use xlink:href="#ArialMT-2e" transform="translate(55.615234 0)"/>
       <use xlink:href="#ArialMT-38" transform="translate(83.398438 0)"/>
      </g>
     </g>
    </g>
    <g id="ytick_6">
     <g id="line2d_7">
      <g>
       <use xlink:href="#m6000da5bf6" x="54.7925" y="40.084063" style="fill: #262626; stroke: #262626; stroke-width: 2"/>
      </g>
     </g>
     <g id="text_7">
      <!-- 1.0 -->
      <g style="fill: #262626" transform="translate(25.8325 45.094531) scale(0.14 -0.14)">
       <defs>
        <path id="ArialMT-31" d="M 2384 0 
L 1822 0 
L 1822 3584 
Q 1619 3391 1289 3197 
Q 959 3003 697 2906 
L 697 3450 
Q 1169 3672 1522 3987 
Q 1875 4303 2022 4600 
L 2384 4600 
L 2384 0 
z
" transform="scale(0.015625)"/>
       </defs>
       <use xlink:href="#ArialMT-31"/>
       <use xlink:href="#ArialMT-2e" transform="translate(55.615234 0)"/>
       <use xlink:href="#ArialMT-30" transform="translate(83.398438 0)"/>
      </g>
     </g>
    </g>
    <g id="text_8">
     <!-- TM-score -->
     <g style="fill: #262626" transform="translate(18.6525 251.349062) rotate(-90) scale(0.16 -0.16)">
      <defs>
       <path id="ArialMT-54" d="M 1659 0 
L 1659 4041 
L 150 4041 
L 150 4581 
L 3781 4581 
L 3781 4041 
L 2266 4041 
L 2266 0 
L 1659 0 
z
" transform="scale(0.015625)"/>
       <path id="ArialMT-4d" d="M 475 0 
L 475 4581 
L 1388 4581 
L 2472 1338 
Q 2622 884 2691 659 
Q 2769 909 2934 1394 
L 4031 4581 
L 4847 4581 
L 4847 0 
L 4263 0 
L 4263 3834 
L 2931 0 
L 2384 0 
L 1059 3900 
L 1059 0 
L 475 0 
z
" transform="scale(0.015625)"/>
       <path id="ArialMT-2d" d="M 203 1375 
L 203 1941 
L 1931 1941 
L 1931 1375 
L 203 1375 
z
" transform="scale(0.015625)"/>
       <path id="ArialMT-73" d="M 197 991 
L 753 1078 
Q 800 744 1014 566 
Q 1228 388 1613 388 
Q 2000 388 2187 545 
Q 2375 703 2375 916 
Q 2375 1106 2209 1216 
Q 2094 1291 1634 1406 
Q 1016 1563 777 1677 
Q 538 1791 414 1992 
Q 291 2194 291 2438 
Q 291 2659 392 2848 
Q 494 3038 669 3163 
Q 800 3259 1026 3326 
Q 1253 3394 1513 3394 
Q 1903 3394 2198 3281 
Q 2494 3169 2634 2976 
Q 2775 2784 2828 2463 
L 2278 2388 
Q 2241 2644 2061 2787 
Q 1881 2931 1553 2931 
Q 1166 2931 1000 2803 
Q 834 2675 834 2503 
Q 834 2394 903 2306 
Q 972 2216 1119 2156 
Q 1203 2125 1616 2013 
Q 2213 1853 2448 1751 
Q 2684 1650 2818 1456 
Q 2953 1263 2953 975 
Q 2953 694 2789 445 
Q 2625 197 2315 61 
Q 2006 -75 1616 -75 
Q 969 -75 630 194 
Q 291 463 197 991 
z
" transform="scale(0.015625)"/>
       <path id="ArialMT-63" d="M 2588 1216 
L 3141 1144 
Q 3050 572 2676 248 
Q 2303 -75 1759 -75 
Q 1078 -75 664 370 
Q 250 816 250 1647 
Q 250 2184 428 2587 
Q 606 2991 970 3192 
Q 1334 3394 1763 3394 
Q 2303 3394 2647 3120 
Q 2991 2847 3088 2344 
L 2541 2259 
Q 2463 2594 2264 2762 
Q 2066 2931 1784 2931 
Q 1359 2931 1093 2626 
Q 828 2322 828 1663 
Q 828 994 1084 691 
Q 1341 388 1753 388 
Q 2084 388 2306 591 
Q 2528 794 2588 1216 
z
" transform="scale(0.015625)"/>
       <path id="ArialMT-6f" d="M 213 1659 
Q 213 2581 725 3025 
Q 1153 3394 1769 3394 
Q 2453 3394 2887 2945 
Q 3322 2497 3322 1706 
Q 3322 1066 3130 698 
Q 2938 331 2570 128 
Q 2203 -75 1769 -75 
Q 1072 -75 642 372 
Q 213 819 213 1659 
z
M 791 1659 
Q 791 1022 1069 705 
Q 1347 388 1769 388 
Q 2188 388 2466 706 
Q 2744 1025 2744 1678 
Q 2744 2294 2464 2611 
Q 2184 2928 1769 2928 
Q 1347 2928 1069 2612 
Q 791 2297 791 1659 
z
" transform="scale(0.015625)"/>
      </defs>
      <use xlink:href="#ArialMT-54"/>
      <use xlink:href="#ArialMT-4d" transform="translate(61.083984 0)"/>
      <use xlink:href="#ArialMT-2d" transform="translate(144.384766 0)"/>
      <use xlink:href="#ArialMT-73" transform="translate(177.685547 0)"/>
      <use xlink:href="#ArialMT-63" transform="translate(227.685547 0)"/>
      <use xlink:href="#ArialMT-6f" transform="translate(277.685547 0)"/>
      <use xlink:href="#ArialMT-72" transform="translate(333.300781 0)"/>
      <use xlink:href="#ArialMT-65" transform="translate(366.601562 0)"/>
     </g>
    </g>
   </g>
   <g id="FillBetweenPolyCollection_1">
    <defs>
     <path id="m81d0d61369" d="M 255.819592 -131.403996 
L 144.735408 -131.403996 
L 138.60107 -133.31888 
L 132.373902 -135.233764 
L 126.14765 -137.148648 
L 120.022187 -139.063532 
L 114.100305 -140.978416 
L 108.484189 -142.8933 
L 103.271735 -144.808185 
L 98.552899 -146.723069 
L 94.406286 -148.637953 
L 90.896151 -150.552837 
L 88.069994 -152.467721 
L 85.956876 -154.382605 
L 84.566557 -156.297489 
L 83.8895 -158.212373 
L 83.897726 -160.127257 
L 84.54648 -162.042141 
L 85.776585 -163.957025 
L 87.517356 -165.871909 
L 89.689894 -167.786793 
L 92.210577 -169.701677 
L 94.994563 -171.616561 
L 97.959113 -173.531445 
L 101.026585 -175.446329 
L 104.126959 -177.361213 
L 107.199802 -179.276097 
L 110.195613 -181.190981 
L 113.076519 -183.105865 
L 115.816351 -185.020749 
L 118.40013 -186.935633 
L 120.823052 -188.850517 
L 123.089058 -190.765401 
L 125.20909 -192.680285 
L 127.19917 -194.595169 
L 129.0784 -196.510053 
L 130.867012 -198.424937 
L 132.584574 -200.339821 
L 134.248435 -202.254705 
L 135.872514 -204.16959 
L 137.466444 -206.084474 
L 139.035148 -207.999358 
L 140.578808 -209.914242 
L 142.093223 -211.829126 
L 143.570496 -213.74401 
L 144.999972 -215.658894 
L 146.369339 -217.573778 
L 147.665789 -219.488662 
L 148.87714 -221.403546 
L 149.992823 -223.31843 
L 151.004673 -225.233314 
L 151.907456 -227.148198 
L 152.699124 -229.063082 
L 153.380802 -230.977966 
L 153.956535 -232.89285 
L 154.432846 -234.807734 
L 154.818183 -236.722618 
L 155.122319 -238.637502 
L 155.355771 -240.552386 
L 155.529306 -242.46727 
L 155.653573 -244.382154 
L 155.73887 -246.297038 
L 155.795074 -248.211922 
L 155.831678 -250.126806 
L 155.857939 -252.04169 
L 155.883063 -253.956574 
L 155.916394 -255.871458 
L 155.967558 -257.786342 
L 156.046525 -259.701226 
L 156.163569 -261.61611 
L 156.329112 -263.530995 
L 156.553466 -265.445879 
L 156.846492 -267.360763 
L 157.217213 -269.275647 
L 157.673414 -271.190531 
L 158.221282 -273.105415 
L 158.86511 -275.020299 
L 159.607112 -276.935183 
L 160.447345 -278.850067 
L 161.383761 -280.764951 
L 162.412376 -282.679835 
L 163.527522 -284.594719 
L 164.722178 -286.509603 
L 165.98832 -288.424487 
L 167.317275 -290.339371 
L 168.700036 -292.254255 
L 170.127528 -294.169139 
L 171.590794 -296.084023 
L 173.08111 -297.998907 
L 174.590027 -299.913791 
L 176.10936 -301.828675 
L 177.631133 -303.743559 
L 179.147511 -305.658443 
L 180.650738 -307.573327 
L 182.133096 -309.488211 
L 183.586905 -311.403095 
L 185.004561 -313.317979 
L 186.378624 -315.232863 
L 187.701947 -317.147747 
L 188.967833 -319.062631 
L 190.170203 -320.977515 
L 210.384797 -320.977515 
L 210.384797 -320.977515 
L 211.587167 -319.062631 
L 212.853053 -317.147747 
L 214.176376 -315.232863 
L 215.550439 -313.317979 
L 216.968095 -311.403095 
L 218.421904 -309.488211 
L 219.904262 -307.573327 
L 221.407489 -305.658443 
L 222.923867 -303.743559 
L 224.44564 -301.828675 
L 225.964973 -299.913791 
L 227.47389 -297.998907 
L 228.964206 -296.084023 
L 230.427472 -294.169139 
L 231.854964 -292.254255 
L 233.237725 -290.339371 
L 234.56668 -288.424487 
L 235.832822 -286.509603 
L 237.027478 -284.594719 
L 238.142624 -282.679835 
L 239.171239 -280.764951 
L 240.107655 -278.850067 
L 240.947888 -276.935183 
L 241.68989 -275.020299 
L 242.333718 -273.105415 
L 242.881586 -271.190531 
L 243.337787 -269.275647 
L 243.708508 -267.360763 
L 244.001534 -265.445879 
L 244.225888 -263.530995 
L 244.391431 -261.61611 
L 244.508475 -259.701226 
L 244.587442 -257.786342 
L 244.638606 -255.871458 
L 244.671937 -253.956574 
L 244.697061 -252.04169 
L 244.723322 -250.126806 
L 244.759926 -248.211922 
L 244.81613 -246.297038 
L 244.901427 -244.382154 
L 245.025694 -242.46727 
L 245.199229 -240.552386 
L 245.432681 -238.637502 
L 245.736817 -236.722618 
L 246.122154 -234.807734 
L 246.598465 -232.89285 
L 247.174198 -230.977966 
L 247.855876 -229.063082 
L 248.647544 -227.148198 
L 249.550327 -225.233314 
L 250.562177 -223.31843 
L 251.67786 -221.403546 
L 252.889211 -219.488662 
L 254.185661 -217.573778 
L 255.555028 -215.658894 
L 256.984504 -213.74401 
L 258.461777 -211.829126 
L 259.976192 -209.914242 
L 261.519852 -207.999358 
L 263.088556 -206.084474 
L 264.682486 -204.16959 
L 266.306565 -202.254705 
L 267.970426 -200.339821 
L 269.687988 -198.424937 
L 271.4766 -196.510053 
L 273.35583 -194.595169 
L 275.34591 -192.680285 
L 277.465942 -190.765401 
L 279.731948 -188.850517 
L 282.15487 -186.935633 
L 284.738649 -185.020749 
L 287.478481 -183.105865 
L 290.359387 -181.190981 
L 293.355198 -179.276097 
L 296.428041 -177.361213 
L 299.528415 -175.446329 
L 302.595887 -173.531445 
L 305.560437 -171.616561 
L 308.344423 -169.701677 
L 310.865106 -167.786793 
L 313.037644 -165.871909 
L 314.778415 -163.957025 
L 316.00852 -162.042141 
L 316.657274 -160.127257 
L 316.6655 -158.212373 
L 315.988443 -156.297489 
L 314.598124 -154.382605 
L 312.485006 -152.467721 
L 309.658849 -150.552837 
L 306.148714 -148.637953 
L 302.002101 -146.723069 
L 297.283265 -144.808185 
L 292.070811 -142.8933 
L 286.454695 -140.978416 
L 280.532813 -139.063532 
L 274.40735 -137.148648 
L 268.181098 -135.233764 
L 261.95393 -133.31888 
L 255.819592 -131.403996 
z
" style="stroke: #797979; stroke-width: 1.5"/>
    </defs>
    <g clip-path="url(#p5bb3a2c8c9)">
     <use xlink:href="#m81d0d61369" x="0" y="424.5675" style="fill: #f2c9a1; stroke: #797979; stroke-width: 1.5"/>
    </g>
   </g>
   <g id="line2d_8">
    <path d="M 200.2775 293.163504 
L 200.2775 103.589984 
" clip-path="url(#p5bb3a2c8c9)" style="fill: none; stroke: #797979; stroke-width: 2.25; stroke-linecap: round"/>
   </g>
   <g id="line2d_9">
    <path d="M 200.2775 267.406155 
L 200.2775 186.821258 
" clip-path="url(#p5bb3a2c8c9)" style="fill: none; stroke: #797979; stroke-width: 6.75; stroke-linecap: round"/>
   </g>
   <g id="line2d_10">
    <path d="M 200.2775 238.264072 
" clip-path="url(#p5bb3a2c8c9)" style="fill: none; stroke: #797979; stroke-width: 1.5; stroke-linecap: round"/>
    <defs>
     <path id="mc236c92478" d="M 2.8125 0 
L -2.8125 -0 
" style="stroke: #ffffff; stroke-width: 1.35"/>
    </defs>
    <g clip-path="url(#p5bb3a2c8c9)">
     <use xlink:href="#mc236c92478" x="200.2775" y="238.264072" style="fill: #ffffff; stroke: #ffffff; stroke-width: 1.35"/>
    </g>
   </g>
   <g id="patch_3">
    <path d="M 54.7925 395.064062 
L 54.7925 40.084063 
" style="fill: none; stroke: #262626; stroke-width: 2; stroke-linejoin: miter; stroke-linecap: square"/>
   </g>
   <g id="patch_4">
    <path d="M 54.7925 395.064062 
L 345.7625 395.064062 
" style="fill: none; stroke: #262626; stroke-width: 2; stroke-linejoin: miter; stroke-linecap: square"/>
   </g>
   <g id="text_9">
    <!-- TM-score of Generated tRNA vs Natural tRNA -->
    <g style="fill: #262626" transform="translate(16.725312 20.084063) scale(0.18 -0.18)">
     <defs>
      <path id="ArialMT-66" d="M 556 0 
L 556 2881 
L 59 2881 
L 59 3319 
L 556 3319 
L 556 3672 
Q 556 4006 616 4169 
Q 697 4388 901 4523 
Q 1106 4659 1475 4659 
Q 1713 4659 2000 4603 
L 1916 4113 
Q 1741 4144 1584 4144 
Q 1328 4144 1222 4034 
Q 1116 3925 1116 3625 
L 1116 3319 
L 1763 3319 
L 1763 2881 
L 1116 2881 
L 1116 0 
L 556 0 
z
" transform="scale(0.015625)"/>
      <path id="ArialMT-76" d="M 1344 0 
L 81 3319 
L 675 3319 
L 1388 1331 
Q 1503 1009 1600 663 
Q 1675 925 1809 1294 
L 2547 3319 
L 3125 3319 
L 1869 0 
L 1344 0 
z
" transform="scale(0.015625)"/>
      <path id="ArialMT-75" d="M 2597 0 
L 2597 488 
Q 2209 -75 1544 -75 
Q 1250 -75 995 37 
Q 741 150 617 320 
Q 494 491 444 738 
Q 409 903 409 1263 
L 409 3319 
L 972 3319 
L 972 1478 
Q 972 1038 1006 884 
Q 1059 663 1231 536 
Q 1403 409 1656 409 
Q 1909 409 2131 539 
Q 2353 669 2445 892 
Q 2538 1116 2538 1541 
L 2538 3319 
L 3100 3319 
L 3100 0 
L 2597 0 
z
" transform="scale(0.015625)"/>
      <path id="ArialMT-6c" d="M 409 0 
L 409 4581 
L 972 4581 
L 972 0 
L 409 0 
z
" transform="scale(0.015625)"/>
     </defs>
     <use xlink:href="#ArialMT-54"/>
     <use xlink:href="#ArialMT-4d" transform="translate(61.083984 0)"/>
     <use xlink:href="#ArialMT-2d" transform="translate(144.384766 0)"/>
     <use xlink:href="#ArialMT-73" transform="translate(177.685547 0)"/>
     <use xlink:href="#ArialMT-63" transform="translate(227.685547 0)"/>
     <use xlink:href="#ArialMT-6f" transform="translate(277.685547 0)"/>
     <use xlink:href="#ArialMT-72" transform="translate(333.300781 0)"/>
     <use xlink:href="#ArialMT-65" transform="translate(366.601562 0)"/>
     <use xlink:href="#ArialMT-20" transform="translate(422.216797 0)"/>
     <use xlink:href="#ArialMT-6f" transform="translate(450 0)"/>
     <use xlink:href="#ArialMT-66" transform="translate(505.615234 0)"/>
     <use xlink:href="#ArialMT-20" transform="translate(533.398438 0)"/>
     <use xlink:href="#ArialMT-47" transform="translate(561.181641 0)"/>
     <use xlink:href="#ArialMT-65" transform="translate(638.964844 0)"/>
     <use xlink:href="#ArialMT-6e" transform="translate(694.580078 0)"/>
     <use xlink:href="#ArialMT-65" transform="translate(750.195312 0)"/>
     <use xlink:href="#ArialMT-72" transform="translate(805.810547 0)"/>
     <use xlink:href="#ArialMT-61" transform="translate(839.111328 0)"/>
     <use xlink:href="#ArialMT-74" transform="translate(894.726562 0)"/>
     <use xlink:href="#ArialMT-65" transform="translate(922.509766 0)"/>
     <use xlink:href="#ArialMT-64" transform="translate(978.125 0)"/>
     <use xlink:href="#ArialMT-20" transform="translate(1033.740234 0)"/>
     <use xlink:href="#ArialMT-74" transform="translate(1061.523438 0)"/>
     <use xlink:href="#ArialMT-52" transform="translate(1089.306641 0)"/>
     <use xlink:href="#ArialMT-4e" transform="translate(1161.523438 0)"/>
     <use xlink:href="#ArialMT-41" transform="translate(1233.740234 0)"/>
     <use xlink:href="#ArialMT-20" transform="translate(1294.939453 0)"/>
     <use xlink:href="#ArialMT-76" transform="translate(1322.722656 0)"/>
     <use xlink:href="#ArialMT-73" transform="translate(1372.722656 0)"/>
     <use xlink:href="#ArialMT-20" transform="translate(1422.722656 0)"/>
     <use xlink:href="#ArialMT-4e" transform="translate(1450.505859 0)"/>
     <use xlink:href="#ArialMT-61" transform="translate(1522.722656 0)"/>
     <use xlink:href="#ArialMT-74" transform="translate(1578.337891 0)"/>
     <use xlink:href="#ArialMT-75" transform="translate(1606.121094 0)"/>
     <use xlink:href="#ArialMT-72" transform="translate(1661.736328 0)"/>
     <use xlink:href="#ArialMT-61" transform="translate(1695.037109 0)"/>
     <use xlink:href="#ArialMT-6c" transform="translate(1750.652344 0)"/>
     <use xlink:href="#ArialMT-20" transform="translate(1772.869141 0)"/>
     <use xlink:href="#ArialMT-74" transform="translate(1800.652344 0)"/>
     <use xlink:href="#ArialMT-52" transform="translate(1828.435547 0)"/>
     <use xlink:href="#ArialMT-4e" transform="translate(1900.652344 0)"/>
     <use xlink:href="#ArialMT-41" transform="translate(1972.869141 0)"/>
    </g>
   </g>
  </g>
 </g>
 <defs>
  <clipPath id="p5bb3a2c8c9">
   <rect x="54.7925" y="40.084063" width="290.97" height="354.98"/>
  </clipPath>
 </defs>
</svg>
