<?xml version="1.0" encoding="utf-8" standalone="no"?>
<!DOCTYPE svg PUBLIC "-//W3C//DTD SVG 1.1//EN"
  "http://www.w3.org/Graphics/SVG/1.1/DTD/svg11.dtd">
<svg xmlns:xlink="http://www.w3.org/1999/xlink" width="682.5675pt" height="247.67875pt" viewBox="0 0 682.5675 247.67875" xmlns="http://www.w3.org/2000/svg" version="1.1">
 <metadata>
  <rdf:RDF xmlns:dc="http://purl.org/dc/elements/1.1/" xmlns:cc="http://creativecommons.org/ns#" xmlns:rdf="http://www.w3.org/1999/02/22-rdf-syntax-ns#">
   <cc:Work>
    <dc:type rdf:resource="http://purl.org/dc/dcmitype/StillImage"/>
    <dc:date>2026-02-22T06:22:47.272785</dc:date>
    <dc:format>image/svg+xml</dc:format>
    <dc:creator>
     <cc:Agent>
      <dc:title>Matplotlib v3.10.8, https://matplotlib.org/</dc:title>
     </cc:Agent>
    </dc:creator>
   </cc:Work>
  </rdf:RDF>
 </metadata>
 <defs>
  <style type="text/css">*{stroke-linejoin: round; stroke-linecap: butt}</style>
 </defs>
 <g id="figure_1">
  <g id="patch_1">
   <path d="M 0 247.67875 
L 682.5675 247.67875 
L 682.5675 0 
L 0 0 
L 0 247.67875 
z
" style="fill: none"/>
  </g>
  <g id="axes_1">
   <g id="patch_2">
    <path d="M 68.4275 197.08 
L 328.3275 197.08 
L 328.3275 7.2 
L 68.4275 7.2 
L 68.4275 197.08 
z
" style="fill: none"/>
   </g>
   <g id="patch_3">
    <path d="M 80.241136 197.08 
L 85.063029 197.08 
L 85.063029 104.433882 
L 80.241136 104.433882 
z
" clip-path="url(#p13c5428c95)" style="fill: #f27a6d; opacity: 0.8"/>
   </g>
   <g id="patch_4">
    <path d="M 85.063029 197.08 
L 89.884921 197.08 
L 89.884921 118.241717 
L 85.063029 118.241717 
z
" clip-path="url(#p13c5428c95)" style="fill: #f27a6d; opacity: 0.8"/>
   </g>
   <g id="patch_5">
    <path d="M 89.884921 197.08 
L 94.706814 197.08 
L 94.706814 101.761398 
L 89.884921 101.761398 
z
" clip-path="url(#p13c5428c95)" style="fill: #f27a6d; opacity: 0.8"/>
   </g>
   <g id="patch_6">
    <path d="M 94.706814 197.08 
L 99.528706 197.08 
L 99.528706 96.41643 
L 94.706814 96.41643 
z
" clip-path="url(#p13c5428c95)" style="fill: #f27a6d; opacity: 0.8"/>
   </g>
   <g id="patch_7">
    <path d="M 99.528706 197.08 
L 104.350598 197.08 
L 104.350598 70.137002 
L 99.528706 70.137002 
z
" clip-path="url(#p13c5428c95)" style="fill: #f27a6d; opacity: 0.8"/>
   </g>
   <g id="patch_8">
    <path d="M 104.350598 197.08 
L 109.172491 197.08 
L 109.172491 71.918658 
L 104.350598 71.918658 
z
" clip-path="url(#p13c5428c95)" style="fill: #f27a6d; opacity: 0.8"/>
   </g>
   <g id="patch_9">
    <path d="M 109.172491 197.08 
L 113.994383 197.08 
L 113.994383 44.302989 
L 109.172491 44.302989 
z
" clip-path="url(#p13c5428c95)" style="fill: #f27a6d; opacity: 0.8"/>
   </g>
   <g id="patch_10">
    <path d="M 113.994383 197.08 
L 118.816276 197.08 
L 118.816276 24.259357 
L 113.994383 24.259357 
z
" clip-path="url(#p13c5428c95)" style="fill: #f27a6d; opacity: 0.8"/>
   </g>
   <g id="patch_11">
    <path d="M 118.816276 197.08 
L 123.638168 197.08 
L 123.638168 19.359803 
L 118.816276 19.359803 
z
" clip-path="url(#p13c5428c95)" style="fill: #f27a6d; opacity: 0.8"/>
   </g>
   <g id="patch_12">
    <path d="M 123.638168 197.08 
L 128.46006 197.08 
L 128.46006 31.385982 
L 123.638168 31.385982 
z
" clip-path="url(#p13c5428c95)" style="fill: #f27a6d; opacity: 0.8"/>
   </g>
   <g id="patch_13">
    <path d="M 128.46006 197.08 
L 133.281953 197.08 
L 133.281953 16.241905 
L 128.46006 16.241905 
z
" clip-path="url(#p13c5428c95)" style="fill: #f27a6d; opacity: 0.8"/>
   </g>
   <g id="patch_14">
    <path d="M 133.281953 197.08 
L 138.103845 197.08 
L 138.103845 26.041013 
L 133.281953 26.041013 
z
" clip-path="url(#p13c5428c95)" style="fill: #f27a6d; opacity: 0.8"/>
   </g>
   <g id="patch_15">
    <path d="M 138.103845 197.08 
L 142.925737 197.08 
L 142.925737 40.739676 
L 138.103845 40.739676 
z
" clip-path="url(#p13c5428c95)" style="fill: #f27a6d; opacity: 0.8"/>
   </g>
   <g id="patch_16">
    <path d="M 142.925737 197.08 
L 147.74763 197.08 
L 147.74763 42.075918 
L 142.925737 42.075918 
z
" clip-path="url(#p13c5428c95)" style="fill: #f27a6d; opacity: 0.8"/>
   </g>
   <g id="patch_17">
    <path d="M 147.74763 197.08 
L 152.569522 197.08 
L 152.569522 62.11955 
L 147.74763 62.11955 
z
" clip-path="url(#p13c5428c95)" style="fill: #f27a6d; opacity: 0.8"/>
   </g>
   <g id="patch_18">
    <path d="M 152.569522 197.08 
L 157.391415 197.08 
L 157.391415 70.582416 
L 152.569522 70.582416 
z
" clip-path="url(#p13c5428c95)" style="fill: #f27a6d; opacity: 0.8"/>
   </g>
   <g id="patch_19">
    <path d="M 157.391415 197.08 
L 162.213307 197.08 
L 162.213307 83.054009 
L 157.391415 83.054009 
z
" clip-path="url(#p13c5428c95)" style="fill: #f27a6d; opacity: 0.8"/>
   </g>
   <g id="patch_20">
    <path d="M 162.213307 197.08 
L 167.035199 197.08 
L 167.035199 88.844391 
L 162.213307 88.844391 
z
" clip-path="url(#p13c5428c95)" style="fill: #f27a6d; opacity: 0.8"/>
   </g>
   <g id="patch_21">
    <path d="M 167.035199 197.08 
L 171.857092 197.08 
L 171.857092 115.123819 
L 167.035199 115.123819 
z
" clip-path="url(#p13c5428c95)" style="fill: #f27a6d; opacity: 0.8"/>
   </g>
   <g id="patch_22">
    <path d="M 171.857092 197.08 
L 176.678984 197.08 
L 176.678984 121.359615 
L 171.857092 121.359615 
z
" clip-path="url(#p13c5428c95)" style="fill: #f27a6d; opacity: 0.8"/>
   </g>
   <g id="patch_23">
    <path d="M 176.678984 197.08 
L 181.500877 197.08 
L 181.500877 134.722036 
L 176.678984 134.722036 
z
" clip-path="url(#p13c5428c95)" style="fill: #f27a6d; opacity: 0.8"/>
   </g>
   <g id="patch_24">
    <path d="M 181.500877 197.08 
L 186.322769 197.08 
L 186.322769 147.193629 
L 181.500877 147.193629 
z
" clip-path="url(#p13c5428c95)" style="fill: #f27a6d; opacity: 0.8"/>
   </g>
   <g id="patch_25">
    <path d="M 186.322769 197.08 
L 191.144661 197.08 
L 191.144661 150.756941 
L 186.322769 150.756941 
z
" clip-path="url(#p13c5428c95)" style="fill: #f27a6d; opacity: 0.8"/>
   </g>
   <g id="patch_26">
    <path d="M 191.144661 197.08 
L 195.966554 197.08 
L 195.966554 166.791846 
L 191.144661 166.791846 
z
" clip-path="url(#p13c5428c95)" style="fill: #f27a6d; opacity: 0.8"/>
   </g>
   <g id="patch_27">
    <path d="M 195.966554 197.08 
L 200.788446 197.08 
L 200.788446 166.791846 
L 195.966554 166.791846 
z
" clip-path="url(#p13c5428c95)" style="fill: #f27a6d; opacity: 0.8"/>
   </g>
   <g id="patch_28">
    <path d="M 200.788446 197.08 
L 205.610339 197.08 
L 205.610339 165.01019 
L 200.788446 165.01019 
z
" clip-path="url(#p13c5428c95)" style="fill: #f27a6d; opacity: 0.8"/>
   </g>
   <g id="patch_29">
    <path d="M 205.610339 197.08 
L 210.432231 197.08 
L 210.432231 172.582228 
L 205.610339 172.582228 
z
" clip-path="url(#p13c5428c95)" style="fill: #f27a6d; opacity: 0.8"/>
   </g>
   <g id="patch_30">
    <path d="M 210.432231 197.08 
L 215.254123 197.08 
L 215.254123 173.473057 
L 210.432231 173.473057 
z
" clip-path="url(#p13c5428c95)" style="fill: #f27a6d; opacity: 0.8"/>
   </g>
   <g id="patch_31">
    <path d="M 215.254123 197.08 
L 220.076016 197.08 
L 220.076016 173.473057 
L 215.254123 173.473057 
z
" clip-path="url(#p13c5428c95)" style="fill: #f27a6d; opacity: 0.8"/>
   </g>
   <g id="patch_32">
    <path d="M 220.076016 197.08 
L 224.897908 197.08 
L 224.897908 177.481783 
L 220.076016 177.481783 
z
" clip-path="url(#p13c5428c95)" style="fill: #f27a6d; opacity: 0.8"/>
   </g>
   <g id="patch_33">
    <path d="M 224.897908 197.08 
L 229.719801 197.08 
L 229.719801 174.809299 
L 224.897908 174.809299 
z
" clip-path="url(#p13c5428c95)" style="fill: #f27a6d; opacity: 0.8"/>
   </g>
   <g id="patch_34">
    <path d="M 229.719801 197.08 
L 234.541693 197.08 
L 234.541693 178.818025 
L 229.719801 178.818025 
z
" clip-path="url(#p13c5428c95)" style="fill: #f27a6d; opacity: 0.8"/>
   </g>
   <g id="patch_35">
    <path d="M 234.541693 197.08 
L 239.363585 197.08 
L 239.363585 178.818025 
L 234.541693 178.818025 
z
" clip-path="url(#p13c5428c95)" style="fill: #f27a6d; opacity: 0.8"/>
   </g>
   <g id="patch_36">
    <path d="M 239.363585 197.08 
L 244.185478 197.08 
L 244.185478 152.984011 
L 239.363585 152.984011 
z
" clip-path="url(#p13c5428c95)" style="fill: #f27a6d; opacity: 0.8"/>
   </g>
   <g id="patch_37">
    <path d="M 244.185478 197.08 
L 249.00737 197.08 
L 249.00737 168.128088 
L 244.185478 168.128088 
z
" clip-path="url(#p13c5428c95)" style="fill: #f27a6d; opacity: 0.8"/>
   </g>
   <g id="patch_38">
    <path d="M 249.00737 197.08 
L 253.829263 197.08 
L 253.829263 152.093183 
L 249.00737 152.093183 
z
" clip-path="url(#p13c5428c95)" style="fill: #f27a6d; opacity: 0.8"/>
   </g>
   <g id="patch_39">
    <path d="M 253.829263 197.08 
L 258.651155 197.08 
L 258.651155 161.446878 
L 253.829263 161.446878 
z
" clip-path="url(#p13c5428c95)" style="fill: #f27a6d; opacity: 0.8"/>
   </g>
   <g id="patch_40">
    <path d="M 258.651155 197.08 
L 263.473047 197.08 
L 263.473047 156.547323 
L 258.651155 156.547323 
z
" clip-path="url(#p13c5428c95)" style="fill: #f27a6d; opacity: 0.8"/>
   </g>
   <g id="patch_41">
    <path d="M 263.473047 197.08 
L 268.29494 197.08 
L 268.29494 166.346432 
L 263.473047 166.346432 
z
" clip-path="url(#p13c5428c95)" style="fill: #f27a6d; opacity: 0.8"/>
   </g>
   <g id="patch_42">
    <path d="M 268.29494 197.08 
L 273.116832 197.08 
L 273.116832 169.909744 
L 268.29494 169.909744 
z
" clip-path="url(#p13c5428c95)" style="fill: #f27a6d; opacity: 0.8"/>
   </g>
   <g id="patch_43">
    <path d="M 273.116832 197.08 
L 277.938724 197.08 
L 277.938724 175.254713 
L 273.116832 175.254713 
z
" clip-path="url(#p13c5428c95)" style="fill: #f27a6d; opacity: 0.8"/>
   </g>
   <g id="patch_44">
    <path d="M 277.938724 197.08 
L 282.760617 197.08 
L 282.760617 187.280891 
L 277.938724 187.280891 
z
" clip-path="url(#p13c5428c95)" style="fill: #f27a6d; opacity: 0.8"/>
   </g>
   <g id="patch_45">
    <path d="M 282.760617 197.08 
L 287.582509 197.08 
L 287.582509 185.053821 
L 282.760617 185.053821 
z
" clip-path="url(#p13c5428c95)" style="fill: #f27a6d; opacity: 0.8"/>
   </g>
   <g id="patch_46">
    <path d="M 287.582509 197.08 
L 292.404402 197.08 
L 292.404402 190.39879 
L 287.582509 190.39879 
z
" clip-path="url(#p13c5428c95)" style="fill: #f27a6d; opacity: 0.8"/>
   </g>
   <g id="patch_47">
    <path d="M 292.404402 197.08 
L 297.226294 197.08 
L 297.226294 188.171719 
L 292.404402 188.171719 
z
" clip-path="url(#p13c5428c95)" style="fill: #f27a6d; opacity: 0.8"/>
   </g>
   <g id="patch_48">
    <path d="M 297.226294 197.08 
L 302.048186 197.08 
L 302.048186 194.85293 
L 297.226294 194.85293 
z
" clip-path="url(#p13c5428c95)" style="fill: #f27a6d; opacity: 0.8"/>
   </g>
   <g id="patch_49">
    <path d="M 302.048186 197.08 
L 306.870079 197.08 
L 306.870079 193.962102 
L 302.048186 193.962102 
z
" clip-path="url(#p13c5428c95)" style="fill: #f27a6d; opacity: 0.8"/>
   </g>
   <g id="patch_50">
    <path d="M 306.870079 197.08 
L 311.691971 197.08 
L 311.691971 197.08 
L 306.870079 197.08 
z
" clip-path="url(#p13c5428c95)" style="fill: #f27a6d; opacity: 0.8"/>
   </g>
   <g id="patch_51">
    <path d="M 311.691971 197.08 
L 316.513864 197.08 
L 316.513864 197.08 
L 311.691971 197.08 
z
" clip-path="url(#p13c5428c95)" style="fill: #f27a6d; opacity: 0.8"/>
   </g>
   <g id="matplotlib.axis_1">
    <g id="xtick_1">
     <g id="line2d_1">
      <defs>
       <path id="mde61ed6808" d="M 0 0 
L 0 3.5 
" style="stroke: #000000; stroke-width: 0.8"/>
      </defs>
      <g>
       <use xlink:href="#mde61ed6808" x="147.74763" y="197.08" style="stroke: #000000; stroke-width: 0.8"/>
      </g>
     </g>
     <g id="text_1">
      <!-- -5 -->
      <g transform="translate(137.07888 221.25875) scale(0.24 -0.24)">
       <defs>
        <path id="ArialMT-2d" d="M 203 1375 
L 203 1941 
L 1931 1941 
L 1931 1375 
L 203 1375 
z
" transform="scale(0.015625)"/>
        <path id="ArialMT-35" d="M 266 1200 
L 856 1250 
Q 922 819 1161 601 
Q 1400 384 1738 384 
Q 2144 384 2425 690 
Q 2706 997 2706 1503 
Q 2706 1984 2436 2262 
Q 2166 2541 1728 2541 
Q 1456 2541 1237 2417 
Q 1019 2294 894 2097 
L 366 2166 
L 809 4519 
L 3088 4519 
L 3088 3981 
L 1259 3981 
L 1013 2750 
Q 1425 3038 1878 3038 
Q 2478 3038 2890 2622 
Q 3303 2206 3303 1553 
Q 3303 931 2941 478 
Q 2500 -78 1738 -78 
Q 1113 -78 717 272 
Q 322 622 266 1200 
z
" transform="scale(0.015625)"/>
       </defs>
       <use xlink:href="#ArialMT-2d"/>
       <use xlink:href="#ArialMT-35" transform="translate(33.300781 0)"/>
      </g>
     </g>
    </g>
    <g id="xtick_2">
     <g id="line2d_2">
      <g>
       <use xlink:href="#mde61ed6808" x="316.513864" y="197.08" style="stroke: #000000; stroke-width: 0.8"/>
      </g>
     </g>
     <g id="text_2">
      <!-- 0 -->
      <g transform="translate(309.840739 221.25875) scale(0.24 -0.24)">
       <defs>
        <path id="ArialMT-30" d="M 266 2259 
Q 266 3072 433 3567 
Q 600 4063 929 4331 
Q 1259 4600 1759 4600 
Q 2128 4600 2406 4451 
Q 2684 4303 2865 4023 
Q 3047 3744 3150 3342 
Q 3253 2941 3253 2259 
Q 3253 1453 3087 958 
Q 2922 463 2592 192 
Q 2263 -78 1759 -78 
Q 1097 -78 719 397 
Q 266 969 266 2259 
z
M 844 2259 
Q 844 1131 1108 757 
Q 1372 384 1759 384 
Q 2147 384 2411 759 
Q 2675 1134 2675 2259 
Q 2675 3391 2411 3762 
Q 2147 4134 1753 4134 
Q 1366 4134 1134 3806 
Q 844 3388 844 2259 
z
" transform="scale(0.015625)"/>
       </defs>
       <use xlink:href="#ArialMT-30"/>
      </g>
     </g>
    </g>
    <g id="text_3">
     <!-- Log$_{10}$(Density) -->
     <g transform="translate(162.0775 238.05875) scale(0.11 -0.11)">
      <defs>
       <path id="ArialMT-4c" d="M 469 0 
L 469 4581 
L 1075 4581 
L 1075 541 
L 3331 541 
L 3331 0 
L 469 0 
z
" transform="scale(0.015625)"/>
       <path id="ArialMT-6f" d="M 213 1659 
Q 213 2581 725 3025 
Q 1153 3394 1769 3394 
Q 2453 3394 2887 2945 
Q 3322 2497 3322 1706 
Q 3322 1066 3130 698 
Q 2938 331 2570 128 
Q 2203 -75 1769 -75 
Q 1072 -75 642 372 
Q 213 819 213 1659 
z
M 791 1659 
Q 791 1022 1069 705 
Q 1347 388 1769 388 
Q 2188 388 2466 706 
Q 2744 1025 2744 1678 
Q 2744 2294 2464 2611 
Q 2184 2928 1769 2928 
Q 1347 2928 1069 2612 
Q 791 2297 791 1659 
z
" transform="scale(0.015625)"/>
       <path id="ArialMT-67" d="M 319 -275 
L 866 -356 
Q 900 -609 1056 -725 
Q 1266 -881 1628 -881 
Q 2019 -881 2231 -725 
Q 2444 -569 2519 -288 
Q 2563 -116 2559 434 
Q 2191 0 1641 0 
Q 956 0 581 494 
Q 206 988 206 1678 
Q 206 2153 378 2554 
Q 550 2956 876 3175 
Q 1203 3394 1644 3394 
Q 2231 3394 2613 2919 
L 2613 3319 
L 3131 3319 
L 3131 450 
Q 3131 -325 2973 -648 
Q 2816 -972 2473 -1159 
Q 2131 -1347 1631 -1347 
Q 1038 -1347 672 -1080 
Q 306 -813 319 -275 
z
M 784 1719 
Q 784 1066 1043 766 
Q 1303 466 1694 466 
Q 2081 466 2343 764 
Q 2606 1063 2606 1700 
Q 2606 2309 2336 2618 
Q 2066 2928 1684 2928 
Q 1309 2928 1046 2623 
Q 784 2319 784 1719 
z
" transform="scale(0.015625)"/>
       <path id="DejaVuSans-31" d="M 794 531 
L 1825 531 
L 1825 4091 
L 703 3866 
L 703 4441 
L 1819 4666 
L 2450 4666 
L 2450 531 
L 3481 531 
L 3481 0 
L 794 0 
L 794 531 
z
" transform="scale(0.015625)"/>
       <path id="DejaVuSans-30" d="M 2034 4250 
Q 1547 4250 1301 3770 
Q 1056 3291 1056 2328 
Q 1056 1369 1301 889 
Q 1547 409 2034 409 
Q 2525 409 2770 889 
Q 3016 1369 3016 2328 
Q 3016 3291 2770 3770 
Q 2525 4250 2034 4250 
z
M 2034 4750 
Q 2819 4750 3233 4129 
Q 3647 3509 3647 2328 
Q 3647 1150 3233 529 
Q 2819 -91 2034 -91 
Q 1250 -91 836 529 
Q 422 1150 422 2328 
Q 422 3509 836 4129 
Q 1250 4750 2034 4750 
z
" transform="scale(0.015625)"/>
       <path id="ArialMT-28" d="M 1497 -1347 
Q 1031 -759 709 28 
Q 388 816 388 1659 
Q 388 2403 628 3084 
Q 909 3875 1497 4659 
L 1900 4659 
Q 1522 4009 1400 3731 
Q 1209 3300 1100 2831 
Q 966 2247 966 1656 
Q 966 153 1900 -1347 
L 1497 -1347 
z
" transform="scale(0.015625)"/>
       <path id="ArialMT-44" d="M 494 0 
L 494 4581 
L 2072 4581 
Q 2606 4581 2888 4516 
Q 3281 4425 3559 4188 
Q 3922 3881 4101 3404 
Q 4281 2928 4281 2316 
Q 4281 1794 4159 1391 
Q 4038 988 3847 723 
Q 3656 459 3429 307 
Q 3203 156 2883 78 
Q 2563 0 2147 0 
L 494 0 
z
M 1100 541 
L 2078 541 
Q 2531 541 2789 625 
Q 3047 709 3200 863 
Q 3416 1078 3536 1442 
Q 3656 1806 3656 2325 
Q 3656 3044 3420 3430 
Q 3184 3816 2847 3947 
Q 2603 4041 2063 4041 
L 1100 4041 
L 1100 541 
z
" transform="scale(0.015625)"/>
       <path id="ArialMT-65" d="M 2694 1069 
L 3275 997 
Q 3138 488 2766 206 
Q 2394 -75 1816 -75 
Q 1088 -75 661 373 
Q 234 822 234 1631 
Q 234 2469 665 2931 
Q 1097 3394 1784 3394 
Q 2450 3394 2872 2941 
Q 3294 2488 3294 1666 
Q 3294 1616 3291 1516 
L 816 1516 
Q 847 969 1125 678 
Q 1403 388 1819 388 
Q 2128 388 2347 550 
Q 2566 713 2694 1069 
z
M 847 1978 
L 2700 1978 
Q 2663 2397 2488 2606 
Q 2219 2931 1791 2931 
Q 1403 2931 1139 2672 
Q 875 2413 847 1978 
z
" transform="scale(0.015625)"/>
       <path id="ArialMT-6e" d="M 422 0 
L 422 3319 
L 928 3319 
L 928 2847 
Q 1294 3394 1984 3394 
Q 2284 3394 2536 3286 
Q 2788 3178 2913 3003 
Q 3038 2828 3088 2588 
Q 3119 2431 3119 2041 
L 3119 0 
L 2556 0 
L 2556 2019 
Q 2556 2363 2490 2533 
Q 2425 2703 2258 2804 
Q 2091 2906 1866 2906 
Q 1506 2906 1245 2678 
Q 984 2450 984 1813 
L 984 0 
L 422 0 
z
" transform="scale(0.015625)"/>
       <path id="ArialMT-73" d="M 197 991 
L 753 1078 
Q 800 744 1014 566 
Q 1228 388 1613 388 
Q 2000 388 2187 545 
Q 2375 703 2375 916 
Q 2375 1106 2209 1216 
Q 2094 1291 1634 1406 
Q 1016 1563 777 1677 
Q 538 1791 414 1992 
Q 291 2194 291 2438 
Q 291 2659 392 2848 
Q 494 3038 669 3163 
Q 800 3259 1026 3326 
Q 1253 3394 1513 3394 
Q 1903 3394 2198 3281 
Q 2494 3169 2634 2976 
Q 2775 2784 2828 2463 
L 2278 2388 
Q 2241 2644 2061 2787 
Q 1881 2931 1553 2931 
Q 1166 2931 1000 2803 
Q 834 2675 834 2503 
Q 834 2394 903 2306 
Q 972 2216 1119 2156 
Q 1203 2125 1616 2013 
Q 2213 1853 2448 1751 
Q 2684 1650 2818 1456 
Q 2953 1263 2953 975 
Q 2953 694 2789 445 
Q 2625 197 2315 61 
Q 2006 -75 1616 -75 
Q 969 -75 630 194 
Q 291 463 197 991 
z
" transform="scale(0.015625)"/>
       <path id="ArialMT-69" d="M 425 3934 
L 425 4581 
L 988 4581 
L 988 3934 
L 425 3934 
z
M 425 0 
L 425 3319 
L 988 3319 
L 988 0 
L 425 0 
z
" transform="scale(0.015625)"/>
       <path id="ArialMT-74" d="M 1650 503 
L 1731 6 
Q 1494 -44 1306 -44 
Q 1000 -44 831 53 
Q 663 150 594 308 
Q 525 466 525 972 
L 525 2881 
L 113 2881 
L 113 3319 
L 525 3319 
L 525 4141 
L 1084 4478 
L 1084 3319 
L 1650 3319 
L 1650 2881 
L 1084 2881 
L 1084 941 
Q 1084 700 1114 631 
Q 1144 563 1211 522 
Q 1278 481 1403 481 
Q 1497 481 1650 503 
z
" transform="scale(0.015625)"/>
       <path id="ArialMT-79" d="M 397 -1278 
L 334 -750 
Q 519 -800 656 -800 
Q 844 -800 956 -737 
Q 1069 -675 1141 -563 
Q 1194 -478 1313 -144 
Q 1328 -97 1363 -6 
L 103 3319 
L 709 3319 
L 1400 1397 
Q 1534 1031 1641 628 
Q 1738 1016 1872 1384 
L 2581 3319 
L 3144 3319 
L 1881 -56 
Q 1678 -603 1566 -809 
Q 1416 -1088 1222 -1217 
Q 1028 -1347 759 -1347 
Q 597 -1347 397 -1278 
z
" transform="scale(0.015625)"/>
       <path id="ArialMT-29" d="M 791 -1347 
L 388 -1347 
Q 1322 153 1322 1656 
Q 1322 2244 1188 2822 
Q 1081 3291 891 3722 
Q 769 4003 388 4659 
L 791 4659 
Q 1378 3875 1659 3084 
Q 1900 2403 1900 1659 
Q 1900 816 1576 28 
Q 1253 -759 791 -1347 
z
" transform="scale(0.015625)"/>
      </defs>
      <use xlink:href="#ArialMT-4c" transform="translate(0 0.203125)"/>
      <use xlink:href="#ArialMT-6f" transform="translate(55.615234 0.203125)"/>
      <use xlink:href="#ArialMT-67" transform="translate(111.230469 0.203125)"/>
      <use xlink:href="#DejaVuSans-31" transform="translate(167.802734 -16.203125) scale(0.7)"/>
      <use xlink:href="#DejaVuSans-30" transform="translate(212.338867 -16.203125) scale(0.7)"/>
      <use xlink:href="#ArialMT-28" transform="translate(259.609375 0.203125)"/>
      <use xlink:href="#ArialMT-44" transform="translate(292.910156 0.203125)"/>
      <use xlink:href="#ArialMT-65" transform="translate(365.126953 0.203125)"/>
      <use xlink:href="#ArialMT-6e" transform="translate(420.742188 0.203125)"/>
      <use xlink:href="#ArialMT-73" transform="translate(476.357422 0.203125)"/>
      <use xlink:href="#ArialMT-69" transform="translate(526.357422 0.203125)"/>
      <use xlink:href="#ArialMT-74" transform="translate(548.574219 0.203125)"/>
      <use xlink:href="#ArialMT-79" transform="translate(576.357422 0.203125)"/>
      <use xlink:href="#ArialMT-29" transform="translate(626.357422 0.203125)"/>
     </g>
    </g>
   </g>
   <g id="matplotlib.axis_2">
    <g id="ytick_1">
     <g id="line2d_3">
      <defs>
       <path id="m46070661b1" d="M 0 0 
L -3.5 0 
" style="stroke: #000000; stroke-width: 0.8"/>
      </defs>
      <g>
       <use xlink:href="#m46070661b1" x="68.4275" y="197.08" style="stroke: #000000; stroke-width: 0.8"/>
      </g>
     </g>
     <g id="text_4">
      <!-- 0 -->
      <g transform="translate(48.08125 205.669375) scale(0.24 -0.24)">
       <use xlink:href="#ArialMT-30"/>
      </g>
     </g>
    </g>
    <g id="ytick_2">
     <g id="line2d_4">
      <g>
       <use xlink:href="#m46070661b1" x="68.4275" y="107.997194" style="stroke: #000000; stroke-width: 0.8"/>
      </g>
     </g>
     <g id="text_5">
      <!-- 200 -->
      <g transform="translate(21.38875 116.586569) scale(0.24 -0.24)">
       <defs>
        <path id="ArialMT-32" d="M 3222 541 
L 3222 0 
L 194 0 
Q 188 203 259 391 
Q 375 700 629 1000 
Q 884 1300 1366 1694 
Q 2113 2306 2375 2664 
Q 2638 3022 2638 3341 
Q 2638 3675 2398 3904 
Q 2159 4134 1775 4134 
Q 1369 4134 1125 3890 
Q 881 3647 878 3216 
L 300 3275 
Q 359 3922 746 4261 
Q 1134 4600 1788 4600 
Q 2447 4600 2831 4234 
Q 3216 3869 3216 3328 
Q 3216 3053 3103 2787 
Q 2991 2522 2730 2228 
Q 2469 1934 1863 1422 
Q 1356 997 1212 845 
Q 1069 694 975 541 
L 3222 541 
z
" transform="scale(0.015625)"/>
       </defs>
       <use xlink:href="#ArialMT-32"/>
       <use xlink:href="#ArialMT-30" transform="translate(55.615234 0)"/>
       <use xlink:href="#ArialMT-30" transform="translate(111.230469 0)"/>
      </g>
     </g>
    </g>
    <g id="ytick_3">
     <g id="line2d_5">
      <g>
       <use xlink:href="#m46070661b1" x="68.4275" y="18.914389" style="stroke: #000000; stroke-width: 0.8"/>
      </g>
     </g>
     <g id="text_6">
      <!-- 400 -->
      <g transform="translate(21.38875 27.503764) scale(0.24 -0.24)">
       <defs>
        <path id="ArialMT-34" d="M 2069 0 
L 2069 1097 
L 81 1097 
L 81 1613 
L 2172 4581 
L 2631 4581 
L 2631 1613 
L 3250 1613 
L 3250 1097 
L 2631 1097 
L 2631 0 
L 2069 0 
z
M 2069 1613 
L 2069 3678 
L 634 1613 
L 2069 1613 
z
" transform="scale(0.015625)"/>
       </defs>
       <use xlink:href="#ArialMT-34"/>
       <use xlink:href="#ArialMT-30" transform="translate(55.615234 0)"/>
       <use xlink:href="#ArialMT-30" transform="translate(111.230469 0)"/>
      </g>
     </g>
    </g>
    <g id="text_7">
     <!-- Frequency -->
     <g transform="translate(15.073594 128.123203) rotate(-90) scale(0.11 -0.11)">
      <defs>
       <path id="ArialMT-46" d="M 525 0 
L 525 4581 
L 3616 4581 
L 3616 4041 
L 1131 4041 
L 1131 2622 
L 3281 2622 
L 3281 2081 
L 1131 2081 
L 1131 0 
L 525 0 
z
" transform="scale(0.015625)"/>
       <path id="ArialMT-72" d="M 416 0 
L 416 3319 
L 922 3319 
L 922 2816 
Q 1116 3169 1280 3281 
Q 1444 3394 1641 3394 
Q 1925 3394 2219 3213 
L 2025 2691 
Q 1819 2813 1613 2813 
Q 1428 2813 1281 2702 
Q 1134 2591 1072 2394 
Q 978 2094 978 1738 
L 978 0 
L 416 0 
z
" transform="scale(0.015625)"/>
       <path id="ArialMT-71" d="M 2538 -1272 
L 2538 353 
Q 2406 169 2170 47 
Q 1934 -75 1669 -75 
Q 1078 -75 651 397 
Q 225 869 225 1691 
Q 225 2191 398 2587 
Q 572 2984 901 3189 
Q 1231 3394 1625 3394 
Q 2241 3394 2594 2875 
L 2594 3319 
L 3100 3319 
L 3100 -1272 
L 2538 -1272 
z
M 803 1669 
Q 803 1028 1072 708 
Q 1341 388 1716 388 
Q 2075 388 2334 692 
Q 2594 997 2594 1619 
Q 2594 2281 2320 2615 
Q 2047 2950 1678 2950 
Q 1313 2950 1058 2639 
Q 803 2328 803 1669 
z
" transform="scale(0.015625)"/>
       <path id="ArialMT-75" d="M 2597 0 
L 2597 488 
Q 2209 -75 1544 -75 
Q 1250 -75 995 37 
Q 741 150 617 320 
Q 494 491 444 738 
Q 409 903 409 1263 
L 409 3319 
L 972 3319 
L 972 1478 
Q 972 1038 1006 884 
Q 1059 663 1231 536 
Q 1403 409 1656 409 
Q 1909 409 2131 539 
Q 2353 669 2445 892 
Q 2538 1116 2538 1541 
L 2538 3319 
L 3100 3319 
L 3100 0 
L 2597 0 
z
" transform="scale(0.015625)"/>
       <path id="ArialMT-63" d="M 2588 1216 
L 3141 1144 
Q 3050 572 2676 248 
Q 2303 -75 1759 -75 
Q 1078 -75 664 370 
Q 250 816 250 1647 
Q 250 2184 428 2587 
Q 606 2991 970 3192 
Q 1334 3394 1763 3394 
Q 2303 3394 2647 3120 
Q 2991 2847 3088 2344 
L 2541 2259 
Q 2463 2594 2264 2762 
Q 2066 2931 1784 2931 
Q 1359 2931 1093 2626 
Q 828 2322 828 1663 
Q 828 994 1084 691 
Q 1341 388 1753 388 
Q 2084 388 2306 591 
Q 2528 794 2588 1216 
z
" transform="scale(0.015625)"/>
      </defs>
      <use xlink:href="#ArialMT-46"/>
      <use xlink:href="#ArialMT-72" transform="translate(61.083984 0)"/>
      <use xlink:href="#ArialMT-65" transform="translate(94.384766 0)"/>
      <use xlink:href="#ArialMT-71" transform="translate(150 0)"/>
      <use xlink:href="#ArialMT-75" transform="translate(205.615234 0)"/>
      <use xlink:href="#ArialMT-65" transform="translate(261.230469 0)"/>
      <use xlink:href="#ArialMT-6e" transform="translate(316.845703 0)"/>
      <use xlink:href="#ArialMT-63" transform="translate(372.460938 0)"/>
      <use xlink:href="#ArialMT-79" transform="translate(422.460938 0)"/>
     </g>
    </g>
   </g>
   <g id="patch_52">
    <path d="M 68.4275 197.08 
L 68.4275 7.2 
" style="fill: none; stroke: #ffffff; stroke-width: 0.8; stroke-linejoin: miter; stroke-linecap: square"/>
   </g>
   <g id="patch_53">
    <path d="M 68.4275 197.08 
L 328.3275 197.08 
" style="fill: none; stroke: #ffffff; stroke-width: 0.8; stroke-linejoin: miter; stroke-linecap: square"/>
   </g>
   <g id="text_8">
    <!-- Prokaryotic -->
    <g style="fill: #f27a6d" transform="translate(255.3175 25.283375) scale(0.12 -0.12)">
     <defs>
      <path id="ArialMT-50" d="M 494 0 
L 494 4581 
L 2222 4581 
Q 2678 4581 2919 4538 
Q 3256 4481 3484 4323 
Q 3713 4166 3852 3881 
Q 3991 3597 3991 3256 
Q 3991 2672 3619 2267 
Q 3247 1863 2275 1863 
L 1100 1863 
L 1100 0 
L 494 0 
z
M 1100 2403 
L 2284 2403 
Q 2872 2403 3119 2622 
Q 3366 2841 3366 3238 
Q 3366 3525 3220 3729 
Q 3075 3934 2838 4000 
Q 2684 4041 2272 4041 
L 1100 4041 
L 1100 2403 
z
" transform="scale(0.015625)"/>
      <path id="ArialMT-6b" d="M 425 0 
L 425 4581 
L 988 4581 
L 988 1969 
L 2319 3319 
L 3047 3319 
L 1778 2088 
L 3175 0 
L 2481 0 
L 1384 1697 
L 988 1316 
L 988 0 
L 425 0 
z
" transform="scale(0.015625)"/>
      <path id="ArialMT-61" d="M 2588 409 
Q 2275 144 1986 34 
Q 1697 -75 1366 -75 
Q 819 -75 525 192 
Q 231 459 231 875 
Q 231 1119 342 1320 
Q 453 1522 633 1644 
Q 813 1766 1038 1828 
Q 1203 1872 1538 1913 
Q 2219 1994 2541 2106 
Q 2544 2222 2544 2253 
Q 2544 2597 2384 2738 
Q 2169 2928 1744 2928 
Q 1347 2928 1158 2789 
Q 969 2650 878 2297 
L 328 2372 
Q 403 2725 575 2942 
Q 747 3159 1072 3276 
Q 1397 3394 1825 3394 
Q 2250 3394 2515 3294 
Q 2781 3194 2906 3042 
Q 3031 2891 3081 2659 
Q 3109 2516 3109 2141 
L 3109 1391 
Q 3109 606 3145 398 
Q 3181 191 3288 0 
L 2700 0 
Q 2613 175 2588 409 
z
M 2541 1666 
Q 2234 1541 1622 1453 
Q 1275 1403 1131 1340 
Q 988 1278 909 1158 
Q 831 1038 831 891 
Q 831 666 1001 516 
Q 1172 366 1500 366 
Q 1825 366 2078 508 
Q 2331 650 2450 897 
Q 2541 1088 2541 1459 
L 2541 1666 
z
" transform="scale(0.015625)"/>
     </defs>
     <use xlink:href="#ArialMT-50"/>
     <use xlink:href="#ArialMT-72" transform="translate(66.699219 0)"/>
     <use xlink:href="#ArialMT-6f" transform="translate(100 0)"/>
     <use xlink:href="#ArialMT-6b" transform="translate(155.615234 0)"/>
     <use xlink:href="#ArialMT-61" transform="translate(205.615234 0)"/>
     <use xlink:href="#ArialMT-72" transform="translate(261.230469 0)"/>
     <use xlink:href="#ArialMT-79" transform="translate(294.53125 0)"/>
     <use xlink:href="#ArialMT-6f" transform="translate(344.53125 0)"/>
     <use xlink:href="#ArialMT-74" transform="translate(400.146484 0)"/>
     <use xlink:href="#ArialMT-69" transform="translate(427.929688 0)"/>
     <use xlink:href="#ArialMT-63" transform="translate(450.146484 0)"/>
    </g>
   </g>
  </g>
  <g id="axes_2">
   <g id="patch_54">
    <path d="M 415.4675 197.08 
L 675.3675 197.08 
L 675.3675 7.2 
L 415.4675 7.2 
L 415.4675 197.08 
z
" style="fill: none"/>
   </g>
   <g id="patch_55">
    <path d="M 427.281136 197.08 
L 432.103029 197.08 
L 432.103029 72.079632 
L 427.281136 72.079632 
z
" clip-path="url(#p243cf951b2)" style="fill: #87ceeb; opacity: 0.8"/>
   </g>
   <g id="patch_56">
    <path d="M 432.103029 197.08 
L 436.924921 197.08 
L 436.924921 16.241905 
L 432.103029 16.241905 
z
" clip-path="url(#p243cf951b2)" style="fill: #87ceeb; opacity: 0.8"/>
   </g>
   <g id="patch_57">
    <path d="M 436.924921 197.08 
L 441.746814 197.08 
L 441.746814 46.064327 
L 436.924921 46.064327 
z
" clip-path="url(#p243cf951b2)" style="fill: #87ceeb; opacity: 0.8"/>
   </g>
   <g id="patch_58">
    <path d="M 441.746814 197.08 
L 446.568706 197.08 
L 446.568706 42.57447 
L 441.746814 42.57447 
z
" clip-path="url(#p243cf951b2)" style="fill: #87ceeb; opacity: 0.8"/>
   </g>
   <g id="patch_59">
    <path d="M 446.568706 197.08 
L 451.390598 197.08 
L 451.390598 49.236926 
L 446.568706 49.236926 
z
" clip-path="url(#p243cf951b2)" style="fill: #87ceeb; opacity: 0.8"/>
   </g>
   <g id="patch_60">
    <path d="M 451.390598 197.08 
L 456.212491 197.08 
L 456.212491 71.127853 
L 451.390598 71.127853 
z
" clip-path="url(#p243cf951b2)" style="fill: #87ceeb; opacity: 0.8"/>
   </g>
   <g id="patch_61">
    <path d="M 456.212491 197.08 
L 461.034383 197.08 
L 461.034383 98.412197 
L 456.212491 98.412197 
z
" clip-path="url(#p243cf951b2)" style="fill: #87ceeb; opacity: 0.8"/>
   </g>
   <g id="patch_62">
    <path d="M 461.034383 197.08 
L 465.856276 197.08 
L 465.856276 112.054369 
L 461.034383 112.054369 
z
" clip-path="url(#p243cf951b2)" style="fill: #87ceeb; opacity: 0.8"/>
   </g>
   <g id="patch_63">
    <path d="M 465.856276 197.08 
L 470.678168 197.08 
L 470.678168 123.792982 
L 465.856276 123.792982 
z
" clip-path="url(#p243cf951b2)" style="fill: #87ceeb; opacity: 0.8"/>
   </g>
   <g id="patch_64">
    <path d="M 470.678168 197.08 
L 475.50006 197.08 
L 475.50006 138.704194 
L 470.678168 138.704194 
z
" clip-path="url(#p243cf951b2)" style="fill: #87ceeb; opacity: 0.8"/>
   </g>
   <g id="patch_65">
    <path d="M 475.50006 197.08 
L 480.321953 197.08 
L 480.321953 153.298145 
L 475.50006 153.298145 
z
" clip-path="url(#p243cf951b2)" style="fill: #87ceeb; opacity: 0.8"/>
   </g>
   <g id="patch_66">
    <path d="M 480.321953 197.08 
L 485.143845 197.08 
L 485.143845 154.567185 
L 480.321953 154.567185 
z
" clip-path="url(#p243cf951b2)" style="fill: #87ceeb; opacity: 0.8"/>
   </g>
   <g id="patch_67">
    <path d="M 485.143845 197.08 
L 489.965737 197.08 
L 489.965737 163.767719 
L 485.143845 163.767719 
z
" clip-path="url(#p243cf951b2)" style="fill: #87ceeb; opacity: 0.8"/>
   </g>
   <g id="patch_68">
    <path d="M 489.965737 197.08 
L 494.78763 197.08 
L 494.78763 169.161136 
L 489.965737 169.161136 
z
" clip-path="url(#p243cf951b2)" style="fill: #87ceeb; opacity: 0.8"/>
   </g>
   <g id="patch_69">
    <path d="M 494.78763 197.08 
L 499.609522 197.08 
L 499.609522 162.49868 
L 494.78763 162.49868 
z
" clip-path="url(#p243cf951b2)" style="fill: #87ceeb; opacity: 0.8"/>
   </g>
   <g id="patch_70">
    <path d="M 499.609522 197.08 
L 504.431415 197.08 
L 504.431415 175.506332 
L 499.609522 175.506332 
z
" clip-path="url(#p243cf951b2)" style="fill: #87ceeb; opacity: 0.8"/>
   </g>
   <g id="patch_71">
    <path d="M 504.431415 197.08 
L 509.253307 197.08 
L 509.253307 173.920033 
L 504.431415 173.920033 
z
" clip-path="url(#p243cf951b2)" style="fill: #87ceeb; opacity: 0.8"/>
   </g>
   <g id="patch_72">
    <path d="M 509.253307 197.08 
L 514.075199 197.08 
L 514.075199 176.140852 
L 509.253307 176.140852 
z
" clip-path="url(#p243cf951b2)" style="fill: #87ceeb; opacity: 0.8"/>
   </g>
   <g id="patch_73">
    <path d="M 514.075199 197.08 
L 518.897092 197.08 
L 518.897092 181.851529 
L 514.075199 181.851529 
z
" clip-path="url(#p243cf951b2)" style="fill: #87ceeb; opacity: 0.8"/>
   </g>
   <g id="patch_74">
    <path d="M 518.897092 197.08 
L 523.718984 197.08 
L 523.718984 180.58249 
L 518.897092 180.58249 
z
" clip-path="url(#p243cf951b2)" style="fill: #87ceeb; opacity: 0.8"/>
   </g>
   <g id="patch_75">
    <path d="M 523.718984 197.08 
L 528.540877 197.08 
L 528.540877 182.486048 
L 523.718984 182.486048 
z
" clip-path="url(#p243cf951b2)" style="fill: #87ceeb; opacity: 0.8"/>
   </g>
   <g id="patch_76">
    <path d="M 528.540877 197.08 
L 533.362769 197.08 
L 533.362769 179.94797 
L 528.540877 179.94797 
z
" clip-path="url(#p243cf951b2)" style="fill: #87ceeb; opacity: 0.8"/>
   </g>
   <g id="patch_77">
    <path d="M 533.362769 197.08 
L 538.184661 197.08 
L 538.184661 185.024127 
L 533.362769 185.024127 
z
" clip-path="url(#p243cf951b2)" style="fill: #87ceeb; opacity: 0.8"/>
   </g>
   <g id="patch_78">
    <path d="M 538.184661 197.08 
L 543.006554 197.08 
L 543.006554 187.244946 
L 538.184661 187.244946 
z
" clip-path="url(#p243cf951b2)" style="fill: #87ceeb; opacity: 0.8"/>
   </g>
   <g id="patch_79">
    <path d="M 543.006554 197.08 
L 547.828446 197.08 
L 547.828446 187.562206 
L 543.006554 187.562206 
z
" clip-path="url(#p243cf951b2)" style="fill: #87ceeb; opacity: 0.8"/>
   </g>
   <g id="patch_80">
    <path d="M 547.828446 197.08 
L 552.650339 197.08 
L 552.650339 185.341387 
L 547.828446 185.341387 
z
" clip-path="url(#p243cf951b2)" style="fill: #87ceeb; opacity: 0.8"/>
   </g>
   <g id="patch_81">
    <path d="M 552.650339 197.08 
L 557.472231 197.08 
L 557.472231 187.562206 
L 552.650339 187.562206 
z
" clip-path="url(#p243cf951b2)" style="fill: #87ceeb; opacity: 0.8"/>
   </g>
   <g id="patch_82">
    <path d="M 557.472231 197.08 
L 562.294123 197.08 
L 562.294123 186.927686 
L 557.472231 186.927686 
z
" clip-path="url(#p243cf951b2)" style="fill: #87ceeb; opacity: 0.8"/>
   </g>
   <g id="patch_83">
    <path d="M 562.294123 197.08 
L 567.116016 197.08 
L 567.116016 190.417544 
L 562.294123 190.417544 
z
" clip-path="url(#p243cf951b2)" style="fill: #87ceeb; opacity: 0.8"/>
   </g>
   <g id="patch_84">
    <path d="M 567.116016 197.08 
L 571.937908 197.08 
L 571.937908 188.831245 
L 567.116016 188.831245 
z
" clip-path="url(#p243cf951b2)" style="fill: #87ceeb; opacity: 0.8"/>
   </g>
   <g id="patch_85">
    <path d="M 571.937908 197.08 
L 576.759801 197.08 
L 576.759801 178.678931 
L 571.937908 178.678931 
z
" clip-path="url(#p243cf951b2)" style="fill: #87ceeb; opacity: 0.8"/>
   </g>
   <g id="patch_86">
    <path d="M 576.759801 197.08 
L 581.581693 197.08 
L 581.581693 179.63071 
L 576.759801 179.63071 
z
" clip-path="url(#p243cf951b2)" style="fill: #87ceeb; opacity: 0.8"/>
   </g>
   <g id="patch_87">
    <path d="M 581.581693 197.08 
L 586.403585 197.08 
L 586.403585 180.58249 
L 581.581693 180.58249 
z
" clip-path="url(#p243cf951b2)" style="fill: #87ceeb; opacity: 0.8"/>
   </g>
   <g id="patch_88">
    <path d="M 586.403585 197.08 
L 591.225478 197.08 
L 591.225478 173.285514 
L 586.403585 173.285514 
z
" clip-path="url(#p243cf951b2)" style="fill: #87ceeb; opacity: 0.8"/>
   </g>
   <g id="patch_89">
    <path d="M 591.225478 197.08 
L 596.04737 197.08 
L 596.04737 171.699215 
L 591.225478 171.699215 
z
" clip-path="url(#p243cf951b2)" style="fill: #87ceeb; opacity: 0.8"/>
   </g>
   <g id="patch_90">
    <path d="M 596.04737 197.08 
L 600.869263 197.08 
L 600.869263 170.430175 
L 596.04737 170.430175 
z
" clip-path="url(#p243cf951b2)" style="fill: #87ceeb; opacity: 0.8"/>
   </g>
   <g id="patch_91">
    <path d="M 600.869263 197.08 
L 605.691155 197.08 
L 605.691155 165.988538 
L 600.869263 165.988538 
z
" clip-path="url(#p243cf951b2)" style="fill: #87ceeb; opacity: 0.8"/>
   </g>
   <g id="patch_92">
    <path d="M 605.691155 197.08 
L 610.513047 197.08 
L 610.513047 169.478396 
L 605.691155 169.478396 
z
" clip-path="url(#p243cf951b2)" style="fill: #87ceeb; opacity: 0.8"/>
   </g>
   <g id="patch_93">
    <path d="M 610.513047 197.08 
L 615.33494 197.08 
L 615.33494 169.161136 
L 610.513047 169.161136 
z
" clip-path="url(#p243cf951b2)" style="fill: #87ceeb; opacity: 0.8"/>
   </g>
   <g id="patch_94">
    <path d="M 615.33494 197.08 
L 620.156832 197.08 
L 620.156832 179.63071 
L 615.33494 179.63071 
z
" clip-path="url(#p243cf951b2)" style="fill: #87ceeb; opacity: 0.8"/>
   </g>
   <g id="patch_95">
    <path d="M 620.156832 197.08 
L 624.978724 197.08 
L 624.978724 181.851529 
L 620.156832 181.851529 
z
" clip-path="url(#p243cf951b2)" style="fill: #87ceeb; opacity: 0.8"/>
   </g>
   <g id="patch_96">
    <path d="M 624.978724 197.08 
L 629.800617 197.08 
L 629.800617 192.638363 
L 624.978724 192.638363 
z
" clip-path="url(#p243cf951b2)" style="fill: #87ceeb; opacity: 0.8"/>
   </g>
   <g id="patch_97">
    <path d="M 629.800617 197.08 
L 634.622509 197.08 
L 634.622509 192.321103 
L 629.800617 192.321103 
z
" clip-path="url(#p243cf951b2)" style="fill: #87ceeb; opacity: 0.8"/>
   </g>
   <g id="patch_98">
    <path d="M 634.622509 197.08 
L 639.444402 197.08 
L 639.444402 181.851529 
L 634.622509 181.851529 
z
" clip-path="url(#p243cf951b2)" style="fill: #87ceeb; opacity: 0.8"/>
   </g>
   <g id="patch_99">
    <path d="M 639.444402 197.08 
L 644.266294 197.08 
L 644.266294 197.08 
L 639.444402 197.08 
z
" clip-path="url(#p243cf951b2)" style="fill: #87ceeb; opacity: 0.8"/>
   </g>
   <g id="patch_100">
    <path d="M 644.266294 197.08 
L 649.088186 197.08 
L 649.088186 197.08 
L 644.266294 197.08 
z
" clip-path="url(#p243cf951b2)" style="fill: #87ceeb; opacity: 0.8"/>
   </g>
   <g id="patch_101">
    <path d="M 649.088186 197.08 
L 653.910079 197.08 
L 653.910079 197.08 
L 649.088186 197.08 
z
" clip-path="url(#p243cf951b2)" style="fill: #87ceeb; opacity: 0.8"/>
   </g>
   <g id="patch_102">
    <path d="M 653.910079 197.08 
L 658.731971 197.08 
L 658.731971 197.08 
L 653.910079 197.08 
z
" clip-path="url(#p243cf951b2)" style="fill: #87ceeb; opacity: 0.8"/>
   </g>
   <g id="patch_103">
    <path d="M 658.731971 197.08 
L 663.553864 197.08 
L 663.553864 197.08 
L 658.731971 197.08 
z
" clip-path="url(#p243cf951b2)" style="fill: #87ceeb; opacity: 0.8"/>
   </g>
   <g id="matplotlib.axis_3">
    <g id="xtick_3">
     <g id="line2d_6">
      <g>
       <use xlink:href="#mde61ed6808" x="494.78763" y="197.08" style="stroke: #000000; stroke-width: 0.8"/>
      </g>
     </g>
     <g id="text_9">
      <!-- -5 -->
      <g transform="translate(484.11888 221.25875) scale(0.24 -0.24)">
       <use xlink:href="#ArialMT-2d"/>
       <use xlink:href="#ArialMT-35" transform="translate(33.300781 0)"/>
      </g>
     </g>
    </g>
    <g id="xtick_4">
     <g id="line2d_7">
      <g>
       <use xlink:href="#mde61ed6808" x="663.553864" y="197.08" style="stroke: #000000; stroke-width: 0.8"/>
      </g>
     </g>
     <g id="text_10">
      <!-- 0 -->
      <g transform="translate(656.880739 221.25875) scale(0.24 -0.24)">
       <use xlink:href="#ArialMT-30"/>
      </g>
     </g>
    </g>
    <g id="text_11">
     <!-- Log$_{10}$(Density) -->
     <g transform="translate(509.1175 238.05875) scale(0.11 -0.11)">
      <use xlink:href="#ArialMT-4c" transform="translate(0 0.203125)"/>
      <use xlink:href="#ArialMT-6f" transform="translate(55.615234 0.203125)"/>
      <use xlink:href="#ArialMT-67" transform="translate(111.230469 0.203125)"/>
      <use xlink:href="#DejaVuSans-31" transform="translate(167.802734 -16.203125) scale(0.7)"/>
      <use xlink:href="#DejaVuSans-30" transform="translate(212.338867 -16.203125) scale(0.7)"/>
      <use xlink:href="#ArialMT-28" transform="translate(259.609375 0.203125)"/>
      <use xlink:href="#ArialMT-44" transform="translate(292.910156 0.203125)"/>
      <use xlink:href="#ArialMT-65" transform="translate(365.126953 0.203125)"/>
      <use xlink:href="#ArialMT-6e" transform="translate(420.742188 0.203125)"/>
      <use xlink:href="#ArialMT-73" transform="translate(476.357422 0.203125)"/>
      <use xlink:href="#ArialMT-69" transform="translate(526.357422 0.203125)"/>
      <use xlink:href="#ArialMT-74" transform="translate(548.574219 0.203125)"/>
      <use xlink:href="#ArialMT-79" transform="translate(576.357422 0.203125)"/>
      <use xlink:href="#ArialMT-29" transform="translate(626.357422 0.203125)"/>
     </g>
    </g>
   </g>
   <g id="matplotlib.axis_4">
    <g id="ytick_4">
     <g id="line2d_8">
      <g>
       <use xlink:href="#m46070661b1" x="415.4675" y="197.08" style="stroke: #000000; stroke-width: 0.8"/>
      </g>
     </g>
     <g id="text_12">
      <!-- 0 -->
      <g transform="translate(395.12125 205.669375) scale(0.24 -0.24)">
       <use xlink:href="#ArialMT-30"/>
      </g>
     </g>
    </g>
    <g id="ytick_5">
     <g id="line2d_9">
      <g>
       <use xlink:href="#m46070661b1" x="415.4675" y="133.628037" style="stroke: #000000; stroke-width: 0.8"/>
      </g>
     </g>
     <g id="text_13">
      <!-- 200 -->
      <g transform="translate(368.42875 142.217412) scale(0.24 -0.24)">
       <use xlink:href="#ArialMT-32"/>
       <use xlink:href="#ArialMT-30" transform="translate(55.615234 0)"/>
       <use xlink:href="#ArialMT-30" transform="translate(111.230469 0)"/>
      </g>
     </g>
    </g>
    <g id="ytick_6">
     <g id="line2d_10">
      <g>
       <use xlink:href="#m46070661b1" x="415.4675" y="70.176074" style="stroke: #000000; stroke-width: 0.8"/>
      </g>
     </g>
     <g id="text_14">
      <!-- 400 -->
      <g transform="translate(368.42875 78.765449) scale(0.24 -0.24)">
       <use xlink:href="#ArialMT-34"/>
       <use xlink:href="#ArialMT-30" transform="translate(55.615234 0)"/>
       <use xlink:href="#ArialMT-30" transform="translate(111.230469 0)"/>
      </g>
     </g>
    </g>
    <g id="text_15">
     <!-- Frequency -->
     <g transform="translate(362.113594 128.123203) rotate(-90) scale(0.11 -0.11)">
      <use xlink:href="#ArialMT-46"/>
      <use xlink:href="#ArialMT-72" transform="translate(61.083984 0)"/>
      <use xlink:href="#ArialMT-65" transform="translate(94.384766 0)"/>
      <use xlink:href="#ArialMT-71" transform="translate(150 0)"/>
      <use xlink:href="#ArialMT-75" transform="translate(205.615234 0)"/>
      <use xlink:href="#ArialMT-65" transform="translate(261.230469 0)"/>
      <use xlink:href="#ArialMT-6e" transform="translate(316.845703 0)"/>
      <use xlink:href="#ArialMT-63" transform="translate(372.460938 0)"/>
      <use xlink:href="#ArialMT-79" transform="translate(422.460938 0)"/>
     </g>
    </g>
   </g>
   <g id="patch_104">
    <path d="M 415.4675 197.08 
L 415.4675 7.2 
" style="fill: none; stroke: #ffffff; stroke-width: 0.8; stroke-linejoin: miter; stroke-linecap: square"/>
   </g>
   <g id="patch_105">
    <path d="M 415.4675 197.08 
L 675.3675 197.08 
" style="fill: none; stroke: #ffffff; stroke-width: 0.8; stroke-linejoin: miter; stroke-linecap: square"/>
   </g>
   <g id="text_16">
    <!-- Eukaryotic -->
    <g style="fill: #4a90d9" transform="translate(606.353125 25.283375) scale(0.12 -0.12)">
     <defs>
      <path id="ArialMT-45" d="M 506 0 
L 506 4581 
L 3819 4581 
L 3819 4041 
L 1113 4041 
L 1113 2638 
L 3647 2638 
L 3647 2100 
L 1113 2100 
L 1113 541 
L 3925 541 
L 3925 0 
L 506 0 
z
" transform="scale(0.015625)"/>
     </defs>
     <use xlink:href="#ArialMT-45"/>
     <use xlink:href="#ArialMT-75" transform="translate(66.699219 0)"/>
     <use xlink:href="#ArialMT-6b" transform="translate(122.314453 0)"/>
     <use xlink:href="#ArialMT-61" transform="translate(172.314453 0)"/>
     <use xlink:href="#ArialMT-72" transform="translate(227.929688 0)"/>
     <use xlink:href="#ArialMT-79" transform="translate(261.230469 0)"/>
     <use xlink:href="#ArialMT-6f" transform="translate(311.230469 0)"/>
     <use xlink:href="#ArialMT-74" transform="translate(366.845703 0)"/>
     <use xlink:href="#ArialMT-69" transform="translate(394.628906 0)"/>
     <use xlink:href="#ArialMT-63" transform="translate(416.845703 0)"/>
    </g>
   </g>
  </g>
 </g>
 <defs>
  <clipPath id="p13c5428c95">
   <rect x="68.4275" y="7.2" width="259.9" height="189.88"/>
  </clipPath>
  <clipPath id="p243cf951b2">
   <rect x="415.4675" y="7.2" width="259.9" height="189.88"/>
  </clipPath>
 </defs>
</svg>
