<?xml version="1.0" encoding="utf-8" standalone="no"?>
<!DOCTYPE svg PUBLIC "-//W3C//DTD SVG 1.1//EN"
  "http://www.w3.org/Graphics/SVG/1.1/DTD/svg11.dtd">
<svg xmlns:xlink="http://www.w3.org/1999/xlink" width="682.5675pt" height="246.744696pt" viewBox="0 0 682.5675 246.744696" xmlns="http://www.w3.org/2000/svg" version="1.1">
 <metadata>
  <rdf:RDF xmlns:dc="http://purl.org/dc/elements/1.1/" xmlns:cc="http://creativecommons.org/ns#" xmlns:rdf="http://www.w3.org/1999/02/22-rdf-syntax-ns#">
   <cc:Work>
    <dc:type rdf:resource="http://purl.org/dc/dcmitype/StillImage"/>
    <dc:date>2026-02-22T06:22:47.006325</dc:date>
    <dc:format>image/svg+xml</dc:format>
    <dc:creator>
     <cc:Agent>
      <dc:title>Matplotlib v3.10.8, https://matplotlib.org/</dc:title>
     </cc:Agent>
    </dc:creator>
   </cc:Work>
  </rdf:RDF>
 </metadata>
 <defs>
  <style type="text/css">*{stroke-linejoin: round; stroke-linecap: butt}</style>
 </defs>
 <g id="figure_1">
  <g id="patch_1">
   <path d="M 0 246.744696 
L 682.5675 246.744696 
L 682.5675 0 
L 0 0 
L 0 246.744696 
z
" style="fill: none"/>
  </g>
  <g id="axes_1">
   <g id="patch_2">
    <path d="M 68.4275 196.145946 
L 328.2825 196.145946 
L 328.2825 7.2 
L 68.4275 7.2 
L 68.4275 196.145946 
z
" style="fill: none"/>
   </g>
   <g id="patch_3">
    <path d="M 80.239091 196.145946 
L 85.060148 196.145946 
L 85.060148 58.752819 
L 80.239091 58.752819 
z
" clip-path="url(#p509349069c)" style="fill: #f27a6d; opacity: 0.8"/>
   </g>
   <g id="patch_4">
    <path d="M 85.060148 196.145946 
L 89.881206 196.145946 
L 89.881206 78.814647 
L 85.060148 78.814647 
z
" clip-path="url(#p509349069c)" style="fill: #f27a6d; opacity: 0.8"/>
   </g>
   <g id="patch_5">
    <path d="M 89.881206 196.145946 
L 94.702263 196.145946 
L 94.702263 95.836805 
L 89.881206 95.836805 
z
" clip-path="url(#p509349069c)" style="fill: #f27a6d; opacity: 0.8"/>
   </g>
   <g id="patch_6">
    <path d="M 94.702263 196.145946 
L 99.523321 196.145946 
L 99.523321 25.924373 
L 94.702263 25.924373 
z
" clip-path="url(#p509349069c)" style="fill: #f27a6d; opacity: 0.8"/>
   </g>
   <g id="patch_7">
    <path d="M 99.523321 196.145946 
L 104.344378 196.145946 
L 104.344378 28.052143 
L 99.523321 28.052143 
z
" clip-path="url(#p509349069c)" style="fill: #f27a6d; opacity: 0.8"/>
   </g>
   <g id="patch_8">
    <path d="M 104.344378 196.145946 
L 109.165436 196.145946 
L 109.165436 16.197426 
L 104.344378 16.197426 
z
" clip-path="url(#p509349069c)" style="fill: #f27a6d; opacity: 0.8"/>
   </g>
   <g id="patch_9">
    <path d="M 109.165436 196.145946 
L 113.986494 196.145946 
L 113.986494 28.052143 
L 109.165436 28.052143 
z
" clip-path="url(#p509349069c)" style="fill: #f27a6d; opacity: 0.8"/>
   </g>
   <g id="patch_10">
    <path d="M 113.986494 196.145946 
L 118.807551 196.145946 
L 118.807551 36.563221 
L 113.986494 36.563221 
z
" clip-path="url(#p509349069c)" style="fill: #f27a6d; opacity: 0.8"/>
   </g>
   <g id="patch_11">
    <path d="M 118.807551 196.145946 
L 123.628609 196.145946 
L 123.628609 59.360753 
L 118.807551 59.360753 
z
" clip-path="url(#p509349069c)" style="fill: #f27a6d; opacity: 0.8"/>
   </g>
   <g id="patch_12">
    <path d="M 123.628609 196.145946 
L 128.449666 196.145946 
L 128.449666 69.999602 
L 123.628609 69.999602 
z
" clip-path="url(#p509349069c)" style="fill: #f27a6d; opacity: 0.8"/>
   </g>
   <g id="patch_13">
    <path d="M 128.449666 196.145946 
L 133.270724 196.145946 
L 133.270724 97.35664 
L 128.449666 97.35664 
z
" clip-path="url(#p509349069c)" style="fill: #f27a6d; opacity: 0.8"/>
   </g>
   <g id="patch_14">
    <path d="M 133.270724 196.145946 
L 138.091781 196.145946 
L 138.091781 135.04856 
L 133.270724 135.04856 
z
" clip-path="url(#p509349069c)" style="fill: #f27a6d; opacity: 0.8"/>
   </g>
   <g id="patch_15">
    <path d="M 138.091781 196.145946 
L 142.912839 196.145946 
L 142.912839 153.286586 
L 138.091781 153.286586 
z
" clip-path="url(#p509349069c)" style="fill: #f27a6d; opacity: 0.8"/>
   </g>
   <g id="patch_16">
    <path d="M 142.912839 196.145946 
L 147.733896 196.145946 
L 147.733896 164.837335 
L 142.912839 164.837335 
z
" clip-path="url(#p509349069c)" style="fill: #f27a6d; opacity: 0.8"/>
   </g>
   <g id="patch_17">
    <path d="M 147.733896 196.145946 
L 152.554954 196.145946 
L 152.554954 177.90792 
L 147.733896 177.90792 
z
" clip-path="url(#p509349069c)" style="fill: #f27a6d; opacity: 0.8"/>
   </g>
   <g id="patch_18">
    <path d="M 152.554954 196.145946 
L 157.376011 196.145946 
L 157.376011 180.03569 
L 152.554954 180.03569 
z
" clip-path="url(#p509349069c)" style="fill: #f27a6d; opacity: 0.8"/>
   </g>
   <g id="patch_19">
    <path d="M 157.376011 196.145946 
L 162.197069 196.145946 
L 162.197069 186.722966 
L 157.376011 186.722966 
z
" clip-path="url(#p509349069c)" style="fill: #f27a6d; opacity: 0.8"/>
   </g>
   <g id="patch_20">
    <path d="M 162.197069 196.145946 
L 167.018126 196.145946 
L 167.018126 188.242801 
L 162.197069 188.242801 
z
" clip-path="url(#p509349069c)" style="fill: #f27a6d; opacity: 0.8"/>
   </g>
   <g id="patch_21">
    <path d="M 167.018126 196.145946 
L 171.839184 196.145946 
L 171.839184 193.714209 
L 167.018126 193.714209 
z
" clip-path="url(#p509349069c)" style="fill: #f27a6d; opacity: 0.8"/>
   </g>
   <g id="patch_22">
    <path d="M 171.839184 196.145946 
L 176.660241 196.145946 
L 176.660241 192.802308 
L 171.839184 192.802308 
z
" clip-path="url(#p509349069c)" style="fill: #f27a6d; opacity: 0.8"/>
   </g>
   <g id="patch_23">
    <path d="M 176.660241 196.145946 
L 181.481299 196.145946 
L 181.481299 192.498341 
L 176.660241 192.498341 
z
" clip-path="url(#p509349069c)" style="fill: #f27a6d; opacity: 0.8"/>
   </g>
   <g id="patch_24">
    <path d="M 181.481299 196.145946 
L 186.302356 196.145946 
L 186.302356 192.498341 
L 181.481299 192.498341 
z
" clip-path="url(#p509349069c)" style="fill: #f27a6d; opacity: 0.8"/>
   </g>
   <g id="patch_25">
    <path d="M 186.302356 196.145946 
L 191.123414 196.145946 
L 191.123414 192.194374 
L 186.302356 192.194374 
z
" clip-path="url(#p509349069c)" style="fill: #f27a6d; opacity: 0.8"/>
   </g>
   <g id="patch_26">
    <path d="M 191.123414 196.145946 
L 195.944471 196.145946 
L 195.944471 193.106275 
L 191.123414 193.106275 
z
" clip-path="url(#p509349069c)" style="fill: #f27a6d; opacity: 0.8"/>
   </g>
   <g id="patch_27">
    <path d="M 195.944471 196.145946 
L 200.765529 196.145946 
L 200.765529 192.194374 
L 195.944471 192.194374 
z
" clip-path="url(#p509349069c)" style="fill: #f27a6d; opacity: 0.8"/>
   </g>
   <g id="patch_28">
    <path d="M 200.765529 196.145946 
L 205.586586 196.145946 
L 205.586586 191.890407 
L 200.765529 191.890407 
z
" clip-path="url(#p509349069c)" style="fill: #f27a6d; opacity: 0.8"/>
   </g>
   <g id="patch_29">
    <path d="M 205.586586 196.145946 
L 210.407644 196.145946 
L 210.407644 192.498341 
L 205.586586 192.498341 
z
" clip-path="url(#p509349069c)" style="fill: #f27a6d; opacity: 0.8"/>
   </g>
   <g id="patch_30">
    <path d="M 210.407644 196.145946 
L 215.228701 196.145946 
L 215.228701 191.58644 
L 210.407644 191.58644 
z
" clip-path="url(#p509349069c)" style="fill: #f27a6d; opacity: 0.8"/>
   </g>
   <g id="patch_31">
    <path d="M 215.228701 196.145946 
L 220.049759 196.145946 
L 220.049759 191.890407 
L 215.228701 191.890407 
z
" clip-path="url(#p509349069c)" style="fill: #f27a6d; opacity: 0.8"/>
   </g>
   <g id="patch_32">
    <path d="M 220.049759 196.145946 
L 224.870816 196.145946 
L 224.870816 187.634867 
L 220.049759 187.634867 
z
" clip-path="url(#p509349069c)" style="fill: #f27a6d; opacity: 0.8"/>
   </g>
   <g id="patch_33">
    <path d="M 224.870816 196.145946 
L 229.691874 196.145946 
L 229.691874 185.203131 
L 224.870816 185.203131 
z
" clip-path="url(#p509349069c)" style="fill: #f27a6d; opacity: 0.8"/>
   </g>
   <g id="patch_34">
    <path d="M 229.691874 196.145946 
L 234.512931 196.145946 
L 234.512931 186.418999 
L 229.691874 186.418999 
z
" clip-path="url(#p509349069c)" style="fill: #f27a6d; opacity: 0.8"/>
   </g>
   <g id="patch_35">
    <path d="M 234.512931 196.145946 
L 239.333989 196.145946 
L 239.333989 182.16346 
L 234.512931 182.16346 
z
" clip-path="url(#p509349069c)" style="fill: #f27a6d; opacity: 0.8"/>
   </g>
   <g id="patch_36">
    <path d="M 239.333989 196.145946 
L 244.155046 196.145946 
L 244.155046 182.467427 
L 239.333989 182.467427 
z
" clip-path="url(#p509349069c)" style="fill: #f27a6d; opacity: 0.8"/>
   </g>
   <g id="patch_37">
    <path d="M 244.155046 196.145946 
L 248.976104 196.145946 
L 248.976104 176.996019 
L 244.155046 176.996019 
z
" clip-path="url(#p509349069c)" style="fill: #f27a6d; opacity: 0.8"/>
   </g>
   <g id="patch_38">
    <path d="M 248.976104 196.145946 
L 253.797161 196.145946 
L 253.797161 173.348414 
L 248.976104 173.348414 
z
" clip-path="url(#p509349069c)" style="fill: #f27a6d; opacity: 0.8"/>
   </g>
   <g id="patch_39">
    <path d="M 253.797161 196.145946 
L 258.618219 196.145946 
L 258.618219 163.013533 
L 253.797161 163.013533 
z
" clip-path="url(#p509349069c)" style="fill: #f27a6d; opacity: 0.8"/>
   </g>
   <g id="patch_40">
    <path d="M 258.618219 196.145946 
L 263.439276 196.145946 
L 263.439276 167.269072 
L 258.618219 167.269072 
z
" clip-path="url(#p509349069c)" style="fill: #f27a6d; opacity: 0.8"/>
   </g>
   <g id="patch_41">
    <path d="M 263.439276 196.145946 
L 268.260334 196.145946 
L 268.260334 172.132545 
L 263.439276 172.132545 
z
" clip-path="url(#p509349069c)" style="fill: #f27a6d; opacity: 0.8"/>
   </g>
   <g id="patch_42">
    <path d="M 268.260334 196.145946 
L 273.081391 196.145946 
L 273.081391 180.643624 
L 268.260334 180.643624 
z
" clip-path="url(#p509349069c)" style="fill: #f27a6d; opacity: 0.8"/>
   </g>
   <g id="patch_43">
    <path d="M 273.081391 196.145946 
L 277.902449 196.145946 
L 277.902449 181.251558 
L 273.081391 181.251558 
z
" clip-path="url(#p509349069c)" style="fill: #f27a6d; opacity: 0.8"/>
   </g>
   <g id="patch_44">
    <path d="M 277.902449 196.145946 
L 282.723506 196.145946 
L 282.723506 189.762637 
L 277.902449 189.762637 
z
" clip-path="url(#p509349069c)" style="fill: #f27a6d; opacity: 0.8"/>
   </g>
   <g id="patch_45">
    <path d="M 282.723506 196.145946 
L 287.544564 196.145946 
L 287.544564 189.154703 
L 282.723506 189.154703 
z
" clip-path="url(#p509349069c)" style="fill: #f27a6d; opacity: 0.8"/>
   </g>
   <g id="patch_46">
    <path d="M 287.544564 196.145946 
L 292.365622 196.145946 
L 292.365622 191.282472 
L 287.544564 191.282472 
z
" clip-path="url(#p509349069c)" style="fill: #f27a6d; opacity: 0.8"/>
   </g>
   <g id="patch_47">
    <path d="M 292.365622 196.145946 
L 297.186679 196.145946 
L 297.186679 191.282472 
L 292.365622 191.282472 
z
" clip-path="url(#p509349069c)" style="fill: #f27a6d; opacity: 0.8"/>
   </g>
   <g id="patch_48">
    <path d="M 297.186679 196.145946 
L 302.007737 196.145946 
L 302.007737 193.410242 
L 297.186679 193.410242 
z
" clip-path="url(#p509349069c)" style="fill: #f27a6d; opacity: 0.8"/>
   </g>
   <g id="patch_49">
    <path d="M 302.007737 196.145946 
L 306.828794 196.145946 
L 306.828794 193.714209 
L 302.007737 193.714209 
z
" clip-path="url(#p509349069c)" style="fill: #f27a6d; opacity: 0.8"/>
   </g>
   <g id="patch_50">
    <path d="M 306.828794 196.145946 
L 311.649852 196.145946 
L 311.649852 196.145946 
L 306.828794 196.145946 
z
" clip-path="url(#p509349069c)" style="fill: #f27a6d; opacity: 0.8"/>
   </g>
   <g id="patch_51">
    <path d="M 311.649852 196.145946 
L 316.470909 196.145946 
L 316.470909 196.145946 
L 311.649852 196.145946 
z
" clip-path="url(#p509349069c)" style="fill: #f27a6d; opacity: 0.8"/>
   </g>
   <g id="matplotlib.axis_1">
    <g id="xtick_1">
     <g id="line2d_1">
      <defs>
       <path id="m50352699de" d="M 0 0 
L 0 3.5 
" style="stroke: #000000; stroke-width: 0.8"/>
      </defs>
      <g>
       <use xlink:href="#m50352699de" x="147.733896" y="196.145946" style="stroke: #000000; stroke-width: 0.8"/>
      </g>
     </g>
     <g id="text_1">
      <!-- -5 -->
      <g transform="translate(137.065146 220.324696) scale(0.24 -0.24)">
       <defs>
        <path id="ArialMT-2d" d="M 203 1375 
L 203 1941 
L 1931 1941 
L 1931 1375 
L 203 1375 
z
" transform="scale(0.015625)"/>
        <path id="ArialMT-35" d="M 266 1200 
L 856 1250 
Q 922 819 1161 601 
Q 1400 384 1738 384 
Q 2144 384 2425 690 
Q 2706 997 2706 1503 
Q 2706 1984 2436 2262 
Q 2166 2541 1728 2541 
Q 1456 2541 1237 2417 
Q 1019 2294 894 2097 
L 366 2166 
L 809 4519 
L 3088 4519 
L 3088 3981 
L 1259 3981 
L 1013 2750 
Q 1425 3038 1878 3038 
Q 2478 3038 2890 2622 
Q 3303 2206 3303 1553 
Q 3303 931 2941 478 
Q 2500 -78 1738 -78 
Q 1113 -78 717 272 
Q 322 622 266 1200 
z
" transform="scale(0.015625)"/>
       </defs>
       <use xlink:href="#ArialMT-2d"/>
       <use xlink:href="#ArialMT-35" transform="translate(33.300781 0)"/>
      </g>
     </g>
    </g>
    <g id="xtick_2">
     <g id="line2d_2">
      <g>
       <use xlink:href="#m50352699de" x="316.470909" y="196.145946" style="stroke: #000000; stroke-width: 0.8"/>
      </g>
     </g>
     <g id="text_2">
      <!-- 0 -->
      <g transform="translate(309.797784 220.324696) scale(0.24 -0.24)">
       <defs>
        <path id="ArialMT-30" d="M 266 2259 
Q 266 3072 433 3567 
Q 600 4063 929 4331 
Q 1259 4600 1759 4600 
Q 2128 4600 2406 4451 
Q 2684 4303 2865 4023 
Q 3047 3744 3150 3342 
Q 3253 2941 3253 2259 
Q 3253 1453 3087 958 
Q 2922 463 2592 192 
Q 2263 -78 1759 -78 
Q 1097 -78 719 397 
Q 266 969 266 2259 
z
M 844 2259 
Q 844 1131 1108 757 
Q 1372 384 1759 384 
Q 2147 384 2411 759 
Q 2675 1134 2675 2259 
Q 2675 3391 2411 3762 
Q 2147 4134 1753 4134 
Q 1366 4134 1134 3806 
Q 844 3388 844 2259 
z
" transform="scale(0.015625)"/>
       </defs>
       <use xlink:href="#ArialMT-30"/>
      </g>
     </g>
    </g>
    <g id="text_3">
     <!-- Log$_{10}$(Density) -->
     <g transform="translate(162.055 237.124696) scale(0.11 -0.11)">
      <defs>
       <path id="ArialMT-4c" d="M 469 0 
L 469 4581 
L 1075 4581 
L 1075 541 
L 3331 541 
L 3331 0 
L 469 0 
z
" transform="scale(0.015625)"/>
       <path id="ArialMT-6f" d="M 213 1659 
Q 213 2581 725 3025 
Q 1153 3394 1769 3394 
Q 2453 3394 2887 2945 
Q 3322 2497 3322 1706 
Q 3322 1066 3130 698 
Q 2938 331 2570 128 
Q 2203 -75 1769 -75 
Q 1072 -75 642 372 
Q 213 819 213 1659 
z
M 791 1659 
Q 791 1022 1069 705 
Q 1347 388 1769 388 
Q 2188 388 2466 706 
Q 2744 1025 2744 1678 
Q 2744 2294 2464 2611 
Q 2184 2928 1769 2928 
Q 1347 2928 1069 2612 
Q 791 2297 791 1659 
z
" transform="scale(0.015625)"/>
       <path id="ArialMT-67" d="M 319 -275 
L 866 -356 
Q 900 -609 1056 -725 
Q 1266 -881 1628 -881 
Q 2019 -881 2231 -725 
Q 2444 -569 2519 -288 
Q 2563 -116 2559 434 
Q 2191 0 1641 0 
Q 956 0 581 494 
Q 206 988 206 1678 
Q 206 2153 378 2554 
Q 550 2956 876 3175 
Q 1203 3394 1644 3394 
Q 2231 3394 2613 2919 
L 2613 3319 
L 3131 3319 
L 3131 450 
Q 3131 -325 2973 -648 
Q 2816 -972 2473 -1159 
Q 2131 -1347 1631 -1347 
Q 1038 -1347 672 -1080 
Q 306 -813 319 -275 
z
M 784 1719 
Q 784 1066 1043 766 
Q 1303 466 1694 466 
Q 2081 466 2343 764 
Q 2606 1063 2606 1700 
Q 2606 2309 2336 2618 
Q 2066 2928 1684 2928 
Q 1309 2928 1046 2623 
Q 784 2319 784 1719 
z
" transform="scale(0.015625)"/>
       <path id="DejaVuSans-31" d="M 794 531 
L 1825 531 
L 1825 4091 
L 703 3866 
L 703 4441 
L 1819 4666 
L 2450 4666 
L 2450 531 
L 3481 531 
L 3481 0 
L 794 0 
L 794 531 
z
" transform="scale(0.015625)"/>
       <path id="DejaVuSans-30" d="M 2034 4250 
Q 1547 4250 1301 3770 
Q 1056 3291 1056 2328 
Q 1056 1369 1301 889 
Q 1547 409 2034 409 
Q 2525 409 2770 889 
Q 3016 1369 3016 2328 
Q 3016 3291 2770 3770 
Q 2525 4250 2034 4250 
z
M 2034 4750 
Q 2819 4750 3233 4129 
Q 3647 3509 3647 2328 
Q 3647 1150 3233 529 
Q 2819 -91 2034 -91 
Q 1250 -91 836 529 
Q 422 1150 422 2328 
Q 422 3509 836 4129 
Q 1250 4750 2034 4750 
z
" transform="scale(0.015625)"/>
       <path id="ArialMT-28" d="M 1497 -1347 
Q 1031 -759 709 28 
Q 388 816 388 1659 
Q 388 2403 628 3084 
Q 909 3875 1497 4659 
L 1900 4659 
Q 1522 4009 1400 3731 
Q 1209 3300 1100 2831 
Q 966 2247 966 1656 
Q 966 153 1900 -1347 
L 1497 -1347 
z
" transform="scale(0.015625)"/>
       <path id="ArialMT-44" d="M 494 0 
L 494 4581 
L 2072 4581 
Q 2606 4581 2888 4516 
Q 3281 4425 3559 4188 
Q 3922 3881 4101 3404 
Q 4281 2928 4281 2316 
Q 4281 1794 4159 1391 
Q 4038 988 3847 723 
Q 3656 459 3429 307 
Q 3203 156 2883 78 
Q 2563 0 2147 0 
L 494 0 
z
M 1100 541 
L 2078 541 
Q 2531 541 2789 625 
Q 3047 709 3200 863 
Q 3416 1078 3536 1442 
Q 3656 1806 3656 2325 
Q 3656 3044 3420 3430 
Q 3184 3816 2847 3947 
Q 2603 4041 2063 4041 
L 1100 4041 
L 1100 541 
z
" transform="scale(0.015625)"/>
       <path id="ArialMT-65" d="M 2694 1069 
L 3275 997 
Q 3138 488 2766 206 
Q 2394 -75 1816 -75 
Q 1088 -75 661 373 
Q 234 822 234 1631 
Q 234 2469 665 2931 
Q 1097 3394 1784 3394 
Q 2450 3394 2872 2941 
Q 3294 2488 3294 1666 
Q 3294 1616 3291 1516 
L 816 1516 
Q 847 969 1125 678 
Q 1403 388 1819 388 
Q 2128 388 2347 550 
Q 2566 713 2694 1069 
z
M 847 1978 
L 2700 1978 
Q 2663 2397 2488 2606 
Q 2219 2931 1791 2931 
Q 1403 2931 1139 2672 
Q 875 2413 847 1978 
z
" transform="scale(0.015625)"/>
       <path id="ArialMT-6e" d="M 422 0 
L 422 3319 
L 928 3319 
L 928 2847 
Q 1294 3394 1984 3394 
Q 2284 3394 2536 3286 
Q 2788 3178 2913 3003 
Q 3038 2828 3088 2588 
Q 3119 2431 3119 2041 
L 3119 0 
L 2556 0 
L 2556 2019 
Q 2556 2363 2490 2533 
Q 2425 2703 2258 2804 
Q 2091 2906 1866 2906 
Q 1506 2906 1245 2678 
Q 984 2450 984 1813 
L 984 0 
L 422 0 
z
" transform="scale(0.015625)"/>
       <path id="ArialMT-73" d="M 197 991 
L 753 1078 
Q 800 744 1014 566 
Q 1228 388 1613 388 
Q 2000 388 2187 545 
Q 2375 703 2375 916 
Q 2375 1106 2209 1216 
Q 2094 1291 1634 1406 
Q 1016 1563 777 1677 
Q 538 1791 414 1992 
Q 291 2194 291 2438 
Q 291 2659 392 2848 
Q 494 3038 669 3163 
Q 800 3259 1026 3326 
Q 1253 3394 1513 3394 
Q 1903 3394 2198 3281 
Q 2494 3169 2634 2976 
Q 2775 2784 2828 2463 
L 2278 2388 
Q 2241 2644 2061 2787 
Q 1881 2931 1553 2931 
Q 1166 2931 1000 2803 
Q 834 2675 834 2503 
Q 834 2394 903 2306 
Q 972 2216 1119 2156 
Q 1203 2125 1616 2013 
Q 2213 1853 2448 1751 
Q 2684 1650 2818 1456 
Q 2953 1263 2953 975 
Q 2953 694 2789 445 
Q 2625 197 2315 61 
Q 2006 -75 1616 -75 
Q 969 -75 630 194 
Q 291 463 197 991 
z
" transform="scale(0.015625)"/>
       <path id="ArialMT-69" d="M 425 3934 
L 425 4581 
L 988 4581 
L 988 3934 
L 425 3934 
z
M 425 0 
L 425 3319 
L 988 3319 
L 988 0 
L 425 0 
z
" transform="scale(0.015625)"/>
       <path id="ArialMT-74" d="M 1650 503 
L 1731 6 
Q 1494 -44 1306 -44 
Q 1000 -44 831 53 
Q 663 150 594 308 
Q 525 466 525 972 
L 525 2881 
L 113 2881 
L 113 3319 
L 525 3319 
L 525 4141 
L 1084 4478 
L 1084 3319 
L 1650 3319 
L 1650 2881 
L 1084 2881 
L 1084 941 
Q 1084 700 1114 631 
Q 1144 563 1211 522 
Q 1278 481 1403 481 
Q 1497 481 1650 503 
z
" transform="scale(0.015625)"/>
       <path id="ArialMT-79" d="M 397 -1278 
L 334 -750 
Q 519 -800 656 -800 
Q 844 -800 956 -737 
Q 1069 -675 1141 -563 
Q 1194 -478 1313 -144 
Q 1328 -97 1363 -6 
L 103 3319 
L 709 3319 
L 1400 1397 
Q 1534 1031 1641 628 
Q 1738 1016 1872 1384 
L 2581 3319 
L 3144 3319 
L 1881 -56 
Q 1678 -603 1566 -809 
Q 1416 -1088 1222 -1217 
Q 1028 -1347 759 -1347 
Q 597 -1347 397 -1278 
z
" transform="scale(0.015625)"/>
       <path id="ArialMT-29" d="M 791 -1347 
L 388 -1347 
Q 1322 153 1322 1656 
Q 1322 2244 1188 2822 
Q 1081 3291 891 3722 
Q 769 4003 388 4659 
L 791 4659 
Q 1378 3875 1659 3084 
Q 1900 2403 1900 1659 
Q 1900 816 1576 28 
Q 1253 -759 791 -1347 
z
" transform="scale(0.015625)"/>
      </defs>
      <use xlink:href="#ArialMT-4c" transform="translate(0 0.203125)"/>
      <use xlink:href="#ArialMT-6f" transform="translate(55.615234 0.203125)"/>
      <use xlink:href="#ArialMT-67" transform="translate(111.230469 0.203125)"/>
      <use xlink:href="#DejaVuSans-31" transform="translate(167.802734 -16.203125) scale(0.7)"/>
      <use xlink:href="#DejaVuSans-30" transform="translate(212.338867 -16.203125) scale(0.7)"/>
      <use xlink:href="#ArialMT-28" transform="translate(259.609375 0.203125)"/>
      <use xlink:href="#ArialMT-44" transform="translate(292.910156 0.203125)"/>
      <use xlink:href="#ArialMT-65" transform="translate(365.126953 0.203125)"/>
      <use xlink:href="#ArialMT-6e" transform="translate(420.742188 0.203125)"/>
      <use xlink:href="#ArialMT-73" transform="translate(476.357422 0.203125)"/>
      <use xlink:href="#ArialMT-69" transform="translate(526.357422 0.203125)"/>
      <use xlink:href="#ArialMT-74" transform="translate(548.574219 0.203125)"/>
      <use xlink:href="#ArialMT-79" transform="translate(576.357422 0.203125)"/>
      <use xlink:href="#ArialMT-29" transform="translate(626.357422 0.203125)"/>
     </g>
    </g>
   </g>
   <g id="matplotlib.axis_2">
    <g id="ytick_1">
     <g id="line2d_3">
      <defs>
       <path id="mbdf1e55192" d="M 0 0 
L -3.5 0 
" style="stroke: #000000; stroke-width: 0.8"/>
      </defs>
      <g>
       <use xlink:href="#mbdf1e55192" x="68.4275" y="196.145946" style="stroke: #000000; stroke-width: 0.8"/>
      </g>
     </g>
     <g id="text_4">
      <!-- 0 -->
      <g transform="translate(48.08125 204.735321) scale(0.24 -0.24)">
       <use xlink:href="#ArialMT-30"/>
      </g>
     </g>
    </g>
    <g id="ytick_2">
     <g id="line2d_4">
      <g>
       <use xlink:href="#mbdf1e55192" x="68.4275" y="120.154172" style="stroke: #000000; stroke-width: 0.8"/>
      </g>
     </g>
     <g id="text_5">
      <!-- 250 -->
      <g transform="translate(21.38875 128.743547) scale(0.24 -0.24)">
       <defs>
        <path id="ArialMT-32" d="M 3222 541 
L 3222 0 
L 194 0 
Q 188 203 259 391 
Q 375 700 629 1000 
Q 884 1300 1366 1694 
Q 2113 2306 2375 2664 
Q 2638 3022 2638 3341 
Q 2638 3675 2398 3904 
Q 2159 4134 1775 4134 
Q 1369 4134 1125 3890 
Q 881 3647 878 3216 
L 300 3275 
Q 359 3922 746 4261 
Q 1134 4600 1788 4600 
Q 2447 4600 2831 4234 
Q 3216 3869 3216 3328 
Q 3216 3053 3103 2787 
Q 2991 2522 2730 2228 
Q 2469 1934 1863 1422 
Q 1356 997 1212 845 
Q 1069 694 975 541 
L 3222 541 
z
" transform="scale(0.015625)"/>
       </defs>
       <use xlink:href="#ArialMT-32"/>
       <use xlink:href="#ArialMT-35" transform="translate(55.615234 0)"/>
       <use xlink:href="#ArialMT-30" transform="translate(111.230469 0)"/>
      </g>
     </g>
    </g>
    <g id="ytick_3">
     <g id="line2d_5">
      <g>
       <use xlink:href="#mbdf1e55192" x="68.4275" y="44.162399" style="stroke: #000000; stroke-width: 0.8"/>
      </g>
     </g>
     <g id="text_6">
      <!-- 500 -->
      <g transform="translate(21.38875 52.751774) scale(0.24 -0.24)">
       <use xlink:href="#ArialMT-35"/>
       <use xlink:href="#ArialMT-30" transform="translate(55.615234 0)"/>
       <use xlink:href="#ArialMT-30" transform="translate(111.230469 0)"/>
      </g>
     </g>
    </g>
    <g id="text_7">
     <!-- Frequency -->
     <g transform="translate(15.073594 127.656176) rotate(-90) scale(0.11 -0.11)">
      <defs>
       <path id="ArialMT-46" d="M 525 0 
L 525 4581 
L 3616 4581 
L 3616 4041 
L 1131 4041 
L 1131 2622 
L 3281 2622 
L 3281 2081 
L 1131 2081 
L 1131 0 
L 525 0 
z
" transform="scale(0.015625)"/>
       <path id="ArialMT-72" d="M 416 0 
L 416 3319 
L 922 3319 
L 922 2816 
Q 1116 3169 1280 3281 
Q 1444 3394 1641 3394 
Q 1925 3394 2219 3213 
L 2025 2691 
Q 1819 2813 1613 2813 
Q 1428 2813 1281 2702 
Q 1134 2591 1072 2394 
Q 978 2094 978 1738 
L 978 0 
L 416 0 
z
" transform="scale(0.015625)"/>
       <path id="ArialMT-71" d="M 2538 -1272 
L 2538 353 
Q 2406 169 2170 47 
Q 1934 -75 1669 -75 
Q 1078 -75 651 397 
Q 225 869 225 1691 
Q 225 2191 398 2587 
Q 572 2984 901 3189 
Q 1231 3394 1625 3394 
Q 2241 3394 2594 2875 
L 2594 3319 
L 3100 3319 
L 3100 -1272 
L 2538 -1272 
z
M 803 1669 
Q 803 1028 1072 708 
Q 1341 388 1716 388 
Q 2075 388 2334 692 
Q 2594 997 2594 1619 
Q 2594 2281 2320 2615 
Q 2047 2950 1678 2950 
Q 1313 2950 1058 2639 
Q 803 2328 803 1669 
z
" transform="scale(0.015625)"/>
       <path id="ArialMT-75" d="M 2597 0 
L 2597 488 
Q 2209 -75 1544 -75 
Q 1250 -75 995 37 
Q 741 150 617 320 
Q 494 491 444 738 
Q 409 903 409 1263 
L 409 3319 
L 972 3319 
L 972 1478 
Q 972 1038 1006 884 
Q 1059 663 1231 536 
Q 1403 409 1656 409 
Q 1909 409 2131 539 
Q 2353 669 2445 892 
Q 2538 1116 2538 1541 
L 2538 3319 
L 3100 3319 
L 3100 0 
L 2597 0 
z
" transform="scale(0.015625)"/>
       <path id="ArialMT-63" d="M 2588 1216 
L 3141 1144 
Q 3050 572 2676 248 
Q 2303 -75 1759 -75 
Q 1078 -75 664 370 
Q 250 816 250 1647 
Q 250 2184 428 2587 
Q 606 2991 970 3192 
Q 1334 3394 1763 3394 
Q 2303 3394 2647 3120 
Q 2991 2847 3088 2344 
L 2541 2259 
Q 2463 2594 2264 2762 
Q 2066 2931 1784 2931 
Q 1359 2931 1093 2626 
Q 828 2322 828 1663 
Q 828 994 1084 691 
Q 1341 388 1753 388 
Q 2084 388 2306 591 
Q 2528 794 2588 1216 
z
" transform="scale(0.015625)"/>
      </defs>
      <use xlink:href="#ArialMT-46"/>
      <use xlink:href="#ArialMT-72" transform="translate(61.083984 0)"/>
      <use xlink:href="#ArialMT-65" transform="translate(94.384766 0)"/>
      <use xlink:href="#ArialMT-71" transform="translate(150 0)"/>
      <use xlink:href="#ArialMT-75" transform="translate(205.615234 0)"/>
      <use xlink:href="#ArialMT-65" transform="translate(261.230469 0)"/>
      <use xlink:href="#ArialMT-6e" transform="translate(316.845703 0)"/>
      <use xlink:href="#ArialMT-63" transform="translate(372.460938 0)"/>
      <use xlink:href="#ArialMT-79" transform="translate(422.460938 0)"/>
     </g>
    </g>
   </g>
   <g id="patch_52">
    <path d="M 68.4275 196.145946 
L 68.4275 7.2 
" style="fill: none; stroke: #ffffff; stroke-width: 0.8; stroke-linejoin: miter; stroke-linecap: square"/>
   </g>
   <g id="patch_53">
    <path d="M 68.4275 196.145946 
L 328.2825 196.145946 
" style="fill: none; stroke: #ffffff; stroke-width: 0.8; stroke-linejoin: miter; stroke-linecap: square"/>
   </g>
   <g id="text_8">
    <!-- Prokaryotic -->
    <g style="fill: #f27a6d" transform="translate(255.27475 25.236672) scale(0.12 -0.12)">
     <defs>
      <path id="ArialMT-50" d="M 494 0 
L 494 4581 
L 2222 4581 
Q 2678 4581 2919 4538 
Q 3256 4481 3484 4323 
Q 3713 4166 3852 3881 
Q 3991 3597 3991 3256 
Q 3991 2672 3619 2267 
Q 3247 1863 2275 1863 
L 1100 1863 
L 1100 0 
L 494 0 
z
M 1100 2403 
L 2284 2403 
Q 2872 2403 3119 2622 
Q 3366 2841 3366 3238 
Q 3366 3525 3220 3729 
Q 3075 3934 2838 4000 
Q 2684 4041 2272 4041 
L 1100 4041 
L 1100 2403 
z
" transform="scale(0.015625)"/>
      <path id="ArialMT-6b" d="M 425 0 
L 425 4581 
L 988 4581 
L 988 1969 
L 2319 3319 
L 3047 3319 
L 1778 2088 
L 3175 0 
L 2481 0 
L 1384 1697 
L 988 1316 
L 988 0 
L 425 0 
z
" transform="scale(0.015625)"/>
      <path id="ArialMT-61" d="M 2588 409 
Q 2275 144 1986 34 
Q 1697 -75 1366 -75 
Q 819 -75 525 192 
Q 231 459 231 875 
Q 231 1119 342 1320 
Q 453 1522 633 1644 
Q 813 1766 1038 1828 
Q 1203 1872 1538 1913 
Q 2219 1994 2541 2106 
Q 2544 2222 2544 2253 
Q 2544 2597 2384 2738 
Q 2169 2928 1744 2928 
Q 1347 2928 1158 2789 
Q 969 2650 878 2297 
L 328 2372 
Q 403 2725 575 2942 
Q 747 3159 1072 3276 
Q 1397 3394 1825 3394 
Q 2250 3394 2515 3294 
Q 2781 3194 2906 3042 
Q 3031 2891 3081 2659 
Q 3109 2516 3109 2141 
L 3109 1391 
Q 3109 606 3145 398 
Q 3181 191 3288 0 
L 2700 0 
Q 2613 175 2588 409 
z
M 2541 1666 
Q 2234 1541 1622 1453 
Q 1275 1403 1131 1340 
Q 988 1278 909 1158 
Q 831 1038 831 891 
Q 831 666 1001 516 
Q 1172 366 1500 366 
Q 1825 366 2078 508 
Q 2331 650 2450 897 
Q 2541 1088 2541 1459 
L 2541 1666 
z
" transform="scale(0.015625)"/>
     </defs>
     <use xlink:href="#ArialMT-50"/>
     <use xlink:href="#ArialMT-72" transform="translate(66.699219 0)"/>
     <use xlink:href="#ArialMT-6f" transform="translate(100 0)"/>
     <use xlink:href="#ArialMT-6b" transform="translate(155.615234 0)"/>
     <use xlink:href="#ArialMT-61" transform="translate(205.615234 0)"/>
     <use xlink:href="#ArialMT-72" transform="translate(261.230469 0)"/>
     <use xlink:href="#ArialMT-79" transform="translate(294.53125 0)"/>
     <use xlink:href="#ArialMT-6f" transform="translate(344.53125 0)"/>
     <use xlink:href="#ArialMT-74" transform="translate(400.146484 0)"/>
     <use xlink:href="#ArialMT-69" transform="translate(427.929688 0)"/>
     <use xlink:href="#ArialMT-63" transform="translate(450.146484 0)"/>
    </g>
   </g>
  </g>
  <g id="axes_2">
   <g id="patch_54">
    <path d="M 415.5125 196.145946 
L 675.3675 196.145946 
L 675.3675 7.2 
L 415.5125 7.2 
L 415.5125 196.145946 
z
" style="fill: none"/>
   </g>
   <g id="patch_55">
    <path d="M 427.324091 196.145946 
L 432.145148 196.145946 
L 432.145148 63.130564 
L 427.324091 63.130564 
z
" clip-path="url(#pd42d0e4353)" style="fill: #87ceeb; opacity: 0.8"/>
   </g>
   <g id="patch_56">
    <path d="M 432.145148 196.145946 
L 436.966206 196.145946 
L 436.966206 16.197426 
L 432.145148 16.197426 
z
" clip-path="url(#pd42d0e4353)" style="fill: #87ceeb; opacity: 0.8"/>
   </g>
   <g id="patch_57">
    <path d="M 436.966206 196.145946 
L 441.787263 196.145946 
L 441.787263 27.644533 
L 436.966206 27.644533 
z
" clip-path="url(#pd42d0e4353)" style="fill: #87ceeb; opacity: 0.8"/>
   </g>
   <g id="patch_58">
    <path d="M 441.787263 196.145946 
L 446.608321 196.145946 
L 446.608321 44.586251 
L 441.787263 44.586251 
z
" clip-path="url(#pd42d0e4353)" style="fill: #87ceeb; opacity: 0.8"/>
   </g>
   <g id="patch_59">
    <path d="M 446.608321 196.145946 
L 451.429378 196.145946 
L 451.429378 47.333557 
L 446.608321 47.333557 
z
" clip-path="url(#pd42d0e4353)" style="fill: #87ceeb; opacity: 0.8"/>
   </g>
   <g id="patch_60">
    <path d="M 451.429378 196.145946 
L 456.250436 196.145946 
L 456.250436 90.832563 
L 451.429378 90.832563 
z
" clip-path="url(#pd42d0e4353)" style="fill: #87ceeb; opacity: 0.8"/>
   </g>
   <g id="patch_61">
    <path d="M 456.250436 196.145946 
L 461.071494 196.145946 
L 461.071494 108.918992 
L 456.250436 108.918992 
z
" clip-path="url(#pd42d0e4353)" style="fill: #87ceeb; opacity: 0.8"/>
   </g>
   <g id="patch_62">
    <path d="M 461.071494 196.145946 
L 465.892551 196.145946 
L 465.892551 139.139354 
L 461.071494 139.139354 
z
" clip-path="url(#pd42d0e4353)" style="fill: #87ceeb; opacity: 0.8"/>
   </g>
   <g id="patch_63">
    <path d="M 465.892551 196.145946 
L 470.713609 196.145946 
L 470.713609 157.683667 
L 465.892551 157.683667 
z
" clip-path="url(#pd42d0e4353)" style="fill: #87ceeb; opacity: 0.8"/>
   </g>
   <g id="patch_64">
    <path d="M 470.713609 196.145946 
L 475.534666 196.145946 
L 475.534666 179.204228 
L 470.713609 179.204228 
z
" clip-path="url(#pd42d0e4353)" style="fill: #87ceeb; opacity: 0.8"/>
   </g>
   <g id="patch_65">
    <path d="M 475.534666 196.145946 
L 480.355724 196.145946 
L 480.355724 185.614608 
L 475.534666 185.614608 
z
" clip-path="url(#pd42d0e4353)" style="fill: #87ceeb; opacity: 0.8"/>
   </g>
   <g id="patch_66">
    <path d="M 480.355724 196.145946 
L 485.176781 196.145946 
L 485.176781 186.530376 
L 480.355724 186.530376 
z
" clip-path="url(#pd42d0e4353)" style="fill: #87ceeb; opacity: 0.8"/>
   </g>
   <g id="patch_67">
    <path d="M 485.176781 196.145946 
L 489.997839 196.145946 
L 489.997839 185.84355 
L 485.176781 185.84355 
z
" clip-path="url(#pd42d0e4353)" style="fill: #87ceeb; opacity: 0.8"/>
   </g>
   <g id="patch_68">
    <path d="M 489.997839 196.145946 
L 494.818896 196.145946 
L 494.818896 192.711814 
L 489.997839 192.711814 
z
" clip-path="url(#pd42d0e4353)" style="fill: #87ceeb; opacity: 0.8"/>
   </g>
   <g id="patch_69">
    <path d="M 494.818896 196.145946 
L 499.639954 196.145946 
L 499.639954 192.711814 
L 494.818896 192.711814 
z
" clip-path="url(#pd42d0e4353)" style="fill: #87ceeb; opacity: 0.8"/>
   </g>
   <g id="patch_70">
    <path d="M 499.639954 196.145946 
L 504.461011 196.145946 
L 504.461011 193.39864 
L 499.639954 193.39864 
z
" clip-path="url(#pd42d0e4353)" style="fill: #87ceeb; opacity: 0.8"/>
   </g>
   <g id="patch_71">
    <path d="M 504.461011 196.145946 
L 509.282069 196.145946 
L 509.282069 193.39864 
L 504.461011 193.39864 
z
" clip-path="url(#pd42d0e4353)" style="fill: #87ceeb; opacity: 0.8"/>
   </g>
   <g id="patch_72">
    <path d="M 509.282069 196.145946 
L 514.103126 196.145946 
L 514.103126 194.314409 
L 509.282069 194.314409 
z
" clip-path="url(#pd42d0e4353)" style="fill: #87ceeb; opacity: 0.8"/>
   </g>
   <g id="patch_73">
    <path d="M 514.103126 196.145946 
L 518.924184 196.145946 
L 518.924184 194.314409 
L 514.103126 194.314409 
z
" clip-path="url(#pd42d0e4353)" style="fill: #87ceeb; opacity: 0.8"/>
   </g>
   <g id="patch_74">
    <path d="M 518.924184 196.145946 
L 523.745241 196.145946 
L 523.745241 195.001235 
L 518.924184 195.001235 
z
" clip-path="url(#pd42d0e4353)" style="fill: #87ceeb; opacity: 0.8"/>
   </g>
   <g id="patch_75">
    <path d="M 523.745241 196.145946 
L 528.566299 196.145946 
L 528.566299 194.085467 
L 523.745241 194.085467 
z
" clip-path="url(#pd42d0e4353)" style="fill: #87ceeb; opacity: 0.8"/>
   </g>
   <g id="patch_76">
    <path d="M 528.566299 196.145946 
L 533.387356 196.145946 
L 533.387356 194.085467 
L 528.566299 194.085467 
z
" clip-path="url(#pd42d0e4353)" style="fill: #87ceeb; opacity: 0.8"/>
   </g>
   <g id="patch_77">
    <path d="M 533.387356 196.145946 
L 538.208414 196.145946 
L 538.208414 193.39864 
L 533.387356 193.39864 
z
" clip-path="url(#pd42d0e4353)" style="fill: #87ceeb; opacity: 0.8"/>
   </g>
   <g id="patch_78">
    <path d="M 538.208414 196.145946 
L 543.029471 196.145946 
L 543.029471 193.627582 
L 538.208414 193.627582 
z
" clip-path="url(#pd42d0e4353)" style="fill: #87ceeb; opacity: 0.8"/>
   </g>
   <g id="patch_79">
    <path d="M 543.029471 196.145946 
L 547.850529 196.145946 
L 547.850529 193.39864 
L 543.029471 193.39864 
z
" clip-path="url(#pd42d0e4353)" style="fill: #87ceeb; opacity: 0.8"/>
   </g>
   <g id="patch_80">
    <path d="M 547.850529 196.145946 
L 552.671586 196.145946 
L 552.671586 192.482872 
L 547.850529 192.482872 
z
" clip-path="url(#pd42d0e4353)" style="fill: #87ceeb; opacity: 0.8"/>
   </g>
   <g id="patch_81">
    <path d="M 552.671586 196.145946 
L 557.492644 196.145946 
L 557.492644 191.109219 
L 552.671586 191.109219 
z
" clip-path="url(#pd42d0e4353)" style="fill: #87ceeb; opacity: 0.8"/>
   </g>
   <g id="patch_82">
    <path d="M 557.492644 196.145946 
L 562.313701 196.145946 
L 562.313701 191.567103 
L 557.492644 191.567103 
z
" clip-path="url(#pd42d0e4353)" style="fill: #87ceeb; opacity: 0.8"/>
   </g>
   <g id="patch_83">
    <path d="M 562.313701 196.145946 
L 567.134759 196.145946 
L 567.134759 190.19345 
L 562.313701 190.19345 
z
" clip-path="url(#pd42d0e4353)" style="fill: #87ceeb; opacity: 0.8"/>
   </g>
   <g id="patch_84">
    <path d="M 567.134759 196.145946 
L 571.955816 196.145946 
L 571.955816 193.39864 
L 567.134759 193.39864 
z
" clip-path="url(#pd42d0e4353)" style="fill: #87ceeb; opacity: 0.8"/>
   </g>
   <g id="patch_85">
    <path d="M 571.955816 196.145946 
L 576.776874 196.145946 
L 576.776874 190.651335 
L 571.955816 190.651335 
z
" clip-path="url(#pd42d0e4353)" style="fill: #87ceeb; opacity: 0.8"/>
   </g>
   <g id="patch_86">
    <path d="M 576.776874 196.145946 
L 581.597931 196.145946 
L 581.597931 188.819798 
L 576.776874 188.819798 
z
" clip-path="url(#pd42d0e4353)" style="fill: #87ceeb; opacity: 0.8"/>
   </g>
   <g id="patch_87">
    <path d="M 581.597931 196.145946 
L 586.418989 196.145946 
L 586.418989 185.614608 
L 581.597931 185.614608 
z
" clip-path="url(#pd42d0e4353)" style="fill: #87ceeb; opacity: 0.8"/>
   </g>
   <g id="patch_88">
    <path d="M 586.418989 196.145946 
L 591.240046 196.145946 
L 591.240046 184.240955 
L 586.418989 184.240955 
z
" clip-path="url(#pd42d0e4353)" style="fill: #87ceeb; opacity: 0.8"/>
   </g>
   <g id="patch_89">
    <path d="M 591.240046 196.145946 
L 596.061104 196.145946 
L 596.061104 180.119996 
L 591.240046 180.119996 
z
" clip-path="url(#pd42d0e4353)" style="fill: #87ceeb; opacity: 0.8"/>
   </g>
   <g id="patch_90">
    <path d="M 596.061104 196.145946 
L 600.882161 196.145946 
L 600.882161 178.517401 
L 596.061104 178.517401 
z
" clip-path="url(#pd42d0e4353)" style="fill: #87ceeb; opacity: 0.8"/>
   </g>
   <g id="patch_91">
    <path d="M 600.882161 196.145946 
L 605.703219 196.145946 
L 605.703219 172.793848 
L 600.882161 172.793848 
z
" clip-path="url(#pd42d0e4353)" style="fill: #87ceeb; opacity: 0.8"/>
   </g>
   <g id="patch_92">
    <path d="M 605.703219 196.145946 
L 610.524276 196.145946 
L 610.524276 176.456922 
L 605.703219 176.456922 
z
" clip-path="url(#pd42d0e4353)" style="fill: #87ceeb; opacity: 0.8"/>
   </g>
   <g id="patch_93">
    <path d="M 610.524276 196.145946 
L 615.345334 196.145946 
L 615.345334 175.541154 
L 610.524276 175.541154 
z
" clip-path="url(#pd42d0e4353)" style="fill: #87ceeb; opacity: 0.8"/>
   </g>
   <g id="patch_94">
    <path d="M 615.345334 196.145946 
L 620.166391 196.145946 
L 620.166391 183.325186 
L 615.345334 183.325186 
z
" clip-path="url(#pd42d0e4353)" style="fill: #87ceeb; opacity: 0.8"/>
   </g>
   <g id="patch_95">
    <path d="M 620.166391 196.145946 
L 624.987449 196.145946 
L 624.987449 184.698839 
L 620.166391 184.698839 
z
" clip-path="url(#pd42d0e4353)" style="fill: #87ceeb; opacity: 0.8"/>
   </g>
   <g id="patch_96">
    <path d="M 624.987449 196.145946 
L 629.808506 196.145946 
L 629.808506 193.169698 
L 624.987449 193.169698 
z
" clip-path="url(#pd42d0e4353)" style="fill: #87ceeb; opacity: 0.8"/>
   </g>
   <g id="patch_97">
    <path d="M 629.808506 196.145946 
L 634.629564 196.145946 
L 634.629564 191.796045 
L 629.808506 191.796045 
z
" clip-path="url(#pd42d0e4353)" style="fill: #87ceeb; opacity: 0.8"/>
   </g>
   <g id="patch_98">
    <path d="M 634.629564 196.145946 
L 639.450622 196.145946 
L 639.450622 185.385665 
L 634.629564 185.385665 
z
" clip-path="url(#pd42d0e4353)" style="fill: #87ceeb; opacity: 0.8"/>
   </g>
   <g id="patch_99">
    <path d="M 639.450622 196.145946 
L 644.271679 196.145946 
L 644.271679 196.145946 
L 639.450622 196.145946 
z
" clip-path="url(#pd42d0e4353)" style="fill: #87ceeb; opacity: 0.8"/>
   </g>
   <g id="patch_100">
    <path d="M 644.271679 196.145946 
L 649.092737 196.145946 
L 649.092737 196.145946 
L 644.271679 196.145946 
z
" clip-path="url(#pd42d0e4353)" style="fill: #87ceeb; opacity: 0.8"/>
   </g>
   <g id="patch_101">
    <path d="M 649.092737 196.145946 
L 653.913794 196.145946 
L 653.913794 196.145946 
L 649.092737 196.145946 
z
" clip-path="url(#pd42d0e4353)" style="fill: #87ceeb; opacity: 0.8"/>
   </g>
   <g id="patch_102">
    <path d="M 653.913794 196.145946 
L 658.734852 196.145946 
L 658.734852 196.145946 
L 653.913794 196.145946 
z
" clip-path="url(#pd42d0e4353)" style="fill: #87ceeb; opacity: 0.8"/>
   </g>
   <g id="patch_103">
    <path d="M 658.734852 196.145946 
L 663.555909 196.145946 
L 663.555909 196.145946 
L 658.734852 196.145946 
z
" clip-path="url(#pd42d0e4353)" style="fill: #87ceeb; opacity: 0.8"/>
   </g>
   <g id="matplotlib.axis_3">
    <g id="xtick_3">
     <g id="line2d_6">
      <g>
       <use xlink:href="#m50352699de" x="494.818896" y="196.145946" style="stroke: #000000; stroke-width: 0.8"/>
      </g>
     </g>
     <g id="text_9">
      <!-- -5 -->
      <g transform="translate(484.150146 220.324696) scale(0.24 -0.24)">
       <use xlink:href="#ArialMT-2d"/>
       <use xlink:href="#ArialMT-35" transform="translate(33.300781 0)"/>
      </g>
     </g>
    </g>
    <g id="xtick_4">
     <g id="line2d_7">
      <g>
       <use xlink:href="#m50352699de" x="663.555909" y="196.145946" style="stroke: #000000; stroke-width: 0.8"/>
      </g>
     </g>
     <g id="text_10">
      <!-- 0 -->
      <g transform="translate(656.882784 220.324696) scale(0.24 -0.24)">
       <use xlink:href="#ArialMT-30"/>
      </g>
     </g>
    </g>
    <g id="text_11">
     <!-- Log$_{10}$(Density) -->
     <g transform="translate(509.14 237.124696) scale(0.11 -0.11)">
      <use xlink:href="#ArialMT-4c" transform="translate(0 0.203125)"/>
      <use xlink:href="#ArialMT-6f" transform="translate(55.615234 0.203125)"/>
      <use xlink:href="#ArialMT-67" transform="translate(111.230469 0.203125)"/>
      <use xlink:href="#DejaVuSans-31" transform="translate(167.802734 -16.203125) scale(0.7)"/>
      <use xlink:href="#DejaVuSans-30" transform="translate(212.338867 -16.203125) scale(0.7)"/>
      <use xlink:href="#ArialMT-28" transform="translate(259.609375 0.203125)"/>
      <use xlink:href="#ArialMT-44" transform="translate(292.910156 0.203125)"/>
      <use xlink:href="#ArialMT-65" transform="translate(365.126953 0.203125)"/>
      <use xlink:href="#ArialMT-6e" transform="translate(420.742188 0.203125)"/>
      <use xlink:href="#ArialMT-73" transform="translate(476.357422 0.203125)"/>
      <use xlink:href="#ArialMT-69" transform="translate(526.357422 0.203125)"/>
      <use xlink:href="#ArialMT-74" transform="translate(548.574219 0.203125)"/>
      <use xlink:href="#ArialMT-79" transform="translate(576.357422 0.203125)"/>
      <use xlink:href="#ArialMT-29" transform="translate(626.357422 0.203125)"/>
     </g>
    </g>
   </g>
   <g id="matplotlib.axis_4">
    <g id="ytick_4">
     <g id="line2d_8">
      <g>
       <use xlink:href="#mbdf1e55192" x="415.5125" y="196.145946" style="stroke: #000000; stroke-width: 0.8"/>
      </g>
     </g>
     <g id="text_12">
      <!-- 0 -->
      <g transform="translate(395.16625 204.735321) scale(0.24 -0.24)">
       <use xlink:href="#ArialMT-30"/>
      </g>
     </g>
    </g>
    <g id="ytick_5">
     <g id="line2d_9">
      <g>
       <use xlink:href="#mbdf1e55192" x="415.5125" y="81.674877" style="stroke: #000000; stroke-width: 0.8"/>
      </g>
     </g>
     <g id="text_13">
      <!-- 500 -->
      <g transform="translate(368.47375 90.264252) scale(0.24 -0.24)">
       <use xlink:href="#ArialMT-35"/>
       <use xlink:href="#ArialMT-30" transform="translate(55.615234 0)"/>
       <use xlink:href="#ArialMT-30" transform="translate(111.230469 0)"/>
      </g>
     </g>
    </g>
    <g id="text_14">
     <!-- Frequency -->
     <g transform="translate(362.158594 127.656176) rotate(-90) scale(0.11 -0.11)">
      <use xlink:href="#ArialMT-46"/>
      <use xlink:href="#ArialMT-72" transform="translate(61.083984 0)"/>
      <use xlink:href="#ArialMT-65" transform="translate(94.384766 0)"/>
      <use xlink:href="#ArialMT-71" transform="translate(150 0)"/>
      <use xlink:href="#ArialMT-75" transform="translate(205.615234 0)"/>
      <use xlink:href="#ArialMT-65" transform="translate(261.230469 0)"/>
      <use xlink:href="#ArialMT-6e" transform="translate(316.845703 0)"/>
      <use xlink:href="#ArialMT-63" transform="translate(372.460938 0)"/>
      <use xlink:href="#ArialMT-79" transform="translate(422.460938 0)"/>
     </g>
    </g>
   </g>
   <g id="patch_104">
    <path d="M 415.5125 196.145946 
L 415.5125 7.2 
" style="fill: none; stroke: #ffffff; stroke-width: 0.8; stroke-linejoin: miter; stroke-linecap: square"/>
   </g>
   <g id="patch_105">
    <path d="M 415.5125 196.145946 
L 675.3675 196.145946 
" style="fill: none; stroke: #ffffff; stroke-width: 0.8; stroke-linejoin: miter; stroke-linecap: square"/>
   </g>
   <g id="text_15">
    <!-- Eukaryotic -->
    <g style="fill: #4a90d9" transform="translate(606.355375 25.236672) scale(0.12 -0.12)">
     <defs>
      <path id="ArialMT-45" d="M 506 0 
L 506 4581 
L 3819 4581 
L 3819 4041 
L 1113 4041 
L 1113 2638 
L 3647 2638 
L 3647 2100 
L 1113 2100 
L 1113 541 
L 3925 541 
L 3925 0 
L 506 0 
z
" transform="scale(0.015625)"/>
     </defs>
     <use xlink:href="#ArialMT-45"/>
     <use xlink:href="#ArialMT-75" transform="translate(66.699219 0)"/>
     <use xlink:href="#ArialMT-6b" transform="translate(122.314453 0)"/>
     <use xlink:href="#ArialMT-61" transform="translate(172.314453 0)"/>
     <use xlink:href="#ArialMT-72" transform="translate(227.929688 0)"/>
     <use xlink:href="#ArialMT-79" transform="translate(261.230469 0)"/>
     <use xlink:href="#ArialMT-6f" transform="translate(311.230469 0)"/>
     <use xlink:href="#ArialMT-74" transform="translate(366.845703 0)"/>
     <use xlink:href="#ArialMT-69" transform="translate(394.628906 0)"/>
     <use xlink:href="#ArialMT-63" transform="translate(416.845703 0)"/>
    </g>
   </g>
  </g>
 </g>
 <defs>
  <clipPath id="p509349069c">
   <rect x="68.4275" y="7.2" width="259.855" height="188.945946"/>
  </clipPath>
  <clipPath id="pd42d0e4353">
   <rect x="415.5125" y="7.2" width="259.855" height="188.945946"/>
  </clipPath>
 </defs>
</svg>
