<?xml version="1.0" encoding="utf-8" standalone="no"?>
<!DOCTYPE svg PUBLIC "-//W3C//DTD SVG 1.1//EN"
  "http://www.w3.org/Graphics/SVG/1.1/DTD/svg11.dtd">
<svg xmlns:xlink="http://www.w3.org/1999/xlink" width="682.41375pt" height="247.537222pt" viewBox="0 0 682.41375 247.537222" xmlns="http://www.w3.org/2000/svg" version="1.1">
 <metadata>
  <rdf:RDF xmlns:dc="http://purl.org/dc/elements/1.1/" xmlns:cc="http://creativecommons.org/ns#" xmlns:rdf="http://www.w3.org/1999/02/22-rdf-syntax-ns#">
   <cc:Work>
    <dc:type rdf:resource="http://purl.org/dc/dcmitype/StillImage"/>
    <dc:date>2026-02-22T06:22:47.914188</dc:date>
    <dc:format>image/svg+xml</dc:format>
    <dc:creator>
     <cc:Agent>
      <dc:title>Matplotlib v3.10.8, https://matplotlib.org/</dc:title>
     </cc:Agent>
    </dc:creator>
   </cc:Work>
  </rdf:RDF>
 </metadata>
 <defs>
  <style type="text/css">*{stroke-linejoin: round; stroke-linecap: butt}</style>
 </defs>
 <g id="figure_1">
  <g id="patch_1">
   <path d="M 0 247.537222 
L 682.41375 247.537222 
L 682.41375 0 
L 0 0 
L 0 247.537222 
z
" style="fill: none"/>
  </g>
  <g id="axes_1">
   <g id="patch_2">
    <path d="M 81.77375 196.938472 
L 328.17375 196.938472 
L 328.17375 7.2 
L 81.77375 7.2 
L 81.77375 196.938472 
z
" style="fill: none"/>
   </g>
   <g id="patch_3">
    <path d="M 92.97375 196.938472 
L 97.545178 196.938472 
L 97.545178 196.938472 
L 92.97375 196.938472 
z
" clip-path="url(#p61a16f9143)" style="fill: #f27a6d; opacity: 0.8"/>
   </g>
   <g id="patch_4">
    <path d="M 97.545178 196.938472 
L 102.116607 196.938472 
L 102.116607 196.938472 
L 97.545178 196.938472 
z
" clip-path="url(#p61a16f9143)" style="fill: #f27a6d; opacity: 0.8"/>
   </g>
   <g id="patch_5">
    <path d="M 102.116607 196.938472 
L 106.688036 196.938472 
L 106.688036 196.938472 
L 102.116607 196.938472 
z
" clip-path="url(#p61a16f9143)" style="fill: #f27a6d; opacity: 0.8"/>
   </g>
   <g id="patch_6">
    <path d="M 106.688036 196.938472 
L 111.259464 196.938472 
L 111.259464 196.938472 
L 106.688036 196.938472 
z
" clip-path="url(#p61a16f9143)" style="fill: #f27a6d; opacity: 0.8"/>
   </g>
   <g id="patch_7">
    <path d="M 111.259464 196.938472 
L 115.830892 196.938472 
L 115.830892 196.938472 
L 111.259464 196.938472 
z
" clip-path="url(#p61a16f9143)" style="fill: #f27a6d; opacity: 0.8"/>
   </g>
   <g id="patch_8">
    <path d="M 115.830892 196.938472 
L 120.402322 196.938472 
L 120.402322 196.938472 
L 115.830892 196.938472 
z
" clip-path="url(#p61a16f9143)" style="fill: #f27a6d; opacity: 0.8"/>
   </g>
   <g id="patch_9">
    <path d="M 120.402322 196.938472 
L 124.973748 196.938472 
L 124.973748 196.938472 
L 120.402322 196.938472 
z
" clip-path="url(#p61a16f9143)" style="fill: #f27a6d; opacity: 0.8"/>
   </g>
   <g id="patch_10">
    <path d="M 124.973748 196.938472 
L 129.545178 196.938472 
L 129.545178 196.889247 
L 124.973748 196.889247 
z
" clip-path="url(#p61a16f9143)" style="fill: #f27a6d; opacity: 0.8"/>
   </g>
   <g id="patch_11">
    <path d="M 129.545178 196.938472 
L 134.116608 196.938472 
L 134.116608 196.298553 
L 129.545178 196.298553 
z
" clip-path="url(#p61a16f9143)" style="fill: #f27a6d; opacity: 0.8"/>
   </g>
   <g id="patch_12">
    <path d="M 134.116608 196.938472 
L 138.688034 196.938472 
L 138.688034 194.280346 
L 134.116608 194.280346 
z
" clip-path="url(#p61a16f9143)" style="fill: #f27a6d; opacity: 0.8"/>
   </g>
   <g id="patch_13">
    <path d="M 138.688034 196.938472 
L 143.259464 196.938472 
L 143.259464 184.090866 
L 138.688034 184.090866 
z
" clip-path="url(#p61a16f9143)" style="fill: #f27a6d; opacity: 0.8"/>
   </g>
   <g id="patch_14">
    <path d="M 143.259464 196.938472 
L 147.830893 196.938472 
L 147.830893 98.04636 
L 143.259464 98.04636 
z
" clip-path="url(#p61a16f9143)" style="fill: #f27a6d; opacity: 0.8"/>
   </g>
   <g id="patch_15">
    <path d="M 147.830893 196.938472 
L 152.40232 196.938472 
L 152.40232 16.235165 
L 147.830893 16.235165 
z
" clip-path="url(#p61a16f9143)" style="fill: #f27a6d; opacity: 0.8"/>
   </g>
   <g id="patch_16">
    <path d="M 152.40232 196.938472 
L 156.973746 196.938472 
L 156.973746 159.23247 
L 152.40232 159.23247 
z
" clip-path="url(#p61a16f9143)" style="fill: #f27a6d; opacity: 0.8"/>
   </g>
   <g id="patch_17">
    <path d="M 156.973746 196.938472 
L 161.545179 196.938472 
L 161.545179 189.456341 
L 156.973746 189.456341 
z
" clip-path="url(#p61a16f9143)" style="fill: #f27a6d; opacity: 0.8"/>
   </g>
   <g id="patch_18">
    <path d="M 161.545179 196.938472 
L 166.116606 196.938472 
L 166.116606 191.425323 
L 161.545179 191.425323 
z
" clip-path="url(#p61a16f9143)" style="fill: #f27a6d; opacity: 0.8"/>
   </g>
   <g id="patch_19">
    <path d="M 166.116606 196.938472 
L 170.688032 196.938472 
L 170.688032 190.883853 
L 166.116606 190.883853 
z
" clip-path="url(#p61a16f9143)" style="fill: #f27a6d; opacity: 0.8"/>
   </g>
   <g id="patch_20">
    <path d="M 170.688032 196.938472 
L 175.259465 196.938472 
L 175.259465 191.228425 
L 170.688032 191.228425 
z
" clip-path="url(#p61a16f9143)" style="fill: #f27a6d; opacity: 0.8"/>
   </g>
   <g id="patch_21">
    <path d="M 175.259465 196.938472 
L 179.830891 196.938472 
L 179.830891 192.508263 
L 175.259465 192.508263 
z
" clip-path="url(#p61a16f9143)" style="fill: #f27a6d; opacity: 0.8"/>
   </g>
   <g id="patch_22">
    <path d="M 179.830891 196.938472 
L 184.402318 196.938472 
L 184.402318 192.705161 
L 179.830891 192.705161 
z
" clip-path="url(#p61a16f9143)" style="fill: #f27a6d; opacity: 0.8"/>
   </g>
   <g id="patch_23">
    <path d="M 184.402318 196.938472 
L 188.973751 196.938472 
L 188.973751 193.394305 
L 184.402318 193.394305 
z
" clip-path="url(#p61a16f9143)" style="fill: #f27a6d; opacity: 0.8"/>
   </g>
   <g id="patch_24">
    <path d="M 188.973751 196.938472 
L 193.545177 196.938472 
L 193.545177 194.329571 
L 188.973751 194.329571 
z
" clip-path="url(#p61a16f9143)" style="fill: #f27a6d; opacity: 0.8"/>
   </g>
   <g id="patch_25">
    <path d="M 193.545177 196.938472 
L 198.116604 196.938472 
L 198.116604 194.624918 
L 193.545177 194.624918 
z
" clip-path="url(#p61a16f9143)" style="fill: #f27a6d; opacity: 0.8"/>
   </g>
   <g id="patch_26">
    <path d="M 198.116604 196.938472 
L 202.688037 196.938472 
L 202.688037 194.723367 
L 198.116604 194.723367 
z
" clip-path="url(#p61a16f9143)" style="fill: #f27a6d; opacity: 0.8"/>
   </g>
   <g id="patch_27">
    <path d="M 202.688037 196.938472 
L 207.259463 196.938472 
L 207.259463 194.772592 
L 202.688037 194.772592 
z
" clip-path="url(#p61a16f9143)" style="fill: #f27a6d; opacity: 0.8"/>
   </g>
   <g id="patch_28">
    <path d="M 207.259463 196.938472 
L 211.83089 196.938472 
L 211.83089 195.461736 
L 207.259463 195.461736 
z
" clip-path="url(#p61a16f9143)" style="fill: #f27a6d; opacity: 0.8"/>
   </g>
   <g id="patch_29">
    <path d="M 211.83089 196.938472 
L 216.402316 196.938472 
L 216.402316 195.855532 
L 211.83089 195.855532 
z
" clip-path="url(#p61a16f9143)" style="fill: #f27a6d; opacity: 0.8"/>
   </g>
   <g id="patch_30">
    <path d="M 216.402316 196.938472 
L 220.973742 196.938472 
L 220.973742 195.757083 
L 216.402316 195.757083 
z
" clip-path="url(#p61a16f9143)" style="fill: #f27a6d; opacity: 0.8"/>
   </g>
   <g id="patch_31">
    <path d="M 220.973742 196.938472 
L 225.545182 196.938472 
L 225.545182 196.347777 
L 220.973742 196.347777 
z
" clip-path="url(#p61a16f9143)" style="fill: #f27a6d; opacity: 0.8"/>
   </g>
   <g id="patch_32">
    <path d="M 225.545182 196.938472 
L 230.116609 196.938472 
L 230.116609 196.5939 
L 225.545182 196.5939 
z
" clip-path="url(#p61a16f9143)" style="fill: #f27a6d; opacity: 0.8"/>
   </g>
   <g id="patch_33">
    <path d="M 230.116609 196.938472 
L 234.688035 196.938472 
L 234.688035 196.790798 
L 230.116609 196.790798 
z
" clip-path="url(#p61a16f9143)" style="fill: #f27a6d; opacity: 0.8"/>
   </g>
   <g id="patch_34">
    <path d="M 234.688035 196.938472 
L 239.259461 196.938472 
L 239.259461 196.889247 
L 234.688035 196.889247 
z
" clip-path="url(#p61a16f9143)" style="fill: #f27a6d; opacity: 0.8"/>
   </g>
   <g id="patch_35">
    <path d="M 239.259461 196.938472 
L 243.830888 196.938472 
L 243.830888 196.840023 
L 239.259461 196.840023 
z
" clip-path="url(#p61a16f9143)" style="fill: #f27a6d; opacity: 0.8"/>
   </g>
   <g id="patch_36">
    <path d="M 243.830888 196.938472 
L 248.402314 196.938472 
L 248.402314 196.889247 
L 243.830888 196.889247 
z
" clip-path="url(#p61a16f9143)" style="fill: #f27a6d; opacity: 0.8"/>
   </g>
   <g id="patch_37">
    <path d="M 248.402314 196.938472 
L 252.97374 196.938472 
L 252.97374 196.938472 
L 248.402314 196.938472 
z
" clip-path="url(#p61a16f9143)" style="fill: #f27a6d; opacity: 0.8"/>
   </g>
   <g id="patch_38">
    <path d="M 252.97374 196.938472 
L 257.54518 196.938472 
L 257.54518 196.938472 
L 252.97374 196.938472 
z
" clip-path="url(#p61a16f9143)" style="fill: #f27a6d; opacity: 0.8"/>
   </g>
   <g id="patch_39">
    <path d="M 257.54518 196.938472 
L 262.116607 196.938472 
L 262.116607 196.938472 
L 257.54518 196.938472 
z
" clip-path="url(#p61a16f9143)" style="fill: #f27a6d; opacity: 0.8"/>
   </g>
   <g id="patch_40">
    <path d="M 262.116607 196.938472 
L 266.688033 196.938472 
L 266.688033 196.938472 
L 262.116607 196.938472 
z
" clip-path="url(#p61a16f9143)" style="fill: #f27a6d; opacity: 0.8"/>
   </g>
   <g id="patch_41">
    <path d="M 266.688033 196.938472 
L 271.259459 196.938472 
L 271.259459 196.938472 
L 266.688033 196.938472 
z
" clip-path="url(#p61a16f9143)" style="fill: #f27a6d; opacity: 0.8"/>
   </g>
   <g id="patch_42">
    <path d="M 271.259459 196.938472 
L 275.830886 196.938472 
L 275.830886 196.938472 
L 271.259459 196.938472 
z
" clip-path="url(#p61a16f9143)" style="fill: #f27a6d; opacity: 0.8"/>
   </g>
   <g id="patch_43">
    <path d="M 275.830886 196.938472 
L 280.402312 196.938472 
L 280.402312 196.938472 
L 275.830886 196.938472 
z
" clip-path="url(#p61a16f9143)" style="fill: #f27a6d; opacity: 0.8"/>
   </g>
   <g id="patch_44">
    <path d="M 280.402312 196.938472 
L 284.973752 196.938472 
L 284.973752 196.938472 
L 280.402312 196.938472 
z
" clip-path="url(#p61a16f9143)" style="fill: #f27a6d; opacity: 0.8"/>
   </g>
   <g id="patch_45">
    <path d="M 284.973752 196.938472 
L 289.545178 196.938472 
L 289.545178 196.938472 
L 284.973752 196.938472 
z
" clip-path="url(#p61a16f9143)" style="fill: #f27a6d; opacity: 0.8"/>
   </g>
   <g id="patch_46">
    <path d="M 289.545178 196.938472 
L 294.116605 196.938472 
L 294.116605 196.938472 
L 289.545178 196.938472 
z
" clip-path="url(#p61a16f9143)" style="fill: #f27a6d; opacity: 0.8"/>
   </g>
   <g id="patch_47">
    <path d="M 294.116605 196.938472 
L 298.688031 196.938472 
L 298.688031 196.938472 
L 294.116605 196.938472 
z
" clip-path="url(#p61a16f9143)" style="fill: #f27a6d; opacity: 0.8"/>
   </g>
   <g id="patch_48">
    <path d="M 298.688031 196.938472 
L 303.259457 196.938472 
L 303.259457 196.938472 
L 298.688031 196.938472 
z
" clip-path="url(#p61a16f9143)" style="fill: #f27a6d; opacity: 0.8"/>
   </g>
   <g id="patch_49">
    <path d="M 303.259457 196.938472 
L 307.830884 196.938472 
L 307.830884 196.938472 
L 303.259457 196.938472 
z
" clip-path="url(#p61a16f9143)" style="fill: #f27a6d; opacity: 0.8"/>
   </g>
   <g id="patch_50">
    <path d="M 307.830884 196.938472 
L 312.402324 196.938472 
L 312.402324 196.938472 
L 307.830884 196.938472 
z
" clip-path="url(#p61a16f9143)" style="fill: #f27a6d; opacity: 0.8"/>
   </g>
   <g id="patch_51">
    <path d="M 312.402324 196.938472 
L 316.97375 196.938472 
L 316.97375 196.938472 
L 312.402324 196.938472 
z
" clip-path="url(#p61a16f9143)" style="fill: #f27a6d; opacity: 0.8"/>
   </g>
   <g id="matplotlib.axis_1">
    <g id="xtick_1">
     <g id="line2d_1">
      <defs>
       <path id="m5c6a445df8" d="M 0 0 
L 0 3.5 
" style="stroke: #000000; stroke-width: 0.8"/>
      </defs>
      <g>
       <use xlink:href="#m5c6a445df8" x="92.97375" y="196.938472" style="stroke: #000000; stroke-width: 0.8"/>
      </g>
     </g>
     <g id="text_1">
      <!-- 0 -->
      <g transform="translate(86.300625 221.117222) scale(0.24 -0.24)">
       <defs>
        <path id="ArialMT-30" d="M 266 2259 
Q 266 3072 433 3567 
Q 600 4063 929 4331 
Q 1259 4600 1759 4600 
Q 2128 4600 2406 4451 
Q 2684 4303 2865 4023 
Q 3047 3744 3150 3342 
Q 3253 2941 3253 2259 
Q 3253 1453 3087 958 
Q 2922 463 2592 192 
Q 2263 -78 1759 -78 
Q 1097 -78 719 397 
Q 266 969 266 2259 
z
M 844 2259 
Q 844 1131 1108 757 
Q 1372 384 1759 384 
Q 2147 384 2411 759 
Q 2675 1134 2675 2259 
Q 2675 3391 2411 3762 
Q 2147 4134 1753 4134 
Q 1366 4134 1134 3806 
Q 844 3388 844 2259 
z
" transform="scale(0.015625)"/>
       </defs>
       <use xlink:href="#ArialMT-30"/>
      </g>
     </g>
    </g>
    <g id="xtick_2">
     <g id="line2d_2">
      <g>
       <use xlink:href="#m5c6a445df8" x="204.97375" y="196.938472" style="stroke: #000000; stroke-width: 0.8"/>
      </g>
     </g>
     <g id="text_2">
      <!-- 1 -->
      <g transform="translate(198.300625 221.117222) scale(0.24 -0.24)">
       <defs>
        <path id="ArialMT-31" d="M 2384 0 
L 1822 0 
L 1822 3584 
Q 1619 3391 1289 3197 
Q 959 3003 697 2906 
L 697 3450 
Q 1169 3672 1522 3987 
Q 1875 4303 2022 4600 
L 2384 4600 
L 2384 0 
z
" transform="scale(0.015625)"/>
       </defs>
       <use xlink:href="#ArialMT-31"/>
      </g>
     </g>
    </g>
    <g id="xtick_3">
     <g id="line2d_3">
      <g>
       <use xlink:href="#m5c6a445df8" x="316.97375" y="196.938472" style="stroke: #000000; stroke-width: 0.8"/>
      </g>
     </g>
     <g id="text_3">
      <!-- 2 -->
      <g transform="translate(310.300625 221.117222) scale(0.24 -0.24)">
       <defs>
        <path id="ArialMT-32" d="M 3222 541 
L 3222 0 
L 194 0 
Q 188 203 259 391 
Q 375 700 629 1000 
Q 884 1300 1366 1694 
Q 2113 2306 2375 2664 
Q 2638 3022 2638 3341 
Q 2638 3675 2398 3904 
Q 2159 4134 1775 4134 
Q 1369 4134 1125 3890 
Q 881 3647 878 3216 
L 300 3275 
Q 359 3922 746 4261 
Q 1134 4600 1788 4600 
Q 2447 4600 2831 4234 
Q 3216 3869 3216 3328 
Q 3216 3053 3103 2787 
Q 2991 2522 2730 2228 
Q 2469 1934 1863 1422 
Q 1356 997 1212 845 
Q 1069 694 975 541 
L 3222 541 
z
" transform="scale(0.015625)"/>
       </defs>
       <use xlink:href="#ArialMT-32"/>
      </g>
     </g>
    </g>
    <g id="text_4">
     <!-- Mean non-zero activation (Log$_{10}$) -->
     <g transform="translate(123.73875 237.917222) scale(0.11 -0.11)">
      <defs>
       <path id="ArialMT-4d" d="M 475 0 
L 475 4581 
L 1388 4581 
L 2472 1338 
Q 2622 884 2691 659 
Q 2769 909 2934 1394 
L 4031 4581 
L 4847 4581 
L 4847 0 
L 4263 0 
L 4263 3834 
L 2931 0 
L 2384 0 
L 1059 3900 
L 1059 0 
L 475 0 
z
" transform="scale(0.015625)"/>
       <path id="ArialMT-65" d="M 2694 1069 
L 3275 997 
Q 3138 488 2766 206 
Q 2394 -75 1816 -75 
Q 1088 -75 661 373 
Q 234 822 234 1631 
Q 234 2469 665 2931 
Q 1097 3394 1784 3394 
Q 2450 3394 2872 2941 
Q 3294 2488 3294 1666 
Q 3294 1616 3291 1516 
L 816 1516 
Q 847 969 1125 678 
Q 1403 388 1819 388 
Q 2128 388 2347 550 
Q 2566 713 2694 1069 
z
M 847 1978 
L 2700 1978 
Q 2663 2397 2488 2606 
Q 2219 2931 1791 2931 
Q 1403 2931 1139 2672 
Q 875 2413 847 1978 
z
" transform="scale(0.015625)"/>
       <path id="ArialMT-61" d="M 2588 409 
Q 2275 144 1986 34 
Q 1697 -75 1366 -75 
Q 819 -75 525 192 
Q 231 459 231 875 
Q 231 1119 342 1320 
Q 453 1522 633 1644 
Q 813 1766 1038 1828 
Q 1203 1872 1538 1913 
Q 2219 1994 2541 2106 
Q 2544 2222 2544 2253 
Q 2544 2597 2384 2738 
Q 2169 2928 1744 2928 
Q 1347 2928 1158 2789 
Q 969 2650 878 2297 
L 328 2372 
Q 403 2725 575 2942 
Q 747 3159 1072 3276 
Q 1397 3394 1825 3394 
Q 2250 3394 2515 3294 
Q 2781 3194 2906 3042 
Q 3031 2891 3081 2659 
Q 3109 2516 3109 2141 
L 3109 1391 
Q 3109 606 3145 398 
Q 3181 191 3288 0 
L 2700 0 
Q 2613 175 2588 409 
z
M 2541 1666 
Q 2234 1541 1622 1453 
Q 1275 1403 1131 1340 
Q 988 1278 909 1158 
Q 831 1038 831 891 
Q 831 666 1001 516 
Q 1172 366 1500 366 
Q 1825 366 2078 508 
Q 2331 650 2450 897 
Q 2541 1088 2541 1459 
L 2541 1666 
z
" transform="scale(0.015625)"/>
       <path id="ArialMT-6e" d="M 422 0 
L 422 3319 
L 928 3319 
L 928 2847 
Q 1294 3394 1984 3394 
Q 2284 3394 2536 3286 
Q 2788 3178 2913 3003 
Q 3038 2828 3088 2588 
Q 3119 2431 3119 2041 
L 3119 0 
L 2556 0 
L 2556 2019 
Q 2556 2363 2490 2533 
Q 2425 2703 2258 2804 
Q 2091 2906 1866 2906 
Q 1506 2906 1245 2678 
Q 984 2450 984 1813 
L 984 0 
L 422 0 
z
" transform="scale(0.015625)"/>
       <path id="ArialMT-20" transform="scale(0.015625)"/>
       <path id="ArialMT-6f" d="M 213 1659 
Q 213 2581 725 3025 
Q 1153 3394 1769 3394 
Q 2453 3394 2887 2945 
Q 3322 2497 3322 1706 
Q 3322 1066 3130 698 
Q 2938 331 2570 128 
Q 2203 -75 1769 -75 
Q 1072 -75 642 372 
Q 213 819 213 1659 
z
M 791 1659 
Q 791 1022 1069 705 
Q 1347 388 1769 388 
Q 2188 388 2466 706 
Q 2744 1025 2744 1678 
Q 2744 2294 2464 2611 
Q 2184 2928 1769 2928 
Q 1347 2928 1069 2612 
Q 791 2297 791 1659 
z
" transform="scale(0.015625)"/>
       <path id="ArialMT-2d" d="M 203 1375 
L 203 1941 
L 1931 1941 
L 1931 1375 
L 203 1375 
z
" transform="scale(0.015625)"/>
       <path id="ArialMT-7a" d="M 125 0 
L 125 456 
L 2238 2881 
Q 1878 2863 1603 2863 
L 250 2863 
L 250 3319 
L 2963 3319 
L 2963 2947 
L 1166 841 
L 819 456 
Q 1197 484 1528 484 
L 3063 484 
L 3063 0 
L 125 0 
z
" transform="scale(0.015625)"/>
       <path id="ArialMT-72" d="M 416 0 
L 416 3319 
L 922 3319 
L 922 2816 
Q 1116 3169 1280 3281 
Q 1444 3394 1641 3394 
Q 1925 3394 2219 3213 
L 2025 2691 
Q 1819 2813 1613 2813 
Q 1428 2813 1281 2702 
Q 1134 2591 1072 2394 
Q 978 2094 978 1738 
L 978 0 
L 416 0 
z
" transform="scale(0.015625)"/>
       <path id="ArialMT-63" d="M 2588 1216 
L 3141 1144 
Q 3050 572 2676 248 
Q 2303 -75 1759 -75 
Q 1078 -75 664 370 
Q 250 816 250 1647 
Q 250 2184 428 2587 
Q 606 2991 970 3192 
Q 1334 3394 1763 3394 
Q 2303 3394 2647 3120 
Q 2991 2847 3088 2344 
L 2541 2259 
Q 2463 2594 2264 2762 
Q 2066 2931 1784 2931 
Q 1359 2931 1093 2626 
Q 828 2322 828 1663 
Q 828 994 1084 691 
Q 1341 388 1753 388 
Q 2084 388 2306 591 
Q 2528 794 2588 1216 
z
" transform="scale(0.015625)"/>
       <path id="ArialMT-74" d="M 1650 503 
L 1731 6 
Q 1494 -44 1306 -44 
Q 1000 -44 831 53 
Q 663 150 594 308 
Q 525 466 525 972 
L 525 2881 
L 113 2881 
L 113 3319 
L 525 3319 
L 525 4141 
L 1084 4478 
L 1084 3319 
L 1650 3319 
L 1650 2881 
L 1084 2881 
L 1084 941 
Q 1084 700 1114 631 
Q 1144 563 1211 522 
Q 1278 481 1403 481 
Q 1497 481 1650 503 
z
" transform="scale(0.015625)"/>
       <path id="ArialMT-69" d="M 425 3934 
L 425 4581 
L 988 4581 
L 988 3934 
L 425 3934 
z
M 425 0 
L 425 3319 
L 988 3319 
L 988 0 
L 425 0 
z
" transform="scale(0.015625)"/>
       <path id="ArialMT-76" d="M 1344 0 
L 81 3319 
L 675 3319 
L 1388 1331 
Q 1503 1009 1600 663 
Q 1675 925 1809 1294 
L 2547 3319 
L 3125 3319 
L 1869 0 
L 1344 0 
z
" transform="scale(0.015625)"/>
       <path id="ArialMT-28" d="M 1497 -1347 
Q 1031 -759 709 28 
Q 388 816 388 1659 
Q 388 2403 628 3084 
Q 909 3875 1497 4659 
L 1900 4659 
Q 1522 4009 1400 3731 
Q 1209 3300 1100 2831 
Q 966 2247 966 1656 
Q 966 153 1900 -1347 
L 1497 -1347 
z
" transform="scale(0.015625)"/>
       <path id="ArialMT-4c" d="M 469 0 
L 469 4581 
L 1075 4581 
L 1075 541 
L 3331 541 
L 3331 0 
L 469 0 
z
" transform="scale(0.015625)"/>
       <path id="ArialMT-67" d="M 319 -275 
L 866 -356 
Q 900 -609 1056 -725 
Q 1266 -881 1628 -881 
Q 2019 -881 2231 -725 
Q 2444 -569 2519 -288 
Q 2563 -116 2559 434 
Q 2191 0 1641 0 
Q 956 0 581 494 
Q 206 988 206 1678 
Q 206 2153 378 2554 
Q 550 2956 876 3175 
Q 1203 3394 1644 3394 
Q 2231 3394 2613 2919 
L 2613 3319 
L 3131 3319 
L 3131 450 
Q 3131 -325 2973 -648 
Q 2816 -972 2473 -1159 
Q 2131 -1347 1631 -1347 
Q 1038 -1347 672 -1080 
Q 306 -813 319 -275 
z
M 784 1719 
Q 784 1066 1043 766 
Q 1303 466 1694 466 
Q 2081 466 2343 764 
Q 2606 1063 2606 1700 
Q 2606 2309 2336 2618 
Q 2066 2928 1684 2928 
Q 1309 2928 1046 2623 
Q 784 2319 784 1719 
z
" transform="scale(0.015625)"/>
       <path id="DejaVuSans-31" d="M 794 531 
L 1825 531 
L 1825 4091 
L 703 3866 
L 703 4441 
L 1819 4666 
L 2450 4666 
L 2450 531 
L 3481 531 
L 3481 0 
L 794 0 
L 794 531 
z
" transform="scale(0.015625)"/>
       <path id="DejaVuSans-30" d="M 2034 4250 
Q 1547 4250 1301 3770 
Q 1056 3291 1056 2328 
Q 1056 1369 1301 889 
Q 1547 409 2034 409 
Q 2525 409 2770 889 
Q 3016 1369 3016 2328 
Q 3016 3291 2770 3770 
Q 2525 4250 2034 4250 
z
M 2034 4750 
Q 2819 4750 3233 4129 
Q 3647 3509 3647 2328 
Q 3647 1150 3233 529 
Q 2819 -91 2034 -91 
Q 1250 -91 836 529 
Q 422 1150 422 2328 
Q 422 3509 836 4129 
Q 1250 4750 2034 4750 
z
" transform="scale(0.015625)"/>
       <path id="ArialMT-29" d="M 791 -1347 
L 388 -1347 
Q 1322 153 1322 1656 
Q 1322 2244 1188 2822 
Q 1081 3291 891 3722 
Q 769 4003 388 4659 
L 791 4659 
Q 1378 3875 1659 3084 
Q 1900 2403 1900 1659 
Q 1900 816 1576 28 
Q 1253 -759 791 -1347 
z
" transform="scale(0.015625)"/>
      </defs>
      <use xlink:href="#ArialMT-4d" transform="translate(0 0.203125)"/>
      <use xlink:href="#ArialMT-65" transform="translate(83.300781 0.203125)"/>
      <use xlink:href="#ArialMT-61" transform="translate(138.916016 0.203125)"/>
      <use xlink:href="#ArialMT-6e" transform="translate(194.53125 0.203125)"/>
      <use xlink:href="#ArialMT-20" transform="translate(250.146484 0.203125)"/>
      <use xlink:href="#ArialMT-6e" transform="translate(277.929688 0.203125)"/>
      <use xlink:href="#ArialMT-6f" transform="translate(333.544922 0.203125)"/>
      <use xlink:href="#ArialMT-6e" transform="translate(389.160156 0.203125)"/>
      <use xlink:href="#ArialMT-2d" transform="translate(444.775391 0.203125)"/>
      <use xlink:href="#ArialMT-7a" transform="translate(478.076172 0.203125)"/>
      <use xlink:href="#ArialMT-65" transform="translate(528.076172 0.203125)"/>
      <use xlink:href="#ArialMT-72" transform="translate(583.691406 0.203125)"/>
      <use xlink:href="#ArialMT-6f" transform="translate(616.992188 0.203125)"/>
      <use xlink:href="#ArialMT-20" transform="translate(672.607422 0.203125)"/>
      <use xlink:href="#ArialMT-61" transform="translate(700.390625 0.203125)"/>
      <use xlink:href="#ArialMT-63" transform="translate(756.005859 0.203125)"/>
      <use xlink:href="#ArialMT-74" transform="translate(806.005859 0.203125)"/>
      <use xlink:href="#ArialMT-69" transform="translate(833.789062 0.203125)"/>
      <use xlink:href="#ArialMT-76" transform="translate(856.005859 0.203125)"/>
      <use xlink:href="#ArialMT-61" transform="translate(906.005859 0.203125)"/>
      <use xlink:href="#ArialMT-74" transform="translate(961.621094 0.203125)"/>
      <use xlink:href="#ArialMT-69" transform="translate(989.404297 0.203125)"/>
      <use xlink:href="#ArialMT-6f" transform="translate(1011.621094 0.203125)"/>
      <use xlink:href="#ArialMT-6e" transform="translate(1067.236328 0.203125)"/>
      <use xlink:href="#ArialMT-20" transform="translate(1122.851562 0.203125)"/>
      <use xlink:href="#ArialMT-28" transform="translate(1150.634766 0.203125)"/>
      <use xlink:href="#ArialMT-4c" transform="translate(1183.935547 0.203125)"/>
      <use xlink:href="#ArialMT-6f" transform="translate(1239.550781 0.203125)"/>
      <use xlink:href="#ArialMT-67" transform="translate(1295.166016 0.203125)"/>
      <use xlink:href="#DejaVuSans-31" transform="translate(1351.738281 -16.203125) scale(0.7)"/>
      <use xlink:href="#DejaVuSans-30" transform="translate(1396.274414 -16.203125) scale(0.7)"/>
      <use xlink:href="#ArialMT-29" transform="translate(1443.544922 0.203125)"/>
     </g>
    </g>
   </g>
   <g id="matplotlib.axis_2">
    <g id="ytick_1">
     <g id="line2d_4">
      <defs>
       <path id="me92ddf5a39" d="M 0 0 
L -3.5 0 
" style="stroke: #000000; stroke-width: 0.8"/>
      </defs>
      <g>
       <use xlink:href="#me92ddf5a39" x="81.77375" y="196.938472" style="stroke: #000000; stroke-width: 0.8"/>
      </g>
     </g>
     <g id="text_5">
      <!-- 0 -->
      <g transform="translate(61.4275 205.527847) scale(0.24 -0.24)">
       <use xlink:href="#ArialMT-30"/>
      </g>
     </g>
    </g>
    <g id="ytick_2">
     <g id="line2d_5">
      <g>
       <use xlink:href="#me92ddf5a39" x="81.77375" y="98.489381" style="stroke: #000000; stroke-width: 0.8"/>
      </g>
     </g>
     <g id="text_6">
      <!-- 2000 -->
      <g transform="translate(21.38875 107.078756) scale(0.24 -0.24)">
       <use xlink:href="#ArialMT-32"/>
       <use xlink:href="#ArialMT-30" transform="translate(55.615234 0)"/>
       <use xlink:href="#ArialMT-30" transform="translate(111.230469 0)"/>
       <use xlink:href="#ArialMT-30" transform="translate(166.845703 0)"/>
      </g>
     </g>
    </g>
    <g id="text_7">
     <!-- Frequency -->
     <g transform="translate(15.073594 128.052439) rotate(-90) scale(0.11 -0.11)">
      <defs>
       <path id="ArialMT-46" d="M 525 0 
L 525 4581 
L 3616 4581 
L 3616 4041 
L 1131 4041 
L 1131 2622 
L 3281 2622 
L 3281 2081 
L 1131 2081 
L 1131 0 
L 525 0 
z
" transform="scale(0.015625)"/>
       <path id="ArialMT-71" d="M 2538 -1272 
L 2538 353 
Q 2406 169 2170 47 
Q 1934 -75 1669 -75 
Q 1078 -75 651 397 
Q 225 869 225 1691 
Q 225 2191 398 2587 
Q 572 2984 901 3189 
Q 1231 3394 1625 3394 
Q 2241 3394 2594 2875 
L 2594 3319 
L 3100 3319 
L 3100 -1272 
L 2538 -1272 
z
M 803 1669 
Q 803 1028 1072 708 
Q 1341 388 1716 388 
Q 2075 388 2334 692 
Q 2594 997 2594 1619 
Q 2594 2281 2320 2615 
Q 2047 2950 1678 2950 
Q 1313 2950 1058 2639 
Q 803 2328 803 1669 
z
" transform="scale(0.015625)"/>
       <path id="ArialMT-75" d="M 2597 0 
L 2597 488 
Q 2209 -75 1544 -75 
Q 1250 -75 995 37 
Q 741 150 617 320 
Q 494 491 444 738 
Q 409 903 409 1263 
L 409 3319 
L 972 3319 
L 972 1478 
Q 972 1038 1006 884 
Q 1059 663 1231 536 
Q 1403 409 1656 409 
Q 1909 409 2131 539 
Q 2353 669 2445 892 
Q 2538 1116 2538 1541 
L 2538 3319 
L 3100 3319 
L 3100 0 
L 2597 0 
z
" transform="scale(0.015625)"/>
       <path id="ArialMT-79" d="M 397 -1278 
L 334 -750 
Q 519 -800 656 -800 
Q 844 -800 956 -737 
Q 1069 -675 1141 -563 
Q 1194 -478 1313 -144 
Q 1328 -97 1363 -6 
L 103 3319 
L 709 3319 
L 1400 1397 
Q 1534 1031 1641 628 
Q 1738 1016 1872 1384 
L 2581 3319 
L 3144 3319 
L 1881 -56 
Q 1678 -603 1566 -809 
Q 1416 -1088 1222 -1217 
Q 1028 -1347 759 -1347 
Q 597 -1347 397 -1278 
z
" transform="scale(0.015625)"/>
      </defs>
      <use xlink:href="#ArialMT-46"/>
      <use xlink:href="#ArialMT-72" transform="translate(61.083984 0)"/>
      <use xlink:href="#ArialMT-65" transform="translate(94.384766 0)"/>
      <use xlink:href="#ArialMT-71" transform="translate(150 0)"/>
      <use xlink:href="#ArialMT-75" transform="translate(205.615234 0)"/>
      <use xlink:href="#ArialMT-65" transform="translate(261.230469 0)"/>
      <use xlink:href="#ArialMT-6e" transform="translate(316.845703 0)"/>
      <use xlink:href="#ArialMT-63" transform="translate(372.460938 0)"/>
      <use xlink:href="#ArialMT-79" transform="translate(422.460938 0)"/>
     </g>
    </g>
   </g>
   <g id="patch_52">
    <path d="M 81.77375 196.938472 
L 81.77375 7.2 
" style="fill: none; stroke: #ffffff; stroke-width: 0.8; stroke-linejoin: miter; stroke-linecap: square"/>
   </g>
   <g id="patch_53">
    <path d="M 81.77375 196.938472 
L 328.17375 196.938472 
" style="fill: none; stroke: #ffffff; stroke-width: 0.8; stroke-linejoin: miter; stroke-linecap: square"/>
   </g>
   <g id="text_8">
    <!-- Prokaryotic -->
    <g style="fill: #f27a6d" transform="translate(255.83875 25.276299) scale(0.12 -0.12)">
     <defs>
      <path id="ArialMT-50" d="M 494 0 
L 494 4581 
L 2222 4581 
Q 2678 4581 2919 4538 
Q 3256 4481 3484 4323 
Q 3713 4166 3852 3881 
Q 3991 3597 3991 3256 
Q 3991 2672 3619 2267 
Q 3247 1863 2275 1863 
L 1100 1863 
L 1100 0 
L 494 0 
z
M 1100 2403 
L 2284 2403 
Q 2872 2403 3119 2622 
Q 3366 2841 3366 3238 
Q 3366 3525 3220 3729 
Q 3075 3934 2838 4000 
Q 2684 4041 2272 4041 
L 1100 4041 
L 1100 2403 
z
" transform="scale(0.015625)"/>
      <path id="ArialMT-6b" d="M 425 0 
L 425 4581 
L 988 4581 
L 988 1969 
L 2319 3319 
L 3047 3319 
L 1778 2088 
L 3175 0 
L 2481 0 
L 1384 1697 
L 988 1316 
L 988 0 
L 425 0 
z
" transform="scale(0.015625)"/>
     </defs>
     <use xlink:href="#ArialMT-50"/>
     <use xlink:href="#ArialMT-72" transform="translate(66.699219 0)"/>
     <use xlink:href="#ArialMT-6f" transform="translate(100 0)"/>
     <use xlink:href="#ArialMT-6b" transform="translate(155.615234 0)"/>
     <use xlink:href="#ArialMT-61" transform="translate(205.615234 0)"/>
     <use xlink:href="#ArialMT-72" transform="translate(261.230469 0)"/>
     <use xlink:href="#ArialMT-79" transform="translate(294.53125 0)"/>
     <use xlink:href="#ArialMT-6f" transform="translate(344.53125 0)"/>
     <use xlink:href="#ArialMT-74" transform="translate(400.146484 0)"/>
     <use xlink:href="#ArialMT-69" transform="translate(427.929688 0)"/>
     <use xlink:href="#ArialMT-63" transform="translate(450.146484 0)"/>
    </g>
   </g>
  </g>
  <g id="axes_2">
   <g id="patch_54">
    <path d="M 428.81375 196.938472 
L 675.21375 196.938472 
L 675.21375 7.2 
L 428.81375 7.2 
L 428.81375 196.938472 
z
" style="fill: none"/>
   </g>
   <g id="patch_55">
    <path d="M 440.01375 196.938472 
L 444.585178 196.938472 
L 444.585178 196.938472 
L 440.01375 196.938472 
z
" clip-path="url(#pcf481e479e)" style="fill: #87ceeb; opacity: 0.8"/>
   </g>
   <g id="patch_56">
    <path d="M 444.585178 196.938472 
L 449.156607 196.938472 
L 449.156607 196.938472 
L 444.585178 196.938472 
z
" clip-path="url(#pcf481e479e)" style="fill: #87ceeb; opacity: 0.8"/>
   </g>
   <g id="patch_57">
    <path d="M 449.156607 196.938472 
L 453.728036 196.938472 
L 453.728036 196.938472 
L 449.156607 196.938472 
z
" clip-path="url(#pcf481e479e)" style="fill: #87ceeb; opacity: 0.8"/>
   </g>
   <g id="patch_58">
    <path d="M 453.728036 196.938472 
L 458.299464 196.938472 
L 458.299464 196.938472 
L 453.728036 196.938472 
z
" clip-path="url(#pcf481e479e)" style="fill: #87ceeb; opacity: 0.8"/>
   </g>
   <g id="patch_59">
    <path d="M 458.299464 196.938472 
L 462.870892 196.938472 
L 462.870892 196.938472 
L 458.299464 196.938472 
z
" clip-path="url(#pcf481e479e)" style="fill: #87ceeb; opacity: 0.8"/>
   </g>
   <g id="patch_60">
    <path d="M 462.870892 196.938472 
L 467.442322 196.938472 
L 467.442322 196.938472 
L 462.870892 196.938472 
z
" clip-path="url(#pcf481e479e)" style="fill: #87ceeb; opacity: 0.8"/>
   </g>
   <g id="patch_61">
    <path d="M 467.442322 196.938472 
L 472.013748 196.938472 
L 472.013748 196.938472 
L 467.442322 196.938472 
z
" clip-path="url(#pcf481e479e)" style="fill: #87ceeb; opacity: 0.8"/>
   </g>
   <g id="patch_62">
    <path d="M 472.013748 196.938472 
L 476.585178 196.938472 
L 476.585178 196.816827 
L 472.013748 196.816827 
z
" clip-path="url(#pcf481e479e)" style="fill: #87ceeb; opacity: 0.8"/>
   </g>
   <g id="patch_63">
    <path d="M 476.585178 196.938472 
L 481.156608 196.938472 
L 481.156608 196.269426 
L 476.585178 196.269426 
z
" clip-path="url(#pcf481e479e)" style="fill: #87ceeb; opacity: 0.8"/>
   </g>
   <g id="patch_64">
    <path d="M 481.156608 196.938472 
L 485.728034 196.938472 
L 485.728034 192.985017 
L 481.156608 192.985017 
z
" clip-path="url(#pcf481e479e)" style="fill: #87ceeb; opacity: 0.8"/>
   </g>
   <g id="patch_65">
    <path d="M 485.728034 196.938472 
L 490.299464 196.938472 
L 490.299464 185.260574 
L 485.728034 185.260574 
z
" clip-path="url(#pcf481e479e)" style="fill: #87ceeb; opacity: 0.8"/>
   </g>
   <g id="patch_66">
    <path d="M 490.299464 196.938472 
L 494.870893 196.938472 
L 494.870893 113.611804 
L 490.299464 113.611804 
z
" clip-path="url(#pcf481e479e)" style="fill: #87ceeb; opacity: 0.8"/>
   </g>
   <g id="patch_67">
    <path d="M 494.870893 196.938472 
L 499.44232 196.938472 
L 499.44232 16.235165 
L 494.870893 16.235165 
z
" clip-path="url(#pcf481e479e)" style="fill: #87ceeb; opacity: 0.8"/>
   </g>
   <g id="patch_68">
    <path d="M 499.44232 196.938472 
L 504.013746 196.938472 
L 504.013746 117.504437 
L 499.44232 117.504437 
z
" clip-path="url(#pcf481e479e)" style="fill: #87ceeb; opacity: 0.8"/>
   </g>
   <g id="patch_69">
    <path d="M 504.013746 196.938472 
L 508.585179 196.938472 
L 508.585179 167.31797 
L 504.013746 167.31797 
z
" clip-path="url(#pcf481e479e)" style="fill: #87ceeb; opacity: 0.8"/>
   </g>
   <g id="patch_70">
    <path d="M 508.585179 196.938472 
L 513.156606 196.938472 
L 513.156606 181.307119 
L 508.585179 181.307119 
z
" clip-path="url(#pcf481e479e)" style="fill: #87ceeb; opacity: 0.8"/>
   </g>
   <g id="patch_71">
    <path d="M 513.156606 196.938472 
L 517.728032 196.938472 
L 517.728032 184.530705 
L 513.156606 184.530705 
z
" clip-path="url(#pcf481e479e)" style="fill: #87ceeb; opacity: 0.8"/>
   </g>
   <g id="patch_72">
    <path d="M 517.728032 196.938472 
L 522.299465 196.938472 
L 522.299465 184.348238 
L 517.728032 184.348238 
z
" clip-path="url(#pcf481e479e)" style="fill: #87ceeb; opacity: 0.8"/>
   </g>
   <g id="patch_73">
    <path d="M 522.299465 196.938472 
L 526.870891 196.938472 
L 526.870891 183.800837 
L 522.299465 183.800837 
z
" clip-path="url(#pcf481e479e)" style="fill: #87ceeb; opacity: 0.8"/>
   </g>
   <g id="patch_74">
    <path d="M 526.870891 196.938472 
L 531.442318 196.938472 
L 531.442318 189.518141 
L 526.870891 189.518141 
z
" clip-path="url(#pcf481e479e)" style="fill: #87ceeb; opacity: 0.8"/>
   </g>
   <g id="patch_75">
    <path d="M 531.442318 196.938472 
L 536.013751 196.938472 
L 536.013751 189.700608 
L 531.442318 189.700608 
z
" clip-path="url(#pcf481e479e)" style="fill: #87ceeb; opacity: 0.8"/>
   </g>
   <g id="patch_76">
    <path d="M 536.013751 196.938472 
L 540.585177 196.938472 
L 540.585177 191.768569 
L 536.013751 191.768569 
z
" clip-path="url(#pcf481e479e)" style="fill: #87ceeb; opacity: 0.8"/>
   </g>
   <g id="patch_77">
    <path d="M 540.585177 196.938472 
L 545.156604 196.938472 
L 545.156604 193.289129 
L 540.585177 193.289129 
z
" clip-path="url(#pcf481e479e)" style="fill: #87ceeb; opacity: 0.8"/>
   </g>
   <g id="patch_78">
    <path d="M 545.156604 196.938472 
L 549.728037 196.938472 
L 549.728037 194.566399 
L 545.156604 194.566399 
z
" clip-path="url(#pcf481e479e)" style="fill: #87ceeb; opacity: 0.8"/>
   </g>
   <g id="patch_79">
    <path d="M 549.728037 196.938472 
L 554.299463 196.938472 
L 554.299463 194.627221 
L 549.728037 194.627221 
z
" clip-path="url(#pcf481e479e)" style="fill: #87ceeb; opacity: 0.8"/>
   </g>
   <g id="patch_80">
    <path d="M 554.299463 196.938472 
L 558.87089 196.938472 
L 558.87089 194.870511 
L 554.299463 194.870511 
z
" clip-path="url(#pcf481e479e)" style="fill: #87ceeb; opacity: 0.8"/>
   </g>
   <g id="patch_81">
    <path d="M 558.87089 196.938472 
L 563.442316 196.938472 
L 563.442316 194.748866 
L 558.87089 194.748866 
z
" clip-path="url(#pcf481e479e)" style="fill: #87ceeb; opacity: 0.8"/>
   </g>
   <g id="patch_82">
    <path d="M 563.442316 196.938472 
L 568.013742 196.938472 
L 568.013742 195.052978 
L 563.442316 195.052978 
z
" clip-path="url(#pcf481e479e)" style="fill: #87ceeb; opacity: 0.8"/>
   </g>
   <g id="patch_83">
    <path d="M 568.013742 196.938472 
L 572.585182 196.938472 
L 572.585182 194.809688 
L 568.013742 194.809688 
z
" clip-path="url(#pcf481e479e)" style="fill: #87ceeb; opacity: 0.8"/>
   </g>
   <g id="patch_84">
    <path d="M 572.585182 196.938472 
L 577.156609 196.938472 
L 577.156609 195.843669 
L 572.585182 195.843669 
z
" clip-path="url(#pcf481e479e)" style="fill: #87ceeb; opacity: 0.8"/>
   </g>
   <g id="patch_85">
    <path d="M 577.156609 196.938472 
L 581.728035 196.938472 
L 581.728035 195.722024 
L 577.156609 195.722024 
z
" clip-path="url(#pcf481e479e)" style="fill: #87ceeb; opacity: 0.8"/>
   </g>
   <g id="patch_86">
    <path d="M 581.728035 196.938472 
L 586.299461 196.938472 
L 586.299461 196.086959 
L 581.728035 196.086959 
z
" clip-path="url(#pcf481e479e)" style="fill: #87ceeb; opacity: 0.8"/>
   </g>
   <g id="patch_87">
    <path d="M 586.299461 196.938472 
L 590.870888 196.938472 
L 590.870888 196.512715 
L 586.299461 196.512715 
z
" clip-path="url(#pcf481e479e)" style="fill: #87ceeb; opacity: 0.8"/>
   </g>
   <g id="patch_88">
    <path d="M 590.870888 196.938472 
L 595.442314 196.938472 
L 595.442314 196.512715 
L 590.870888 196.512715 
z
" clip-path="url(#pcf481e479e)" style="fill: #87ceeb; opacity: 0.8"/>
   </g>
   <g id="patch_89">
    <path d="M 595.442314 196.938472 
L 600.01374 196.938472 
L 600.01374 196.63436 
L 595.442314 196.63436 
z
" clip-path="url(#pcf481e479e)" style="fill: #87ceeb; opacity: 0.8"/>
   </g>
   <g id="patch_90">
    <path d="M 600.01374 196.938472 
L 604.58518 196.938472 
L 604.58518 196.756005 
L 600.01374 196.756005 
z
" clip-path="url(#pcf481e479e)" style="fill: #87ceeb; opacity: 0.8"/>
   </g>
   <g id="patch_91">
    <path d="M 604.58518 196.938472 
L 609.156607 196.938472 
L 609.156607 196.87765 
L 604.58518 196.87765 
z
" clip-path="url(#pcf481e479e)" style="fill: #87ceeb; opacity: 0.8"/>
   </g>
   <g id="patch_92">
    <path d="M 609.156607 196.938472 
L 613.728033 196.938472 
L 613.728033 196.938472 
L 609.156607 196.938472 
z
" clip-path="url(#pcf481e479e)" style="fill: #87ceeb; opacity: 0.8"/>
   </g>
   <g id="patch_93">
    <path d="M 613.728033 196.938472 
L 618.299459 196.938472 
L 618.299459 196.938472 
L 613.728033 196.938472 
z
" clip-path="url(#pcf481e479e)" style="fill: #87ceeb; opacity: 0.8"/>
   </g>
   <g id="patch_94">
    <path d="M 618.299459 196.938472 
L 622.870886 196.938472 
L 622.870886 196.938472 
L 618.299459 196.938472 
z
" clip-path="url(#pcf481e479e)" style="fill: #87ceeb; opacity: 0.8"/>
   </g>
   <g id="patch_95">
    <path d="M 622.870886 196.938472 
L 627.442312 196.938472 
L 627.442312 196.938472 
L 622.870886 196.938472 
z
" clip-path="url(#pcf481e479e)" style="fill: #87ceeb; opacity: 0.8"/>
   </g>
   <g id="patch_96">
    <path d="M 627.442312 196.938472 
L 632.013752 196.938472 
L 632.013752 196.938472 
L 627.442312 196.938472 
z
" clip-path="url(#pcf481e479e)" style="fill: #87ceeb; opacity: 0.8"/>
   </g>
   <g id="patch_97">
    <path d="M 632.013752 196.938472 
L 636.585178 196.938472 
L 636.585178 196.938472 
L 632.013752 196.938472 
z
" clip-path="url(#pcf481e479e)" style="fill: #87ceeb; opacity: 0.8"/>
   </g>
   <g id="patch_98">
    <path d="M 636.585178 196.938472 
L 641.156605 196.938472 
L 641.156605 196.938472 
L 636.585178 196.938472 
z
" clip-path="url(#pcf481e479e)" style="fill: #87ceeb; opacity: 0.8"/>
   </g>
   <g id="patch_99">
    <path d="M 641.156605 196.938472 
L 645.728031 196.938472 
L 645.728031 196.938472 
L 641.156605 196.938472 
z
" clip-path="url(#pcf481e479e)" style="fill: #87ceeb; opacity: 0.8"/>
   </g>
   <g id="patch_100">
    <path d="M 645.728031 196.938472 
L 650.299457 196.938472 
L 650.299457 196.938472 
L 645.728031 196.938472 
z
" clip-path="url(#pcf481e479e)" style="fill: #87ceeb; opacity: 0.8"/>
   </g>
   <g id="patch_101">
    <path d="M 650.299457 196.938472 
L 654.870884 196.938472 
L 654.870884 196.938472 
L 650.299457 196.938472 
z
" clip-path="url(#pcf481e479e)" style="fill: #87ceeb; opacity: 0.8"/>
   </g>
   <g id="patch_102">
    <path d="M 654.870884 196.938472 
L 659.442324 196.938472 
L 659.442324 196.938472 
L 654.870884 196.938472 
z
" clip-path="url(#pcf481e479e)" style="fill: #87ceeb; opacity: 0.8"/>
   </g>
   <g id="patch_103">
    <path d="M 659.442324 196.938472 
L 664.01375 196.938472 
L 664.01375 196.938472 
L 659.442324 196.938472 
z
" clip-path="url(#pcf481e479e)" style="fill: #87ceeb; opacity: 0.8"/>
   </g>
   <g id="matplotlib.axis_3">
    <g id="xtick_4">
     <g id="line2d_6">
      <g>
       <use xlink:href="#m5c6a445df8" x="440.01375" y="196.938472" style="stroke: #000000; stroke-width: 0.8"/>
      </g>
     </g>
     <g id="text_9">
      <!-- 0 -->
      <g transform="translate(433.340625 221.117222) scale(0.24 -0.24)">
       <use xlink:href="#ArialMT-30"/>
      </g>
     </g>
    </g>
    <g id="xtick_5">
     <g id="line2d_7">
      <g>
       <use xlink:href="#m5c6a445df8" x="552.01375" y="196.938472" style="stroke: #000000; stroke-width: 0.8"/>
      </g>
     </g>
     <g id="text_10">
      <!-- 1 -->
      <g transform="translate(545.340625 221.117222) scale(0.24 -0.24)">
       <use xlink:href="#ArialMT-31"/>
      </g>
     </g>
    </g>
    <g id="xtick_6">
     <g id="line2d_8">
      <g>
       <use xlink:href="#m5c6a445df8" x="664.01375" y="196.938472" style="stroke: #000000; stroke-width: 0.8"/>
      </g>
     </g>
     <g id="text_11">
      <!-- 2 -->
      <g transform="translate(657.340625 221.117222) scale(0.24 -0.24)">
       <use xlink:href="#ArialMT-32"/>
      </g>
     </g>
    </g>
    <g id="text_12">
     <!-- Mean non-zero activation (Log$_{10}$) -->
     <g transform="translate(470.77875 237.917222) scale(0.11 -0.11)">
      <use xlink:href="#ArialMT-4d" transform="translate(0 0.203125)"/>
      <use xlink:href="#ArialMT-65" transform="translate(83.300781 0.203125)"/>
      <use xlink:href="#ArialMT-61" transform="translate(138.916016 0.203125)"/>
      <use xlink:href="#ArialMT-6e" transform="translate(194.53125 0.203125)"/>
      <use xlink:href="#ArialMT-20" transform="translate(250.146484 0.203125)"/>
      <use xlink:href="#ArialMT-6e" transform="translate(277.929688 0.203125)"/>
      <use xlink:href="#ArialMT-6f" transform="translate(333.544922 0.203125)"/>
      <use xlink:href="#ArialMT-6e" transform="translate(389.160156 0.203125)"/>
      <use xlink:href="#ArialMT-2d" transform="translate(444.775391 0.203125)"/>
      <use xlink:href="#ArialMT-7a" transform="translate(478.076172 0.203125)"/>
      <use xlink:href="#ArialMT-65" transform="translate(528.076172 0.203125)"/>
      <use xlink:href="#ArialMT-72" transform="translate(583.691406 0.203125)"/>
      <use xlink:href="#ArialMT-6f" transform="translate(616.992188 0.203125)"/>
      <use xlink:href="#ArialMT-20" transform="translate(672.607422 0.203125)"/>
      <use xlink:href="#ArialMT-61" transform="translate(700.390625 0.203125)"/>
      <use xlink:href="#ArialMT-63" transform="translate(756.005859 0.203125)"/>
      <use xlink:href="#ArialMT-74" transform="translate(806.005859 0.203125)"/>
      <use xlink:href="#ArialMT-69" transform="translate(833.789062 0.203125)"/>
      <use xlink:href="#ArialMT-76" transform="translate(856.005859 0.203125)"/>
      <use xlink:href="#ArialMT-61" transform="translate(906.005859 0.203125)"/>
      <use xlink:href="#ArialMT-74" transform="translate(961.621094 0.203125)"/>
      <use xlink:href="#ArialMT-69" transform="translate(989.404297 0.203125)"/>
      <use xlink:href="#ArialMT-6f" transform="translate(1011.621094 0.203125)"/>
      <use xlink:href="#ArialMT-6e" transform="translate(1067.236328 0.203125)"/>
      <use xlink:href="#ArialMT-20" transform="translate(1122.851562 0.203125)"/>
      <use xlink:href="#ArialMT-28" transform="translate(1150.634766 0.203125)"/>
      <use xlink:href="#ArialMT-4c" transform="translate(1183.935547 0.203125)"/>
      <use xlink:href="#ArialMT-6f" transform="translate(1239.550781 0.203125)"/>
      <use xlink:href="#ArialMT-67" transform="translate(1295.166016 0.203125)"/>
      <use xlink:href="#DejaVuSans-31" transform="translate(1351.738281 -16.203125) scale(0.7)"/>
      <use xlink:href="#DejaVuSans-30" transform="translate(1396.274414 -16.203125) scale(0.7)"/>
      <use xlink:href="#ArialMT-29" transform="translate(1443.544922 0.203125)"/>
     </g>
    </g>
   </g>
   <g id="matplotlib.axis_4">
    <g id="ytick_3">
     <g id="line2d_9">
      <g>
       <use xlink:href="#me92ddf5a39" x="428.81375" y="196.938472" style="stroke: #000000; stroke-width: 0.8"/>
      </g>
     </g>
     <g id="text_13">
      <!-- 0 -->
      <g transform="translate(408.4675 205.527847) scale(0.24 -0.24)">
       <use xlink:href="#ArialMT-30"/>
      </g>
     </g>
    </g>
    <g id="ytick_4">
     <g id="line2d_10">
      <g>
       <use xlink:href="#me92ddf5a39" x="428.81375" y="75.293701" style="stroke: #000000; stroke-width: 0.8"/>
      </g>
     </g>
     <g id="text_14">
      <!-- 2000 -->
      <g transform="translate(368.42875 83.883076) scale(0.24 -0.24)">
       <use xlink:href="#ArialMT-32"/>
       <use xlink:href="#ArialMT-30" transform="translate(55.615234 0)"/>
       <use xlink:href="#ArialMT-30" transform="translate(111.230469 0)"/>
       <use xlink:href="#ArialMT-30" transform="translate(166.845703 0)"/>
      </g>
     </g>
    </g>
    <g id="text_15">
     <!-- Frequency -->
     <g transform="translate(362.113594 128.052439) rotate(-90) scale(0.11 -0.11)">
      <use xlink:href="#ArialMT-46"/>
      <use xlink:href="#ArialMT-72" transform="translate(61.083984 0)"/>
      <use xlink:href="#ArialMT-65" transform="translate(94.384766 0)"/>
      <use xlink:href="#ArialMT-71" transform="translate(150 0)"/>
      <use xlink:href="#ArialMT-75" transform="translate(205.615234 0)"/>
      <use xlink:href="#ArialMT-65" transform="translate(261.230469 0)"/>
      <use xlink:href="#ArialMT-6e" transform="translate(316.845703 0)"/>
      <use xlink:href="#ArialMT-63" transform="translate(372.460938 0)"/>
      <use xlink:href="#ArialMT-79" transform="translate(422.460938 0)"/>
     </g>
    </g>
   </g>
   <g id="patch_104">
    <path d="M 428.81375 196.938472 
L 428.81375 7.2 
" style="fill: none; stroke: #ffffff; stroke-width: 0.8; stroke-linejoin: miter; stroke-linecap: square"/>
   </g>
   <g id="patch_105">
    <path d="M 428.81375 196.938472 
L 675.21375 196.938472 
" style="fill: none; stroke: #ffffff; stroke-width: 0.8; stroke-linejoin: miter; stroke-linecap: square"/>
   </g>
   <g id="text_16">
    <!-- Eukaryotic -->
    <g style="fill: #4a90d9" transform="translate(606.874375 25.276299) scale(0.12 -0.12)">
     <defs>
      <path id="ArialMT-45" d="M 506 0 
L 506 4581 
L 3819 4581 
L 3819 4041 
L 1113 4041 
L 1113 2638 
L 3647 2638 
L 3647 2100 
L 1113 2100 
L 1113 541 
L 3925 541 
L 3925 0 
L 506 0 
z
" transform="scale(0.015625)"/>
     </defs>
     <use xlink:href="#ArialMT-45"/>
     <use xlink:href="#ArialMT-75" transform="translate(66.699219 0)"/>
     <use xlink:href="#ArialMT-6b" transform="translate(122.314453 0)"/>
     <use xlink:href="#ArialMT-61" transform="translate(172.314453 0)"/>
     <use xlink:href="#ArialMT-72" transform="translate(227.929688 0)"/>
     <use xlink:href="#ArialMT-79" transform="translate(261.230469 0)"/>
     <use xlink:href="#ArialMT-6f" transform="translate(311.230469 0)"/>
     <use xlink:href="#ArialMT-74" transform="translate(366.845703 0)"/>
     <use xlink:href="#ArialMT-69" transform="translate(394.628906 0)"/>
     <use xlink:href="#ArialMT-63" transform="translate(416.845703 0)"/>
    </g>
   </g>
  </g>
 </g>
 <defs>
  <clipPath id="p61a16f9143">
   <rect x="81.77375" y="7.2" width="246.4" height="189.738472"/>
  </clipPath>
  <clipPath id="pcf481e479e">
   <rect x="428.81375" y="7.2" width="246.4" height="189.738472"/>
  </clipPath>
 </defs>
</svg>
