<?xml version="1.0" encoding="utf-8" standalone="no"?>
<!DOCTYPE svg PUBLIC "-//W3C//DTD SVG 1.1//EN"
  "http://www.w3.org/Graphics/SVG/1.1/DTD/svg11.dtd">
<svg xmlns:xlink="http://www.w3.org/1999/xlink" width="682.50375pt" height="247.67875pt" viewBox="0 0 682.50375 247.67875" xmlns="http://www.w3.org/2000/svg" version="1.1">
 <metadata>
  <rdf:RDF xmlns:dc="http://purl.org/dc/elements/1.1/" xmlns:cc="http://creativecommons.org/ns#" xmlns:rdf="http://www.w3.org/1999/02/22-rdf-syntax-ns#">
   <cc:Work>
    <dc:type rdf:resource="http://purl.org/dc/dcmitype/StillImage"/>
    <dc:date>2026-02-22T06:22:47.637044</dc:date>
    <dc:format>image/svg+xml</dc:format>
    <dc:creator>
     <cc:Agent>
      <dc:title>Matplotlib v3.10.8, https://matplotlib.org/</dc:title>
     </cc:Agent>
    </dc:creator>
   </cc:Work>
  </rdf:RDF>
 </metadata>
 <defs>
  <style type="text/css">*{stroke-linejoin: round; stroke-linecap: butt}</style>
 </defs>
 <g id="figure_1">
  <g id="patch_1">
   <path d="M 0 247.67875 
L 682.50375 247.67875 
L 682.50375 0 
L 0 0 
L 0 247.67875 
z
" style="fill: none"/>
  </g>
  <g id="axes_1">
   <g id="patch_2">
    <path d="M 81.77375 197.08 
L 328.26375 197.08 
L 328.26375 7.2 
L 81.77375 7.2 
L 81.77375 197.08 
z
" style="fill: none"/>
   </g>
   <g id="patch_3">
    <path d="M 92.977841 197.08 
L 97.550939 197.08 
L 97.550939 197.08 
L 92.977841 197.08 
z
" clip-path="url(#p0b1cde0aee)" style="fill: #f27a6d; opacity: 0.8"/>
   </g>
   <g id="patch_4">
    <path d="M 97.550939 197.08 
L 102.124037 197.08 
L 102.124037 197.08 
L 97.550939 197.08 
z
" clip-path="url(#p0b1cde0aee)" style="fill: #f27a6d; opacity: 0.8"/>
   </g>
   <g id="patch_5">
    <path d="M 102.124037 197.08 
L 106.697136 197.08 
L 106.697136 197.08 
L 102.124037 197.08 
z
" clip-path="url(#p0b1cde0aee)" style="fill: #f27a6d; opacity: 0.8"/>
   </g>
   <g id="patch_6">
    <path d="M 106.697136 197.08 
L 111.270234 197.08 
L 111.270234 197.08 
L 106.697136 197.08 
z
" clip-path="url(#p0b1cde0aee)" style="fill: #f27a6d; opacity: 0.8"/>
   </g>
   <g id="patch_7">
    <path d="M 111.270234 197.08 
L 115.843332 197.08 
L 115.843332 196.850121 
L 111.270234 196.850121 
z
" clip-path="url(#p0b1cde0aee)" style="fill: #f27a6d; opacity: 0.8"/>
   </g>
   <g id="patch_8">
    <path d="M 115.843332 197.08 
L 120.416431 197.08 
L 120.416431 195.470847 
L 115.843332 195.470847 
z
" clip-path="url(#p0b1cde0aee)" style="fill: #f27a6d; opacity: 0.8"/>
   </g>
   <g id="patch_9">
    <path d="M 120.416431 197.08 
L 124.989527 197.08 
L 124.989527 194.321453 
L 120.416431 194.321453 
z
" clip-path="url(#p0b1cde0aee)" style="fill: #f27a6d; opacity: 0.8"/>
   </g>
   <g id="patch_10">
    <path d="M 124.989527 197.08 
L 129.562627 197.08 
L 129.562627 192.482421 
L 124.989527 192.482421 
z
" clip-path="url(#p0b1cde0aee)" style="fill: #f27a6d; opacity: 0.8"/>
   </g>
   <g id="patch_11">
    <path d="M 129.562627 197.08 
L 134.135726 197.08 
L 134.135726 187.961469 
L 129.562627 187.961469 
z
" clip-path="url(#p0b1cde0aee)" style="fill: #f27a6d; opacity: 0.8"/>
   </g>
   <g id="patch_12">
    <path d="M 134.135726 197.08 
L 138.708822 197.08 
L 138.708822 173.095964 
L 134.135726 173.095964 
z
" clip-path="url(#p0b1cde0aee)" style="fill: #f27a6d; opacity: 0.8"/>
   </g>
   <g id="patch_13">
    <path d="M 138.708822 197.08 
L 143.281922 197.08 
L 143.281922 136.315335 
L 138.708822 136.315335 
z
" clip-path="url(#p0b1cde0aee)" style="fill: #f27a6d; opacity: 0.8"/>
   </g>
   <g id="patch_14">
    <path d="M 143.281922 197.08 
L 147.855021 197.08 
L 147.855021 30.494399 
L 143.281922 30.494399 
z
" clip-path="url(#p0b1cde0aee)" style="fill: #f27a6d; opacity: 0.8"/>
   </g>
   <g id="patch_15">
    <path d="M 147.855021 197.08 
L 152.428118 197.08 
L 152.428118 16.241905 
L 147.855021 16.241905 
z
" clip-path="url(#p0b1cde0aee)" style="fill: #f27a6d; opacity: 0.8"/>
   </g>
   <g id="patch_16">
    <path d="M 152.428118 197.08 
L 157.001214 197.08 
L 157.001214 143.671461 
L 152.428118 143.671461 
z
" clip-path="url(#p0b1cde0aee)" style="fill: #f27a6d; opacity: 0.8"/>
   </g>
   <g id="patch_17">
    <path d="M 157.001214 197.08 
L 161.574317 197.08 
L 161.574317 183.900274 
L 157.001214 183.900274 
z
" clip-path="url(#p0b1cde0aee)" style="fill: #f27a6d; opacity: 0.8"/>
   </g>
   <g id="patch_18">
    <path d="M 161.574317 197.08 
L 166.147413 197.08 
L 166.147413 189.723874 
L 161.574317 189.723874 
z
" clip-path="url(#p0b1cde0aee)" style="fill: #f27a6d; opacity: 0.8"/>
   </g>
   <g id="patch_19">
    <path d="M 166.147413 197.08 
L 170.720509 197.08 
L 170.720509 189.493995 
L 166.147413 189.493995 
z
" clip-path="url(#p0b1cde0aee)" style="fill: #f27a6d; opacity: 0.8"/>
   </g>
   <g id="patch_20">
    <path d="M 170.720509 197.08 
L 175.293612 197.08 
L 175.293612 189.417369 
L 170.720509 189.417369 
z
" clip-path="url(#p0b1cde0aee)" style="fill: #f27a6d; opacity: 0.8"/>
   </g>
   <g id="patch_21">
    <path d="M 175.293612 197.08 
L 179.866708 197.08 
L 179.866708 188.651106 
L 175.293612 188.651106 
z
" clip-path="url(#p0b1cde0aee)" style="fill: #f27a6d; opacity: 0.8"/>
   </g>
   <g id="patch_22">
    <path d="M 179.866708 197.08 
L 184.439804 197.08 
L 184.439804 189.953753 
L 179.866708 189.953753 
z
" clip-path="url(#p0b1cde0aee)" style="fill: #f27a6d; opacity: 0.8"/>
   </g>
   <g id="patch_23">
    <path d="M 184.439804 197.08 
L 189.012907 197.08 
L 189.012907 191.792785 
L 184.439804 191.792785 
z
" clip-path="url(#p0b1cde0aee)" style="fill: #f27a6d; opacity: 0.8"/>
   </g>
   <g id="patch_24">
    <path d="M 189.012907 197.08 
L 193.586003 197.08 
L 193.586003 192.09929 
L 189.012907 192.09929 
z
" clip-path="url(#p0b1cde0aee)" style="fill: #f27a6d; opacity: 0.8"/>
   </g>
   <g id="patch_25">
    <path d="M 193.586003 197.08 
L 198.159099 197.08 
L 198.159099 193.325311 
L 193.586003 193.325311 
z
" clip-path="url(#p0b1cde0aee)" style="fill: #f27a6d; opacity: 0.8"/>
   </g>
   <g id="patch_26">
    <path d="M 198.159099 197.08 
L 202.732202 197.08 
L 202.732202 195.01109 
L 198.159099 195.01109 
z
" clip-path="url(#p0b1cde0aee)" style="fill: #f27a6d; opacity: 0.8"/>
   </g>
   <g id="patch_27">
    <path d="M 202.732202 197.08 
L 207.305298 197.08 
L 207.305298 195.317595 
L 202.732202 195.317595 
z
" clip-path="url(#p0b1cde0aee)" style="fill: #f27a6d; opacity: 0.8"/>
   </g>
   <g id="patch_28">
    <path d="M 207.305298 197.08 
L 211.878394 197.08 
L 211.878394 195.547474 
L 207.305298 195.547474 
z
" clip-path="url(#p0b1cde0aee)" style="fill: #f27a6d; opacity: 0.8"/>
   </g>
   <g id="patch_29">
    <path d="M 211.878394 197.08 
L 216.45149 197.08 
L 216.45149 195.853979 
L 211.878394 195.853979 
z
" clip-path="url(#p0b1cde0aee)" style="fill: #f27a6d; opacity: 0.8"/>
   </g>
   <g id="patch_30">
    <path d="M 216.45149 197.08 
L 221.024587 197.08 
L 221.024587 196.083858 
L 216.45149 196.083858 
z
" clip-path="url(#p0b1cde0aee)" style="fill: #f27a6d; opacity: 0.8"/>
   </g>
   <g id="patch_31">
    <path d="M 221.024587 197.08 
L 225.597696 197.08 
L 225.597696 195.547474 
L 221.024587 195.547474 
z
" clip-path="url(#p0b1cde0aee)" style="fill: #f27a6d; opacity: 0.8"/>
   </g>
   <g id="patch_32">
    <path d="M 225.597696 197.08 
L 230.170792 197.08 
L 230.170792 195.6241 
L 225.597696 195.6241 
z
" clip-path="url(#p0b1cde0aee)" style="fill: #f27a6d; opacity: 0.8"/>
   </g>
   <g id="patch_33">
    <path d="M 230.170792 197.08 
L 234.743888 197.08 
L 234.743888 196.543616 
L 230.170792 196.543616 
z
" clip-path="url(#p0b1cde0aee)" style="fill: #f27a6d; opacity: 0.8"/>
   </g>
   <g id="patch_34">
    <path d="M 234.743888 197.08 
L 239.316984 197.08 
L 239.316984 196.390363 
L 234.743888 196.390363 
z
" clip-path="url(#p0b1cde0aee)" style="fill: #f27a6d; opacity: 0.8"/>
   </g>
   <g id="patch_35">
    <path d="M 239.316984 197.08 
L 243.890081 197.08 
L 243.890081 196.773495 
L 239.316984 196.773495 
z
" clip-path="url(#p0b1cde0aee)" style="fill: #f27a6d; opacity: 0.8"/>
   </g>
   <g id="patch_36">
    <path d="M 243.890081 197.08 
L 248.463177 197.08 
L 248.463177 196.926747 
L 243.890081 196.926747 
z
" clip-path="url(#p0b1cde0aee)" style="fill: #f27a6d; opacity: 0.8"/>
   </g>
   <g id="patch_37">
    <path d="M 248.463177 197.08 
L 253.036273 197.08 
L 253.036273 197.003374 
L 248.463177 197.003374 
z
" clip-path="url(#p0b1cde0aee)" style="fill: #f27a6d; opacity: 0.8"/>
   </g>
   <g id="patch_38">
    <path d="M 253.036273 197.08 
L 257.609382 197.08 
L 257.609382 197.08 
L 253.036273 197.08 
z
" clip-path="url(#p0b1cde0aee)" style="fill: #f27a6d; opacity: 0.8"/>
   </g>
   <g id="patch_39">
    <path d="M 257.609382 197.08 
L 262.182479 197.08 
L 262.182479 197.08 
L 257.609382 197.08 
z
" clip-path="url(#p0b1cde0aee)" style="fill: #f27a6d; opacity: 0.8"/>
   </g>
   <g id="patch_40">
    <path d="M 262.182479 197.08 
L 266.755575 197.08 
L 266.755575 197.08 
L 262.182479 197.08 
z
" clip-path="url(#p0b1cde0aee)" style="fill: #f27a6d; opacity: 0.8"/>
   </g>
   <g id="patch_41">
    <path d="M 266.755575 197.08 
L 271.328671 197.08 
L 271.328671 197.08 
L 266.755575 197.08 
z
" clip-path="url(#p0b1cde0aee)" style="fill: #f27a6d; opacity: 0.8"/>
   </g>
   <g id="patch_42">
    <path d="M 271.328671 197.08 
L 275.901767 197.08 
L 275.901767 197.08 
L 271.328671 197.08 
z
" clip-path="url(#p0b1cde0aee)" style="fill: #f27a6d; opacity: 0.8"/>
   </g>
   <g id="patch_43">
    <path d="M 275.901767 197.08 
L 280.474863 197.08 
L 280.474863 197.08 
L 275.901767 197.08 
z
" clip-path="url(#p0b1cde0aee)" style="fill: #f27a6d; opacity: 0.8"/>
   </g>
   <g id="patch_44">
    <path d="M 280.474863 197.08 
L 285.047973 197.08 
L 285.047973 197.08 
L 280.474863 197.08 
z
" clip-path="url(#p0b1cde0aee)" style="fill: #f27a6d; opacity: 0.8"/>
   </g>
   <g id="patch_45">
    <path d="M 285.047973 197.08 
L 289.621069 197.08 
L 289.621069 197.08 
L 285.047973 197.08 
z
" clip-path="url(#p0b1cde0aee)" style="fill: #f27a6d; opacity: 0.8"/>
   </g>
   <g id="patch_46">
    <path d="M 289.621069 197.08 
L 294.194165 197.08 
L 294.194165 197.08 
L 289.621069 197.08 
z
" clip-path="url(#p0b1cde0aee)" style="fill: #f27a6d; opacity: 0.8"/>
   </g>
   <g id="patch_47">
    <path d="M 294.194165 197.08 
L 298.767261 197.08 
L 298.767261 197.08 
L 294.194165 197.08 
z
" clip-path="url(#p0b1cde0aee)" style="fill: #f27a6d; opacity: 0.8"/>
   </g>
   <g id="patch_48">
    <path d="M 298.767261 197.08 
L 303.340357 197.08 
L 303.340357 197.08 
L 298.767261 197.08 
z
" clip-path="url(#p0b1cde0aee)" style="fill: #f27a6d; opacity: 0.8"/>
   </g>
   <g id="patch_49">
    <path d="M 303.340357 197.08 
L 307.913453 197.08 
L 307.913453 197.08 
L 303.340357 197.08 
z
" clip-path="url(#p0b1cde0aee)" style="fill: #f27a6d; opacity: 0.8"/>
   </g>
   <g id="patch_50">
    <path d="M 307.913453 197.08 
L 312.486563 197.08 
L 312.486563 197.08 
L 307.913453 197.08 
z
" clip-path="url(#p0b1cde0aee)" style="fill: #f27a6d; opacity: 0.8"/>
   </g>
   <g id="patch_51">
    <path d="M 312.486563 197.08 
L 317.059659 197.08 
L 317.059659 197.08 
L 312.486563 197.08 
z
" clip-path="url(#p0b1cde0aee)" style="fill: #f27a6d; opacity: 0.8"/>
   </g>
   <g id="matplotlib.axis_1">
    <g id="xtick_1">
     <g id="line2d_1">
      <defs>
       <path id="m2954d74269" d="M 0 0 
L 0 3.5 
" style="stroke: #000000; stroke-width: 0.8"/>
      </defs>
      <g>
       <use xlink:href="#m2954d74269" x="92.977841" y="197.08" style="stroke: #000000; stroke-width: 0.8"/>
      </g>
     </g>
     <g id="text_1">
      <!-- 0 -->
      <g transform="translate(86.304716 221.25875) scale(0.24 -0.24)">
       <defs>
        <path id="ArialMT-30" d="M 266 2259 
Q 266 3072 433 3567 
Q 600 4063 929 4331 
Q 1259 4600 1759 4600 
Q 2128 4600 2406 4451 
Q 2684 4303 2865 4023 
Q 3047 3744 3150 3342 
Q 3253 2941 3253 2259 
Q 3253 1453 3087 958 
Q 2922 463 2592 192 
Q 2263 -78 1759 -78 
Q 1097 -78 719 397 
Q 266 969 266 2259 
z
M 844 2259 
Q 844 1131 1108 757 
Q 1372 384 1759 384 
Q 2147 384 2411 759 
Q 2675 1134 2675 2259 
Q 2675 3391 2411 3762 
Q 2147 4134 1753 4134 
Q 1366 4134 1134 3806 
Q 844 3388 844 2259 
z
" transform="scale(0.015625)"/>
       </defs>
       <use xlink:href="#ArialMT-30"/>
      </g>
     </g>
    </g>
    <g id="xtick_2">
     <g id="line2d_2">
      <g>
       <use xlink:href="#m2954d74269" x="205.01875" y="197.08" style="stroke: #000000; stroke-width: 0.8"/>
      </g>
     </g>
     <g id="text_2">
      <!-- 1 -->
      <g transform="translate(198.345625 221.25875) scale(0.24 -0.24)">
       <defs>
        <path id="ArialMT-31" d="M 2384 0 
L 1822 0 
L 1822 3584 
Q 1619 3391 1289 3197 
Q 959 3003 697 2906 
L 697 3450 
Q 1169 3672 1522 3987 
Q 1875 4303 2022 4600 
L 2384 4600 
L 2384 0 
z
" transform="scale(0.015625)"/>
       </defs>
       <use xlink:href="#ArialMT-31"/>
      </g>
     </g>
    </g>
    <g id="xtick_3">
     <g id="line2d_3">
      <g>
       <use xlink:href="#m2954d74269" x="317.059659" y="197.08" style="stroke: #000000; stroke-width: 0.8"/>
      </g>
     </g>
     <g id="text_3">
      <!-- 2 -->
      <g transform="translate(310.386534 221.25875) scale(0.24 -0.24)">
       <defs>
        <path id="ArialMT-32" d="M 3222 541 
L 3222 0 
L 194 0 
Q 188 203 259 391 
Q 375 700 629 1000 
Q 884 1300 1366 1694 
Q 2113 2306 2375 2664 
Q 2638 3022 2638 3341 
Q 2638 3675 2398 3904 
Q 2159 4134 1775 4134 
Q 1369 4134 1125 3890 
Q 881 3647 878 3216 
L 300 3275 
Q 359 3922 746 4261 
Q 1134 4600 1788 4600 
Q 2447 4600 2831 4234 
Q 3216 3869 3216 3328 
Q 3216 3053 3103 2787 
Q 2991 2522 2730 2228 
Q 2469 1934 1863 1422 
Q 1356 997 1212 845 
Q 1069 694 975 541 
L 3222 541 
z
" transform="scale(0.015625)"/>
       </defs>
       <use xlink:href="#ArialMT-32"/>
      </g>
     </g>
    </g>
    <g id="text_4">
     <!-- Mean non-zero activation (Log$_{10}$) -->
     <g transform="translate(123.78375 238.05875) scale(0.11 -0.11)">
      <defs>
       <path id="ArialMT-4d" d="M 475 0 
L 475 4581 
L 1388 4581 
L 2472 1338 
Q 2622 884 2691 659 
Q 2769 909 2934 1394 
L 4031 4581 
L 4847 4581 
L 4847 0 
L 4263 0 
L 4263 3834 
L 2931 0 
L 2384 0 
L 1059 3900 
L 1059 0 
L 475 0 
z
" transform="scale(0.015625)"/>
       <path id="ArialMT-65" d="M 2694 1069 
L 3275 997 
Q 3138 488 2766 206 
Q 2394 -75 1816 -75 
Q 1088 -75 661 373 
Q 234 822 234 1631 
Q 234 2469 665 2931 
Q 1097 3394 1784 3394 
Q 2450 3394 2872 2941 
Q 3294 2488 3294 1666 
Q 3294 1616 3291 1516 
L 816 1516 
Q 847 969 1125 678 
Q 1403 388 1819 388 
Q 2128 388 2347 550 
Q 2566 713 2694 1069 
z
M 847 1978 
L 2700 1978 
Q 2663 2397 2488 2606 
Q 2219 2931 1791 2931 
Q 1403 2931 1139 2672 
Q 875 2413 847 1978 
z
" transform="scale(0.015625)"/>
       <path id="ArialMT-61" d="M 2588 409 
Q 2275 144 1986 34 
Q 1697 -75 1366 -75 
Q 819 -75 525 192 
Q 231 459 231 875 
Q 231 1119 342 1320 
Q 453 1522 633 1644 
Q 813 1766 1038 1828 
Q 1203 1872 1538 1913 
Q 2219 1994 2541 2106 
Q 2544 2222 2544 2253 
Q 2544 2597 2384 2738 
Q 2169 2928 1744 2928 
Q 1347 2928 1158 2789 
Q 969 2650 878 2297 
L 328 2372 
Q 403 2725 575 2942 
Q 747 3159 1072 3276 
Q 1397 3394 1825 3394 
Q 2250 3394 2515 3294 
Q 2781 3194 2906 3042 
Q 3031 2891 3081 2659 
Q 3109 2516 3109 2141 
L 3109 1391 
Q 3109 606 3145 398 
Q 3181 191 3288 0 
L 2700 0 
Q 2613 175 2588 409 
z
M 2541 1666 
Q 2234 1541 1622 1453 
Q 1275 1403 1131 1340 
Q 988 1278 909 1158 
Q 831 1038 831 891 
Q 831 666 1001 516 
Q 1172 366 1500 366 
Q 1825 366 2078 508 
Q 2331 650 2450 897 
Q 2541 1088 2541 1459 
L 2541 1666 
z
" transform="scale(0.015625)"/>
       <path id="ArialMT-6e" d="M 422 0 
L 422 3319 
L 928 3319 
L 928 2847 
Q 1294 3394 1984 3394 
Q 2284 3394 2536 3286 
Q 2788 3178 2913 3003 
Q 3038 2828 3088 2588 
Q 3119 2431 3119 2041 
L 3119 0 
L 2556 0 
L 2556 2019 
Q 2556 2363 2490 2533 
Q 2425 2703 2258 2804 
Q 2091 2906 1866 2906 
Q 1506 2906 1245 2678 
Q 984 2450 984 1813 
L 984 0 
L 422 0 
z
" transform="scale(0.015625)"/>
       <path id="ArialMT-20" transform="scale(0.015625)"/>
       <path id="ArialMT-6f" d="M 213 1659 
Q 213 2581 725 3025 
Q 1153 3394 1769 3394 
Q 2453 3394 2887 2945 
Q 3322 2497 3322 1706 
Q 3322 1066 3130 698 
Q 2938 331 2570 128 
Q 2203 -75 1769 -75 
Q 1072 -75 642 372 
Q 213 819 213 1659 
z
M 791 1659 
Q 791 1022 1069 705 
Q 1347 388 1769 388 
Q 2188 388 2466 706 
Q 2744 1025 2744 1678 
Q 2744 2294 2464 2611 
Q 2184 2928 1769 2928 
Q 1347 2928 1069 2612 
Q 791 2297 791 1659 
z
" transform="scale(0.015625)"/>
       <path id="ArialMT-2d" d="M 203 1375 
L 203 1941 
L 1931 1941 
L 1931 1375 
L 203 1375 
z
" transform="scale(0.015625)"/>
       <path id="ArialMT-7a" d="M 125 0 
L 125 456 
L 2238 2881 
Q 1878 2863 1603 2863 
L 250 2863 
L 250 3319 
L 2963 3319 
L 2963 2947 
L 1166 841 
L 819 456 
Q 1197 484 1528 484 
L 3063 484 
L 3063 0 
L 125 0 
z
" transform="scale(0.015625)"/>
       <path id="ArialMT-72" d="M 416 0 
L 416 3319 
L 922 3319 
L 922 2816 
Q 1116 3169 1280 3281 
Q 1444 3394 1641 3394 
Q 1925 3394 2219 3213 
L 2025 2691 
Q 1819 2813 1613 2813 
Q 1428 2813 1281 2702 
Q 1134 2591 1072 2394 
Q 978 2094 978 1738 
L 978 0 
L 416 0 
z
" transform="scale(0.015625)"/>
       <path id="ArialMT-63" d="M 2588 1216 
L 3141 1144 
Q 3050 572 2676 248 
Q 2303 -75 1759 -75 
Q 1078 -75 664 370 
Q 250 816 250 1647 
Q 250 2184 428 2587 
Q 606 2991 970 3192 
Q 1334 3394 1763 3394 
Q 2303 3394 2647 3120 
Q 2991 2847 3088 2344 
L 2541 2259 
Q 2463 2594 2264 2762 
Q 2066 2931 1784 2931 
Q 1359 2931 1093 2626 
Q 828 2322 828 1663 
Q 828 994 1084 691 
Q 1341 388 1753 388 
Q 2084 388 2306 591 
Q 2528 794 2588 1216 
z
" transform="scale(0.015625)"/>
       <path id="ArialMT-74" d="M 1650 503 
L 1731 6 
Q 1494 -44 1306 -44 
Q 1000 -44 831 53 
Q 663 150 594 308 
Q 525 466 525 972 
L 525 2881 
L 113 2881 
L 113 3319 
L 525 3319 
L 525 4141 
L 1084 4478 
L 1084 3319 
L 1650 3319 
L 1650 2881 
L 1084 2881 
L 1084 941 
Q 1084 700 1114 631 
Q 1144 563 1211 522 
Q 1278 481 1403 481 
Q 1497 481 1650 503 
z
" transform="scale(0.015625)"/>
       <path id="ArialMT-69" d="M 425 3934 
L 425 4581 
L 988 4581 
L 988 3934 
L 425 3934 
z
M 425 0 
L 425 3319 
L 988 3319 
L 988 0 
L 425 0 
z
" transform="scale(0.015625)"/>
       <path id="ArialMT-76" d="M 1344 0 
L 81 3319 
L 675 3319 
L 1388 1331 
Q 1503 1009 1600 663 
Q 1675 925 1809 1294 
L 2547 3319 
L 3125 3319 
L 1869 0 
L 1344 0 
z
" transform="scale(0.015625)"/>
       <path id="ArialMT-28" d="M 1497 -1347 
Q 1031 -759 709 28 
Q 388 816 388 1659 
Q 388 2403 628 3084 
Q 909 3875 1497 4659 
L 1900 4659 
Q 1522 4009 1400 3731 
Q 1209 3300 1100 2831 
Q 966 2247 966 1656 
Q 966 153 1900 -1347 
L 1497 -1347 
z
" transform="scale(0.015625)"/>
       <path id="ArialMT-4c" d="M 469 0 
L 469 4581 
L 1075 4581 
L 1075 541 
L 3331 541 
L 3331 0 
L 469 0 
z
" transform="scale(0.015625)"/>
       <path id="ArialMT-67" d="M 319 -275 
L 866 -356 
Q 900 -609 1056 -725 
Q 1266 -881 1628 -881 
Q 2019 -881 2231 -725 
Q 2444 -569 2519 -288 
Q 2563 -116 2559 434 
Q 2191 0 1641 0 
Q 956 0 581 494 
Q 206 988 206 1678 
Q 206 2153 378 2554 
Q 550 2956 876 3175 
Q 1203 3394 1644 3394 
Q 2231 3394 2613 2919 
L 2613 3319 
L 3131 3319 
L 3131 450 
Q 3131 -325 2973 -648 
Q 2816 -972 2473 -1159 
Q 2131 -1347 1631 -1347 
Q 1038 -1347 672 -1080 
Q 306 -813 319 -275 
z
M 784 1719 
Q 784 1066 1043 766 
Q 1303 466 1694 466 
Q 2081 466 2343 764 
Q 2606 1063 2606 1700 
Q 2606 2309 2336 2618 
Q 2066 2928 1684 2928 
Q 1309 2928 1046 2623 
Q 784 2319 784 1719 
z
" transform="scale(0.015625)"/>
       <path id="DejaVuSans-31" d="M 794 531 
L 1825 531 
L 1825 4091 
L 703 3866 
L 703 4441 
L 1819 4666 
L 2450 4666 
L 2450 531 
L 3481 531 
L 3481 0 
L 794 0 
L 794 531 
z
" transform="scale(0.015625)"/>
       <path id="DejaVuSans-30" d="M 2034 4250 
Q 1547 4250 1301 3770 
Q 1056 3291 1056 2328 
Q 1056 1369 1301 889 
Q 1547 409 2034 409 
Q 2525 409 2770 889 
Q 3016 1369 3016 2328 
Q 3016 3291 2770 3770 
Q 2525 4250 2034 4250 
z
M 2034 4750 
Q 2819 4750 3233 4129 
Q 3647 3509 3647 2328 
Q 3647 1150 3233 529 
Q 2819 -91 2034 -91 
Q 1250 -91 836 529 
Q 422 1150 422 2328 
Q 422 3509 836 4129 
Q 1250 4750 2034 4750 
z
" transform="scale(0.015625)"/>
       <path id="ArialMT-29" d="M 791 -1347 
L 388 -1347 
Q 1322 153 1322 1656 
Q 1322 2244 1188 2822 
Q 1081 3291 891 3722 
Q 769 4003 388 4659 
L 791 4659 
Q 1378 3875 1659 3084 
Q 1900 2403 1900 1659 
Q 1900 816 1576 28 
Q 1253 -759 791 -1347 
z
" transform="scale(0.015625)"/>
      </defs>
      <use xlink:href="#ArialMT-4d" transform="translate(0 0.203125)"/>
      <use xlink:href="#ArialMT-65" transform="translate(83.300781 0.203125)"/>
      <use xlink:href="#ArialMT-61" transform="translate(138.916016 0.203125)"/>
      <use xlink:href="#ArialMT-6e" transform="translate(194.53125 0.203125)"/>
      <use xlink:href="#ArialMT-20" transform="translate(250.146484 0.203125)"/>
      <use xlink:href="#ArialMT-6e" transform="translate(277.929688 0.203125)"/>
      <use xlink:href="#ArialMT-6f" transform="translate(333.544922 0.203125)"/>
      <use xlink:href="#ArialMT-6e" transform="translate(389.160156 0.203125)"/>
      <use xlink:href="#ArialMT-2d" transform="translate(444.775391 0.203125)"/>
      <use xlink:href="#ArialMT-7a" transform="translate(478.076172 0.203125)"/>
      <use xlink:href="#ArialMT-65" transform="translate(528.076172 0.203125)"/>
      <use xlink:href="#ArialMT-72" transform="translate(583.691406 0.203125)"/>
      <use xlink:href="#ArialMT-6f" transform="translate(616.992188 0.203125)"/>
      <use xlink:href="#ArialMT-20" transform="translate(672.607422 0.203125)"/>
      <use xlink:href="#ArialMT-61" transform="translate(700.390625 0.203125)"/>
      <use xlink:href="#ArialMT-63" transform="translate(756.005859 0.203125)"/>
      <use xlink:href="#ArialMT-74" transform="translate(806.005859 0.203125)"/>
      <use xlink:href="#ArialMT-69" transform="translate(833.789062 0.203125)"/>
      <use xlink:href="#ArialMT-76" transform="translate(856.005859 0.203125)"/>
      <use xlink:href="#ArialMT-61" transform="translate(906.005859 0.203125)"/>
      <use xlink:href="#ArialMT-74" transform="translate(961.621094 0.203125)"/>
      <use xlink:href="#ArialMT-69" transform="translate(989.404297 0.203125)"/>
      <use xlink:href="#ArialMT-6f" transform="translate(1011.621094 0.203125)"/>
      <use xlink:href="#ArialMT-6e" transform="translate(1067.236328 0.203125)"/>
      <use xlink:href="#ArialMT-20" transform="translate(1122.851562 0.203125)"/>
      <use xlink:href="#ArialMT-28" transform="translate(1150.634766 0.203125)"/>
      <use xlink:href="#ArialMT-4c" transform="translate(1183.935547 0.203125)"/>
      <use xlink:href="#ArialMT-6f" transform="translate(1239.550781 0.203125)"/>
      <use xlink:href="#ArialMT-67" transform="translate(1295.166016 0.203125)"/>
      <use xlink:href="#DejaVuSans-31" transform="translate(1351.738281 -16.203125) scale(0.7)"/>
      <use xlink:href="#DejaVuSans-30" transform="translate(1396.274414 -16.203125) scale(0.7)"/>
      <use xlink:href="#ArialMT-29" transform="translate(1443.544922 0.203125)"/>
     </g>
    </g>
   </g>
   <g id="matplotlib.axis_2">
    <g id="ytick_1">
     <g id="line2d_4">
      <defs>
       <path id="m6d82ad7119" d="M 0 0 
L -3.5 0 
" style="stroke: #000000; stroke-width: 0.8"/>
      </defs>
      <g>
       <use xlink:href="#m6d82ad7119" x="81.77375" y="197.08" style="stroke: #000000; stroke-width: 0.8"/>
      </g>
     </g>
     <g id="text_5">
      <!-- 0 -->
      <g transform="translate(61.4275 205.669375) scale(0.24 -0.24)">
       <use xlink:href="#ArialMT-30"/>
      </g>
     </g>
    </g>
    <g id="ytick_2">
     <g id="line2d_5">
      <g>
       <use xlink:href="#m6d82ad7119" x="81.77375" y="120.453688" style="stroke: #000000; stroke-width: 0.8"/>
      </g>
     </g>
     <g id="text_6">
      <!-- 1000 -->
      <g transform="translate(21.38875 129.043063) scale(0.24 -0.24)">
       <use xlink:href="#ArialMT-31"/>
       <use xlink:href="#ArialMT-30" transform="translate(55.615234 0)"/>
       <use xlink:href="#ArialMT-30" transform="translate(111.230469 0)"/>
       <use xlink:href="#ArialMT-30" transform="translate(166.845703 0)"/>
      </g>
     </g>
    </g>
    <g id="ytick_3">
     <g id="line2d_6">
      <g>
       <use xlink:href="#m6d82ad7119" x="81.77375" y="43.827377" style="stroke: #000000; stroke-width: 0.8"/>
      </g>
     </g>
     <g id="text_7">
      <!-- 2000 -->
      <g transform="translate(21.38875 52.416752) scale(0.24 -0.24)">
       <use xlink:href="#ArialMT-32"/>
       <use xlink:href="#ArialMT-30" transform="translate(55.615234 0)"/>
       <use xlink:href="#ArialMT-30" transform="translate(111.230469 0)"/>
       <use xlink:href="#ArialMT-30" transform="translate(166.845703 0)"/>
      </g>
     </g>
    </g>
    <g id="text_8">
     <!-- Frequency -->
     <g transform="translate(15.073594 128.123203) rotate(-90) scale(0.11 -0.11)">
      <defs>
       <path id="ArialMT-46" d="M 525 0 
L 525 4581 
L 3616 4581 
L 3616 4041 
L 1131 4041 
L 1131 2622 
L 3281 2622 
L 3281 2081 
L 1131 2081 
L 1131 0 
L 525 0 
z
" transform="scale(0.015625)"/>
       <path id="ArialMT-71" d="M 2538 -1272 
L 2538 353 
Q 2406 169 2170 47 
Q 1934 -75 1669 -75 
Q 1078 -75 651 397 
Q 225 869 225 1691 
Q 225 2191 398 2587 
Q 572 2984 901 3189 
Q 1231 3394 1625 3394 
Q 2241 3394 2594 2875 
L 2594 3319 
L 3100 3319 
L 3100 -1272 
L 2538 -1272 
z
M 803 1669 
Q 803 1028 1072 708 
Q 1341 388 1716 388 
Q 2075 388 2334 692 
Q 2594 997 2594 1619 
Q 2594 2281 2320 2615 
Q 2047 2950 1678 2950 
Q 1313 2950 1058 2639 
Q 803 2328 803 1669 
z
" transform="scale(0.015625)"/>
       <path id="ArialMT-75" d="M 2597 0 
L 2597 488 
Q 2209 -75 1544 -75 
Q 1250 -75 995 37 
Q 741 150 617 320 
Q 494 491 444 738 
Q 409 903 409 1263 
L 409 3319 
L 972 3319 
L 972 1478 
Q 972 1038 1006 884 
Q 1059 663 1231 536 
Q 1403 409 1656 409 
Q 1909 409 2131 539 
Q 2353 669 2445 892 
Q 2538 1116 2538 1541 
L 2538 3319 
L 3100 3319 
L 3100 0 
L 2597 0 
z
" transform="scale(0.015625)"/>
       <path id="ArialMT-79" d="M 397 -1278 
L 334 -750 
Q 519 -800 656 -800 
Q 844 -800 956 -737 
Q 1069 -675 1141 -563 
Q 1194 -478 1313 -144 
Q 1328 -97 1363 -6 
L 103 3319 
L 709 3319 
L 1400 1397 
Q 1534 1031 1641 628 
Q 1738 1016 1872 1384 
L 2581 3319 
L 3144 3319 
L 1881 -56 
Q 1678 -603 1566 -809 
Q 1416 -1088 1222 -1217 
Q 1028 -1347 759 -1347 
Q 597 -1347 397 -1278 
z
" transform="scale(0.015625)"/>
      </defs>
      <use xlink:href="#ArialMT-46"/>
      <use xlink:href="#ArialMT-72" transform="translate(61.083984 0)"/>
      <use xlink:href="#ArialMT-65" transform="translate(94.384766 0)"/>
      <use xlink:href="#ArialMT-71" transform="translate(150 0)"/>
      <use xlink:href="#ArialMT-75" transform="translate(205.615234 0)"/>
      <use xlink:href="#ArialMT-65" transform="translate(261.230469 0)"/>
      <use xlink:href="#ArialMT-6e" transform="translate(316.845703 0)"/>
      <use xlink:href="#ArialMT-63" transform="translate(372.460938 0)"/>
      <use xlink:href="#ArialMT-79" transform="translate(422.460938 0)"/>
     </g>
    </g>
   </g>
   <g id="patch_52">
    <path d="M 81.77375 197.08 
L 81.77375 7.2 
" style="fill: none; stroke: #ffffff; stroke-width: 0.8; stroke-linejoin: miter; stroke-linecap: square"/>
   </g>
   <g id="patch_53">
    <path d="M 81.77375 197.08 
L 328.26375 197.08 
" style="fill: none; stroke: #ffffff; stroke-width: 0.8; stroke-linejoin: miter; stroke-linecap: square"/>
   </g>
   <g id="text_9">
    <!-- Prokaryotic -->
    <g style="fill: #f27a6d" transform="translate(255.92425 25.283375) scale(0.12 -0.12)">
     <defs>
      <path id="ArialMT-50" d="M 494 0 
L 494 4581 
L 2222 4581 
Q 2678 4581 2919 4538 
Q 3256 4481 3484 4323 
Q 3713 4166 3852 3881 
Q 3991 3597 3991 3256 
Q 3991 2672 3619 2267 
Q 3247 1863 2275 1863 
L 1100 1863 
L 1100 0 
L 494 0 
z
M 1100 2403 
L 2284 2403 
Q 2872 2403 3119 2622 
Q 3366 2841 3366 3238 
Q 3366 3525 3220 3729 
Q 3075 3934 2838 4000 
Q 2684 4041 2272 4041 
L 1100 4041 
L 1100 2403 
z
" transform="scale(0.015625)"/>
      <path id="ArialMT-6b" d="M 425 0 
L 425 4581 
L 988 4581 
L 988 1969 
L 2319 3319 
L 3047 3319 
L 1778 2088 
L 3175 0 
L 2481 0 
L 1384 1697 
L 988 1316 
L 988 0 
L 425 0 
z
" transform="scale(0.015625)"/>
     </defs>
     <use xlink:href="#ArialMT-50"/>
     <use xlink:href="#ArialMT-72" transform="translate(66.699219 0)"/>
     <use xlink:href="#ArialMT-6f" transform="translate(100 0)"/>
     <use xlink:href="#ArialMT-6b" transform="translate(155.615234 0)"/>
     <use xlink:href="#ArialMT-61" transform="translate(205.615234 0)"/>
     <use xlink:href="#ArialMT-72" transform="translate(261.230469 0)"/>
     <use xlink:href="#ArialMT-79" transform="translate(294.53125 0)"/>
     <use xlink:href="#ArialMT-6f" transform="translate(344.53125 0)"/>
     <use xlink:href="#ArialMT-74" transform="translate(400.146484 0)"/>
     <use xlink:href="#ArialMT-69" transform="translate(427.929688 0)"/>
     <use xlink:href="#ArialMT-63" transform="translate(450.146484 0)"/>
    </g>
   </g>
  </g>
  <g id="axes_2">
   <g id="patch_54">
    <path d="M 428.81375 197.08 
L 675.30375 197.08 
L 675.30375 7.2 
L 428.81375 7.2 
L 428.81375 197.08 
z
" style="fill: none"/>
   </g>
   <g id="patch_55">
    <path d="M 440.017841 197.08 
L 444.590939 197.08 
L 444.590939 197.08 
L 440.017841 197.08 
z
" clip-path="url(#p5ca3cddd9f)" style="fill: #87ceeb; opacity: 0.8"/>
   </g>
   <g id="patch_56">
    <path d="M 444.590939 197.08 
L 449.164037 197.08 
L 449.164037 197.08 
L 444.590939 197.08 
z
" clip-path="url(#p5ca3cddd9f)" style="fill: #87ceeb; opacity: 0.8"/>
   </g>
   <g id="patch_57">
    <path d="M 449.164037 197.08 
L 453.737136 197.08 
L 453.737136 197.08 
L 449.164037 197.08 
z
" clip-path="url(#p5ca3cddd9f)" style="fill: #87ceeb; opacity: 0.8"/>
   </g>
   <g id="patch_58">
    <path d="M 453.737136 197.08 
L 458.310234 197.08 
L 458.310234 197.014786 
L 453.737136 197.014786 
z
" clip-path="url(#p5ca3cddd9f)" style="fill: #87ceeb; opacity: 0.8"/>
   </g>
   <g id="patch_59">
    <path d="M 458.310234 197.08 
L 462.883332 197.08 
L 462.883332 196.623503 
L 458.310234 196.623503 
z
" clip-path="url(#p5ca3cddd9f)" style="fill: #87ceeb; opacity: 0.8"/>
   </g>
   <g id="patch_60">
    <path d="M 462.883332 197.08 
L 467.456431 197.08 
L 467.456431 195.971364 
L 462.883332 195.971364 
z
" clip-path="url(#p5ca3cddd9f)" style="fill: #87ceeb; opacity: 0.8"/>
   </g>
   <g id="patch_61">
    <path d="M 467.456431 197.08 
L 472.029527 197.08 
L 472.029527 195.580081 
L 467.456431 195.580081 
z
" clip-path="url(#p5ca3cddd9f)" style="fill: #87ceeb; opacity: 0.8"/>
   </g>
   <g id="patch_62">
    <path d="M 472.029527 197.08 
L 476.602627 197.08 
L 476.602627 193.688878 
L 472.029527 193.688878 
z
" clip-path="url(#p5ca3cddd9f)" style="fill: #87ceeb; opacity: 0.8"/>
   </g>
   <g id="patch_63">
    <path d="M 476.602627 197.08 
L 481.175726 197.08 
L 481.175726 190.949895 
L 476.602627 190.949895 
z
" clip-path="url(#p5ca3cddd9f)" style="fill: #87ceeb; opacity: 0.8"/>
   </g>
   <g id="patch_64">
    <path d="M 481.175726 197.08 
L 485.748822 197.08 
L 485.748822 183.515513 
L 481.175726 183.515513 
z
" clip-path="url(#p5ca3cddd9f)" style="fill: #87ceeb; opacity: 0.8"/>
   </g>
   <g id="patch_65">
    <path d="M 485.748822 197.08 
L 490.321922 197.08 
L 490.321922 146.147958 
L 485.748822 146.147958 
z
" clip-path="url(#p5ca3cddd9f)" style="fill: #87ceeb; opacity: 0.8"/>
   </g>
   <g id="patch_66">
    <path d="M 490.321922 197.08 
L 494.895021 197.08 
L 494.895021 16.241905 
L 490.321922 16.241905 
z
" clip-path="url(#p5ca3cddd9f)" style="fill: #87ceeb; opacity: 0.8"/>
   </g>
   <g id="patch_67">
    <path d="M 494.895021 197.08 
L 499.468118 197.08 
L 499.468118 39.979758 
L 494.895021 39.979758 
z
" clip-path="url(#p5ca3cddd9f)" style="fill: #87ceeb; opacity: 0.8"/>
   </g>
   <g id="patch_68">
    <path d="M 499.468118 197.08 
L 504.041214 197.08 
L 504.041214 161.016723 
L 499.468118 161.016723 
z
" clip-path="url(#p5ca3cddd9f)" style="fill: #87ceeb; opacity: 0.8"/>
   </g>
   <g id="patch_69">
    <path d="M 504.041214 197.08 
L 508.614317 197.08 
L 508.614317 187.428345 
L 504.041214 187.428345 
z
" clip-path="url(#p5ca3cddd9f)" style="fill: #87ceeb; opacity: 0.8"/>
   </g>
   <g id="patch_70">
    <path d="M 508.614317 197.08 
L 513.187413 197.08 
L 513.187413 192.188959 
L 508.614317 192.188959 
z
" clip-path="url(#p5ca3cddd9f)" style="fill: #87ceeb; opacity: 0.8"/>
   </g>
   <g id="patch_71">
    <path d="M 513.187413 197.08 
L 517.760509 197.08 
L 517.760509 190.102115 
L 513.187413 190.102115 
z
" clip-path="url(#p5ca3cddd9f)" style="fill: #87ceeb; opacity: 0.8"/>
   </g>
   <g id="patch_72">
    <path d="M 517.760509 197.08 
L 522.333612 197.08 
L 522.333612 189.058692 
L 517.760509 189.058692 
z
" clip-path="url(#p5ca3cddd9f)" style="fill: #87ceeb; opacity: 0.8"/>
   </g>
   <g id="patch_73">
    <path d="M 522.333612 197.08 
L 526.906708 197.08 
L 526.906708 187.363132 
L 522.333612 187.363132 
z
" clip-path="url(#p5ca3cddd9f)" style="fill: #87ceeb; opacity: 0.8"/>
   </g>
   <g id="patch_74">
    <path d="M 526.906708 197.08 
L 531.479804 197.08 
L 531.479804 190.232542 
L 526.906708 190.232542 
z
" clip-path="url(#p5ca3cddd9f)" style="fill: #87ceeb; opacity: 0.8"/>
   </g>
   <g id="patch_75">
    <path d="M 531.479804 197.08 
L 536.052907 197.08 
L 536.052907 190.623826 
L 531.479804 190.623826 
z
" clip-path="url(#p5ca3cddd9f)" style="fill: #87ceeb; opacity: 0.8"/>
   </g>
   <g id="patch_76">
    <path d="M 536.052907 197.08 
L 540.626003 197.08 
L 540.626003 192.775884 
L 536.052907 192.775884 
z
" clip-path="url(#p5ca3cddd9f)" style="fill: #87ceeb; opacity: 0.8"/>
   </g>
   <g id="patch_77">
    <path d="M 540.626003 197.08 
L 545.199099 197.08 
L 545.199099 193.297595 
L 540.626003 193.297595 
z
" clip-path="url(#p5ca3cddd9f)" style="fill: #87ceeb; opacity: 0.8"/>
   </g>
   <g id="patch_78">
    <path d="M 545.199099 197.08 
L 549.772202 197.08 
L 549.772202 195.188797 
L 545.199099 195.188797 
z
" clip-path="url(#p5ca3cddd9f)" style="fill: #87ceeb; opacity: 0.8"/>
   </g>
   <g id="patch_79">
    <path d="M 549.772202 197.08 
L 554.345298 197.08 
L 554.345298 194.667086 
L 549.772202 194.667086 
z
" clip-path="url(#p5ca3cddd9f)" style="fill: #87ceeb; opacity: 0.8"/>
   </g>
   <g id="patch_80">
    <path d="M 554.345298 197.08 
L 558.918394 197.08 
L 558.918394 195.514867 
L 554.345298 195.514867 
z
" clip-path="url(#p5ca3cddd9f)" style="fill: #87ceeb; opacity: 0.8"/>
   </g>
   <g id="patch_81">
    <path d="M 558.918394 197.08 
L 563.49149 197.08 
L 563.49149 195.775722 
L 558.918394 195.775722 
z
" clip-path="url(#p5ca3cddd9f)" style="fill: #87ceeb; opacity: 0.8"/>
   </g>
   <g id="patch_82">
    <path d="M 563.49149 197.08 
L 568.064587 197.08 
L 568.064587 196.036578 
L 563.49149 196.036578 
z
" clip-path="url(#p5ca3cddd9f)" style="fill: #87ceeb; opacity: 0.8"/>
   </g>
   <g id="patch_83">
    <path d="M 568.064587 197.08 
L 572.637696 197.08 
L 572.637696 196.101792 
L 568.064587 196.101792 
z
" clip-path="url(#p5ca3cddd9f)" style="fill: #87ceeb; opacity: 0.8"/>
   </g>
   <g id="patch_84">
    <path d="M 572.637696 197.08 
L 577.210792 197.08 
L 577.210792 196.036578 
L 572.637696 196.036578 
z
" clip-path="url(#p5ca3cddd9f)" style="fill: #87ceeb; opacity: 0.8"/>
   </g>
   <g id="patch_85">
    <path d="M 577.210792 197.08 
L 581.783888 197.08 
L 581.783888 195.90615 
L 577.210792 195.90615 
z
" clip-path="url(#p5ca3cddd9f)" style="fill: #87ceeb; opacity: 0.8"/>
   </g>
   <g id="patch_86">
    <path d="M 581.783888 197.08 
L 586.356984 197.08 
L 586.356984 196.167006 
L 581.783888 196.167006 
z
" clip-path="url(#p5ca3cddd9f)" style="fill: #87ceeb; opacity: 0.8"/>
   </g>
   <g id="patch_87">
    <path d="M 586.356984 197.08 
L 590.930081 197.08 
L 590.930081 196.558289 
L 586.356984 196.558289 
z
" clip-path="url(#p5ca3cddd9f)" style="fill: #87ceeb; opacity: 0.8"/>
   </g>
   <g id="patch_88">
    <path d="M 590.930081 197.08 
L 595.503177 197.08 
L 595.503177 196.623503 
L 590.930081 196.623503 
z
" clip-path="url(#p5ca3cddd9f)" style="fill: #87ceeb; opacity: 0.8"/>
   </g>
   <g id="patch_89">
    <path d="M 595.503177 197.08 
L 600.076273 197.08 
L 600.076273 196.884358 
L 595.503177 196.884358 
z
" clip-path="url(#p5ca3cddd9f)" style="fill: #87ceeb; opacity: 0.8"/>
   </g>
   <g id="patch_90">
    <path d="M 600.076273 197.08 
L 604.649382 197.08 
L 604.649382 196.884358 
L 600.076273 196.884358 
z
" clip-path="url(#p5ca3cddd9f)" style="fill: #87ceeb; opacity: 0.8"/>
   </g>
   <g id="patch_91">
    <path d="M 604.649382 197.08 
L 609.222479 197.08 
L 609.222479 197.014786 
L 604.649382 197.014786 
z
" clip-path="url(#p5ca3cddd9f)" style="fill: #87ceeb; opacity: 0.8"/>
   </g>
   <g id="patch_92">
    <path d="M 609.222479 197.08 
L 613.795575 197.08 
L 613.795575 197.08 
L 609.222479 197.08 
z
" clip-path="url(#p5ca3cddd9f)" style="fill: #87ceeb; opacity: 0.8"/>
   </g>
   <g id="patch_93">
    <path d="M 613.795575 197.08 
L 618.368671 197.08 
L 618.368671 197.08 
L 613.795575 197.08 
z
" clip-path="url(#p5ca3cddd9f)" style="fill: #87ceeb; opacity: 0.8"/>
   </g>
   <g id="patch_94">
    <path d="M 618.368671 197.08 
L 622.941767 197.08 
L 622.941767 197.08 
L 618.368671 197.08 
z
" clip-path="url(#p5ca3cddd9f)" style="fill: #87ceeb; opacity: 0.8"/>
   </g>
   <g id="patch_95">
    <path d="M 622.941767 197.08 
L 627.514863 197.08 
L 627.514863 197.08 
L 622.941767 197.08 
z
" clip-path="url(#p5ca3cddd9f)" style="fill: #87ceeb; opacity: 0.8"/>
   </g>
   <g id="patch_96">
    <path d="M 627.514863 197.08 
L 632.087973 197.08 
L 632.087973 197.08 
L 627.514863 197.08 
z
" clip-path="url(#p5ca3cddd9f)" style="fill: #87ceeb; opacity: 0.8"/>
   </g>
   <g id="patch_97">
    <path d="M 632.087973 197.08 
L 636.661069 197.08 
L 636.661069 197.08 
L 632.087973 197.08 
z
" clip-path="url(#p5ca3cddd9f)" style="fill: #87ceeb; opacity: 0.8"/>
   </g>
   <g id="patch_98">
    <path d="M 636.661069 197.08 
L 641.234165 197.08 
L 641.234165 197.08 
L 636.661069 197.08 
z
" clip-path="url(#p5ca3cddd9f)" style="fill: #87ceeb; opacity: 0.8"/>
   </g>
   <g id="patch_99">
    <path d="M 641.234165 197.08 
L 645.807261 197.08 
L 645.807261 197.08 
L 641.234165 197.08 
z
" clip-path="url(#p5ca3cddd9f)" style="fill: #87ceeb; opacity: 0.8"/>
   </g>
   <g id="patch_100">
    <path d="M 645.807261 197.08 
L 650.380357 197.08 
L 650.380357 197.08 
L 645.807261 197.08 
z
" clip-path="url(#p5ca3cddd9f)" style="fill: #87ceeb; opacity: 0.8"/>
   </g>
   <g id="patch_101">
    <path d="M 650.380357 197.08 
L 654.953453 197.08 
L 654.953453 197.08 
L 650.380357 197.08 
z
" clip-path="url(#p5ca3cddd9f)" style="fill: #87ceeb; opacity: 0.8"/>
   </g>
   <g id="patch_102">
    <path d="M 654.953453 197.08 
L 659.526563 197.08 
L 659.526563 197.08 
L 654.953453 197.08 
z
" clip-path="url(#p5ca3cddd9f)" style="fill: #87ceeb; opacity: 0.8"/>
   </g>
   <g id="patch_103">
    <path d="M 659.526563 197.08 
L 664.099659 197.08 
L 664.099659 197.08 
L 659.526563 197.08 
z
" clip-path="url(#p5ca3cddd9f)" style="fill: #87ceeb; opacity: 0.8"/>
   </g>
   <g id="matplotlib.axis_3">
    <g id="xtick_4">
     <g id="line2d_7">
      <g>
       <use xlink:href="#m2954d74269" x="440.017841" y="197.08" style="stroke: #000000; stroke-width: 0.8"/>
      </g>
     </g>
     <g id="text_10">
      <!-- 0 -->
      <g transform="translate(433.344716 221.25875) scale(0.24 -0.24)">
       <use xlink:href="#ArialMT-30"/>
      </g>
     </g>
    </g>
    <g id="xtick_5">
     <g id="line2d_8">
      <g>
       <use xlink:href="#m2954d74269" x="552.05875" y="197.08" style="stroke: #000000; stroke-width: 0.8"/>
      </g>
     </g>
     <g id="text_11">
      <!-- 1 -->
      <g transform="translate(545.385625 221.25875) scale(0.24 -0.24)">
       <use xlink:href="#ArialMT-31"/>
      </g>
     </g>
    </g>
    <g id="xtick_6">
     <g id="line2d_9">
      <g>
       <use xlink:href="#m2954d74269" x="664.099659" y="197.08" style="stroke: #000000; stroke-width: 0.8"/>
      </g>
     </g>
     <g id="text_12">
      <!-- 2 -->
      <g transform="translate(657.426534 221.25875) scale(0.24 -0.24)">
       <use xlink:href="#ArialMT-32"/>
      </g>
     </g>
    </g>
    <g id="text_13">
     <!-- Mean non-zero activation (Log$_{10}$) -->
     <g transform="translate(470.82375 238.05875) scale(0.11 -0.11)">
      <use xlink:href="#ArialMT-4d" transform="translate(0 0.203125)"/>
      <use xlink:href="#ArialMT-65" transform="translate(83.300781 0.203125)"/>
      <use xlink:href="#ArialMT-61" transform="translate(138.916016 0.203125)"/>
      <use xlink:href="#ArialMT-6e" transform="translate(194.53125 0.203125)"/>
      <use xlink:href="#ArialMT-20" transform="translate(250.146484 0.203125)"/>
      <use xlink:href="#ArialMT-6e" transform="translate(277.929688 0.203125)"/>
      <use xlink:href="#ArialMT-6f" transform="translate(333.544922 0.203125)"/>
      <use xlink:href="#ArialMT-6e" transform="translate(389.160156 0.203125)"/>
      <use xlink:href="#ArialMT-2d" transform="translate(444.775391 0.203125)"/>
      <use xlink:href="#ArialMT-7a" transform="translate(478.076172 0.203125)"/>
      <use xlink:href="#ArialMT-65" transform="translate(528.076172 0.203125)"/>
      <use xlink:href="#ArialMT-72" transform="translate(583.691406 0.203125)"/>
      <use xlink:href="#ArialMT-6f" transform="translate(616.992188 0.203125)"/>
      <use xlink:href="#ArialMT-20" transform="translate(672.607422 0.203125)"/>
      <use xlink:href="#ArialMT-61" transform="translate(700.390625 0.203125)"/>
      <use xlink:href="#ArialMT-63" transform="translate(756.005859 0.203125)"/>
      <use xlink:href="#ArialMT-74" transform="translate(806.005859 0.203125)"/>
      <use xlink:href="#ArialMT-69" transform="translate(833.789062 0.203125)"/>
      <use xlink:href="#ArialMT-76" transform="translate(856.005859 0.203125)"/>
      <use xlink:href="#ArialMT-61" transform="translate(906.005859 0.203125)"/>
      <use xlink:href="#ArialMT-74" transform="translate(961.621094 0.203125)"/>
      <use xlink:href="#ArialMT-69" transform="translate(989.404297 0.203125)"/>
      <use xlink:href="#ArialMT-6f" transform="translate(1011.621094 0.203125)"/>
      <use xlink:href="#ArialMT-6e" transform="translate(1067.236328 0.203125)"/>
      <use xlink:href="#ArialMT-20" transform="translate(1122.851562 0.203125)"/>
      <use xlink:href="#ArialMT-28" transform="translate(1150.634766 0.203125)"/>
      <use xlink:href="#ArialMT-4c" transform="translate(1183.935547 0.203125)"/>
      <use xlink:href="#ArialMT-6f" transform="translate(1239.550781 0.203125)"/>
      <use xlink:href="#ArialMT-67" transform="translate(1295.166016 0.203125)"/>
      <use xlink:href="#DejaVuSans-31" transform="translate(1351.738281 -16.203125) scale(0.7)"/>
      <use xlink:href="#DejaVuSans-30" transform="translate(1396.274414 -16.203125) scale(0.7)"/>
      <use xlink:href="#ArialMT-29" transform="translate(1443.544922 0.203125)"/>
     </g>
    </g>
   </g>
   <g id="matplotlib.axis_4">
    <g id="ytick_4">
     <g id="line2d_10">
      <g>
       <use xlink:href="#m6d82ad7119" x="428.81375" y="197.08" style="stroke: #000000; stroke-width: 0.8"/>
      </g>
     </g>
     <g id="text_14">
      <!-- 0 -->
      <g transform="translate(408.4675 205.669375) scale(0.24 -0.24)">
       <use xlink:href="#ArialMT-30"/>
      </g>
     </g>
    </g>
    <g id="ytick_5">
     <g id="line2d_11">
      <g>
       <use xlink:href="#m6d82ad7119" x="428.81375" y="131.866118" style="stroke: #000000; stroke-width: 0.8"/>
      </g>
     </g>
     <g id="text_15">
      <!-- 1000 -->
      <g transform="translate(368.42875 140.455493) scale(0.24 -0.24)">
       <use xlink:href="#ArialMT-31"/>
       <use xlink:href="#ArialMT-30" transform="translate(55.615234 0)"/>
       <use xlink:href="#ArialMT-30" transform="translate(111.230469 0)"/>
       <use xlink:href="#ArialMT-30" transform="translate(166.845703 0)"/>
      </g>
     </g>
    </g>
    <g id="ytick_6">
     <g id="line2d_12">
      <g>
       <use xlink:href="#m6d82ad7119" x="428.81375" y="66.652236" style="stroke: #000000; stroke-width: 0.8"/>
      </g>
     </g>
     <g id="text_16">
      <!-- 2000 -->
      <g transform="translate(368.42875 75.241611) scale(0.24 -0.24)">
       <use xlink:href="#ArialMT-32"/>
       <use xlink:href="#ArialMT-30" transform="translate(55.615234 0)"/>
       <use xlink:href="#ArialMT-30" transform="translate(111.230469 0)"/>
       <use xlink:href="#ArialMT-30" transform="translate(166.845703 0)"/>
      </g>
     </g>
    </g>
    <g id="text_17">
     <!-- Frequency -->
     <g transform="translate(362.113594 128.123203) rotate(-90) scale(0.11 -0.11)">
      <use xlink:href="#ArialMT-46"/>
      <use xlink:href="#ArialMT-72" transform="translate(61.083984 0)"/>
      <use xlink:href="#ArialMT-65" transform="translate(94.384766 0)"/>
      <use xlink:href="#ArialMT-71" transform="translate(150 0)"/>
      <use xlink:href="#ArialMT-75" transform="translate(205.615234 0)"/>
      <use xlink:href="#ArialMT-65" transform="translate(261.230469 0)"/>
      <use xlink:href="#ArialMT-6e" transform="translate(316.845703 0)"/>
      <use xlink:href="#ArialMT-63" transform="translate(372.460938 0)"/>
      <use xlink:href="#ArialMT-79" transform="translate(422.460938 0)"/>
     </g>
    </g>
   </g>
   <g id="patch_104">
    <path d="M 428.81375 197.08 
L 428.81375 7.2 
" style="fill: none; stroke: #ffffff; stroke-width: 0.8; stroke-linejoin: miter; stroke-linecap: square"/>
   </g>
   <g id="patch_105">
    <path d="M 428.81375 197.08 
L 675.30375 197.08 
" style="fill: none; stroke: #ffffff; stroke-width: 0.8; stroke-linejoin: miter; stroke-linecap: square"/>
   </g>
   <g id="text_18">
    <!-- Eukaryotic -->
    <g style="fill: #4a90d9" transform="translate(606.959875 25.283375) scale(0.12 -0.12)">
     <defs>
      <path id="ArialMT-45" d="M 506 0 
L 506 4581 
L 3819 4581 
L 3819 4041 
L 1113 4041 
L 1113 2638 
L 3647 2638 
L 3647 2100 
L 1113 2100 
L 1113 541 
L 3925 541 
L 3925 0 
L 506 0 
z
" transform="scale(0.015625)"/>
     </defs>
     <use xlink:href="#ArialMT-45"/>
     <use xlink:href="#ArialMT-75" transform="translate(66.699219 0)"/>
     <use xlink:href="#ArialMT-6b" transform="translate(122.314453 0)"/>
     <use xlink:href="#ArialMT-61" transform="translate(172.314453 0)"/>
     <use xlink:href="#ArialMT-72" transform="translate(227.929688 0)"/>
     <use xlink:href="#ArialMT-79" transform="translate(261.230469 0)"/>
     <use xlink:href="#ArialMT-6f" transform="translate(311.230469 0)"/>
     <use xlink:href="#ArialMT-74" transform="translate(366.845703 0)"/>
     <use xlink:href="#ArialMT-69" transform="translate(394.628906 0)"/>
     <use xlink:href="#ArialMT-63" transform="translate(416.845703 0)"/>
    </g>
   </g>
  </g>
 </g>
 <defs>
  <clipPath id="p0b1cde0aee">
   <rect x="81.77375" y="7.2" width="246.49" height="189.88"/>
  </clipPath>
  <clipPath id="p5ca3cddd9f">
   <rect x="428.81375" y="7.2" width="246.49" height="189.88"/>
  </clipPath>
 </defs>
</svg>
